<?xml version="1.0" encoding="UTF-8" standalone="no"?>
<svg
   xmlns:dc="http://purl.org/dc/elements/1.1/"
   xmlns:cc="http://creativecommons.org/ns#"
   xmlns:rdf="http://www.w3.org/1999/02/22-rdf-syntax-ns#"
   xmlns:svg="http://www.w3.org/2000/svg"
   xmlns="http://www.w3.org/2000/svg"
   version="1.1"
   id="svg2"
   viewBox="0 0 4968.8524 4102.6228"
   height="1157.8513mm"
   width="1402.3206mm">
  <defs
     id="defs4" />
  <metadata
     id="metadata7">
    <rdf:RDF>
      <cc:Work
         rdf:about="">
        <dc:format>image/svg+xml</dc:format>
        <dc:type
           rdf:resource="http://purl.org/dc/dcmitype/StillImage" />
        <dc:title></dc:title>
      </cc:Work>
    </rdf:RDF>
  </metadata>
  <g
     transform="translate(4927.4953,1993.815)"
     id="layer1">
    <g
       transform="matrix(1.1582157,0,0,1.1669562,-1405.1236,-43.532722)"
       id="g4293">
      <g
         transform="matrix(1.6150195,0,0,1.5671712,-1088.5989,-720.93143)"
         id="g4311">
        <g
           id="g4329">
          <path
             style="fill:#ff55dd;fill-rule:evenodd;stroke:#000000;stroke-width:9;stroke-linecap:round;stroke-linejoin:round;stroke-miterlimit:4;stroke-dasharray:none;stroke-opacity:1"
             d="m -531.42857,1040.9336 c 81.45679,111.9515 110.09771,257.3958 210.42025,358.169 55.39126,139.2332 165.49128,128.454 221.47152,32.4385 43.050608,-73.8391 -2.10867,-184.7848 -91.89177,-233.4646 -63.01469,-55.5067 -166.01867,-166.6982 -99.59676,-250.31125 58.91286,-43.82446 161.93397,-45.31715 250.029348,-35.95916 92.98783,53.12987 101.886813,186.89151 99.406313,289.96981 4.551952,101.972 -30.716454,215.9367 35.875383,290.5863 95.893106,63.7513 218.827506,25.7888 222.361896,-81.8679 -3.7885,-102.8774 72.62462,-162.5572 53.75539,-273.3429 2.15021,-129.629 -84.89686,-208.9893 -169.02137,-261.53363 -57.87072,-24.69995 23.58437,3.69697 -47.09592,-26.11271 -92.195804,-71.07561 -222.948816,-58.09118 -337.14285,-48.57143 -118.24811,41.17319 -248.73923,98.12507 -314.28572,211.42857 -12.15379,14.185 -14.83896,36.3773 -34.28571,28.5714 z"
             id="path4186" />
          <path
             style="fill:#550044;fill-rule:evenodd;stroke:#000000;stroke-width:9;stroke-linecap:round;stroke-linejoin:round;stroke-miterlimit:4;stroke-dasharray:none;stroke-opacity:1"
             d="M 51.428571,483.79078 C 160.72252,404.32273 276.10503,254.62016 413.52546,243.2424 c 108.2664,-11.84416 245.26004,11.96712 347.71505,55.91564 90.08699,71.32369 177.48053,156.65493 269.57619,225.39832 90.4988,96.22923 296.3262,203.01316 296.3262,203.01316 57.076,16.34557 154.3851,58.8103 99.4564,141.0876 -25.1611,93.99059 -123.388,170.71938 -132.1434,20.29718 -35.8891,-34.45122 -185.004,-117.3155 -164.0572,-103.26639 53.9534,127.42095 108.7041,255.27019 161.3175,380.33429 22.1274,7.7081 -102.0772,148.0284 -133.4639,12.559 C 1102.8019,1039.1785 1008.079,916.53683 938.66761,782.58435 907.0574,733.05985 813.00947,624.98502 866.28788,749.87408 c 33.87998,77.75879 11.37388,66.16342 41.07167,154.42609 63.96138,151.94183 107.85675,311.51133 164.75275,465.65393 1.9528,55.7319 153.5138,123.5739 35.7748,105.162 C 994.35195,1439.8759 961.03701,1273.4755 871.93375,1194.1594 859.34129,1108.0645 804.86746,1037.6255 776.43484,959.28271 732.46536,906.3487 716.06844,792.08886 711.22283,803.98528 647.40921,740.60294 637.16297,620.02637 531.16106,588.54708 449.70623,551.71496 333.51146,524.10336 230.7231,549.442 146.72585,643.30673 75.777596,543.75332 45.714286,469.50506"
             id="path4202" />
          <path
             style="fill:#ff0066;fill-rule:evenodd;stroke:#000000;stroke-width:9;stroke-linecap:round;stroke-linejoin:round;stroke-miterlimit:4;stroke-dasharray:none;stroke-opacity:1"
             d="m -877.14286,258.07649 c -52.71802,83.53815 -44.38194,255.11613 93.99344,203.20681 107.51657,-25.643 130.70912,-224.80658 13.55757,-244.71337 -49.31619,-10.62276 -104.87063,2.51716 -107.55101,41.50656 z"
             id="path4188" />
          <path
             style="fill:#d40055;fill-rule:evenodd;stroke:#000000;stroke-width:9;stroke-linecap:round;stroke-linejoin:round;stroke-miterlimit:4;stroke-dasharray:none;stroke-opacity:1"
             d="m -825.71429,440.93363 c -101.7307,3.89489 -5.16504,-182.9744 42.89707,-65.65126 16.35926,29.47983 -14.7268,86.54377 -42.89707,65.65126 z"
             id="path4190" />
          <path
             style="fill:#9955ff;fill-rule:evenodd;stroke:#000000;stroke-width:9;stroke-linecap:round;stroke-linejoin:round;stroke-miterlimit:4;stroke-dasharray:none;stroke-opacity:1"
             d="m 82.469244,491.57134 c 32.483416,-6.50253 62.298466,-24.65553 96.042696,-24.01302 33.081,-1.10588 65.55523,-26.63428 101.9162,-32.239 37.86713,-11.16676 57.11992,-110.27469 97.14911,-114.60111 42.12503,2.77164 107.64714,-9.73194 148.51076,-11.99418 38.70707,-12.68788 88.41571,41.13364 127.93205,43.11753 34.954,10.48661 52.82914,50.06847 88.08247,60.12382 41.96863,12.97715 84.12725,24.84708 123.33465,45.27352 30.51495,8.75365 83.28313,50.04439 83.28313,50.04439 0,0 -91.29024,-11.39443 -132.61621,-23.00923 26.6714,18.65197 55.05218,36.62743 80.32451,57.77704 3.63367,-88.15971 90.971,113.26814 90.971,113.26814 36.60109,22.54285 133.77199,93.19349 91.62289,88.3484 0,0 -74.6344,-27.96172 -106.0886,-76.95733 -40.34519,-36.37965 -95.31316,-43.44805 -145.26151,-58.07914 -21.53168,-10.68014 -63.66694,-23.6633 -69.89122,-38.90195 23.35109,20.24484 49.34563,47.49633 60.31431,77.9664 -2.32291,47.46507 23.88228,104.11501 14.37462,151.69481 -8.7152,16.04017 -6.21695,118.89118 -18.73372,110.06828 -40.21396,-28.34627 -38.09127,-150.40089 -52.67314,-188.06495 -1.29963,-39.782 -32.52559,-65.94336 -54.15862,-95.8268 -25.8077,-26.56123 -47.58711,-62.87712 -87.59335,-68.30166 -37.44234,-9.79519 -69.45983,-33.05375 -103.09286,-49.27355 -38.94152,-10.34577 -79.38967,-11.09038 -118.89155,-20.16089 -31.78312,-4.77825 -65.33812,-10.58073 -98.51425,-7.60675 -39.58346,7.85697 -81.60329,10.14808 -122.0928,23.12855 -31.10759,18.93255 -70.58754,33.7358 -104.056781,32.58325 -1.620006,-17.96429 -0.755014,-31.36005 9.806215,-44.36457 z"
             id="path4224" />
          <path
             style="fill:#ff80e5;fill-rule:evenodd;stroke:#000000;stroke-width:9;stroke-linecap:round;stroke-linejoin:round;stroke-miterlimit:4;stroke-dasharray:none;stroke-opacity:1"
             d="m -354.28571,466.64792 c 122.43255,-1.9464 244.75696,-21.1236 365.502539,-35.4848 102.417871,-3.17285 206.156141,51.38624 250.740031,143.73809 34.40008,76.16657 54.10897,183.6388 93.8485,274.50133 35.96726,121.78681 114.96801,223.88276 171.30544,337.20936 51.40631,111.2809 143.82352,204.1708 157.81525,329.9854 80.14961,113.6598 -99.88872,117.1074 -184.2262,115.6015 C 323.05788,1638.1156 313.10613,1521.4686 325.37911,1404.8409 320.3799,1295.4169 309.57907,1184.5857 280,1080.9336 244.60529,977.72872 123.21987,953.04194 22.857143,966.64792 c -101.273656,1.63938 -160.410583,84.17488 -271.691503,80.55358 -68.66438,14.6488 -223.27928,-70.57195 -156.8588,64.5412 39.56216,118.7718 43.31871,257.0511 24.58214,378.0962 22.09833,113.4999 -210.07272,140.2678 -181.74612,19.6662 -11.71012,-104.0668 -35.75794,-225.5005 -55.99733,-317.065 -9.11452,-106.9108 -23.44943,-207.66873 -82.43253,-291.86169 -56.238,-59.84839 -52.47325,-186.7051 -53.05516,-275.63762 4.78915,-74.37442 17.98043,-210.64777 -94.22927,-132.57859 -73.88793,26.62201 -192.33367,-34.57788 -56.26758,-50.17987 81.11399,-17.70699 170.61274,-206.80387 108.17212,-215.92012 -68.11541,105.92947 -212.58951,158.95307 -326.02611,90.9471 -12.1877,-100.9033 21.4347,-189.8206 95.5976,-260.636049 45.74256,-55.74391807 36.35677,-167.774931 50.72293,-258.186721 15.87722,-96.05993 -87.81103,-223.06706 29.29148,-269.74689 69.42373,-31.62331 194.64912,-31.75695 287.08099,-41.99173 103.61898,12.60354 182.0533,39.56167 270.45256,87.71753 90.97047,58.08705 96.21175,143.29647 120.83067,236.98627 7.03277,114.895246 31.25699,235.026042 -13.42403,346.44957 -16.43132,108.50006 -18.8519,204.12212 -68.0676,295.66961 l -2.43725,2.84772 -1.64006,10.3293 z"
             id="path4182" />
          <path
             style="fill:#550044;fill-rule:evenodd;stroke:#000000;stroke-width:9;stroke-linecap:round;stroke-linejoin:round;stroke-miterlimit:4;stroke-dasharray:none;stroke-opacity:1"
             d="m -1025.554,-79.647197 c 95.41096,-28.742203 452.08111,-243.254403 488.47962,-115.693373 69.45019,77.4088 29.92709,151.633235 68.38141,223.296513 13.71855,76.786787 7.55057,177.644307 -8.79514,250.004367 -0.1505,117.17748 -66.77556,168.66026 -94.02033,284.40702 -80.91634,27.07058 -135.60029,288.18882 18.86405,257.73478 40.52269,-102.6556 97.61733,66.3453 36.29279,111.16559 -94.34587,100.168 104.45663,139.4348 81.57846,24.50124 -33.92533,-55.73561 40.16956,-169.79105 35.76395,-52.85812 -30.00911,90.6787 50.96652,107.77248 79.52025,16.91938 41.17045,-129.03759 101.69377,-237.62926 101.6073,-376.25206 27.5918,-88.74719 22.72255,-202.20702 90.12075,-267.30506 -1.64679,-93.38426 -59.84646,-192.22914 -39.99903,-311.948737 -51.50138,-102.810283 42.86547,-323.058113 -86.87564,-396.031483 -95.5001,-46.39193 -158.88099,-122.40323 -263.07494,-152.91619 -107.52688,-51.65835 -243.13003,25.70952 -339.88045,60.92893 28.60524,-17.79132 -326.70055,171.37225 -291.58495,161.05142 -151.9625,93.13377 49.2008,345.255883 123.6219,282.995783 z"
             id="path4198" />
          <path
             style="fill:#000000;fill-opacity:1;fill-rule:evenodd;stroke:#000000;stroke-width:6.63752317;stroke-linecap:round;stroke-linejoin:round;stroke-miterlimit:4;stroke-dasharray:none;stroke-opacity:1"
             d="m -711.19152,-117.60551 c 6.42832,-10.36309 19.90574,-16.61144 21.79483,-29.36217 4.54731,-11.76415 5.26022,-27.65191 15.55737,-35.76326 -2.18541,13.67778 -1.06555,28.05127 -5.60072,41.45551 8.27398,-11.36648 21.54732,-17.84739 31.61622,-27.49428 3.44745,-5.79347 17.04077,-22.6118 10.70674,-6.46984 -9.74457,8.83282 -12.4958,20.52402 -17.25139,31.7384 -4.16752,9.62831 -1.64591,19.92544 9.12639,8.75536 13.01252,-10.06896 18.8063,-25.2836 30.35241,-36.37571 10.84949,-4.18417 -3.81835,14.7286 -4.83982,20.62952 -3.18968,4.73379 -15.10744,25.51273 -5.2223,21.43266 4.19801,-14.11878 29.7321,-16.51152 36.13728,-16.55587 -9.26243,10.9176 -20.39808,20.3591 -28.45709,32.11867 -13.87706,16.707536 18.36994,8.65635 27.67033,11.31267 7.49421,3.863324 18.5882,-9.33701 7.19425,-1.96861 -8.58554,10.303398 -21.5056,16.674454 -29.89818,26.925004 -6.23957,13.517479 -24.20542,18.95839 -38.53811,12.144651 -13.69187,-6.544985 -23.7286,-17.935404 -37.92547,-23.999754 -13.23459,-3.315617 -17.48371,-20.111091 -24.15673,-25.686951 0.34326,-1.04064 1.18157,-1.88327 1.73399,-2.836 z"
             id="path4265" />
          <path
             style="fill:#f7f1f6;fill-opacity:1;fill-rule:evenodd;stroke:#000000;stroke-width:12.01863861;stroke-linecap:round;stroke-linejoin:round;stroke-miterlimit:4;stroke-dasharray:none;stroke-opacity:1"
             d="m -766.46731,161.89502 c 149.185,85.47515 207.73422,-201.582742 122.81943,-294.85285 -123.52009,-95.32231 -201.36558,108.732607 -203.71802,205.052545 -0.98369,40.276775 45.94102,69.771455 80.89859,89.800305 z"
             id="path4192" />
          <path
             style="fill:#a95f99;fill-opacity:1;fill-rule:evenodd;stroke:#000000;stroke-width:14.02981281;stroke-linecap:round;stroke-linejoin:round;stroke-miterlimit:4;stroke-dasharray:none;stroke-opacity:1"
             d="m -702.76389,-91.719186 c -145.20378,23.096121 -83.45948,284.390236 36.64736,224.099206 55.17044,-50.638004 64.02891,-193.140094 -36.64736,-224.099206 z"
             id="path4194" />
          <path
             style="fill:#00002b;fill-rule:evenodd;stroke:#000000;stroke-width:12.4347868;stroke-linecap:round;stroke-linejoin:round;stroke-miterlimit:4;stroke-dasharray:none;stroke-opacity:1"
             d="m -698.581,-80.184265 c -77.5983,59.444241 -60.0387,303.359685 36.76923,149.10126 45.792,-56.683045 22.64243,-134.165841 -36.76923,-149.10126 z"
             id="path4196" />
          <path
             style="opacity:1;fill:#9955ff;fill-opacity:1;stroke:#7b4379;stroke-width:9;stroke-linecap:round;stroke-linejoin:round;stroke-miterlimit:4;stroke-dasharray:none;stroke-opacity:1"
             id="path4228"
             d="m 113.10067,738.97909 -55.744088,-45.7744 -69.310034,19.97044 26.308169,-67.16084 -40.411,-59.74656 72.003432,4.26671 44.334662,-56.89584 18.192399,69.79782 67.81133,24.58299 -60.75991,38.87071 z" />
          <ellipse
             style="opacity:1;fill:#ffffff;fill-opacity:1;stroke:none;stroke-width:9;stroke-linecap:round;stroke-linejoin:round;stroke-miterlimit:4;stroke-dasharray:none;stroke-opacity:1"
             id="path4252"
             cx="-682.27045"
             cy="-6.6221008"
             rx="34.095573"
             ry="41.038147" />
          <ellipse
             ry="14.278697"
             rx="14.515487"
             cy="51.465488"
             cx="-707.07196"
             id="ellipse4263"
             style="opacity:1;fill:#ffffff;fill-opacity:1;stroke:none;stroke-width:9;stroke-linecap:round;stroke-linejoin:round;stroke-miterlimit:4;stroke-dasharray:none;stroke-opacity:1" />
          <path
             id="path4284"
             d="m -1084.6592,279.00833 c -27.9703,2.11972 -1.4201,-99.58042 11.7943,-35.72948 4.498,16.04386 3.6071,47.09985 -11.7943,35.72948 z"
             style="fill:#27131a;fill-opacity:1;fill-rule:evenodd;stroke:#000000;stroke-width:9;stroke-linecap:round;stroke-linejoin:round;stroke-miterlimit:4;stroke-dasharray:none;stroke-opacity:1" />
          <path
             style="fill:#9955ff;fill-opacity:1;fill-rule:evenodd;stroke:#000000;stroke-width:9;stroke-linecap:round;stroke-linejoin:round;stroke-miterlimit:4;stroke-dasharray:none;stroke-opacity:1"
             d="m -810.29803,-481.30533 c -63.53271,97.86855 -265.91057,94.26474 -295.16767,172.84605 78.5409,8.28416 189.62953,-92.00632 237.55249,-61.01457 -81.41162,49.72122 -167.77809,37.26693 -181.55199,132.36188 48.0785,-5.42542 245.13861,-81.6655 129.35831,9.26593 -40.56346,33.31459 -59.60168,101.21107 10.00612,45.584 135.01333,-70.64247 134.50657,-83.06995 284.51333,-105.30822 91.92315,-5.12389 323.5805,4.41439 405.62254,40.44099 95.68965,6.07553 -77.38633,-56.71631 -91.82847,-57.51227 -45.28793,-16.23893 -212.31443,-32.80791 -153.89689,-82.27821 37.58901,16.6492 215.37032,29.60923 108.01937,-15.96063 -99.91017,-18.23016 -185.97245,-74.29176 -285.58154,-91.24016 -55.37038,-10.43016 -114.8829,-11.21995 -167.0456,12.81521 z"
             id="path4286" />
        </g>
      </g>
    </g>
  </g>
</svg>
