<?xml version="1.0" encoding="UTF-8" standalone="no"?>
<!-- Created with Inkscape (http://www.inkscape.org/) -->
<svg xmlns:inkscape="http://www.inkscape.org/namespaces/inkscape" xmlns:rdf="http://www.w3.org/1999/02/22-rdf-syntax-ns#" xmlns="http://www.w3.org/2000/svg" xmlns:sodipodi="http://sodipodi.sourceforge.net/DTD/sodipodi-0.dtd" xmlns:cc="http://web.resource.org/cc/" xmlns:xlink="http://www.w3.org/1999/xlink" xmlns:dc="http://purl.org/dc/elements/1.1/" xmlns:svg="http://www.w3.org/2000/svg" xmlns:ns1="http://sozi.baierouge.fr" id="svg2" sodipodi:docname="papapishu_Baby_girl_sitting.svg" inkscape:export-filename="D:\Documents and Settings\Joanna\My Documents\My Pictures\graph_vector\baby_girl_crawling_1.png" viewBox="0 0 552.73 761.76" sodipodi:version="0.32" inkscape:export-xdpi="152" version="1.0" inkscape:output_extension="org.inkscape.output.svg.inkscape" inkscape:export-ydpi="152" inkscape:version="0.45.1" sodipodi:docbase="D:\Documents and Settings\Joanna\My Documents\My Pictures\graph_vector">
  <defs id="defs4">
    <linearGradient id="linearGradient7416" inkscape:collect="always">
      <stop id="stop7418" style="stop-color:#daab9b" offset="0"/>
      <stop id="stop7420" style="stop-color:#daab9b;stop-opacity:0" offset="1"/>
    </linearGradient>
    <radialGradient id="radialGradient3973" xlink:href="#linearGradient7416" gradientUnits="userSpaceOnUse" cy="400.22" cx="119.29" r="52.143" inkscape:collect="always"/>
  </defs>
  <sodipodi:namedview id="base" gridspacingy="2px" gridspacingx="2px" inkscape:zoom="0.76447926" height="750px" borderopacity="1.0" inkscape:current-layer="layer4" inkscape:cx="344.98361" inkscape:cy="293.50002" borderlayer="true" inkscape:grid-bbox="false" showgrid="true" width="750px" inkscape:document-units="px" bordercolor="#666666" inkscape:window-x="154" guidetolerance="10" objecttolerance="10" inkscape:window-y="22" inkscape:window-width="836" inkscape:pageopacity="0.0" inkscape:pageshadow="2" pagecolor="#ffffff" gridtolerance="1" inkscape:window-height="968"/>
  <g id="layer4" inkscape:label="najwyz" inkscape:groupmode="layer" transform="translate(-126.13 52.897)">
    <path id="path15659" sodipodi:nodetypes="cccssccsscsss" style="fill-rule:evenodd;fill:#000000" d="m325.47 354.22c-40.11 15.43-96.12 36-96.28 115.56 2.44 57.5 36.51 58.15 69.42 66.65-61.64-12.94-161.76-24.09-172.04 51.82-8.49 62.7 108.67 102.68 135.67 105.38 49.73 4.96 75.19-5.62 71.93-49.61 65.15 25.31 106.53 12.88 149.46-1.31 1.04 50.97 35 49.31 64.74 48.33 81.84-2.65 121.92-42.69 129.61-86.98 11.39-65.51-91.24-82.19-155.37-67.63 50.59-4.82 73.67-20 74.06-79.61 0.42-63.32-52.48-100.43-118.47-111.86-63.65-11.03-122.06-2.54-152.73 9.26z"/>
    <path id="path19543" sodipodi:nodetypes="ccccc" style="fill-rule:evenodd;fill:#000000" d="m272.45 531.16c7.12 27.18 18.72 49.23 8.72 95.97 98.2 57.46 178.93 41.15 254 0.97-9.88-39.09 10.73-66.74 19.39-98.88-105.2 24.36-197.57 21.47-282.11 1.94z"/>
    <path id="path12728" sodipodi:nodetypes="cccssccsscsss" style="fill-rule:evenodd;fill:#e8cdba" d="m324.14 358.9c-39.39 15.16-90.76 33.54-90.92 111.68 2.4 56.47 39.49 58.02 70 70-60.54-12.71-162.5-25.48-172.6 49.07-8.34 61.58 106.09 98.28 132.6 100.93 48.84 4.87 73.2-6.8 70-50 63.98 24.85 107.84 13.93 150 0 5.25 44.79 22.24 56.4 51.31 53.46 95.39-9.65 135.22-45.92 140.36-89.76 8.41-71.68-107.78-77.09-171.67-63.7 47.87-7.01 92.05-19.59 90-80-2.39-70.28-54.27-100.45-119.08-111.68-62.51-10.83-119.87-1.59-150 10z"/>
    <path id="path18572" sodipodi:nodetypes="ccccc" style="fill-rule:evenodd;fill:#ffffff" transform="translate(45.835 -6.5955)" d="m233.09 541.1c6.79 25.93 17.86 46.97 8.32 91.57 93.69 54.81 170.71 39.26 242.34 0.92-9.43-37.29 10.23-63.68 18.5-94.34-100.37 23.24-188.5 20.48-269.16 1.85z"/>
    <path id="path16632" sodipodi:nodetypes="ccccccccc" style="fill-rule:evenodd;fill:#000000" d="m296.36 362.95c-46.26 14.47-65.99 49.57-90.49 80.97 18.64 33.82 60.06 42.35 100.97 51.44l-21.91 51.44c125.47 37.23 192.19 19.08 247.56-3.76l-17.14-52.47c44.62 0.38 77.1-14.65 103.94-44.75-31.07-33.08-39.11-76.24-106.69-93.35-58.24-27.58-145.64-22.13-216.24 10.48z"/>
    <path id="path16630" sodipodi:nodetypes="ccsccccsccc" style="fill-rule:evenodd;fill:#db9595" transform="translate(45.835 -6.5955)" d="m255.29 370.91c-44.92 14.05-64.08 48.14-87.87 78.62 11.67 25.57 41.94 34.55 85.39 47.06 18.02 5.19-5.9-44.69 13.96-57.29l-22.58 110.12c121.82 36.15 183.01 20.33 236.79-1.85l-15.35-109.89c15.13 15.88 1.06 61.6 19.5 57.84 34.46-7.03 70.68-29.53 83.72-44.14-30.17-32.13-37.98-74.03-103.6-90.65-56.55-26.77-141.42-21.49-209.96 10.18z"/>
    <g id="g14672" transform="translate(2.6162 1.3081)">
      <path id="path12732" sodipodi:nodetypes="ccscscscsss" style="fill-rule:evenodd;fill:#000000" d="m320.9 684.67c21.36-19.15 18.48-53.47-15.24-91.27-21.71-23.34-53.11-77.77-76.39-59.7-14.05 10.9-6.89 20.06-2.81 26.23-5.03-4.51-11.37-13.77-24.01-2.87-13.26 11.42-6.76 18.97-2.35 24.21-4.35-3.42-11.67-9.87-23.06 0.06-11.24 9.8-2.44 21.58 1.15 24.6-4.16-1.42-7.6-6.77-16.6 3.92-8.85 10.53-15.19 14.38 19.05 45.99 38.07 35.14 114.8 51.66 140.26 28.83z"/>
      <path id="path12730" sodipodi:nodetypes="ccscscscsss" style="fill-rule:evenodd;fill:#e8cdba" d="m318.61 683.19c19.86-18.11 17.79-51.18-15.38-88.15-20.18-22.07-49.06-76.7-72.77-59.25-15.82 11.65 1.62 25.78 5.38 35.38-8.87-6.06-19.34-26.34-33.7-10.93-11.59 12.44 3.19 23.33 9.24 33.88-10.07-6.69-18.77-24.5-32.77-10.93-13.55 13.14 3.16 22.43 11.33 32.08-12.1-5.58-16.74-14.61-25.78-4.85-10.43 11.25-11.83 14.73 20 44.62 35.37 33.23 110.79 49.73 134.45 28.15z"/>
    </g>
    <g id="g14676" transform="matrix(-1 0 0 1 814.95 1.917)">
      <path id="path14678" sodipodi:nodetypes="ccscscscsss" style="fill-rule:evenodd;fill:#000000" d="m320.9 684.67c21.36-19.15 18.48-53.47-15.24-91.27-21.71-23.34-53.11-77.77-76.39-59.7-14.05 10.9-6.89 20.06-2.81 26.23-5.03-4.51-11.37-13.77-24.01-2.87-13.26 11.42-6.76 18.97-2.35 24.21-4.35-3.42-11.67-9.87-23.06 0.06-11.24 9.8-2.44 21.58 1.15 24.6-4.16-1.42-7.6-6.77-16.6 3.92-8.85 10.53-15.19 14.38 19.05 45.99 38.07 35.14 114.8 51.66 140.26 28.83z"/>
      <path id="path14680" sodipodi:nodetypes="ccscscscsss" style="fill-rule:evenodd;fill:#e8cdba" d="m318.61 683.19c19.86-18.11 17.79-51.18-15.38-88.15-20.18-22.07-49.06-76.7-72.77-59.25-15.82 11.65 1.62 25.78 5.38 35.38-8.87-6.06-19.34-26.34-33.7-10.93-11.59 12.44 3.19 23.33 9.24 33.88-10.07-6.69-18.77-24.5-32.77-10.93-13.55 13.14 3.16 22.43 11.33 32.08-12.1-5.58-16.74-14.61-25.78-4.85-10.43 11.25-11.83 14.73 20 44.62 35.37 33.23 110.79 49.73 134.45 28.15z"/>
    </g>
    <path id="path14684" sodipodi:nodetypes="cscscsssssc" style="fill-rule:evenodd;fill:#000000" d="m348.3 485.81c15.44-0.17 39.07 1.47 38.51 17.62-0.55 16.09-6.15 15.33-14.49 17.1 8.66 1.22 14.19 0.65 13.41 17.1-0.73 15.43-15.61 12.96-21.35 12.84 9.99 4.14 11.95 8.54 11.85 16.45-0.16 11.09-18.13 15.88-48.28 12.96-24.59-2.39-50.36-12.48-50.56-63.42-0.13-30.8 12.9-53.8 47.1-60 17.26-3.13 39.97-1.62 45.65 5.04 9.21 10.82-3.36 21.18-21.84 24.31z"/>
    <path id="path14682" sodipodi:nodetypes="cscscsssssc" style="fill-rule:evenodd;fill:#e8cdba" d="m336.88 487.74c16.82-0.17 46.68-1.07 47.75 14.39 1.61 23.14-20.68 15.43-41.21 17.66 23.89 4.46 42.89-2.23 39.9 17.65-2.76 18.38-26.72 7.66-41.2 9.82 13.91 3.44 31.94 4.73 32.04 17.65 0.1 12.21-20.23 16.18-47.09 12.43-22.8-3.18-46.9-11.96-47.09-60.82-0.12-29.56 12.43-52.83 44.48-57.56 13.94-2.06 29.66-4.97 42.51 3.27 13.67 8.77-8.61 21.26-30.09 25.51z"/>
    <path id="path15655" sodipodi:nodetypes="cscscsssssc" style="fill-rule:evenodd;fill:#000000" d="m476.15 484.5c-15.44-0.17-39.07 1.47-38.51 17.62 0.55 16.09 6.14 15.33 14.48 17.1-8.65 1.22-14.18 0.65-13.41 17.1 0.73 15.44 15.62 12.96 21.36 12.85-10 4.13-11.96 8.53-11.85 16.44 0.15 11.09 18.12 15.88 48.27 12.96 24.6-2.39 50.36-12.47 50.57-63.41 0.12-30.81-12.9-53.81-47.1-60.01-17.27-3.13-39.97-1.62-45.65 5.05-9.22 10.81 3.36 21.18 21.84 24.3z"/>
    <path id="path15657" sodipodi:nodetypes="cscscsssssc" style="fill-rule:evenodd;fill:#e8cdba" d="m487.56 486.43c-16.81-0.16-46.68-1.07-47.74 14.39-1.62 23.14 20.68 15.43 41.2 17.66-23.88 4.47-42.88-2.22-39.89 17.66 2.76 18.38 26.72 7.65 41.2 9.81-13.92 3.44-31.95 4.73-32.05 17.66-0.09 12.2 20.23 16.17 47.09 12.42 22.81-3.18 46.9-11.96 47.09-60.82 0.12-29.55-12.43-52.83-44.47-57.56-13.95-2.06-29.67-4.97-42.51 3.27-13.67 8.77 8.61 21.26 30.08 25.51z"/>
    <g id="g4029" transform="matrix(.73767 -.016394 .015247 .68604 73.507 -131.89)">
      <path id="path3761" style="fill:#e8cdba" d="m461.59 126.19c-0.65 0.01-1.42 0.11-2.37 0.25-8.59 1.25-11.32 1.8-13.28 2.62-1.1 0.47-2.68 1.12-3.5 1.47-3.53 1.48-6.47 3.6-10.47 7.53l-4.28 4.19-6.1-3.09c-6.85-3.46-9.01-3.74-13.09-1.63-5.17 2.67-8.06 7.16-8.06 12.47 0 2.63-0.42 6.09-0.91 7.69-0.48 1.59-1.44 4.82-2.15 7.19l-1.29 4.28-5.59-5.38c-14.52-13.98-27.98-23.72-32.81-23.72-3.04 0-7.15 2.16-10.07 5.28-3.03 3.25-7.19 15.72-7.21 21.6-0.01 2.56-0.44 5.3-0.97 6.12-0.77 1.19-0.99 0.96-1-1.06-0.02-3.68-4.79-7.94-8.91-7.94-3.66 0-6.88 2.22-19.34 13.32-7.74 6.89-7.75 6.91-7.75 11.96 0 3.24 0.57 5.72 1.59 6.85 2.02 2.23 1.21 3.55-2.69 4.4-5.94 1.31-12.9 9.36-12.9 14.91 0 3.39 5.38 9.3 9.5 10.44 3.72 1.03 11.05 5.78 16.68 10.78 2.04 1.81 5.42 4.22 7.5 5.37 2.09 1.16 6.04 3.64 8.79 5.53 6.57 4.55 10.33 4.58 15.21 0.1 4.02-3.68 4.98-7.31 5.97-22.78 0.79-12.21 5.17-14.95 13.44-8.38 2.42 1.92 5 3.5 5.72 3.5 1.71 0.02-1.29 4.23-8.59 12.13-4.76 5.14-5.61 6.66-6 10.75-0.43 4.46-0.23 4.93 3.18 7.94 2.01 1.75 4.32 3.18 5.13 3.18s2.26 0.42 3.22 0.91c0.95 0.48 3.1 1.41 4.75 2.09s3.76 1.64 4.72 2.13c0.95 0.48 2.62 0.87 3.68 0.87 2.6 0 5.1 1.04 5.1 2.1 0 0.47-1.32 2.34-2.94 4.18-2.22 2.53-3.01 4.55-3.25 8.22-0.28 4.42-0.59 4.94-3.31 5.78-11.65 3.59-37.49 14.95-41.5 18.25-0.83 0.68-3.53 2.32-6 3.63-2.48 1.3-6.12 3.58-8.1 5.09-1.97 1.51-3.95 2.75-4.37 2.75-0.43 0-2.41 1.44-4.41 3.16s-5.84 4.98-8.56 7.25c-6.7 5.58-19.86 17.82-20.88 19.41-0.45 0.7-2.26 2.73-4 4.5-5.16 5.24-17.08 20.85-24.68 32.28-8.45 12.7-20.86 37.65-26.03 52.4-0.68 1.93-1.82 4.85-2.53 6.5-1.82 4.17-6.04 19.7-7.5 27.5-1.67 8.89-2.4 10-6.32 10-5.64 0-13.78 3.03-18.28 6.78-3.91 3.27-5.2 5.29-8.53 13.22-0.58 1.38-1.45 3.3-1.94 4.25-0.48 0.96-0.87 6.73-0.87 12.85 0 10.85 0.08 11.3 3.9 19.34 5.22 10.98 11.55 16.51 20.82 18.19 1.5 0.27 2.99 0.97 3.34 1.53s0.96 5.59 1.34 11.19c1.23 17.67 9.12 54.87 14.04 66.15 0.71 1.65 2.56 6.6 4.09 11s4.97 12.37 7.62 17.69c2.66 5.32 4.85 9.97 4.85 10.31s1.57 3.09 3.5 6.1c1.92 3.01 3.5 5.78 3.5 6.18 0 1.16 13.57 21.25 18 26.66 5.54 6.77 6.66 8.07 10.5 12.44 11.38 12.94 33.31 32.2 44.28 38.87 1.58 0.97 4.89 3.08 7.31 4.69 7.47 4.95 23.96 12.99 36.91 18 5.8 2.24 9.26 3.32 22 6.69 6.61 1.75 13.09 2.84 20.28 3.47 3.96 0.34 7.44 0.85 7.72 1.12 0.67 0.66 42.16-0.38 48.5-1.22 11.96-1.59 41.85-10.37 49.34-14.5 0.92-0.5 4.36-2.14 7.66-3.62 14.17-6.38 38.23-22.7 51.15-34.69 8.78-8.14 27.3-27.66 27.32-28.78 0-0.34 2.16-3.38 4.78-6.72 13.12-16.8 29.23-46.79 36.12-67.19 1.76-5.21 3.59-10.17 4.03-11 1.6-2.97 7.01-25.71 8.57-36 0.87-5.77 1.97-11.85 2.47-13.5 0.49-1.65 1.22-5.95 1.59-9.59l0.65-6.63 5.35-1.18c7.82-1.75 18.45-9.89 18.47-14.13 0-0.85 0.56-2.12 1.25-2.81 2.78-2.78 5.02-14.56 5.43-28.44 0.46-15.23-0.27-17.8-6.37-22.31-6.66-4.93-9.5-5.8-19.06-5.85-8.36-0.04-9.25-0.24-9.25-1.93-0.02-9.48-11.2-48.19-18.47-63.94-10.16-22.01-12.19-25.75-22.13-40.94-12.73-19.46-30.02-39.16-47.9-54.56-7.29-6.28-29.66-21.34-33.88-22.81-1.37-0.48 1.1-2.05 9.41-6 6.19-2.95 11.9-5.38 12.72-5.38 1.36 0 4.45-1.74 13.81-7.75 1.93-1.23 4.41-2.25 5.5-2.25 3.19 0 11.45-4.6 14.31-8 4.34-5.16 3.62-8.41-3.31-15.15-3.26-3.17-7.2-6.07-8.75-6.44s-3.49-1.24-4.31-1.94c-0.83-0.7-4.19-2.23-7.47-3.37-6.59-2.31-10.45-5.1-7.06-5.1 1.05 0 3.17-1.21 4.71-2.68 3.92-3.75 3.88-8.89-0.09-12.69-2.7-2.59-3.37-2.75-10-2.44-6.55 0.31-7.09 0.16-7.09-1.69 0-3.19 2.64-14.95 3.87-17.25 2.12-3.96 1.3-7.26-2.78-11.34-3.35-3.35-4.47-3.91-8.31-3.91-4.64 0-15.72 3.19-19.44 5.56-1.18 0.76-4.67 2.24-7.75 3.32s-6.79 2.91-8.25 4.06-2.83 1.92-3.03 1.72c-0.2-0.21 0.54-2.5 1.66-5.1 1.11-2.59 2.03-5.3 2.03-6.03 0-1.7 4.25-10.95 6.03-13.09 0.75-0.9 1.76-4.18 2.22-7.28 0.45-3.11 1.06-7.36 1.37-9.44 0.73-4.82-0.96-8.93-5.28-12.72-5.13-4.5-11.11-4.22-20.97 1-4.15 2.2-8.75 4.02-10.22 4.03-1.46 0.02-4.52 0.85-6.78 1.88-6.02 2.74-15.18 3.53-18.75 1.62-1.57-0.84-3.56-1.53-4.44-1.53-2.03 0-0.77-1.21 4.1-3.9 2.08-1.16 4.85-2.1 6.19-2.1 3.31 0 7.49-1.88 10.78-4.87 3.89-3.54 3.78-8.73-0.22-12.57-1.95-1.87-2.91-2.48-4.88-2.43zm-123.4 51.9c0.16-0.02 0.25 0.04 0.25 0.22 0 0.72-1.32 2.76-2.94 4.53-2.62 2.88-8.11 4.73-6.56 2.22 0.34-0.55 1.2-1 1.94-1 0.73 0 2.73-1.58 4.43-3.53 1.28-1.46 2.4-2.37 2.88-2.44zm54.03 13.63c1.65-0.03 2.7 0.89 5.62 3.94 4.06 4.23 4.47 4.4 10.07 4.4 4.5 0 6.89-0.58 10.37-2.62 2.48-1.46 5.97-3 7.78-3.41l3.32-0.72-0.63 5.91-0.63 5.9 4.69 4.47c2.57 2.46 5.54 4.47 6.63 4.47 2.37 0 2.39 0.04 0.5 3.66-1.94 3.72-1.9 8.67 0.09 12.53l1.59 3.09-5.59 5.63c-5.34 5.39-5.59 5.91-5.59 10.84s0.29 5.51 6.5 12.6c3.57 4.08 6.5 7.91 6.5 8.53 0 1.46-25.6 1.58-26.5 0.12-0.34-0.55-3.59-1-7.22-1-6.48 0-6.58-0.02-4.84-1.94 1.44-1.59 1.71-3.31 1.4-9.43-0.33-6.65-0.71-7.85-3.28-10.53-3.04-3.17-6.19-4.51-13.41-5.63-2.38-0.37-5.44-1.23-6.81-1.94l-2.5-1.31 6.1-6.47c5.62-6.01 6.06-6.82 6.06-11.12 0-3.19-0.78-5.87-2.44-8.5-2.89-4.58-10.29-11.13-12.56-11.13-1.65 0-4-1.83-4-3.09 0-0.84 12.14-5.84 16.84-6.94 0.77-0.18 1.39-0.3 1.94-0.31zm57.84 5c0.85-0.09 2.66 0.17 4.32 0.62 1.88 0.52 5.06 0.67 7.06 0.35 3.77-0.61 8.24 1.08 13.18 4.97 1.35 1.05 4.06 2.78 6.04 3.84l3.59 1.94-5.69 3.72c-3.13 2.03-7.36 5.54-9.4 7.81-4.85 5.36-4.93 8.81-0.35 13.81 3.72 4.05 7.15 4.9 24.28 5.94l8.19 0.5 1.56 3.94c1.63 4.05 2.04 9.68 0.97 13.65-0.46 1.74-1.34 2.25-3.81 2.25-3.75 0-8.24 4.12-9.44 8.63-0.53 2.01-1.49 3.01-3.15 3.25-1.32 0.19-3.52 1.2-4.85 2.25-2.42 1.9-6.02 2.2-11.62 1-2.24-0.48-3.59-1.77-5.35-5.13-1.29-2.47-3.98-6.45-6-8.84-6.22-7.4-8.05-10.52-6.93-11.91 0.55-0.69 1.58-1.25 2.28-1.25s2.67-1.58 4.37-3.53c3.53-4.02 4.06-8.29 1.66-14.03-1.46-3.49-1.44-3.57 2-6.59 4.86-4.27 4.81-8.89-0.13-14.66-1.96-2.3-4.04-4.19-4.62-4.19-1.72 0-9.75-7.84-8.47-8.28 0.08-0.03 0.19-0.05 0.31-0.06zm59.72 81.34c1.68 0 2.59 0.93 3.6 3.75 0.73 2.07 1.55 4.31 1.81 5 0.59 1.6-1.3 1.46-6-0.47-3.3-1.35-3.65-1.84-3.1-4.15 0.9-3.77 1.2-4.13 3.69-4.13z"/>
      <path id="path3757" style="fill:#000000" d="m420.93 728.08c-11.13-1.92-15.57-2.94-18.71-4.28-4.75-2.04-10.19-3.72-12.03-3.72-0.88 0-2.87-0.62-4.43-1.36-1.56-0.75-7.6-3.68-13.43-6.5-5.84-2.83-11.34-5.14-12.24-5.14s-4.23-2.24-7.4-4.97-7.73-6.66-10.14-8.75c-2.41-2.08-6.08-6.48-8.15-9.78-2.08-3.3-4.94-7.15-6.37-8.54-1.43-1.4-2.61-2.97-2.62-3.5s-2.48-5.84-5.5-11.81c-3.01-5.97-5.48-11.84-5.48-13.06 0-1.21-1.13-3.73-2.5-5.59-1.38-1.87-2.5-4.45-2.5-5.73 0-1.29-0.72-3.44-1.6-4.79-0.88-1.34-1.97-3.91-2.42-5.71-0.44-1.8-1.8-5.75-3-8.77-1.21-3.03-2.65-7.3-3.21-9.5s-1.67-6.03-2.47-8.5c-1.41-4.37-2.44-8.71-4.28-18-0.49-2.48-1.45-6.53-2.13-9-1.75-6.39-2.36-45.75-0.76-48.74 2.22-4.16 0.05-3.5-4.81 1.46-4.74 4.83-6.65 6.25-13.79 10.26-3.97 2.23-6.09 2.53-7.04 1.01-1.39-2.25 0.91-5.04 6.31-7.64 5.51-2.65 22.2-17.48 22.2-19.73 0-0.56 1.18-2.25 2.62-3.76 2.67-2.78 4.46-5.51 6.34-9.69 0.64-1.41 1.73-2.19 2.79-1.99 2.33 0.44 2.91 6.03 0.8 7.77-0.85 0.71-1.55 1.83-1.55 2.49 0 0.67-1.17 2.3-2.6 3.63-3.94 3.69-5.4 7.28-5.4 13.32 0 3.02-0.45 5.77-1 6.11-1.26 0.77-1.36 38.15-0.11 38.93 0.49 0.3 1.14 2.01 1.46 3.81 0.58 3.31 1.82 9.66 3.48 17.76 0.51 2.47 1.65 6.47 2.54 8.87 0.9 2.41 1.63 5.49 1.63 6.85s1.57 6.11 3.5 10.55c1.92 4.44 3.5 9.06 3.5 10.27 0 1.2 0.9 3.33 2 4.73s2 3.6 2 4.9 1.12 4.02 2.5 6.04c1.37 2.02 2.5 4.64 2.5 5.81 0 1.18 2.47 6.98 5.5 12.89 3.02 5.91 5.5 11.02 5.5 11.34 0 0.33 1.24 1.9 2.75 3.49 1.51 1.6 4.27 5.46 6.13 8.58 1.85 3.12 5.11 7.14 7.24 8.93 2.13 1.78 6.35 5.38 9.39 8 3.31 2.85 6.48 4.75 7.94 4.75 1.34 0 2.69 0.42 3.01 0.94 0.68 1.1 17.18 9.04 18.89 9.09 0.63 0.02 2.02 0.69 3.09 1.5s2.84 1.47 3.93 1.47c2.49 0 8.24 1.79 11.94 3.72 2.72 1.42 6.31 2.16 21.19 4.41 8.51 1.29 36.11 0.45 41.3-1.25 2.03-0.67 5.72-2.08 8.2-3.14 7.51-3.21 8.32-3.53 13.5-5.29 2.75-0.93 6.91-2.54 9.24-3.58 2.33-1.03 4.61-1.87 5.07-1.87s1.93-1.17 3.26-2.6c1.34-1.43 4.1-3.46 6.15-4.51 4-2.05 4.79-2.68 14.96-11.98 7.21-6.58 16.35-17.97 19.59-24.41 1.11-2.2 2.96-4.86 4.12-5.91s2.11-2.37 2.11-2.94c0-0.58 1.06-2.19 2.36-3.6 1.29-1.4 3.24-4.35 4.32-6.55 6.41-13.03 10.89-21.39 12.96-24.19 1.3-1.75 2.36-3.85 2.36-4.67s1.05-2.76 2.33-4.32c2.83-3.44 10.26-24.66 12.22-34.94 0.79-4.12 1.92-8.39 2.5-9.48 1.85-3.46 4.51-21.12 5.79-38.4 0.36-4.95 1.05-9.61 1.53-10.35 0.5-0.79 0.43-2.24-0.17-3.5-3.42-7.1-6.2-14.14-6.2-15.72 0-1-0.45-2.09-1-2.43-1.55-0.96-1.18-4.5 0.54-5.16 1.93-0.74 5.46 2.36 5.46 4.8 0 2.94 3.35 9.86 4.77 9.86 0.71 0 1.54 0.78 1.85 1.75 1.82 5.69 5.69 11.25 7.84 11.25 0.61 0 2.64 1.27 4.5 2.82 2.33 1.95 3.19 3.35 2.74 4.5-0.88 2.3-5 2.11-7.2-0.32-1-1.1-2.27-2-2.83-2s-1.85-0.76-2.87-1.68c-2.78-2.52-3.56-0.81-4.18 9.18-1.09 17.46-3.4 32.45-5.93 38.5-0.81 1.92-1.79 5.89-2.18 8.82-1.06 7.89-9.1 30.9-12 34.35-1.38 1.64-2.51 3.78-2.51 4.77 0 0.98-1.01 3.06-2.23 4.62-1.23 1.56-3.26 4.89-4.52 7.39s-2.93 5.67-3.73 7.05c-0.79 1.37-2.58 5.14-3.98 8.36-1.39 3.23-3.77 7.35-5.29 9.17-4.79 5.75-9.25 12.12-9.25 13.22 0 1.55-9.49 13.59-17 21.58-6.08 6.46-9.49 9.23-17.46 14.17-1.78 1.1-4.77 3.35-6.64 5-3.21 2.82-7.56 4.78-24.4 11.01-3.85 1.43-7.68 3.02-8.5 3.55-0.83 0.52-1.95 1.1-2.5 1.29s-2.58 0.89-4.5 1.56c-4.28 1.49-42.32 2.32-49.5 1.09z"/>
      <path id="path3755" style="fill:#000000" d="m655.68 541.59c-3.56-1.55-4.42-4.51-1.31-4.51 1.07 0 2.22 0.45 2.56 1 0.75 1.21 7.5 1.35 7.5 0.15 0-0.47 0.9-1.89 2-3.15 1.1-1.27 2-3.1 2-4.07s0.56-1.96 1.25-2.19c1.61-0.54 1.5-17.4-0.13-19.02-0.62-0.62-1.12-1.86-1.12-2.77s-0.94-2.73-2.09-4.05c-1.74-2.01-2.93-2.38-7.22-2.24-2.82 0.08-5.29 0.65-5.49 1.25s-0.91 1.09-1.56 1.09c-0.66 0-1.97 0.9-2.91 2-2.01 2.34-4.73 2.64-4.73 0.51 0-1.88 3.06-5.51 4.64-5.51 0.65 0 1.37-0.54 1.59-1.2 0.27-0.79 3.14-1.22 8.5-1.25 7.33-0.05 8.29 0.17 10.18 2.35 1.15 1.32 2.09 3.14 2.09 4.05s0.46 2.1 1.01 2.66c0.56 0.56 1.3 5.34 1.65 10.63l0.63 9.62-3.74 7.46c-3.16 6.33-4.2 7.56-6.77 8.07-4.1 0.82-4.77 0.75-8.53-0.88z"/>
      <path id="path3753" style="fill:#000000" d="m208.86 530.11c-1.15-0.46-4.14-2.9-6.67-5.43-3.38-3.38-4.76-5.66-5.28-8.7-0.83-4.93 0.3-16.9 1.6-16.9 0.5 0 0.92-0.6 0.92-1.32 0-0.73 1.13-2.3 2.51-3.5 2.12-1.85 3.72-2.18 10.5-2.18 4.39 0 7.99 0.39 7.99 0.88s0.9 1.12 2 1.41c2.49 0.65 2.65 3.71 0.19 3.71-1 0-2.68-0.66-3.75-1.47-1.08-0.82-4.13-1.48-6.87-1.5-4.37-0.03-5.29 0.36-8.11 3.44-3.42 3.74-4.93 9.92-3.8 15.57 0.67 3.38 8.25 11.59 12.03 13.03 1.29 0.49 5.04 0.61 8.33 0.27 4.94-0.52 5.98-0.37 5.98 0.88 0 2.45-12.75 3.76-17.57 1.81z"/>
      <path id="path3751" style="fill:#000000" d="m459.93 430.18c-4.04-1.76-6-5.08-6-10.19 0-3.99 0.5-5.37 2.77-7.64 2.29-2.28 3.65-2.77 7.73-2.77s5.44 0.49 7.73 2.77c2.28 2.28 2.77 3.65 2.77 7.73 0 4-0.5 5.45-2.6 7.55-2.8 2.8-8.93 4.06-12.4 2.55z"/>
      <path id="path3749" style="fill:#000000" d="m424.93 419.18c-4.04-1.76-6-5.08-6-10.19 0-3.99 0.5-5.37 2.77-7.64 2.29-2.28 3.65-2.77 7.73-2.77s5.44 0.49 7.73 2.77c2.28 2.28 2.77 3.65 2.77 7.73 0 4-0.5 5.45-2.6 7.55-2.8 2.8-8.93 4.06-12.4 2.55z"/>
      <path id="path3747" style="fill:#eec46c" d="m426.6 306.42c1.01-0.91 1.83-2.34 1.83-3.17 0-2.54-3.15-5.17-6.19-5.17-3.7 0-4.66-2.46-2.06-5.3 1.11-1.21 2.3-4.26 2.66-6.77 0.54-3.77 0.29-5.05-1.45-7.25-1.16-1.48-2.88-2.68-3.83-2.68s-2.16-0.43-2.68-0.95c-0.53-0.53-4.32-1.09-8.44-1.25-8.56-0.35-9.86-1.81-6.11-6.89 2.27-3.06 2.78-9 1.14-13.3-1.33-3.51-4.72-5.45-11.62-6.65-5.38-0.94-8.07-1.8-12.42-3.93-3.28-1.61-2.12-4.66 4.45-11.76 7.42-8.01 7.94-10.1 4.09-16.21-2.63-4.16-8.35-9.06-10.58-9.06-0.74 0-2.53-1.13-3.97-2.51l-2.62-2.51-2.69 4.11-2.7 4.11 2.7 2.15c1.48 1.18 3.4 2.69 4.26 3.36s2.36 1.24 3.33 1.25c0.97 0.02 2.28 1.15 2.9 2.51 0.99 2.18 0.68 3.01-2.69 7.25-2.09 2.62-5.75 6.81-8.12 9.29-5.66 5.92-6.54 9.91-2.82 12.84 1.5 1.18 3.35 2.15 4.11 2.15s2.16 0.39 3.11 0.88c0.96 0.49 3.09 1.44 4.74 2.12 1.65 0.67 3.69 1.57 4.54 1.99s3.91 1.09 6.82 1.49c3.15 0.43 5.51 1.31 5.84 2.17 0.67 1.77-2.37 7.67-5.45 10.58-1.87 1.75-2.25 3.18-2.25 8.37 0 5.56 0.29 6.48 2.63 8.32 3.26 2.57 3.97 2.57 9.13 0.08s14.01-2.76 14.9-0.44c0.36 0.93-0.46 2.66-2.03 4.3-1.45 1.51-2.63 3.42-2.63 4.24s-0.51 2-1.13 2.62c-1.44 1.45-0.49 5.22 2.18 8.61 1.94 2.47 2.65 2.67 9.69 2.67 5.67 0 8.07-0.42 9.43-1.66z"/>
      <path id="path3745" style="fill:#eec46c" d="m481.49 302.23c1.26-1.02 3.46-4.96 4.9-8.75l2.62-6.9 4.68-0.31c3.63-0.23 5.13-0.88 6.71-2.88 1.11-1.42 2.03-3.35 2.03-4.29 0-2.42 2.98-4.8 6.5-5.19l3-0.33 0.29-7.86c0.23-6.17-0.08-8.43-1.45-10.5l-1.76-2.64-0.75 4.35c-0.99 5.64-2.33 7.15-6.38 7.15-3.46 0-7.45 3.65-7.45 6.8 0 2.24-3 5.2-5.26 5.2-3.67 0-9.37 5.59-10.76 10.56-0.71 2.54-2.35 6.17-3.64 8.07-2.78 4.1-2.87 5.12-0.69 7.54 2.11 2.33 4.52 2.32 7.41-0.02z"/>
      <path id="path3743" style="fill:#eec46c" d="m453.02 290.57c6.96-3.62 10.91-7.09 11.23-9.87 0.43-3.64-3.66-11.65-9.63-18.9-8.01-9.72-9.37-11.7-8.94-12.98 0.23-0.68 2.62-2.38 5.31-3.78 2.7-1.39 5.57-3.73 6.39-5.19 1.37-2.44 1.3-3.1-0.84-7.97-3.2-7.24-3.22-9.22-0.11-9.64 3-0.41 6-2.9 6-4.97 0-1.86-4.73-8.19-6.12-8.19-1.72 0-11.86-9.4-11.87-11.01-0.01-0.83-1.47-2-3.26-2.6s-3.97-1.41-4.86-1.8c-1.26-0.55-1.88 0.29-2.89 3.92-1.17 4.17-1.11 4.86 0.6 7.13 1.67 2.2 4.28 3.98 9.33 6.32 2.62 1.22 3.68 3.87 2.31 5.79-0.68 0.96-1.74 2.87-2.34 4.25-1.1 2.51-1.02 2.86 2.37 11.14 1.01 2.46 0.68 3.01-5.09 8.35-7.79 7.21-8.23 10.29-2.36 16.78 14.1 15.58 16.79 20.78 11.78 22.69-2.64 1-5.6 4.67-5.6 6.93 0 1.81 2.9 5.11 4.5 5.11 0.66 0 2.5-0.68 4.09-1.51z"/>
      <path id="path3741" style="fill:#d28382" d="m533.19 291.18c9.51-4.91 19.13-9.12 20.87-9.11 1.17 0 2.69-0.68 3.38-1.51 0.7-0.84 2.89-2.27 4.88-3.19 1.98-0.91 4.68-2.48 5.99-3.48 1.32-1 3.38-1.81 4.6-1.81 5.58 0 13.52-5.92 13.52-10.09 0-3.33-8.97-11.91-12.45-11.91-1.23 0-3.06-0.9-4.05-2-1-1.1-2.65-2-3.67-2s-2.64-0.38-3.6-0.85c-3.77-1.83-8.55-4.25-12.98-6.57l-3.25-1.7-0.02 4.31c-0.01 2.37-0.42 4.95-0.92 5.74-0.66 1.05-0.22 1.79 1.63 2.75 1.4 0.72 3.27 1.34 4.17 1.38 2.98 0.1 10.61 4.42 10.95 6.19 0.45 2.35-1.32 2.2-7.3-0.62-9.38-4.42-12.08-4.95-15.22-2.99-1.54 0.96-2.9 1.81-3.04 1.89-0.14 0.07 0.42 2.35 1.24 5.05 1.88 6.22 1.89 8.42 0.04 8.42-0.93 0-2.07-2.05-3.07-5.5-0.88-3.03-1.96-5.5-2.39-5.5-0.9 0-2.05 10.77-2.06 19.25-0.01 4.66-0.32 5.75-1.65 5.75-1.45 0-1.58-1.3-1.14-11.41l0.51-11.41-4.12-0.42c-2.26-0.23-4.9-0.77-5.86-1.2-1.61-0.71-1.75 0.12-1.75 10.21 0 11.64 1.25 16.63 5.27 20.98 2.21 2.39 8.14 3.08 11.49 1.35z"/>
      <path id="path3733" style="fill:#db9595" d="m532.95 252.98c10.97-6.2 12.13-11.18 4.85-20.87-6.52-8.66-7.82-9.35-16.07-8.49-8.34 0.86-9.59 1.49-13.33 6.66-3.93 5.42-3.96 10.14-0.12 15.4 3.66 5 5.82 6.86 10.15 8.72 5.3 2.29 8.5 1.98 14.52-1.42z"/>
      <path id="path3731" style="fill:#d28382" d="m344.15 244.83c2.14-2.32 2.96-6.39 3.91-19.5l0.53-7.25h-3.63c-2 0-4.93-0.67-6.51-1.49l-2.88-1.49-2.69 5.49c-2.64 5.39-5.45 7.27-5.45 3.64 0-1.02 1.14-4.01 2.54-6.63 2.4-4.51 2.44-4.88 0.84-6.65-2.27-2.52-5.26-2.36-11.79 0.63-3 1.37-6.21 2.5-7.13 2.5s-3.91 1.12-6.65 2.5c-5.97 2.99-6.81 3.07-6.81 0.61 0-2.15 4.29-4.49 11.04-6.02 2.45-0.56 6.35-1.93 8.66-3.05s5.24-2.04 6.5-2.04c2.14 0 2.3-0.41 2.3-6 0-6.2-0.64-6.96-4.27-5.12-1.55 0.79-3.71 1.72-8.23 3.54-0.83 0.33-3.42 1.69-5.76 3.01-2.35 1.33-5.59 2.7-7.21 3.06-3.79 0.83-9.03 6.77-9.03 10.23 0 3.12 3.55 7.28 6.23 7.28 2.16 0 12.22 6.56 18.66 12.17 2.41 2.11 4.91 3.83 5.54 3.83s2.7 1.33 4.61 2.96c1.9 1.62 3.97 2.97 4.59 3 0.62 0.02 1.68 0.71 2.37 1.54 1.9 2.29 7.3 1.87 9.72-0.75z"/>
      <path id="path3729" style="fill:#d28382" d="m502.53 232.23l1.61-3.83-4.11-2.47c-2.25-1.36-5.34-3.09-6.85-3.83-3.18-1.58-3.66-4.02-0.79-4.02 2.13 0 11.33 4.76 11.87 6.15 0.52 1.31 2.33 1.01 4.22-0.7 1.4-1.26 1.62-2.74 1.19-8-0.44-5.52-0.28-6.45 1.12-6.45 1.06 0 1.64 0.84 1.64 2.37 0 1.31 0.28 3.78 0.62 5.5 0.67 3.35 2.49 3.85 9.13 2.53 2.87-0.58 3.06-0.94 4.2-8 0.89-5.49 1.59-7.4 2.74-7.4 1.29 0 1.43 0.94 0.86 5.75-0.37 3.16-0.88 6.47-1.14 7.36-0.31 1.09 0.53 2.03 2.58 2.88 1.68 0.7 4.12 2.54 5.42 4.09 2.35 2.78 2.39 2.79 2.97 0.62 0.33-1.21 0.6-3.98 0.6-6.14 0.02-5.49 1.97-15.54 3.63-18.72 3.25-6.2-0.05-11.84-6.92-11.84-4.19 0-11.55 1.77-13.14 3.17-0.52 0.45-1.71 0.83-2.63 0.83s-2.23 0.66-2.9 1.47-2.76 1.76-4.63 2.11c-1.88 0.36-3.66 1.04-3.96 1.53s-1.35 0.89-2.34 0.89c-0.98 0-2.6 0.9-3.59 2-1 1.1-2.35 2-3 2-0.66 0-2.05 0.95-3.1 2.11-1.04 1.16-2.8 2.52-3.9 3.02-1.1 0.49-3.35 1.78-5 2.87-1.65 1.08-3.92 2.38-5.04 2.88-1.13 0.5-2.64 1.63-3.37 2.51-0.74 0.88-1.82 1.61-2.42 1.61s-2.79 1.66-4.88 3.7c-4.37 4.27-4.85 7.54-1.62 10.98 1.74 1.85 3.23 2.32 7.44 2.32 2.9 0 5.55 0.45 5.89 1s4.08 0.99 8.31 0.99l7.69-0.01 1.6-3.83z"/>
      <path id="path3727" style="fill:#eec46c" d="m553.8 232.08c3.26 0 6.63-2.45 6.63-4.83 0-3.13-3.15-5.17-7.91-5.14-5.27 0.04-8.41 2.12-9.46 6.28-0.61 2.44-0.31 2.92 2.59 4.15 2.02 0.86 3.64 1.04 4.23 0.46 0.52-0.51 2.29-0.92 3.92-0.92z"/>
      <path id="path3725" style="fill:#db9595" d="m351.22 212.18c2.04-1.04 5.85-3.88 8.46-6.32 4.65-4.33 4.75-4.54 4.75-10.47 0-7.34-1.85-10.13-9.14-13.79-7.77-3.9-10.36-3.46-16.13 2.73-10.97 11.77-11.42 19.61-1.55 26.77 4.78 3.46 8.39 3.74 13.61 1.08z"/>
      <path id="path3723" style="fill:#d28382" d="m490.77 202.02c1.44-1.13 3.34-3.72 4.22-5.75s2.02-4.47 2.52-5.43c0.51-0.96 0.92-2.55 0.92-3.55 0-1.96 4.51-11.75 6.55-14.21 0.68-0.83 1.53-3.75 1.87-6.5 1.88-14.88 1.93-13.94-0.93-17.33-2.39-2.84-3.22-3.17-7.83-3.1-3.24 0.05-6.28 0.78-8.16 1.97-4.87 3.07-9.68 5.02-14.83 6.01-6.7 1.28-7.08 1.73-3.8 4.49 1.58 1.33 3.43 3.78 4.12 5.44 1.42 3.42 1.58 3.47 5.01 1.52 3.28-1.88 6-1.88 6 0 0 0.85-2.19 2.46-5.02 3.7-2.76 1.2-4.88 2.59-4.72 3.09 0.17 0.49 4.45 2.22 9.52 3.85 6.04 1.93 9.22 3.45 9.22 4.4 0 2.01-1.72 1.84-10.71-1.03-9.11-2.91-10.29-3.03-10.29-1.01 0 0.82 0.69 1.5 1.54 1.5 2.25 0 12.46 7.8 12.46 9.53 0 2.48-2.84 1.65-8.43-2.48-5.37-3.97-6.57-4.16-6.57-1.03 0 0.94-1.09 3.3-2.42 5.26-2.51 3.7-2.41 4.72 0.46 4.72 0.94 0 2.32 0.73 3.07 1.63 2.36 2.85 8.29 6.25 11 6.31 1.44 0.03 3.8-0.87 5.23-2z"/>
      <path id="path3721" style="fill:#eec46c" d="m323.37 188.86c-1.07-0.4-1.94-1.36-1.94-2.13 0-1.47 6.12-6.65 7.86-6.65 1.4 0 5.14-4.96 5.14-6.81 0-2.01-2.92-5.19-4.76-5.19-1.66 0-6.8 3.85-16.49 12.36-5.54 4.86-6.75 6.47-6.75 8.95 0 1.67 0.7 3.8 1.55 4.74 1.46 1.61 2.03 1.53 9.44-1.42 6.15-2.44 7.47-3.29 5.95-3.85z"/>
      <path id="path3719" style="fill:#d28382" d="m371.19 195.23c0.96-0.46 2.74-1.36 3.97-2 1.24-0.63 2.72-1.15 3.3-1.15 0.59 0 2.93-0.9 5.2-2 2.28-1.1 5.04-2 6.14-2 3.65 0 6.63-3.9 6.63-8.67 0-5.32-2.74-8.61-18.11-21.76-11.12-9.52-17.52-13.57-21.41-13.57-2.87 0-8.48 4.56-8.48 6.89 0 0.94-0.38 2.13-0.83 2.66-1.41 1.61-3.17 8.97-3.17 13.25 0 2.24-0.4 5.11-0.88 6.38-0.85 2.23-0.7 2.32 4.25 2.35 2.82 0.01 5.92 0.4 6.88 0.85 1.45 0.69 1.75 0.34 1.76-2.03 0.02-5.75 1.23-10.35 2.72-10.35 1.22 0 1.35 1.18 0.77 6.94-0.38 3.81-0.39 7.43-0.02 8.02 0.42 0.69 3.05-0.58 7.14-3.44 3.56-2.49 7.16-4.52 8-4.52 3.11 0 0.73 3.54-4.86 7.24l-5.72 3.78 1.98 3.24c1.08 1.78 1.97 4.92 1.97 6.99 0.01 4.04 0.14 4.18 2.77 2.9z"/>
      <path id="path3717" style="fill:#d28382" d="m416.55 194.33c4.09-2.99 6.77-4.25 9.04-4.25 4.34 0 5.55-2.34 4.41-8.53-0.91-4.95-1.25-5.52-3.05-4.97-3.15 0.96-12.94 3.42-13.77 3.46-0.41 0.02-0.75-0.82-0.75-1.88 0-1.47 0.98-2.07 4.25-2.62 2.34-0.38 6.61-1.58 9.5-2.65 4.34-1.62 5.25-2.37 5.25-4.37 0-1.83-0.88-2.78-3.62-3.93-2-0.83-4.66-1.51-5.92-1.51-3.38 0-5.46-1.02-5.46-2.68 0-1.2 1.03-1.34 5.64-0.76 3.1 0.39 6.7 1.25 7.99 1.92 2.11 1.09 2.73 0.85 6.16-2.38l3.82-3.6-3.56-2.88c-1.95-1.58-4.98-3.49-6.73-4.24-1.75-0.74-3.44-1.76-3.74-2.26-1.03-1.65-10.5-6.12-12.99-6.12-1.34 0-3.82 1.16-5.51 2.59-2.58 2.16-3.08 3.3-3.08 6.98 0 4.32-1.48 11.99-3.08 15.93-0.44 1.1-1.06 5.15-1.36 9s-0.83 9.17-1.16 11.82c-0.53 4.13-0.29 5.17 1.67 7.25 1.89 2.02 3.24 2.43 7.97 2.43 3.84 0 6.47-0.57 8.08-1.75z"/>
      <path id="path3715" style="fill:#db9595" d="m465.94 190.77c2.53-2.54 3.45-4.47 3.93-8.25 0.33-2.72 1.05-6.33 1.59-8.01 1.75-5.54 1.18-8.43-2.39-12l-3.37-3.36-11.88 0.12-11.89 0.11-3.25 3.25c-1.97 1.97-3.25 4.25-3.25 5.8 0 1.4-0.51 3.66-1.13 5.02-1.92 4.22-0.2 11.5 3.62 15.32 2.79 2.79 4.07 3.32 8.16 3.41 2.67 0.05 5.97 0.46 7.35 0.9 5.56 1.78 9.06 1.13 12.51-2.31z"/>
      <path id="path2824" style="fill:#eec46c" d="m447.71 144.17c2.08-1.15 4.87-2.09 6.2-2.09s3.68-0.54 5.22-1.2c6.4-2.73 7.92-6.03 4.3-9.31-1.74-1.57-2.52-1.65-5.87-0.65-2.12 0.64-4.83 1.16-6.01 1.16-1.95 0-3.81 0.72-8.12 3.15-0.83 0.47-2.4 1.25-3.5 1.75-2.66 1.19-8.02 6.91-7.23 7.71 0.35 0.34 2.12 1.65 3.93 2.91 3.19 2.21 3.36 2.23 5.3 0.48 1.1-0.99 3.7-2.75 5.78-3.91z"/>
      <path id="path6529" sodipodi:rx="52.142857" sodipodi:ry="52.142857" style="fill:url(#radialGradient3973)" sodipodi:type="arc" d="m171.43 400.22a52.143 52.143 0 1 1 -104.29 0 52.143 52.143 0 1 1 104.29 0z" transform="translate(170 105.71)" sodipodi:cy="400.21933" sodipodi:cx="119.28571"/>
      <path id="path7424" sodipodi:rx="52.142857" sodipodi:ry="52.142857" style="fill:url(#radialGradient3973)" sodipodi:type="arc" d="m171.43 400.22a52.143 52.143 0 1 1 -104.29 0 52.143 52.143 0 1 1 104.29 0z" transform="translate(476.43 116.43)" sodipodi:cy="400.21933" sodipodi:cx="119.28571"/>
      <path id="path1933" style="fill:#000000" d="m416.43 789.79c-0.28-0.27-3.74-0.78-7.71-1.12-7.19-0.63-13.68-1.74-20.29-3.49-12.73-3.37-16.2-4.42-22-6.67-12.95-5.01-29.44-13.06-36.91-18.01-2.43-1.61-5.71-3.71-7.3-4.68-10.97-6.67-32.91-25.93-44.29-38.87-3.84-4.36-4.96-5.69-10.5-12.45-4.43-5.41-18-25.49-18-26.65 0-0.4-1.58-3.2-3.5-6.21-1.93-3.01-3.5-5.75-3.5-6.09s-2.18-4.98-4.84-10.3c-2.65-5.32-6.08-13.27-7.61-17.67-1.54-4.4-3.38-9.35-4.1-11-4.92-11.28-12.81-48.5-14.03-66.17-0.39-5.6-0.99-10.63-1.33-11.19-0.35-0.56-1.87-1.24-3.37-1.52-9.27-1.68-15.59-7.21-20.81-18.19-3.82-8.04-3.91-8.49-3.91-19.35 0-6.11 0.4-11.89 0.88-12.85 0.49-0.95 1.36-2.86 1.93-4.23 3.33-7.93 4.64-9.96 8.55-13.22 4.49-3.76 12.65-6.78 18.28-6.78 3.92 0 4.62-1.12 6.29-10 1.47-7.81 5.72-23.33 7.53-27.5 0.72-1.65 1.86-4.58 2.53-6.5 5.17-14.76 17.56-39.73 26.01-52.44 7.6-11.42 19.54-27.03 24.7-32.28 1.74-1.76 3.53-3.79 3.98-4.5 1.02-1.58 14.18-13.82 20.88-19.4 2.71-2.27 6.57-5.53 8.57-7.25 2-1.73 3.98-3.13 4.41-3.13 0.42 0 2.39-1.24 4.36-2.75 1.98-1.52 5.62-3.82 8.1-5.13 2.47-1.3 5.17-2.92 6-3.6 4.01-3.3 29.86-14.67 41.5-18.26 2.73-0.84 3.03-1.36 3.31-5.78 0.24-3.68 1.03-5.68 3.25-8.21 1.62-1.84 2.94-3.73 2.94-4.2 0-1.06-2.5-2.07-5.1-2.07-1.06 0-2.71-0.4-3.67-0.89-0.95-0.48-3.08-1.44-4.73-2.11-1.65-0.68-3.78-1.63-4.74-2.12-0.95-0.49-2.4-0.88-3.21-0.88-0.82 0-3.12-1.44-5.12-3.2-3.42-3-3.62-3.5-3.19-7.95 0.39-4.1 1.23-5.59 5.99-10.73 7.31-7.9 10.3-12.12 8.59-12.13-0.73-0.01-3.3-1.58-5.71-3.5-8.27-6.58-12.67-3.84-13.46 8.37-0.99 15.47-1.94 19.09-5.95 22.78-4.89 4.47-8.64 4.45-15.21-0.09-2.75-1.9-6.7-4.39-8.79-5.54-2.08-1.16-5.46-3.58-7.5-5.39-5.63-4.99-12.98-9.72-16.7-10.75-4.11-1.14-9.5-7.07-9.5-10.46 0-5.55 6.97-13.59 12.91-14.89 3.9-0.86 4.7-2.18 2.69-4.42-1.02-1.12-1.6-3.59-1.6-6.83 0-5.05 0.01-5.07 7.75-11.96 12.46-11.1 15.68-13.31 19.34-13.31 4.12 0 8.9 4.25 8.92 7.93 0.02 2.03 0.22 2.25 0.99 1.07 0.53-0.83 0.97-3.6 0.98-6.16 0.02-5.88 4.18-18.32 7.21-21.56 2.92-3.13 7.03-5.28 10.07-5.28 4.83 0 18.3 9.73 32.81 23.72l5.58 5.37 1.29-4.3c0.71-2.36 1.69-5.6 2.18-7.19 0.48-1.6 0.88-5.05 0.88-7.68 0-5.31 2.9-9.79 8.07-12.46 4.08-2.11 6.24-1.84 13.09 1.62l6.1 3.08 4.26-4.19c4.01-3.93 6.95-6.04 10.48-7.52 0.82-0.35 2.4-1.01 3.5-1.48 1.96-0.82 4.71-1.36 13.3-2.62 3.8-0.55 4.65-0.3 7.25 2.2 4.01 3.83 4.09 9.04 0.2 12.57-3.29 2.99-7.46 4.88-10.77 4.88-1.33 0-4.12 0.94-6.2 2.09-4.86 2.7-6.13 3.91-4.1 3.91 0.88 0 2.88 0.69 4.45 1.53 3.57 1.9 12.74 1.11 18.77-1.63 2.25-1.02 5.3-1.87 6.76-1.88 1.47-0.01 6.07-1.82 10.22-4.02 9.85-5.22 15.83-5.51 20.96-1.01 4.32 3.79 6.03 7.9 5.31 12.72-0.32 2.08-0.95 6.33-1.4 9.43-0.46 3.11-1.45 6.39-2.2 7.29-1.78 2.14-6.05 11.38-6.05 13.08 0 0.73-0.91 3.45-2.03 6.05-1.11 2.59-1.85 4.89-1.65 5.09 0.21 0.21 1.57-0.57 3.03-1.72 1.47-1.15 5.18-2.98 8.26-4.06s6.56-2.58 7.74-3.34c3.72-2.38 14.8-5.53 19.43-5.53 3.84 0 4.99 0.53 8.34 3.88 4.07 4.08 4.88 7.38 2.76 11.34-1.23 2.3-3.88 14.09-3.88 17.28-0.01 1.84 0.55 1.97 7.1 1.66 6.63-0.31 7.3-0.15 10 2.44 3.97 3.8 4.01 8.96 0.09 12.71-1.54 1.48-3.66 2.69-4.71 2.69-3.39 0 0.47 2.78 7.05 5.08 3.28 1.15 6.64 2.67 7.47 3.37 0.82 0.7 2.77 1.58 4.32 1.95 1.56 0.37 5.5 3.27 8.75 6.43 6.93 6.74 7.64 9.98 3.3 15.14-2.86 3.4-11.1 8.03-14.29 8.03-1.1 0-3.57 1.01-5.5 2.25-9.35 6.01-12.46 7.75-13.82 7.75-0.81 0-6.54 2.41-12.73 5.35-8.31 3.96-10.76 5.53-9.39 6 4.21 1.47 26.57 16.53 33.86 22.81 17.88 15.4 35.19 35.12 47.92 54.58 9.93 15.19 11.95 18.93 22.11 40.93 7.28 15.76 18.46 54.47 18.47 63.95 0 1.7 0.89 1.88 9.25 1.92 9.56 0.05 12.4 0.92 19.06 5.85 6.1 4.5 6.84 7.08 6.39 22.31-0.41 13.88-2.67 25.67-5.45 28.45-0.69 0.68-1.25 1.94-1.26 2.8-0.01 4.24-10.65 12.38-18.46 14.13l-5.33 1.19-0.67 6.61c-0.37 3.64-1.08 7.97-1.57 9.62-0.5 1.65-1.62 7.72-2.5 13.5-1.56 10.28-6.96 33.02-8.56 35.99-0.44 0.83-2.24 5.77-4 10.99-6.89 20.4-23.03 50.39-36.15 67.19-2.61 3.35-4.76 6.36-4.76 6.7-0.01 1.13-18.55 20.66-27.32 28.8-12.92 11.99-37 28.32-51.17 34.7-3.3 1.49-6.75 3.12-7.66 3.62-7.5 4.12-37.38 12.9-49.34 14.49-6.34 0.84-47.83 1.9-48.5 1.23zm47.83-6.22c29.06-4.77 55.05-14.55 75.97-28.6 2.36-1.59 4.54-2.89 4.82-2.89 0.29 0 5.09-3.49 10.66-7.75 23.37-17.89 49.26-47.68 61.86-71.18 1.85-3.45 4.48-8.37 5.86-10.93 2.16-4.04 5.71-11.61 10.59-22.64 2.31-5.22 6.16-16.72 8.38-25 1.17-4.4 2.56-8.9 3.08-10 1.59-3.35 4.83-21.21 6.54-36 0.89-7.7 1.76-14.51 1.93-15.13 0.18-0.62 2.49-1.44 5.15-1.83s6.63-1.52 8.83-2.5c4.51-2.02 10.5-7.55 10.5-9.7 0-0.78 0.63-2.41 1.41-3.63 3.84-6.04 6.82-31.38 4.52-38.41-2.54-7.73-13.84-13.01-25.25-11.79-4.72 0.51-6.54 0.34-7.31-0.67-0.56-0.74-2.03-6.95-3.25-13.81-1.23-6.85-2.59-12.93-3.02-13.5s-1.56-3.96-2.51-7.53c-2.84-10.75-6.67-22.14-9.57-28.5-1.51-3.3-4.46-9.83-6.57-14.5-2.11-4.68-4.35-9.18-4.98-10-0.62-0.83-2.63-4.2-4.45-7.5-12.33-22.37-32.63-46.92-54.35-65.72-5.08-4.39-21.02-15.78-22.09-15.78-0.27 0-2.51-1.37-4.99-3.05-5.35-3.61-24.62-13.23-29.59-14.78-2.07-0.64-5.69-0.8-8.86-0.38l-5.37 0.71-2.19 5.88c-4.12 11.04-12.85 15.12-18.89 8.81-3.04-3.17-3.7-9.11-1.23-11.16 1.83-1.52 5.77-11.86 4.99-13.11-0.31-0.51-1.89-0.92-3.51-0.92-2.41 0-2.94 0.42-2.94 2.31 0 3.08-5.3 7.83-13.87 12.42-9.62 5.16-18.68-6.17-11.63-14.55 1.37-1.64 2.5-3.24 2.5-3.58 0-0.33-4.27-0.6-9.48-0.6h-9.48l0.52 4.25c0.29 2.33 0.16 6.26-0.29 8.73-0.78 4.25-0.65 4.62 2.45 7.35 4.3 3.77 4.53 8.75 0.59 12.86-2.58 2.69-3.07 2.81-12.31 2.81-9.21 0-9.74-0.12-12.19-2.75-3.49-3.74-4.81-6.55-4.81-10.2 0-2.96 0.28-3.84 2.85-8.8 1.47-2.84 0.38-2.89-5.09-0.25-6.3 3.04-10.05 2.63-14.75-1.61-4.57-4.13-4.61-4.13-17.51 0.72-10.19 3.83-18.57 7.9-30.5 14.81-10.34 5.99-26 16.75-26.01 17.88 0 0.38-1.69 1.82-3.74 3.2-7.18 4.79-27.08 25.97-38.07 40.5-1.88 2.48-14.49 21.98-16.36 25.3-12.93 22.92-24.81 53.77-29.32 76.2-0.94 4.67-2.13 9.01-2.64 9.64s-4.24 1.31-8.28 1.51c-6.42 0.33-7.99 0.81-12.42 3.84-4.37 2.98-5.52 4.51-8.26 10.98-2.88 6.81-3.18 8.5-3.17 17.66 0.01 9.57 0.21 10.54 3.63 17.66 4.3 8.92 9.14 13.04 17.29 14.74 6.31 1.31 8.35 4.09 8.35 11.37 0 9.03 4.2 36.89 7.46 49.44 1.36 5.23 7.48 24.1 10.96 33.79 1.84 5.11 13.41 28.98 17.55 36.18 1.67 2.93 5.52 9 8.55 13.5 7.51 11.17 8.74 12.9 10.48 14.7 0.82 0.85 2.62 3.03 4 4.83 3.85 5.06 16.46 18.5 23.63 25.21 5.23 4.88 24.66 19.95 25.74 19.95 0.36 0 2.97 1.63 5.81 3.62 16.35 11.49 47.65 23.52 71.05 27.31 6.75 1.09 13.39 2.17 14.77 2.39 1.37 0.22 9.26 0.47 17.53 0.54 11.81 0.11 18.31-0.4 30.3-2.37zm-43.33-55.49c-11.13-1.92-15.57-2.94-18.71-4.28-4.75-2.04-10.19-3.72-12.03-3.72-0.88 0-2.87-0.62-4.43-1.36-1.56-0.75-7.6-3.68-13.43-6.5-5.84-2.83-11.34-5.14-12.24-5.14s-4.23-2.24-7.4-4.97-7.73-6.66-10.14-8.75c-2.41-2.08-6.08-6.48-8.15-9.78-2.08-3.3-4.94-7.15-6.37-8.54-1.43-1.4-2.61-2.97-2.62-3.5s-2.48-5.84-5.5-11.81c-3.01-5.97-5.48-11.84-5.48-13.06 0-1.21-1.13-3.73-2.5-5.59-1.38-1.87-2.5-4.45-2.5-5.73 0-1.29-0.72-3.44-1.6-4.79-0.88-1.34-1.97-3.91-2.42-5.71-0.44-1.8-1.8-5.75-3-8.77-1.21-3.03-2.65-7.3-3.21-9.5s-1.67-6.03-2.47-8.5c-1.41-4.37-2.44-8.71-4.28-18-0.49-2.48-1.45-6.53-2.13-9-1.75-6.39-2.36-45.75-0.76-48.74 2.22-4.16 0.05-3.5-4.81 1.46-4.74 4.83-6.65 6.25-13.79 10.26-3.97 2.23-6.09 2.53-7.04 1.01-1.39-2.25 0.91-5.04 6.31-7.64 5.51-2.65 22.2-17.48 22.2-19.73 0-0.56 1.18-2.25 2.62-3.76 2.67-2.78 4.46-5.51 6.34-9.69 0.64-1.41 1.73-2.19 2.79-1.99 2.33 0.44 2.91 6.03 0.8 7.77-0.85 0.71-1.55 1.83-1.55 2.49 0 0.67-1.17 2.3-2.6 3.63-3.94 3.69-5.4 7.28-5.4 13.32 0 3.02-0.45 5.77-1 6.11-1.26 0.77-1.36 38.15-0.11 38.93 0.49 0.3 1.14 2.01 1.46 3.81 0.58 3.31 1.82 9.66 3.48 17.76 0.51 2.47 1.65 6.47 2.54 8.87 0.9 2.41 1.63 5.49 1.63 6.85s1.57 6.11 3.5 10.55c1.92 4.44 3.5 9.06 3.5 10.27 0 1.2 0.9 3.33 2 4.73s2 3.6 2 4.9 1.12 4.02 2.5 6.04c1.37 2.02 2.5 4.64 2.5 5.81 0 1.18 2.47 6.98 5.5 12.89 3.02 5.91 5.5 11.02 5.5 11.34 0 0.33 1.24 1.9 2.75 3.49 1.51 1.6 4.27 5.46 6.13 8.58 1.85 3.12 5.11 7.14 7.24 8.93 2.13 1.78 6.35 5.38 9.39 8 3.31 2.85 6.48 4.75 7.94 4.75 1.34 0 2.69 0.42 3.01 0.94 0.68 1.1 17.18 9.04 18.89 9.09 0.63 0.02 2.02 0.69 3.09 1.5s2.84 1.47 3.93 1.47c2.49 0 8.24 1.79 11.94 3.72 2.72 1.42 6.31 2.16 21.19 4.41 8.51 1.29 36.11 0.45 41.3-1.25 2.03-0.67 5.72-2.08 8.2-3.14 7.51-3.21 8.32-3.53 13.5-5.29 2.75-0.93 6.91-2.54 9.24-3.58 2.33-1.03 4.61-1.87 5.07-1.87s1.93-1.17 3.26-2.6c1.34-1.43 4.1-3.46 6.15-4.51 4-2.05 4.79-2.68 14.96-11.98 7.21-6.58 16.35-17.97 19.59-24.41 1.11-2.2 2.96-4.86 4.12-5.91s2.11-2.37 2.11-2.94c0-0.58 1.06-2.19 2.36-3.6 1.29-1.4 3.24-4.35 4.32-6.55 6.41-13.03 10.89-21.39 12.96-24.19 1.3-1.75 2.36-3.85 2.36-4.67s1.05-2.76 2.33-4.32c2.83-3.44 10.26-24.66 12.22-34.94 0.79-4.12 1.92-8.39 2.5-9.48 1.85-3.46 4.51-21.12 5.79-38.4 0.36-4.95 1.05-9.61 1.53-10.35 0.5-0.79 0.43-2.24-0.17-3.5-3.42-7.1-6.2-14.14-6.2-15.72 0-1-0.45-2.09-1-2.43-1.55-0.96-1.18-4.5 0.54-5.16 1.93-0.74 5.46 2.36 5.46 4.8 0 2.94 3.35 9.86 4.77 9.86 0.71 0 1.54 0.78 1.85 1.75 1.82 5.69 5.69 11.25 7.84 11.25 0.61 0 2.64 1.27 4.5 2.82 2.33 1.95 3.19 3.35 2.74 4.5-0.88 2.3-5 2.11-7.2-0.32-1-1.1-2.27-2-2.83-2s-1.85-0.76-2.87-1.68c-2.78-2.52-3.56-0.81-4.18 9.18-1.09 17.46-3.4 32.45-5.93 38.5-0.81 1.92-1.79 5.89-2.18 8.82-1.06 7.89-9.1 30.9-12 34.35-1.38 1.64-2.51 3.78-2.51 4.77 0 0.98-1.01 3.06-2.23 4.62-1.23 1.56-3.26 4.89-4.52 7.39s-2.93 5.67-3.73 7.05c-0.79 1.37-2.58 5.14-3.98 8.36-1.39 3.23-3.77 7.35-5.29 9.17-4.79 5.75-9.25 12.12-9.25 13.22 0 1.55-9.49 13.59-17 21.58-6.08 6.46-9.49 9.23-17.46 14.17-1.78 1.1-4.77 3.35-6.64 5-3.21 2.82-7.56 4.78-24.4 11.01-3.85 1.43-7.68 3.02-8.5 3.55-0.83 0.52-1.95 1.1-2.5 1.29s-2.58 0.89-4.5 1.56c-4.28 1.49-42.32 2.32-49.5 1.09zm234.75-186.49c-3.56-1.55-4.42-4.51-1.31-4.51 1.07 0 2.22 0.45 2.56 1 0.75 1.21 7.5 1.35 7.5 0.15 0-0.47 0.9-1.89 2-3.15 1.1-1.27 2-3.1 2-4.07s0.56-1.96 1.25-2.19c1.61-0.54 1.5-17.4-0.13-19.02-0.62-0.62-1.12-1.86-1.12-2.77s-0.94-2.73-2.09-4.05c-1.74-2.01-2.93-2.38-7.22-2.24-2.82 0.08-5.29 0.65-5.49 1.25s-0.91 1.09-1.56 1.09c-0.66 0-1.97 0.9-2.91 2-2.01 2.34-4.73 2.64-4.73 0.51 0-1.88 3.06-5.51 4.64-5.51 0.65 0 1.37-0.54 1.59-1.2 0.27-0.79 3.14-1.22 8.5-1.25 7.33-0.05 8.29 0.17 10.18 2.35 1.15 1.32 2.09 3.14 2.09 4.05s0.46 2.1 1.01 2.66c0.56 0.56 1.3 5.34 1.65 10.63l0.63 9.62-3.74 7.46c-3.16 6.33-4.2 7.56-6.77 8.07-4.1 0.82-4.77 0.75-8.53-0.88zm-446.82-11.48c-1.15-0.46-4.14-2.9-6.67-5.43-3.38-3.38-4.76-5.66-5.28-8.7-0.83-4.93 0.3-16.9 1.6-16.9 0.5 0 0.92-0.6 0.92-1.32 0-0.73 1.13-2.3 2.51-3.5 2.12-1.85 3.72-2.18 10.5-2.18 4.39 0 7.99 0.39 7.99 0.88s0.9 1.12 2 1.41c2.49 0.65 2.65 3.71 0.19 3.71-1 0-2.68-0.66-3.75-1.47-1.08-0.82-4.13-1.48-6.87-1.5-4.37-0.03-5.29 0.36-8.11 3.44-3.42 3.74-4.93 9.92-3.8 15.57 0.67 3.38 8.25 11.59 12.03 13.03 1.29 0.49 5.04 0.61 8.33 0.27 4.94-0.52 5.98-0.37 5.98 0.88 0 2.45-12.75 3.76-17.57 1.81zm251.07-99.93c-4.04-1.76-6-5.08-6-10.19 0-3.99 0.5-5.37 2.77-7.64 2.29-2.28 3.65-2.77 7.73-2.77s5.44 0.49 7.73 2.77c2.28 2.28 2.77 3.65 2.77 7.73 0 4-0.5 5.45-2.6 7.55-2.8 2.8-8.93 4.06-12.4 2.55zm-35-11c-4.04-1.76-6-5.08-6-10.19 0-3.99 0.5-5.37 2.77-7.64 2.29-2.28 3.65-2.77 7.73-2.77s5.44 0.49 7.73 2.77c2.28 2.28 2.77 3.65 2.77 7.73 0 4-0.5 5.45-2.6 7.55-2.8 2.8-8.93 4.06-12.4 2.55zm1.67-112.76c1.01-0.91 1.83-2.34 1.83-3.17 0-2.54-3.15-5.17-6.19-5.17-3.7 0-4.66-2.46-2.06-5.3 1.11-1.21 2.3-4.26 2.66-6.77 0.54-3.77 0.29-5.05-1.45-7.25-1.16-1.48-2.88-2.68-3.83-2.68s-2.16-0.43-2.68-0.95c-0.53-0.53-4.32-1.09-8.44-1.25-8.56-0.35-9.86-1.81-6.11-6.89 2.27-3.06 2.78-9 1.14-13.3-1.33-3.51-4.72-5.45-11.62-6.65-5.38-0.94-8.07-1.8-12.42-3.93-3.28-1.61-2.12-4.66 4.45-11.76 7.42-8.01 7.94-10.1 4.09-16.21-2.63-4.16-8.35-9.06-10.58-9.06-0.74 0-2.53-1.13-3.97-2.51l-2.62-2.51-2.69 4.11-2.7 4.11 2.7 2.15c1.48 1.18 3.4 2.69 4.26 3.36s2.36 1.24 3.33 1.25c0.97 0.02 2.28 1.15 2.9 2.51 0.99 2.18 0.68 3.01-2.69 7.25-2.09 2.62-5.75 6.81-8.12 9.29-5.66 5.92-6.54 9.91-2.82 12.84 1.5 1.18 3.35 2.15 4.11 2.15s2.16 0.39 3.11 0.88c0.96 0.49 3.09 1.44 4.74 2.12 1.65 0.67 3.69 1.57 4.54 1.99s3.91 1.09 6.82 1.49c3.15 0.43 5.51 1.31 5.84 2.17 0.67 1.77-2.37 7.67-5.45 10.58-1.87 1.75-2.25 3.18-2.25 8.37 0 5.56 0.29 6.48 2.63 8.32 3.26 2.57 3.97 2.57 9.13 0.08s14.01-2.76 14.9-0.44c0.36 0.93-0.46 2.66-2.03 4.3-1.45 1.51-2.63 3.42-2.63 4.24s-0.51 2-1.13 2.62c-1.44 1.45-0.49 5.22 2.18 8.61 1.94 2.47 2.65 2.67 9.69 2.67 5.67 0 8.07-0.42 9.43-1.66zm54.89-4.19c1.26-1.02 3.46-4.96 4.9-8.75l2.62-6.9 4.68-0.31c3.63-0.23 5.13-0.88 6.71-2.88 1.11-1.42 2.03-3.35 2.03-4.29 0-2.42 2.98-4.8 6.5-5.19l3-0.33 0.29-7.86c0.23-6.17-0.08-8.43-1.45-10.5l-1.76-2.64-0.75 4.35c-0.99 5.64-2.33 7.15-6.38 7.15-3.46 0-7.45 3.65-7.45 6.8 0 2.24-3 5.2-5.26 5.2-3.67 0-9.37 5.59-10.76 10.56-0.71 2.54-2.35 6.17-3.64 8.07-2.78 4.1-2.87 5.12-0.69 7.54 2.11 2.33 4.52 2.32 7.41-0.02zm-28.47-11.66c6.96-3.62 10.91-7.09 11.23-9.87 0.43-3.64-3.66-11.65-9.63-18.9-8.01-9.72-9.37-11.7-8.94-12.98 0.23-0.68 2.62-2.38 5.31-3.78 2.7-1.39 5.57-3.73 6.39-5.19 1.37-2.44 1.3-3.1-0.84-7.97-3.2-7.24-3.22-9.22-0.11-9.64 3-0.41 6-2.9 6-4.97 0-1.86-4.73-8.19-6.12-8.19-1.72 0-11.86-9.4-11.87-11.01-0.01-0.83-1.47-2-3.26-2.6s-3.97-1.41-4.86-1.8c-1.26-0.55-1.88 0.29-2.89 3.92-1.17 4.17-1.11 4.86 0.6 7.13 1.67 2.2 4.28 3.98 9.33 6.32 2.62 1.22 3.68 3.87 2.31 5.79-0.68 0.96-1.74 2.87-2.34 4.25-1.1 2.51-1.02 2.86 2.37 11.14 1.01 2.46 0.68 3.01-5.09 8.35-7.79 7.21-8.23 10.29-2.36 16.78 14.1 15.58 16.79 20.78 11.78 22.69-2.64 1-5.6 4.67-5.6 6.93 0 1.81 2.9 5.11 4.5 5.11 0.66 0 2.5-0.68 4.09-1.51zm80.17 0.61c9.51-4.91 19.13-9.12 20.87-9.11 1.17 0 2.69-0.68 3.38-1.51 0.7-0.84 2.89-2.27 4.88-3.19 1.98-0.91 4.68-2.48 5.99-3.48 1.32-1 3.38-1.81 4.6-1.81 5.58 0 13.52-5.92 13.52-10.09 0-3.33-8.97-11.91-12.45-11.91-1.23 0-3.06-0.9-4.05-2-1-1.1-2.65-2-3.67-2s-2.64-0.38-3.6-0.85c-3.77-1.83-8.55-4.25-12.98-6.57l-3.25-1.7-0.02 4.31c-0.01 2.37-0.42 4.95-0.92 5.74-0.66 1.05-0.22 1.79 1.63 2.75 1.4 0.72 3.27 1.34 4.17 1.38 2.98 0.1 10.61 4.42 10.95 6.19 0.45 2.35-1.32 2.2-7.3-0.62-9.38-4.42-12.08-4.95-15.22-2.99-1.54 0.96-2.9 1.81-3.04 1.89-0.14 0.07 0.42 2.35 1.24 5.05 1.88 6.22 1.89 8.42 0.04 8.42-0.93 0-2.07-2.05-3.07-5.5-0.88-3.03-1.96-5.5-2.39-5.5-0.9 0-2.05 10.77-2.06 19.25-0.01 4.66-0.32 5.75-1.65 5.75-1.45 0-1.58-1.3-1.14-11.41l0.51-11.41-4.12-0.42c-2.26-0.23-4.9-0.77-5.86-1.2-1.61-0.71-1.75 0.12-1.75 10.21 0 11.64 1.25 16.63 5.27 20.98 2.21 2.39 8.14 3.08 11.49 1.35zm-18.01-4.35c-0.26-0.69-1.07-2.94-1.81-5-1.01-2.82-1.9-3.75-3.58-3.75-2.49 0-2.81 0.35-3.71 4.12-0.55 2.31-0.19 2.8 3.11 4.15 4.7 1.93 6.58 2.08 5.99 0.48zm-32.6-12.66c1.33-1.04 3.49-2.05 4.81-2.25 1.67-0.24 2.64-1.23 3.17-3.24 1.2-4.51 5.69-8.6 9.44-8.6 2.47 0 3.33-0.52 3.8-2.25 1.06-3.98 0.67-9.61-0.95-13.66l-1.58-3.95-8.17-0.5c-17.13-1.03-20.58-1.88-24.29-5.93-4.59-5-4.5-8.47 0.34-13.83 2.05-2.26 6.28-5.78 9.42-7.82l5.69-3.7-3.59-1.93c-1.98-1.06-4.7-2.8-6.05-3.86-4.94-3.88-9.41-5.56-13.18-4.96-2 0.32-5.19 0.16-7.08-0.36-1.89-0.51-3.96-0.76-4.6-0.54-1.28 0.44 6.73 8.29 8.45 8.29 0.59 0 2.67 1.88 4.64 4.18 4.94 5.76 4.97 10.39 0.11 14.66-3.45 3.02-3.46 3.08-2 6.57 2.39 5.74 1.89 10.03-1.64 14.05-1.7 1.95-3.67 3.54-4.37 3.54s-1.73 0.56-2.28 1.25c-1.12 1.38 0.69 4.5 6.92 11.9 2.01 2.39 4.72 6.37 6.01 8.84 1.76 3.36 3.1 4.65 5.34 5.13 5.6 1.2 9.22 0.88 11.64-1.03zm-39.15-3.22c0-0.63-2.93-4.48-6.5-8.56-6.21-7.08-6.5-7.66-6.5-12.59s0.25-5.42 5.59-10.82l5.59-5.65-1.59-3.08c-1.99-3.85-2.03-8.81-0.09-12.54 1.89-3.62 1.89-3.63-0.48-3.63-1.09 0-4.08-2.01-6.65-4.47l-4.66-4.47 0.62-5.92 0.61-5.92-3.29 0.74c-1.82 0.41-5.33 1.94-7.81 3.39-3.49 2.04-5.85 2.65-10.35 2.65-5.59 0-6.01-0.19-10.07-4.42-3.89-4.07-4.49-4.35-7.57-3.63-4.7 1.1-16.85 6.12-16.85 6.95 0 1.27 2.37 3.1 4.02 3.1 2.27 0 9.67 6.55 12.56 11.12 1.66 2.64 2.42 5.29 2.42 8.48 0 4.3-0.45 5.12-6.07 11.13l-6.07 6.48 2.49 1.29c1.37 0.71 4.43 1.6 6.82 1.96 7.21 1.12 10.36 2.44 13.4 5.61 2.57 2.68 2.94 3.87 3.27 10.52 0.31 6.13 0.06 7.86-1.38 9.45-1.74 1.92-1.65 1.96 4.82 1.96 3.63 0 6.88 0.45 7.22 1 0.9 1.45 26.5 1.33 26.5-0.13zm89.52-17.97c10.97-6.2 12.13-11.18 4.85-20.87-6.52-8.66-7.82-9.35-16.07-8.49-8.34 0.86-9.59 1.49-13.33 6.66-3.93 5.42-3.96 10.14-0.12 15.4 3.66 5 5.82 6.86 10.15 8.72 5.3 2.29 8.5 1.98 14.52-1.42zm-188.8-8.15c2.14-2.32 2.96-6.39 3.91-19.5l0.53-7.25h-3.63c-2 0-4.93-0.67-6.51-1.49l-2.88-1.49-2.69 5.49c-2.64 5.39-5.45 7.27-5.45 3.64 0-1.02 1.14-4.01 2.54-6.63 2.4-4.51 2.44-4.88 0.84-6.65-2.27-2.52-5.26-2.36-11.79 0.63-3 1.37-6.21 2.5-7.13 2.5s-3.91 1.12-6.65 2.5c-5.97 2.99-6.81 3.07-6.81 0.61 0-2.15 4.29-4.49 11.04-6.02 2.45-0.56 6.35-1.93 8.66-3.05s5.24-2.04 6.5-2.04c2.14 0 2.3-0.41 2.3-6 0-6.2-0.64-6.96-4.27-5.12-1.55 0.79-3.71 1.72-8.23 3.54-0.83 0.33-3.42 1.69-5.76 3.01-2.35 1.33-5.59 2.7-7.21 3.06-3.79 0.83-9.03 6.77-9.03 10.23 0 3.12 3.55 7.28 6.23 7.28 2.16 0 12.22 6.56 18.66 12.17 2.41 2.11 4.91 3.83 5.54 3.83s2.7 1.33 4.61 2.96c1.9 1.62 3.97 2.97 4.59 3 0.62 0.02 1.68 0.71 2.37 1.54 1.9 2.29 7.3 1.87 9.72-0.75zm158.38-12.6l1.61-3.83-4.11-2.47c-2.25-1.36-5.34-3.09-6.85-3.83-3.18-1.58-3.66-4.02-0.79-4.02 2.13 0 11.33 4.76 11.87 6.15 0.52 1.31 2.33 1.01 4.22-0.7 1.4-1.26 1.62-2.74 1.19-8-0.44-5.52-0.28-6.45 1.12-6.45 1.06 0 1.64 0.84 1.64 2.37 0 1.31 0.28 3.78 0.62 5.5 0.67 3.35 2.49 3.85 9.13 2.53 2.87-0.58 3.06-0.94 4.2-8 0.89-5.49 1.59-7.4 2.74-7.4 1.29 0 1.43 0.94 0.86 5.75-0.37 3.16-0.88 6.47-1.14 7.36-0.31 1.09 0.53 2.03 2.58 2.88 1.68 0.7 4.12 2.54 5.42 4.09 2.35 2.78 2.39 2.79 2.97 0.62 0.33-1.21 0.6-3.98 0.6-6.14 0.02-5.49 1.97-15.54 3.63-18.72 3.25-6.2-0.05-11.84-6.92-11.84-4.19 0-11.55 1.77-13.14 3.17-0.52 0.45-1.71 0.83-2.63 0.83s-2.23 0.66-2.9 1.47-2.76 1.76-4.63 2.11c-1.88 0.36-3.66 1.04-3.96 1.53s-1.35 0.89-2.34 0.89c-0.98 0-2.6 0.9-3.59 2-1 1.1-2.35 2-3 2-0.66 0-2.05 0.95-3.1 2.11-1.04 1.16-2.8 2.52-3.9 3.02-1.1 0.49-3.35 1.78-5 2.87-1.65 1.08-3.92 2.38-5.04 2.88-1.13 0.5-2.64 1.63-3.37 2.51-0.74 0.88-1.82 1.61-2.42 1.61s-2.79 1.66-4.88 3.7c-4.37 4.27-4.85 7.54-1.62 10.98 1.74 1.85 3.23 2.32 7.44 2.32 2.9 0 5.55 0.45 5.89 1s4.08 0.99 8.31 0.99l7.69-0.01 1.6-3.83zm51.27-0.15c3.26 0 6.63-2.45 6.63-4.83 0-3.13-3.15-5.17-7.91-5.14-5.27 0.04-8.41 2.12-9.46 6.28-0.61 2.44-0.31 2.92 2.59 4.15 2.02 0.86 3.64 1.04 4.23 0.46 0.52-0.51 2.29-0.92 3.92-0.92zm-202.58-19.9c2.04-1.04 5.85-3.88 8.46-6.32 4.65-4.33 4.75-4.54 4.75-10.47 0-7.34-1.85-10.13-9.14-13.79-7.77-3.9-10.36-3.46-16.13 2.73-10.97 11.77-11.42 19.61-1.55 26.77 4.78 3.46 8.39 3.74 13.61 1.08zm139.55-10.16c1.44-1.13 3.34-3.72 4.22-5.75s2.02-4.47 2.52-5.43c0.51-0.96 0.92-2.55 0.92-3.55 0-1.96 4.51-11.75 6.55-14.21 0.68-0.83 1.53-3.75 1.87-6.5 1.88-14.88 1.93-13.94-0.93-17.33-2.39-2.84-3.22-3.17-7.83-3.1-3.24 0.05-6.28 0.78-8.16 1.97-4.87 3.07-9.68 5.02-14.83 6.01-6.7 1.28-7.08 1.73-3.8 4.49 1.58 1.33 3.43 3.78 4.12 5.44 1.42 3.42 1.58 3.47 5.01 1.52 3.28-1.88 6-1.88 6 0 0 0.85-2.19 2.46-5.02 3.7-2.76 1.2-4.88 2.59-4.72 3.09 0.17 0.49 4.45 2.22 9.52 3.85 6.04 1.93 9.22 3.45 9.22 4.4 0 2.01-1.72 1.84-10.71-1.03-9.11-2.91-10.29-3.03-10.29-1.01 0 0.82 0.69 1.5 1.54 1.5 2.25 0 12.46 7.8 12.46 9.53 0 2.48-2.84 1.65-8.43-2.48-5.37-3.97-6.57-4.16-6.57-1.03 0 0.94-1.09 3.3-2.42 5.26-2.51 3.7-2.41 4.72 0.46 4.72 0.94 0 2.32 0.73 3.07 1.63 2.36 2.85 8.29 6.25 11 6.31 1.44 0.03 3.8-0.87 5.23-2zm-167.4-13.16c-1.07-0.4-1.94-1.36-1.94-2.13 0-1.47 6.12-6.65 7.86-6.65 1.4 0 5.14-4.96 5.14-6.81 0-2.01-2.92-5.19-4.76-5.19-1.66 0-6.8 3.85-16.49 12.36-5.54 4.86-6.75 6.47-6.75 8.95 0 1.67 0.7 3.8 1.55 4.74 1.46 1.61 2.03 1.53 9.44-1.42 6.15-2.44 7.47-3.29 5.95-3.85zm47.82 6.37c0.96-0.46 2.74-1.36 3.97-2 1.24-0.63 2.72-1.15 3.3-1.15 0.59 0 2.93-0.9 5.2-2 2.28-1.1 5.04-2 6.14-2 3.65 0 6.63-3.9 6.63-8.67 0-5.32-2.74-8.61-18.11-21.76-11.12-9.52-17.52-13.57-21.41-13.57-2.87 0-8.48 4.56-8.48 6.89 0 0.94-0.38 2.13-0.83 2.66-1.41 1.61-3.17 8.97-3.17 13.25 0 2.24-0.4 5.11-0.88 6.38-0.85 2.23-0.7 2.32 4.25 2.35 2.82 0.01 5.92 0.4 6.88 0.85 1.45 0.69 1.75 0.34 1.76-2.03 0.02-5.75 1.23-10.35 2.72-10.35 1.22 0 1.35 1.18 0.77 6.94-0.38 3.81-0.39 7.43-0.02 8.02 0.42 0.69 3.05-0.58 7.14-3.44 3.56-2.49 7.16-4.52 8-4.52 3.11 0 0.73 3.54-4.86 7.24l-5.72 3.78 1.98 3.24c1.08 1.78 1.97 4.92 1.97 6.99 0.01 4.04 0.14 4.18 2.77 2.9zm45.36-0.9c4.09-2.99 6.77-4.25 9.04-4.25 4.34 0 5.55-2.34 4.41-8.53-0.91-4.95-1.25-5.52-3.05-4.97-3.15 0.96-12.94 3.42-13.77 3.46-0.41 0.02-0.75-0.82-0.75-1.88 0-1.47 0.98-2.07 4.25-2.62 2.34-0.38 6.61-1.58 9.5-2.65 4.34-1.62 5.25-2.37 5.25-4.37 0-1.83-0.88-2.78-3.62-3.93-2-0.83-4.66-1.51-5.92-1.51-3.38 0-5.46-1.02-5.46-2.68 0-1.2 1.03-1.34 5.64-0.76 3.1 0.39 6.7 1.25 7.99 1.92 2.11 1.09 2.73 0.85 6.16-2.38l3.82-3.6-3.56-2.88c-1.95-1.58-4.98-3.49-6.73-4.24-1.75-0.74-3.44-1.76-3.74-2.26-1.03-1.65-10.5-6.12-12.99-6.12-1.34 0-3.82 1.16-5.51 2.59-2.58 2.16-3.08 3.3-3.08 6.98 0 4.32-1.48 11.99-3.08 15.93-0.44 1.1-1.06 5.15-1.36 9s-0.83 9.17-1.16 11.82c-0.53 4.13-0.29 5.17 1.67 7.25 1.89 2.02 3.24 2.43 7.97 2.43 3.84 0 6.47-0.57 8.08-1.75zm49.39-3.56c2.53-2.54 3.45-4.47 3.93-8.25 0.33-2.72 1.05-6.33 1.59-8.01 1.75-5.54 1.18-8.43-2.39-12l-3.37-3.36-11.88 0.12-11.89 0.11-3.25 3.25c-1.97 1.97-3.25 4.25-3.25 5.8 0 1.4-0.51 3.66-1.13 5.02-1.92 4.22-0.2 11.5 3.62 15.32 2.79 2.79 4.07 3.32 8.16 3.41 2.67 0.05 5.97 0.46 7.35 0.9 5.56 1.78 9.06 1.13 12.51-2.31zm-130.46-7.92c1.62-1.77 2.95-3.81 2.95-4.53s-1.4 0.28-3.11 2.22c-1.7 1.95-3.7 3.54-4.44 3.54-0.73 0-1.61 0.45-1.95 1-1.55 2.51 3.93 0.65 6.55-2.23zm112.23-38.68c2.08-1.15 4.87-2.09 6.2-2.09s3.68-0.54 5.22-1.2c6.4-2.73 7.92-6.03 4.3-9.31-1.74-1.57-2.52-1.65-5.87-0.65-2.12 0.64-4.83 1.16-6.01 1.16-1.95 0-3.81 0.72-8.12 3.15-0.83 0.47-2.4 1.25-3.5 1.75-2.66 1.19-8.02 6.91-7.23 7.71 0.35 0.34 2.12 1.65 3.93 2.91 3.19 2.21 3.36 2.23 5.3 0.48 1.1-0.99 3.7-2.75 5.78-3.91z"/>
    </g>
  </g>
  <metadata>
    <rdf:RDF>
      <cc:Work>
        <dc:format>image/svg+xml</dc:format>
        <dc:type rdf:resource="http://purl.org/dc/dcmitype/StillImage"/>
        <cc:license rdf:resource="http://creativecommons.org/licenses/publicdomain/"/>
        <dc:publisher>
          <cc:Agent rdf:about="http://openclipart.org/">
            <dc:title>Openclipart</dc:title>
          </cc:Agent>
        </dc:publisher>
        <dc:title>Baby girl sitting</dc:title>
        <dc:date>2007-09-09T14:07:58</dc:date>
        <dc:description>The baby can hold something in her hands: a bottle, a rattle... a favourite toy...</dc:description>
        <dc:source>https://openclipart.org/detail/5343/baby-girl-sitting-by-papapishu</dc:source>
        <dc:creator>
          <cc:Agent>
            <dc:title>papapishu</dc:title>
          </cc:Agent>
        </dc:creator>
        <dc:subject>
          <rdf:Bag>
            <rdf:li>baby</rdf:li>
            <rdf:li>child</rdf:li>
            <rdf:li>girl</rdf:li>
            <rdf:li>infant</rdf:li>
            <rdf:li>people</rdf:li>
            <rdf:li>remix</rdf:li>
            <rdf:li>sitting</rdf:li>
            <rdf:li>smiling</rdf:li>
            <rdf:li>worldlabel</rdf:li>
          </rdf:Bag>
        </dc:subject>
      </cc:Work>
      <cc:License rdf:about="http://creativecommons.org/licenses/publicdomain/">
        <cc:permits rdf:resource="http://creativecommons.org/ns#Reproduction"/>
        <cc:permits rdf:resource="http://creativecommons.org/ns#Distribution"/>
        <cc:permits rdf:resource="http://creativecommons.org/ns#DerivativeWorks"/>
      </cc:License>
    </rdf:RDF>
  </metadata>
</svg>