<?xml version="1.0" encoding="UTF-8" standalone="no"?>
<!-- Creator: CorelDRAW X5 -->
<svg xmlns:inkscape="http://www.inkscape.org/namespaces/inkscape" xmlns:rdf="http://www.w3.org/1999/02/22-rdf-syntax-ns#" xmlns="http://www.w3.org/2000/svg" xmlns:dc="http://purl.org/dc/elements/1.1/" xmlns:ns1="http://sozi.baierouge.fr" xmlns:cc="http://web.resource.org/cc/" xmlns:xlink="http://www.w3.org/1999/xlink" xmlns:sodipodi="http://sodipodi.sourceforge.net/DTD/sodipodi-0.dtd" style="fill-rule:evenodd;text-rendering:geometricPrecision;image-rendering:optimizeQuality;clip-rule:evenodd;shape-rendering:geometricPrecision" xml:space="preserve" viewBox="0 0 15133 5761">
 <defs>
  <style type="text/css">
    .str0 {stroke:#2B2A29;stroke-width:7.62}
    .fil0 {fill:#2B2A29}
  </style>
 </defs>
 <g id="Layer_x0020_1">
  <path class="fil0 str0" d="m2905 4051v-518c0-1447 484-1603 1165-1619 50-83 26-135-63-242-165-120-275-331-275-571 0-373 265-676 591-676 327 0 592 303 592 676 0 244-113 457-282 576-86 103-104 155-53 237 543 14 961 117 1106 897 74 174 288 572 509 26 137-825 562-931 1117-945 50-83 26-135-63-242-165-120-275-331-275-571 0-216 89-409 228-533-173 119-300 162-278 280-7-159 110-289 253-365-119 19-196 36-215 121 138-359 711-245 945-56 152 122 251 324 251 553 0 244-113 457-282 576-86 103-104 155-53 237 555 14 979 122 1115 950 87 189 297 525 510-45 148-769 565-871 1106-884 50-83 26-135-63-242-165-120-275-331-275-571 0-128 31-247 85-349v-263l-442 114 295-437 1467-162 16 30-88 88-15 602c0 175 97 529-59 529h-29c-27 0-45-10-57-26-31 190-132 352-272 450-86 103-104 155-53 237 679 17 1162 174 1162 1619v527c-2991-1192-6339-1197-9323-8zm11593 1262c69 45 138 91 206 138l3 2c71 49 142 98 212 149l1 1c71 51 141 102 211 155-2556-1953-12573-1945-15129 0 69-52 139-104 208-155l2-2c70-50 139-100 210-149l3-2c58-41 117-81 176-120l11-5c4176-2713 9659-2710 13875-16l10 5zm-3978-3071h359 43c50 0 101-63 113-140s-19-140-69-140h-403c-50 0-101 63-113 140s19 140 69 140zm359 0v12l-361-5c-86 377-220 960-220 960s83-70 188-61 43 114 184 114c140 0 118-87 184-74s26-945 26-945zm-6974-212c86 130 364 607 527 1035l-107-878-126-144-295-13zm771 1037c53-329 88-714 36-1001l-173-8-63 124 200 885zm3179-676h499v108h-499v-108zm3477-1608c30 64 51 134 62 208 15-69 35-139 43-190 33-190 11-408 11-605l-244 194 128 393z"/>
 </g>
<metadata><rdf:RDF><cc:Work><dc:format>image/svg+xml</dc:format><dc:type rdf:resource="http://purl.org/dc/dcmitype/StillImage"/><cc:license rdf:resource="http://creativecommons.org/licenses/publicdomain/"/><dc:publisher><cc:Agent rdf:about="http://openclipart.org/"><dc:title>Openclipart</dc:title></cc:Agent></dc:publisher></cc:Work><cc:License rdf:about="http://creativecommons.org/licenses/publicdomain/"><cc:permits rdf:resource="http://creativecommons.org/ns#Reproduction"/><cc:permits rdf:resource="http://creativecommons.org/ns#Distribution"/><cc:permits rdf:resource="http://creativecommons.org/ns#DerivativeWorks"/></cc:License></rdf:RDF></metadata></svg>