<?xml version="1.0" encoding="UTF-8" standalone="no"?>
<!-- Created with Inkscape (http://www.inkscape.org/) -->

<svg
   xmlns:dc="http://purl.org/dc/elements/1.1/"
   xmlns:cc="http://creativecommons.org/ns#"
   xmlns:rdf="http://www.w3.org/1999/02/22-rdf-syntax-ns#"
   xmlns:svg="http://www.w3.org/2000/svg"
   xmlns="http://www.w3.org/2000/svg"
   xmlns:sodipodi="http://sodipodi.sourceforge.net/DTD/sodipodi-0.dtd"
   xmlns:inkscape="http://www.inkscape.org/namespaces/inkscape"
   id="svg2"
   sodipodi:docname="guitar.svg"
   viewBox="0 0 209.80975 561.31811"
   sodipodi:version="0.32"
   version="1.0"
   inkscape:output_extension="org.inkscape.output.svg.inkscape"
   inkscape:version="0.92.3 (2405546, 2018-03-11)"
   width="209.80974"
   height="561.31812">
  <defs
     id="defs4">
    <linearGradient
       id="linearGradient3468"
       y2="704.89001"
       gradientUnits="userSpaceOnUse"
       x2="359"
       y1="687.69"
       x1="411.98999"
       inkscape:collect="always">
      <stop
         id="stop3464"
         style="stop-color:#1a1a1a"
         offset="0" />
      <stop
         id="stop3466"
         style="stop-color:#1b1d1b"
         offset="1" />
    </linearGradient>
  </defs>
  <sodipodi:namedview
     id="base"
     bordercolor="#666666"
     inkscape:pageshadow="2"
     inkscape:window-y="0"
     pagecolor="#ffffff"
     inkscape:window-height="717"
     inkscape:zoom="0.50933035"
     inkscape:window-x="0"
     showgrid="false"
     borderopacity="1.0"
     inkscape:current-layer="layer3"
     inkscape:cx="251.74467"
     inkscape:cy="95.488796"
     inkscape:window-width="1366"
     inkscape:pageopacity="0.0"
     inkscape:document-units="px"
     inkscape:window-maximized="1"
     fit-margin-top="0"
     fit-margin-left="0"
     fit-margin-right="0"
     fit-margin-bottom="0" />
  <g
     id="layer3"
     inkscape:label="naj"
     inkscape:groupmode="layer"
     transform="translate(-193.00559,-24.639583)">
    <g
       id="g4064"
       transform="matrix(0.56582163,0,0,0.56582163,83.798853,10.697974)">
      <path
         d="m 328.73,550.27 c -88.24,10.16 -106.43,37.83 -112.54,95.35 -3.41,32.05 23.06,58.66 24.69,90.85 2.11,41.97 -61.66,107.79 -44.41,180.65 8.04,33.97 40.81,67.15 79.12,82.66 -20.26,-11.26 -35.43,-28.15 -40.62,-50.09 -17.25,-72.87 47.52,-153.5 45.41,-195.47 -1.63,-32.19 -31.07,-70.61 -27.66,-102.66 6.11,-57.52 35.6,-81.24 100.94,-93.7 -11.94,-4.39 -12.7,-3.57 -24.93,-7.59 z"
         style="fill:#814b21;fill-rule:evenodd;stroke:#000000"
         sodipodi:nodetypes="cssscssscc"
         id="path2677"
         inkscape:connector-curvature="0" />
      <path
         d="m 377.11,554.81 c -88.23,10.16 -118.27,39.22 -124.39,96.75 -3.4,32.04 26.03,70.48 27.65,102.67 2.11,41.97 -62.66,122.6 -45.41,195.46 12.31,52.01 80.75,75.71 140.18,63.21 31.38,-6.6 73.11,-17.03 102.67,-31.62 46.19,-22.79 91.25,-79.86 84.9,-150.05 -3.84,-42.44 -60.19,-87.67 -65.16,-125.38 -4.62,-35.03 23.62,-94.59 -6.91,-128.33 -32.24,-35.64 -79.98,-26.57 -113.53,-22.71 z"
         style="fill:#f4b679;fill-rule:evenodd;stroke:#000000"
         sodipodi:nodetypes="csssssssss"
         id="path2675"
         inkscape:connector-curvature="0" />
      <path
         d="m 328.09,197.24 c -4.92,-12.15 -11.43,-23.9 -23.74,-34.21 L 288.3,31.8 c 4.89,-4.573 9.77,-3.528 14.66,-0.7 9.27,-9.039 16.08,-6.975 21.64,0.698 5.12,-0.64 10.24,-2.941 15.36,3.49 l 33.5,127.74 c -8.53,6.16 -8.25,19.37 -7.68,32.81 l -37.69,1.4 z"
         style="fill:#814b21;fill-rule:evenodd;stroke:#000000"
         sodipodi:nodetypes="ccccccccc"
         id="path2688"
         inkscape:connector-curvature="0" />
      <path
         d="m 288.5,33.375 c -1.04,0.819 -2.19,1.915 -3.69,3.313 l 16.07,131.22 c 12.3,10.3 23.7,26.25 28.62,38.4 l -1.41,-9.06 c -4.92,-12.15 -11.44,-23.92 -23.75,-34.22 L 288.5,33.368 Z"
         style="fill:#f4b679;fill-rule:evenodd;stroke:#000000"
         sodipodi:nodetypes="ccccccc"
         id="path2710"
         inkscape:connector-curvature="0" />
      <path
         d="m 352.43,557.77 -22.7,-7.9 c -0.17,-17.6 2.8,-25.81 7.89,-27.64 4.17,5.93 6.92,11.22 13.71,9.3 z"
         style="fill:#814b21;fill-rule:evenodd;stroke:#000000"
         sodipodi:nodetypes="ccccc"
         id="path2713"
         inkscape:connector-curvature="0" />
      <path
         d="m 333.8,834.83 0.86,28.98 c 32.31,-16.08 34.17,7.43 75.03,-2.97 37.45,-9.53 34.48,-35.08 62.19,-29.61 l -0.98,-26.66 z"
         style="fill:#1a1a1a;fill-rule:evenodd;stroke:#000000"
         sodipodi:nodetypes="ccsccc"
         id="path2715"
         inkscape:connector-curvature="0" />
      <path
         d="m 371.95,834.55 0.26,6.8 67.13,-15.29 0.3,-6.27 z"
         style="fill:#ffccaa;fill-rule:evenodd;stroke:#000000"
         id="path2717"
         inkscape:connector-curvature="0" />
      <ellipse
         transform="matrix(1.2903,0.27188,-0.30164,1.163,97.632,-221.59)"
         style="fill:#808080;stroke:#000000;stroke-width:0.79487002"
         id="path3304"
         cx="388.81967"
         cy="697.922"
         rx="39.789444"
         ry="50.085838" />
      <ellipse
         transform="matrix(1.1574,0.24176,-0.27055,1.0342,127.64,-119.96)"
         style="fill:#f4b679;stroke:#000000;stroke-width:0.89004999"
         id="path3302"
         cx="388.81967"
         cy="697.922"
         rx="39.789444"
         ry="50.085838" />
      <path
         d="m 360.2,651.68 54.45,-6.3 -47.47,-448.84 -39.09,0.7 z"
         style="fill:#1a1a1a;fill-rule:evenodd;stroke:#000000"
         sodipodi:nodetypes="ccccc"
         id="path2686"
         inkscape:connector-curvature="0" />
      <ellipse
         transform="matrix(0.97409,0.21489,-0.22771,0.91922,169,-29.268)"
         style="fill:url(#linearGradient3468);stroke:#000000;stroke-width:1.02909994"
         id="path2723"
         cx="388.81967"
         cy="697.922"
         rx="39.789444"
         ry="50.085838" />
      <ellipse
         transform="matrix(1.4569,0.29718,-0.34059,1.2713,60.039,-306.97)"
         style="fill:none;stroke:#000000;stroke-width:0.7155"
         id="path3306"
         cx="388.81967"
         cy="697.922"
         rx="39.789444"
         ry="50.085838" />
      <g
         style="fill:#d6d6d7"
         id="g3319">
        <path
           d="m 307.75,62.188 c -4.5,0 -8.13,3.091 -8.13,6.906 0,3.814 3.63,6.906 8.13,6.906 4.5,0 8.16,-3.092 8.16,-6.906 0,-1.002 -0.24,-1.953 -0.69,-2.813 L 309,72.062 c -4.75,-1.116 -4.36,-3.505 -3.97,-5.906 l 4.75,-3.75 c -0.64,-0.139 -1.33,-0.218 -2.03,-0.218 z"
           style="fill:#d6d6d7;stroke:#000000"
           id="path3310"
           inkscape:connector-curvature="0" />
        <path
           d="m 305.05,66.143 c -0.39,2.401 -0.8,4.807 3.95,5.923 l 6.91,-6.417 c 2.14,-2.938 -1.56,-6.362 -3.95,-4.936 z"
           style="fill:#d6d6d7;fill-rule:evenodd;stroke:#000000;stroke-width:1px"
           sodipodi:nodetypes="ccccc"
           id="path3312"
           inkscape:connector-curvature="0" />
      </g>
      <g
         transform="translate(3.9488,30.11)"
         style="fill:#d6d6d7"
         id="g3323">
        <path
           d="m 307.75,62.188 c -4.5,0 -8.13,3.091 -8.13,6.906 0,3.814 3.63,6.906 8.13,6.906 4.5,0 8.16,-3.092 8.16,-6.906 0,-1.002 -0.24,-1.953 -0.69,-2.813 L 309,72.062 c -4.75,-1.116 -4.36,-3.505 -3.97,-5.906 l 4.75,-3.75 c -0.64,-0.139 -1.33,-0.218 -2.03,-0.218 z"
           style="fill:#d6d6d7;stroke:#000000"
           id="path3325"
           inkscape:connector-curvature="0" />
        <path
           d="m 305.05,66.143 c -0.39,2.401 -0.8,4.807 3.95,5.923 l 6.91,-6.417 c 2.14,-2.938 -1.56,-6.362 -3.95,-4.936 z"
           style="fill:#d6d6d7;fill-rule:evenodd;stroke:#000000;stroke-width:1px"
           sodipodi:nodetypes="ccccc"
           id="path3327"
           inkscape:connector-curvature="0" />
      </g>
      <g
         transform="translate(8.8849,62.688)"
         style="fill:#d6d6d7"
         id="g3329">
        <path
           d="m 307.75,62.188 c -4.5,0 -8.13,3.091 -8.13,6.906 0,3.814 3.63,6.906 8.13,6.906 4.5,0 8.16,-3.092 8.16,-6.906 0,-1.002 -0.24,-1.953 -0.69,-2.813 L 309,72.062 c -4.75,-1.116 -4.36,-3.505 -3.97,-5.906 l 4.75,-3.75 c -0.64,-0.139 -1.33,-0.218 -2.03,-0.218 z"
           style="fill:#d6d6d7;stroke:#000000"
           id="path3331"
           inkscape:connector-curvature="0" />
        <path
           d="m 305.05,66.143 c -0.39,2.401 -0.8,4.807 3.95,5.923 l 6.91,-6.417 c 2.14,-2.938 -1.56,-6.362 -3.95,-4.936 z"
           style="fill:#d6d6d7;fill-rule:evenodd;stroke:#000000;stroke-width:1px"
           sodipodi:nodetypes="ccccc"
           id="path3333"
           inkscape:connector-curvature="0" />
      </g>
      <g
         transform="translate(45.905,63.181)"
         style="fill:#d6d6d7"
         id="g3335">
        <path
           d="m 307.75,62.188 c -4.5,0 -8.13,3.091 -8.13,6.906 0,3.814 3.63,6.906 8.13,6.906 4.5,0 8.16,-3.092 8.16,-6.906 0,-1.002 -0.24,-1.953 -0.69,-2.813 L 309,72.062 c -4.75,-1.116 -4.36,-3.505 -3.97,-5.906 l 4.75,-3.75 c -0.64,-0.139 -1.33,-0.218 -2.03,-0.218 z"
           style="fill:#d6d6d7;stroke:#000000"
           id="path3337"
           inkscape:connector-curvature="0" />
        <path
           d="m 305.05,66.143 c -0.39,2.401 -0.8,4.807 3.95,5.923 l 6.91,-6.417 c 2.14,-2.938 -1.56,-6.362 -3.95,-4.936 z"
           style="fill:#d6d6d7;fill-rule:evenodd;stroke:#000000;stroke-width:1px"
           sodipodi:nodetypes="ccccc"
           id="path3339"
           inkscape:connector-curvature="0" />
      </g>
      <g
         transform="translate(38.995,31.097)"
         style="fill:#d6d6d7"
         id="g3341">
        <path
           d="m 307.75,62.188 c -4.5,0 -8.13,3.091 -8.13,6.906 0,3.814 3.63,6.906 8.13,6.906 4.5,0 8.16,-3.092 8.16,-6.906 0,-1.002 -0.24,-1.953 -0.69,-2.813 L 309,72.062 c -4.75,-1.116 -4.36,-3.505 -3.97,-5.906 l 4.75,-3.75 c -0.64,-0.139 -1.33,-0.218 -2.03,-0.218 z"
           style="fill:#d6d6d7;stroke:#000000"
           id="path3343"
           inkscape:connector-curvature="0" />
        <path
           d="m 305.05,66.143 c -0.39,2.401 -0.8,4.807 3.95,5.923 l 6.91,-6.417 c 2.14,-2.938 -1.56,-6.362 -3.95,-4.936 z"
           style="fill:#d6d6d7;fill-rule:evenodd;stroke:#000000;stroke-width:1px"
           sodipodi:nodetypes="ccccc"
           id="path3345"
           inkscape:connector-curvature="0" />
      </g>
      <g
         transform="translate(30.603)"
         style="fill:#d6d6d7"
         id="g3347">
        <path
           d="m 307.75,62.188 c -4.5,0 -8.13,3.091 -8.13,6.906 0,3.814 3.63,6.906 8.13,6.906 4.5,0 8.16,-3.092 8.16,-6.906 0,-1.002 -0.24,-1.953 -0.69,-2.813 L 309,72.062 c -4.75,-1.116 -4.36,-3.505 -3.97,-5.906 l 4.75,-3.75 c -0.64,-0.139 -1.33,-0.218 -2.03,-0.218 z"
           style="fill:#d6d6d7;stroke:#000000"
           id="path3349"
           inkscape:connector-curvature="0" />
        <path
           d="m 305.05,66.143 c -0.39,2.401 -0.8,4.807 3.95,5.923 l 6.91,-6.417 c 2.14,-2.938 -1.56,-6.362 -3.95,-4.936 z"
           style="fill:#d6d6d7;fill-rule:evenodd;stroke:#000000;stroke-width:1px"
           sodipodi:nodetypes="ccccc"
           id="path3351"
           inkscape:connector-curvature="0" />
      </g>
      <path
         d="m 288.02,65.649 -5.68,0.494 c -0.84,-5.417 -6.79,-12.172 -14.81,-3.455 -4.6,5 -2.48,14.966 5.43,17.769 7.59,2.691 12.1,-7.149 9.87,-9.378 h 5.93 z"
         style="fill:#cb9765;fill-rule:evenodd;stroke:#000000;stroke-width:1px"
         sodipodi:nodetypes="ccssccc"
         id="path3353"
         inkscape:connector-curvature="0" />
      <path
         d="m 292.21,98.227 -5.67,0.494 c -0.85,-5.417 -6.79,-12.172 -14.81,-3.456 -4.6,5.005 -2.48,14.965 5.43,17.775 7.59,2.69 12.1,-7.15 9.87,-9.38 h 5.92 z"
         style="fill:#cb9765;fill-rule:evenodd;stroke:#000000;stroke-width:1px"
         sodipodi:nodetypes="ccssccc"
         id="path3355"
         inkscape:connector-curvature="0" />
      <path
         d="m 296.16,128.83 -5.67,0.49 c -0.85,-5.41 -6.79,-12.17 -14.81,-3.45 -4.6,5 -2.48,14.97 5.43,17.77 7.59,2.69 12.1,-7.15 9.87,-9.38 h 5.92 z"
         style="fill:#cb9765;fill-rule:evenodd;stroke:#000000;stroke-width:1px"
         sodipodi:nodetypes="ccssccc"
         id="path3357"
         inkscape:connector-curvature="0" />
      <path
         d="m 348.78,60.719 c -0.73,-0.008 -1.39,0.145 -2.03,0.375 l 5.47,20.937 c 6.7,-3.438 8.27,-12.446 3.97,-17.125 -2.76,-2.996 -5.27,-4.165 -7.41,-4.187 z"
         style="fill:#cb9765;fill-rule:evenodd;stroke:#000000;stroke-width:1px"
         id="path3359"
         inkscape:connector-curvature="0" />
      <path
         d="m 357.67,94.037 c -0.73,-0.008 -1.4,0.146 -2.04,0.375 l 5.47,20.938 c 6.7,-3.44 8.28,-12.45 3.97,-17.126 -2.75,-2.996 -5.26,-4.164 -7.4,-4.187 z"
         style="fill:#cb9765;fill-rule:evenodd;stroke:#000000;stroke-width:1px"
         id="path3364"
         inkscape:connector-curvature="0" />
      <path
         d="m 365.56,124.15 c -0.72,-0.01 -1.39,0.14 -2.03,0.37 l 5.47,20.94 c 6.7,-3.44 8.27,-12.45 3.97,-17.13 -2.76,-2.99 -5.26,-4.16 -7.41,-4.18 z"
         style="fill:#cb9765;fill-rule:evenodd;stroke:#000000;stroke-width:1px"
         id="path3366"
         inkscape:connector-curvature="0" />
      <path
         d="m 327.7,197.95 0.76,6.76 40.33,-1.61 -0.91,-6.27 z"
         style="fill:#fff6ed;fill-rule:evenodd;stroke:#000000"
         sodipodi:nodetypes="ccccc"
         id="path3398"
         inkscape:connector-curvature="0" />
      <path
         d="m 331.09,239.6 0.71,3.79 40.57,-1.66 -0.85,-4.68 z"
         style="fill:#fff6ed;fill-rule:evenodd;stroke:#000000;stroke-width:0.75163001"
         sodipodi:nodetypes="ccccc"
         id="path3400"
         inkscape:connector-curvature="0" />
      <path
         d="m 333.19,270.8 0.67,3.79 40.59,-1.24 -0.81,-4.68 z"
         style="fill:#fff6ed;fill-rule:evenodd;stroke:#000000;stroke-width:0.75163001"
         sodipodi:nodetypes="ccccc"
         id="path3402"
         inkscape:connector-curvature="0" />
      <path
         d="m 335.3,303.73 0.73,3.77 44,-1.46 -0.88,-4.66 z"
         style="fill:#fff6ed;fill-rule:evenodd;stroke:#000000;stroke-width:0.78034002"
         sodipodi:nodetypes="ccccc"
         id="path3404"
         inkscape:connector-curvature="0" />
      <path
         d="m 337.39,333.85 0.76,3.76 44.67,-1.66 -0.91,-4.65 z"
         style="fill:#fff6ed;fill-rule:evenodd;stroke:#000000;stroke-width:0.78592998"
         sodipodi:nodetypes="ccccc"
         id="path3406"
         inkscape:connector-curvature="0" />
      <path
         d="m 339.48,363.17 0.77,3.76 44.67,-1.66 -0.92,-4.65 z"
         style="fill:#fff6ed;fill-rule:evenodd;stroke:#000000;stroke-width:0.78592998"
         sodipodi:nodetypes="ccccc"
         id="path3408"
         inkscape:connector-curvature="0" />
      <path
         d="m 341.58,389.44 0.85,3.74 45.99,-2.53 -1.02,-4.62 z"
         style="fill:#fff6ed;fill-rule:evenodd;stroke:#000000;stroke-width:0.79696"
         sodipodi:nodetypes="ccccc"
         id="path3410"
         inkscape:connector-curvature="0" />
      <path
         d="m 342.92,413.57 0.85,2.71 46.11,-1.84 -1.02,-3.34 z"
         style="fill:#fff6ed;fill-rule:evenodd;stroke:#000000;stroke-width:0.67885"
         sodipodi:nodetypes="ccccc"
         id="path3414"
         inkscape:connector-curvature="0" />
      <path
         d="m 344.32,437.31 0.9,2.69 48.84,-1.83 -1.08,-3.33 z"
         style="fill:#fff6ed;fill-rule:evenodd;stroke:#000000;stroke-width:0.69735998"
         sodipodi:nodetypes="ccccc"
         id="path3416"
         inkscape:connector-curvature="0" />
      <path
         d="m 346.44,460.06 1.03,2.65 48.69,-4.01 -1.25,-3.28 z"
         style="fill:#fff6ed;fill-rule:evenodd;stroke:#000000;stroke-width:0.69770998"
         sodipodi:nodetypes="ccccc"
         id="path3418"
         inkscape:connector-curvature="0" />
      <path
         d="m 347.83,481 1.04,2.65 48.69,-4.01 -1.25,-3.28 z"
         style="fill:#fff6ed;fill-rule:evenodd;stroke:#000000;stroke-width:0.69770998"
         sodipodi:nodetypes="ccccc"
         id="path3420"
         inkscape:connector-curvature="0" />
      <path
         d="m 349.93,501.94 1.03,2.66 48.69,-4.02 -1.25,-3.28 z"
         style="fill:#fff6ed;fill-rule:evenodd;stroke:#000000;stroke-width:0.69770998"
         sodipodi:nodetypes="ccccc"
         id="path3422"
         inkscape:connector-curvature="0" />
      <path
         d="m 351.32,519.39 1.04,2.66 48.69,-4.02 -1.25,-3.28 z"
         style="fill:#fff6ed;fill-rule:evenodd;stroke:#000000;stroke-width:0.69770998"
         sodipodi:nodetypes="ccccc"
         id="path3424"
         inkscape:connector-curvature="0" />
      <path
         d="m 352.72,537.54 1.04,2.66 48.68,-4.02 -1.24,-3.28 z"
         style="fill:#fff6ed;fill-rule:evenodd;stroke:#000000;stroke-width:0.69770998"
         sodipodi:nodetypes="ccccc"
         id="path3426"
         inkscape:connector-curvature="0" />
      <path
         d="m 352.73,554.29 1.11,2.65 52.08,-4 -1.33,-3.27 z"
         style="fill:#fff6ed;fill-rule:evenodd;stroke:#000000;stroke-width:0.72049999"
         sodipodi:nodetypes="ccccc"
         id="path3428"
         inkscape:connector-curvature="0" />
      <path
         d="m 354.13,571.05 1.11,2.64 52.08,-4 -1.34,-3.27 z"
         style="fill:#fff6ed;fill-rule:evenodd;stroke:#000000;stroke-width:0.72049999"
         sodipodi:nodetypes="ccccc"
         id="path3430"
         inkscape:connector-curvature="0" />
      <path
         d="m 354.13,586.4 1.11,2.65 52.08,-4 -1.34,-3.27 z"
         style="fill:#ffccaa;fill-rule:evenodd;stroke:#000000;stroke-width:0.72049999"
         sodipodi:nodetypes="ccccc"
         id="path3432"
         inkscape:connector-curvature="0" />
      <path
         d="m 354.13,586.4 1.11,2.65 52.08,-4 -1.34,-3.27 z"
         style="fill:#fff6ed;fill-rule:evenodd;stroke:#000000;stroke-width:0.72049999"
         sodipodi:nodetypes="ccccc"
         id="path3434"
         inkscape:connector-curvature="0" />
      <path
         d="m 355.52,599.67 1.11,2.64 52.08,-4 -1.33,-3.27 z"
         style="fill:#fff6ed;fill-rule:evenodd;stroke:#000000;stroke-width:0.72049999"
         sodipodi:nodetypes="ccccc"
         id="path3436"
         inkscape:connector-curvature="0" />
      <path
         d="m 357.62,612.23 1.11,2.65 52.08,-4 -1.34,-3.27 z"
         style="fill:#fff6ed;fill-rule:evenodd;stroke:#000000;stroke-width:0.72049999"
         sodipodi:nodetypes="ccccc"
         id="path3438"
         inkscape:connector-curvature="0" />
      <path
         d="m 358.31,624.1 1.11,2.64 52.09,-4 -1.34,-3.27 z"
         style="fill:#fff6ed;fill-rule:evenodd;stroke:#000000;stroke-width:0.72049999"
         sodipodi:nodetypes="ccccc"
         id="path3440"
         inkscape:connector-curvature="0" />
      <path
         d="m 359.74,637.92 1.16,2.62 51.99,-5.09 -1.4,-3.24 z"
         style="fill:#fff6ed;fill-rule:evenodd;stroke:#000000;stroke-width:0.72049999"
         sodipodi:nodetypes="ccccc"
         id="path3442"
         inkscape:connector-curvature="0" />
      <g
         style="stroke:#888488;stroke-width:2"
         id="g3470">
        <path
           d="M 390.91,849.92 340.65,195.14 316.22,100.91"
           style="fill:none;stroke:#888488;stroke-width:2"
           sodipodi:nodetypes="ccc"
           id="path3372"
           inkscape:connector-curvature="0" />
        <path
           d="M 381.14,849.92 333.67,195.14 321.81,135.81"
           style="fill:none;stroke:#888488;stroke-width:2"
           sodipodi:nodetypes="ccc"
           id="path3368"
           inkscape:connector-curvature="0" />
        <path
           d="M 434.19,837.36 367.18,195.14 355.31,138.6"
           style="fill:none;stroke:#888488;stroke-width:2"
           sodipodi:nodetypes="ccc"
           id="path3378"
           inkscape:connector-curvature="0" />
        <path
           d="M 403.48,849.92 347.63,195.14 314.13,72.28"
           style="fill:none;stroke:#888488;stroke-width:2"
           sodipodi:nodetypes="ccc"
           id="path3374"
           inkscape:connector-curvature="0" />
        <path
           d="M 425.82,842.94 360.2,193.05 341.35,102.3"
           style="fill:none;stroke:#888488;stroke-width:2"
           sodipodi:nodetypes="ccc"
           id="path3376"
           inkscape:connector-curvature="0" />
        <path
           d="M 413.95,849.23 353.92,193.75 330.88,70.89"
           style="fill:none;stroke:#888488;stroke-width:2"
           sodipodi:nodetypes="ccc"
           id="path3370"
           inkscape:connector-curvature="0" />
      </g>
    </g>
  </g>
  <metadata
     id="metadata73">
    <rdf:RDF>
      <cc:Work>
        <dc:format>image/svg+xml</dc:format>
        <dc:type
           rdf:resource="http://purl.org/dc/dcmitype/StillImage" />
        <cc:license
           rdf:resource="http://creativecommons.org/publicdomain/zero/1.0/" />
        <dc:publisher>
          <cc:Agent
             rdf:about="http://openclipart.org/">
            <dc:title>Openclipart</dc:title>
          </cc:Agent>
        </dc:publisher>
        <dc:title></dc:title>
        <dc:date>2006-12-26T00:00:00</dc:date>
        <dc:description />
        <dc:source>https://openclipart.org/detail/9512/-by--9512</dc:source>
        <dc:creator>
          <cc:Agent>
            <dc:title>papapishu</dc:title>
          </cc:Agent>
        </dc:creator>
        <dc:subject>
          <rdf:Bag>
            <rdf:li>acoustic guitar</rdf:li>
            <rdf:li>classic guitar</rdf:li>
            <rdf:li>guitar</rdf:li>
            <rdf:li>music</rdf:li>
            <rdf:li>musical instrument</rdf:li>
          </rdf:Bag>
        </dc:subject>
      </cc:Work>
      <cc:License
         rdf:about="http://creativecommons.org/publicdomain/zero/1.0/">
        <cc:permits
           rdf:resource="http://creativecommons.org/ns#Reproduction" />
        <cc:permits
           rdf:resource="http://creativecommons.org/ns#Distribution" />
        <cc:permits
           rdf:resource="http://creativecommons.org/ns#DerivativeWorks" />
      </cc:License>
    </rdf:RDF>
  </metadata>
</svg>
