<svg width="437" height="286" xmlns="http://www.w3.org/2000/svg">

 <metadata id="imagebot_6">image/svg+xml</metadata>
 <g id="imagebot_2" label="Layer 1">
  <g label="Layer 1" transform="translate(17 -9) matrix(0.961323 0 0 0.961323 -182.236 -715.382)" id="imagebot_3">
   <path fill="#59af80" fill-opacity="0.79608" d="M458.75076,1012.1367C464.18952,1009.5559 472.14286,996.6794 472.14286,990.4549C472.14286,986.0477 468.14659,981.4845 460.99642,977.7272C451.69489,972.8394 449.52736,970.3971 453.40002,969.168C455.79974,968.4063 462.77468,971.5875 475.71351,979.345C494.94934,990.8777 497.03798,991.3926 502.94259,986.0582C507.20895,982.2038 512.53388,971.9233 513.16523,966.322C513.60103,962.4555 513.49579,962.2782 508.58019,958.6001C505.8131,956.5296 496.61322,950.8558 488.13602,945.9917C479.65883,941.1275 472.30047,936.478 471.78413,935.6595C470.39966,933.4646 472.70576,931.2015 476.32676,931.2015C479.29808,931.2015 480.56711,931.8877 502.92578,945.5846C514.81376,952.8671 524.10938,957.4515 526.98788,957.4515C532.74246,957.4515 543.39286,941.7397 543.39286,933.2503C543.39286,926.288 538.39335,922.4504 509.21384,907.01504C501.50132,902.93527 494.77578,898.93889 494.26821,898.13422C492.83327,895.85936 495.25221,893.7015 499.23723,893.7015C503.60106,893.7015 513.64583,898.49567 524.34413,905.68454C542.09274,917.61094 546.88125,919.19183 553.27968,915.23738C558.88493,911.77315 565.60717,898.80335 564.47324,893.64066C563.85535,890.82741 559.26676,886.17754 555.11161,884.154C553.56473,883.40067 540.06473,875.58538 525.11161,866.78668C487.95078,844.92054 456.69143,827.13274 445.24143,821.3374L435.68375,816.49985L431.82461,819.17423C425.84191,823.32024 423.73442,826.37785 423.00095,831.97586C421.8372,840.85772 417.75085,860.73376 415.36273,869.12823C412.71504,878.43512 410.12211,881.46118 403.11369,883.42342C392.3902,886.42581 366.07996,879.75912 357.62417,871.89694C350.40828,865.18761 349.91527,856.5963 355.37854,832.764C360.59324,810.01602 365.83841,791.5209 367.85419,788.77333C368.82891,787.44476 374.94876,782.76175 381.45386,778.36664C387.95897,773.97153 393.56005,770.0968 393.90071,769.75614C395.38722,768.26963 381.97219,762.87279 377.81583,763.28523C377.24064,763.34233 368.17033,769.0079 357.65958,775.87544C333.27282,791.80932 317.55186,801.4234 310.3773,804.79069L304.70549,807.45269L291.6273,804.22803C280.74476,801.54475 235.10367,788.67218 218.75685,783.67572L214.27708,782.30647L212.07553,786.67586C203.29149,804.10943 194.16782,838.43497 191.85142,862.764C190.48739,877.09032 190.13104,918.60986 191.36161,919.83384C192.12016,920.5883 223.02924,929.551 266.08968,941.5027L272.38025,943.2487L275.67787,938.6587C277.49155,936.1342 280.66522,932.9504 282.73045,931.5837C285.97914,929.4338 287.21446,929.1548 291.89228,929.5139C298.18044,929.9966 305.16421,933.0886 313.20403,938.9494L318.79645,943.0261L324.23326,937.2142C331.84726,929.0748 334.70983,927.8672 343.10419,929.2535C350.12593,930.4131 357.02227,933.0494 359.94274,935.6904C360.91879,936.5731 362.56809,938.9827 363.60786,941.0452C364.64762,943.1077 365.63,944.9436 365.79093,945.1249C365.95185,945.3063 369.12074,943.9352 372.83289,942.0781C378.37739,939.3043 380.60579,938.7016 385.3157,938.7022C395.74895,938.7022 407.76557,946.2659 412.42857,955.765C413.76983,958.4972 415.06061,961.4082 415.29699,962.2337C415.59802,963.2849 417.28255,963.8951 420.91996,964.2705C431.12895,965.3242 442.89459,973.7501 447.39828,983.2327C450.76763,990.3271 450.10657,996.8686 445.30535,1003.9436C442.48138,1008.1049 442.93427,1009.5561 447.83807,1012.0594C451.85631,1014.1106 454.55081,1014.1297 458.75076,1012.1364L458.75076,1012.1367z" id="imagebot_5"/>
   <path fill="#59af80" d="M414.42296,1041.2875C421.24714,1034.4633 439.33036,998.04755 439.33036,991.12929C439.33036,987.19355 437.22222,983.51301 432.79955,979.72737C427.25793,974.98395 418.46646,972.88318 414.04965,975.24698C413.10368,975.75325 405.95954,987.07952 398.17378,1000.4165C385.94661,1021.3615 384.01786,1025.2085 384.01786,1028.6511C384.01786,1034.0357 387.36992,1037.0637 396.85431,1040.2464C405.28416,1043.0753 412.22387,1043.4866 414.42296,1041.2875zM376.04911,1016.2822C385.18689,1004.1749 406.97079,968.3843 406.87527,965.63535C406.76138,962.35824 401.57387,954.67314 397.67005,951.9982C392.37778,948.37188 379.02653,947.04125 375.05671,949.74448C374.5109,950.11615 367.86637,961.97405 360.29108,976.09536C344.26208,1005.9755 344.05288,1006.7491 350.50223,1012.2926C354.61725,1015.8297 368.76613,1023.2747 370.42411,1022.7754C370.93973,1022.6201 373.47098,1019.6982 376.04911,1016.2822zM337.92611,998.61479C341.68424,997.3047 347.01335,989.37718 356.3797,971.16342C360.79578,962.57596 363.39286,956.41669 363.39286,954.53093C363.39286,948.32149 350.44694,939.639 341.18842,939.639L336.22712,939.639L322.98663,959.46687C310.35716,978.37971 309.76943,979.46839 310.25084,983.05758C310.52843,985.12714 311.55766,987.91163 312.53804,989.24533C314.80278,992.3263 323.09834,996.8609 329.17411,998.3391C335.23407,999.81345 334.54949,999.79189 337.92611,998.61479zM303.54296,975.02962C307.90708,970.56883 314.43328,960.9567 315.21645,957.83631C315.87724,955.2035 312.87059,949.38488 308.86564,945.54589C304.66653,941.5208 299.81956,939.639 293.65115,939.639C287.3936,939.639 284.72664,941.60683 277.99698,951.18952C272.79189,958.6013 272.16755,962.27883 275.26377,967.28863C278.68759,972.82848 289.31241,978.91716 295.65953,978.97664C299.13452,979.00914 300.14417,978.50371 303.54296,975.02962zM571.62496,936.93261C599.94819,929.54886 623.24554,922.97437 624.08527,922.12838C626.89156,919.30112 628.29382,864.87359 625.97339,848.8423C623.84924,834.16706 617.46378,815.34567 607.53259,794.48733C602.63004,784.19059 601.28876,782.0846 599.90991,782.51867C598.98959,782.80838 580.84742,787.47096 559.59397,792.87994L520.95133,802.71444L493.96897,786.43387C479.12867,777.47956 461.74291,767.15478 455.33393,763.4899L443.68126,756.8265L434.23017,756.8265L424.77909,756.8265L418.69535,760.9305C415.3493,763.1877 404.19062,771.41059 393.89829,779.20359C372.42313,795.46387 374.82071,791.80293 369.56567,816.35775C365.34739,836.06818 363.99493,846.79059 364.50392,856.48795C365.01432,866.21239 366.21273,868.27485 373.39447,871.78854C378.09524,874.08842 379.85327,874.42106 387.25728,874.4116C393.02765,874.4046 396.8392,873.91359 399.18784,872.87588C402.34509,871.48088 402.83491,870.72576 404.93837,864.01062C406.20299,859.97342 409.03104,848.38253 411.22292,838.25309L415.20816,819.83594L425.36685,812.70622C430.95413,808.78488 435.78746,805.5765 436.10758,805.5765C437.74666,805.5765 562.18056,877.72493 565.13496,880.38829C573.42303,887.85989 574.68471,898.32749 568.71484,910.08908C564.6674,918.06318 557.96183,925.33458 553.90801,926.14535L550.89286,926.74837L550.89286,934.70024C550.89286,941.0317 551.15348,942.55209 552.17184,942.16132C552.87527,941.89138 561.62918,939.53846 571.62496,936.93261z" id="imagebot_4"/>
  </g>
  <title>Layer 1</title>
 </g>
</svg>