<svg width="123" height="98" xmlns="http://www.w3.org/2000/svg" xmlns:xlink="http://www.w3.org/1999/xlink" xmlns:undefined="http://www.inkscape.org/namespaces/inkscape">
 <defs>
  <radialGradient r="65" gradientTransform="matrix(.51027 1.0072 -.96511 .48897 655.29 -405.81)" cx="216.99" cy="497.96" gradientUnits="userSpaceOnUse" xlink:href="#imagebot_45" id="imagebot_40"/>
  <linearGradient id="imagebot_45">
   <stop stop-color="#000000" stop-opacity="0" offset="0" id="imagebot_54"/>
   <stop stop-color="#000000" stop-opacity="0.57196" offset="1" id="imagebot_53"/>
  </linearGradient>
  <filter x="-0.34802" y="-0.34085" width="1.696" height="1.6817" id="imagebot_29">
   <feGaussianBlur stdDeviation="5.46506" id="imagebot_52"/>
  </filter>
  <filter x="-0.51975" y="-0.45339" width="2.0395" height="1.9068" id="imagebot_27">
   <feGaussianBlur stdDeviation="4.15116" id="imagebot_51"/>
  </filter>
  <filter x="-0.07002" y="-0.3401" width="1.14" height="1.6802" id="imagebot_44">
   <feGaussianBlur stdDeviation="3.96783" id="imagebot_50"/>
  </filter>
  <radialGradient r="68" gradientTransform="matrix(1.4028 .0000016439 -1.4521e-7 .20588 -89.845 403.11)" cx="210.89" cy="506.35" gradientUnits="userSpaceOnUse" id="imagebot_43">
   <stop stop-color="#000000" offset="0" id="imagebot_49"/>
   <stop stop-color="#000000" stop-opacity="0" offset="1" id="imagebot_48"/>
  </radialGradient>
  <radialGradient r="15.5" gradientTransform="matrix(0.3871 1.5161 -1.4234 0.36342 734.51 -79.107)" cx="233.5" cy="409.86" gradientUnits="userSpaceOnUse" xlink:href="#imagebot_45" id="imagebot_33"/>
 </defs>
 <g label="Layer 1" id="imagebot_2">
  <title>Layer 1</title>
  <path id="imagebot_57" d="M 328 -52.5 L 340 -30 L 328 -52.5 z" stroke-opacity="0" stroke-linecap="round" stroke-linejoin="round" stroke-dasharray="null" stroke-width="10" stroke="#000000" fill="#000000"/>
  <path id="imagebot_65" transform="rotate(136.024 87.4681 33.1842) matrix(0.136667 0 0 0.136667 49.0635 3.84751)" d="M203.9888,214.65802C203.9888,196.60313 238.45627,181.97867 281.0087,181.97867C323.56112,181.97867 358.0286,196.60313 358.0286,214.65802C358.0286,232.71291 323.56112,247.33737 281.0087,247.33737C238.45627,247.33737 203.9888,232.71291 203.9888,214.65802z" stroke-opacity="null" stroke-linecap="null" stroke-linejoin="null" stroke-dasharray="null" stroke-width="3" stroke="#000000" fill="#ffff00"/>
  <g transform="translate(-20 -10) matrix(0.614367 0 0 0.614367 48.5915 39.0946)" id="imagebot_63">
   <g transform="rotate(349.378 19 38.1479) translate(4 -3)" id="imagebot_62">
    <path transform="rotate(343.719 15 41.25)" id="imagebot_60" d="M 41 -4.5 L -6 1 L 11 36 L -13 53 L 12 87 L 38 85 L 23 60 L 43 46 L 41 -4.5 z" stroke-opacity="0" stroke-linecap="round" stroke-linejoin="round" stroke-dasharray="null" stroke-width="10" stroke="#000000" fill="#ffff00"/>
    <path transform="rotate(1.70135 8.5 8) matrix(1 0 0 1 -1 -1)" id="imagebot_61" d="M -15 9.5 L 27 -9 L 34 8 L 0 27 L -15 9.5 z" stroke-opacity="0" stroke-linecap="round" stroke-linejoin="round" stroke-dasharray="null" stroke-width="10" stroke="#000000" fill="#000000"/>
   </g>
   <path label="Layer 1" filter="url(#imagebot_44)" fill="url(#imagebot_43)" d="M274,507.36C274,515.09 243.54,521.36 206,521.36S138,515.09 138,507.36S168.46,493.36 206,493.36S274,499.63 274,507.36z" transform="translate(3.33936 -25.624) matrix(0.7548 0 0 0.61103 -87.15 -194.565)" id="imagebot_42"/>
   <path transform="translate(3.33936 -25.624) matrix(1 0 0 1 -233.42 -11.735)" label="Layer 1" fill="#ffff00" d="M348.1,83.695C348.1,87.148 347.72,110.47 347,113.71C345.24,122.59 339.53,127.71 330.96,129.65C326.97,130.39 322.44,114.09 317.52,114S307.29,130.03 301.76,130.03C296.21,130.03 290.88,113.9 285.94,113.98C281,114.05 276.45,130.33 272.46,129.56C263.42,128.06 258.69,121.87 256.46,113.42C255.78,110.27 255.43,87.044 255.43,83.695C255.43,58.118 276.19,37.359 301.76,37.359C327.34,37.359 348.1,58.118 348.1,83.695z" id="imagebot_41"/>
   <path transform="translate(-1 0) matrix(1 0 0 1 -229.081 -37.359)" label="Layer 1" fill="url(#imagebot_40)" d="M348.16,84.026C348.16,87.478 347.78,110.8 347.07,114.04C345.3,122.92 339.59,128.04 331.02,129.98C327.03,130.73 322.5,114.42 317.58,114.33S307.36,130.36 301.83,130.36C296.27,130.36 290.94,114.23 286,114.31C281.06,114.38 276.51,130.66 272.52,129.89C263.48,128.39 258.75,122.21 256.52,113.75C255.84,110.6 255.49,87.375 255.49,84.026C255.49,58.448 276.25,37.69 301.83,37.69C327.4,37.69 348.16,58.448 348.16,84.026z" id="imagebot_39"/>
   <g label="Layer 1" transform="translate(3.33936 -25.624) matrix(0.71287 0 0 0.71287 -77.08 -239.105)" id="imagebot_35">
    <path fill="#ffffff" d="M 259 424.86 C 259 433.4204 252.0604 440.36 243.5 440.36 S 228 433.4204 228 424.86 S 234.9396 409.36 243.5 409.36 S 259 416.2996 259 424.86 z" id="imagebot_38"/>
    <path fill="url(#imagebot_33)" d="M 259 424.86 C 259 433.4204 252.0604 440.36 243.5 440.36 S 228 433.4204 228 424.86 S 234.9396 409.36 243.5 409.36 S 259 416.2996 259 424.86 z" id="imagebot_37"/>
    <path fill="#000000" transform="matrix(.61290 0 0 .61290 101.71 169.75)" d="M255,417.86C255,426.4204 248.0604,433.36 239.5,433.36S224,426.4204 224,417.86S230.9396,402.36 239.5,402.36S255,409.2996 255,417.86z" id="imagebot_36"/>
   </g>
   <g label="Layer 1" transform="translate(3.33936 -25.624) matrix(0.71287 0 0 0.71287 -105.6 -239.105)" id="imagebot_30">
    <path fill="#ffffff" d="M 259 424.86 C 259 433.4204 252.0604 440.36 243.5 440.36 S 228 433.4204 228 424.86 S 234.9396 409.36 243.5 409.36 S 259 416.2996 259 424.86 z" id="imagebot_34"/>
    <path fill="url(#imagebot_33)" d="M 259 424.86 C 259 433.4204 252.0604 440.36 243.5 440.36 S 228 433.4204 228 424.86 S 234.9396 409.36 243.5 409.36 S 259 416.2996 259 424.86 z" id="imagebot_32"/>
    <path fill="#000000" transform="matrix(.61290 0 0 .61290 101.71 169.75)" d="M255,417.86C255,426.4204 248.0604,433.36 239.5,433.36S224,426.4204 224,417.86S230.9396,402.36 239.5,402.36S255,409.2996 255,417.86z" id="imagebot_31"/>
   </g>
   <path label="Layer 1" filter="url(#imagebot_29)" fill-opacity="0.62745" fill="#ffffff" d="M180.01,413.25C169.98,423.52 159.6,429.67 156.84,426.97C154.07,424.27 159.97,413.74 169.99,403.47C180.02,393.2 190.4,387.06 193.16,389.76C195.93,392.46 190.03,402.98 180.01,413.25z" transform="translate(3.33936 -25.624) matrix(0.71287 0 0 0.71287 -80.39 -246.235)" id="imagebot_28"/>
   <path label="Layer 1" filter="url(#imagebot_27)" fill-opacity="0.43439" fill="#ffffff" d="M262,501.86C262,509.31 259.54,515.36 256.5,515.36S251,509.31 251,501.86S253.46,488.36 256.5,488.36S262,494.41 262,501.86z" transform="translate(3.33936 -25.624) matrix(0.5498 0.45375 -0.45375 0.5498 189.61 -285.065)" id="imagebot_26"/>
  </g>
  <path transform="rotate(56.8369 58.4681 33.1842) matrix(0.136667 0 0 0.136667 20.0635 3.84751)" d="M 203.9887971812107 214.65802235320643 C 203.9887971812107 196.60313352044457 238.4562701201648 181.97867034154473 281.0086964654207 181.97867034154473 C 323.5611228106767 181.97867034154473 358.02859574963077 196.60313352044457 358.02859574963077 214.65802235320643 C 358.02859574963077 232.71291118596827 323.5611228106767 247.33737436486808 281.0086964654207 247.33737436486808 C 238.4562701201648 247.33737436486808 203.9887971812107 232.71291118596827 203.9887971812107 214.65802235320643 z" id="imagebot_64" stroke-opacity="null" stroke-linecap="null" stroke-linejoin="null" stroke-dasharray="null" stroke-width="3" stroke="#000000" fill="#ffff00"/>
  <path transform="rotate(326.378 53.5486 25.8872) matrix(0.12528 0 0 0.12528 15.8555 -9.19016)" d="M 265.7269047187532 310.74223331851084 L 300.8704497274342 249.24102955331898 L 336.0139947361152 310.74223331851084 L 265.7269047187532 310.74223331851084 z" id="imagebot_66" stroke-opacity="null" stroke-linecap="null" stroke-linejoin="null" stroke-dasharray="null" stroke-width="3" stroke="#000000" fill="#000000"/>
  <path id="imagebot_67" transform="rotate(56.38 94.5486 26.8872) matrix(0.12528 0 0 0.12528 56.8555 -8.19016)" d="M265.7269,310.74223L300.87045,249.24103L336.01399,310.74223L265.7269,310.74223z" stroke-opacity="null" stroke-linecap="null" stroke-linejoin="null" stroke-dasharray="null" stroke-width="3" stroke="#000000" fill="#000000"/>
 </g>
 <metadata>image/svg+xmlOpenclipartPadepokan: Pejuang2010-05-23T11:12:26Indonesian freedom warriorhttps://openclipart.org/detail/62281/padepokan:-pejuang-by-diasdiasbaddieindonesianwarrior</metadata>
</svg>