<?xml version="1.0" encoding="UTF-8" standalone="no"?>
<!-- Generator: Adobe Illustrator 12.0.0, SVG Export Plug-In . SVG Version: 6.00 Build 51448)  -->

<svg
   xmlns:dc="http://purl.org/dc/elements/1.1/"
   xmlns:cc="http://creativecommons.org/ns#"
   xmlns:rdf="http://www.w3.org/1999/02/22-rdf-syntax-ns#"
   xmlns:svg="http://www.w3.org/2000/svg"
   xmlns="http://www.w3.org/2000/svg"
   xmlns:sodipodi="http://sodipodi.sourceforge.net/DTD/sodipodi-0.dtd"
   xmlns:inkscape="http://www.inkscape.org/namespaces/inkscape"
   id="Layer_1"
   sodipodi:docname="lamp.svg"
   xml:space="preserve"
   viewBox="0 0 257.2282 166.41009"
   sodipodi:version="0.32"
   version="1.0"
   inkscape:version="0.92.3 (2405546, 2018-03-11)"
   width="257.22821"
   height="166.4101"><defs
   id="defs73">
	
	
	
	
	
	
	
	
	
	
	
	
	
	
	
	
	
	
	
	
	
	
	
	
	
	
	
	
	
	
	
	
	
	
	
	
	
	
	
	
	
	
	
	
	
	
	
	
	
	
	
	
	
	
	
	
	
	
	
	
	
	
	
	
	
	
</defs>
<sodipodi:namedview
   id="base"
   bordercolor="#666666"
   inkscape:pageshadow="2"
   inkscape:window-width="1366"
   pagecolor="#ffffff"
   inkscape:zoom="2.1926243"
   inkscape:window-x="0"
   borderopacity="1.0"
   inkscape:current-layer="Layer_1"
   inkscape:cx="72.516045"
   inkscape:cy="83.206598"
   inkscape:window-y="0"
   inkscape:window-height="712"
   inkscape:pageopacity="0.0"
   showgrid="false"
   inkscape:window-maximized="1"
   fit-margin-top="0"
   fit-margin-left="0"
   fit-margin-right="0"
   fit-margin-bottom="0" />
<path
   inkscape:connector-curvature="0"
   d="m 74.164197,97.470466 c -31.642,-2.44 -72.3360004,-18.755 -74.0980004,-55.526 -0.89,-18.593 7.176,-33.5330005 25.3120004,-40.1280005 17.09,-6.215 35.079,4.505 45.824,17.2120005 11.055,13.074 9.923,34.423 -3.061,45.243 -12.919,10.766 -34.613,8.985 -42.02,-7.308 -5.903,-12.985 -1.631,-37.91 17.911,-29.232 3.748,1.665 6.142,4.326 7.958,7.959 1.984,3.97 6.081,5.047 6.915,10.023 1.55,9.247 -14.019,12.583 -15.541,3.411 -0.84,-5.059 4.256,-18.37 -5.207,-16.086 -7.744,1.869 -6.591,15.251 -5.306,21.034 1.751,7.876 9.791,13.617 17.812,12.698 8.803,-1.009 13.579,-8.512 16.14,-16.203 5.245,-15.755 -5.768,-36.832 -20.602,-43.0150005 -18.11,-7.54899999 -34.105,6.9030005 -36.7710004,24.2160005 -3.978,25.827 13.8270004,47.459 40.0990004,49.403 5.709,0.422 10.971,-1.128 16.011,-3.648 6.439,-3.22 8.711,-6.436 15.291,-1.313 4.726,3.679 7.358,9.956 7.358,15.74 -10e-4,5.649 -10.461,6.687 -14.025,5.52"
   id="path5" /><path
   inkscape:connector-curvature="0"
   d="m 81.363197,93.300466 c -16.8,-1.529 -33.263,-3.915 -48.89,-10.612 -14.535,-6.23 -28.8370004,-21.575 -30.4710004,-37.887 -1.818,-18.149 4.234,-33.783 22.1320004,-40.9470005 15.44,-6.181 34.766,1.608 44.499,14.2620005 10.226,13.294 12.24,34.764 -2.43,45.621 -14.703,10.881 -34.697,5.766 -39.996,-11.915 -1.664,-5.552 -0.479,-18.445 5.339,-21.354 8.741,-4.37 15.806,-1.667 19.588,7.411 1.365,3.276 6.195,4.536 6.353,8.802 0.138,3.735 -3.609,6.055 -7.2,5.307 -10.565,-2.199 -1.182,-13.906 -4.942,-19.54 -5.671,-8.498 -14.912,-1.759 -16.473,6.084 -1.31,6.577 -1.891,17.568 2.879,23.025 13.056,14.935 35.555,6.256 37.864,-12.603 1.862,-15.208 -5.506,-35.537 -19.948,-42.7580005 -13.481,-6.74099999 -37.02,-3.99 -41.9870004,13.3700005 -3.912,13.67 -4.692,25.763 1.815,38.771 5.5380004,11.07 18.7360004,19.675 30.3510004,22.992 6.265,1.789 12.97,2.94 19.428,1.18 5.596,-1.525 11.985,-7.486 17.162,-7.78 5.638,-0.32 12.411,5.305 15.54,9.475 6.126,8.16 -5.013,8.893 -10.613,9.096"
   style="fill:#6b7419"
   id="path7" /><path
   inkscape:connector-curvature="0"
   d="m 78.713197,151.67047 c 5.134,-9.642 25.278003,-6.879 34.488003,-12.129 5.041,-2.873 11.161,-10.601 4.619,-15.272 -6.563,-4.687 -13.851,-6.277 -21.297003,-8.984 H 171.5712 c -6.94,2.523 -17.46,3.81 -22.379,9.967 -5.781,7.235 4.188,14.261 10.52,15.985 7.413,2.019 17.915,2.094 24.459,6.181 1.8,1.124 4.611,2.329 4.833,4.253 0.48,4.158 -6.083,6.829 -9.011,8.049 -15.902,6.625 -35.728,7.163 -52.685,6.451 -8.627,-0.361 -16.929,-1.339 -25.455,-2.689 -5.452003,-0.864 -20.347003,-3.358 -22.201003,-9.845 -0.114,-0.45 -0.886,-1.86 -0.926,-1.97"
   id="path9" /><path
   inkscape:connector-curvature="0"
   d="m 85.535197,151.67047 c 2.377,-5.453 13.857,-4.857 18.892003,-5.488 7.325,-0.918 15.414,-1.301 21.826,-5.147 5.718,-3.432 5.308,-12.416 2.125,-17.2 -3.921,-5.895 -12.588,-7.132 -18.966,-8.55 h 53.82 c -7.28,2.647 -15.687,4.459 -19.414,11.919 -3.604,7.21 7.492,12.826 12.372,14.704 7.085,2.726 15.414,3.385 22.826,5.096 2.764,0.638 8.287,1.453 7.525,5.235 -0.723,3.584 -6.263,4.74 -9.193,5.718 -14.453,4.822 -31.407,4.326 -46.437,4.326 -8.12,0 -16.096,-0.507 -24.153,-1.517 -5.91,-0.75 -19.330003,-2.03 -21.225003,-9.1"
   style="fill:#6b7419"
   id="path11" /><path
   inkscape:connector-curvature="0"
   d="m 134.0502,120.59047 c 18.279,-0.521 36.316,-1.806 53.659,-8.053 11.417,-4.112 39.938,-18.998004 23.295,-34.354004 -25.617,-23.636 -69.981,-24.22 -102.73,-20.131 -14.022003,1.751 -26.873003,5.93 -39.892003,11.253 -10.829,4.429 -22.232,19.545 -11.292,29.639 20.407,18.813004 50.464003,20.883004 76.964003,21.643004"
   id="path13" /><path
   inkscape:connector-curvature="0"
   d="m 243.9602,16.740466 c -1.728,14.655 4.072,24.435 9.474,37.521 3.541,8.58 3.873,29.185 -10.042,29.185 -5.883,0 -7.915,-9.702 -7.45,-13.869 0.7,-6.27 5.364,-11.231 5.364,-17.684 0,-6.111 -1.007,-12.024 -1.514,-18.098 -0.268,-3.199 -0.419,-5.936 0.377,-9.096 0.67,-2.668 3.68,-6.085 3.79,-7.959"
   id="path15" /><path
   inkscape:connector-curvature="0"
   d="m 243.2002,20.150466 c -0.875,13.2 4.263,21.921 9.099,33.734 2.748,6.712 3.704,27.252 -7.581,27.667 -5.901,0.216 -9.044,-6.846 -8.438,-11.721 0.71,-5.708 5.513,-9.581 6.162,-15.568 0.629,-5.803 -2.099,-11.756 -3.033,-17.433 -1.13,-6.847 1.01,-10.972 3.79,-16.679"
   style="fill:#fc3026"
   id="path17" /><path
   inkscape:connector-curvature="0"
   d="m 134.8102,115.66047 c 18.225,0 36.146,-1.008 53.734,-6.134 6.668,-1.943 17.471,-5.359 21.207,-11.774004 5.325,-9.141 3.161,-17.03 -5.205,-23.404 -13.948,-10.627 -33.351,-13.303 -50.341,-14.894 -18.644,-1.746 -37.169,-1.223 -55.485003,2.702 -16.458,3.524 -54.123,19.47 -29.464,38.440004 8.923,6.863 21.077,9.179 31.762003,11.743 5.136,1.233 10.427,2.04 15.679,2.582 4.47,0.47 14.7,2.67 18.12,0.74"
   style="fill:#6b7419"
   id="path19" /><path
   inkscape:connector-curvature="0"
   d="m 135.5602,109.98047 c 17.042,0 36.494,0.687 53.006,-4.267 7.04,-2.112 18.15,-5.131 21.279,-12.789004 3.758,-9.198 -2.961,-16.947 -9.869,-21.729 -13.209,-9.142 -34.451,-10.107 -49.936,-10.107 -17.051,0 -35.762,-0.542 -52.025003,5.453 -7.376,2.719 -16.516,6.071 -20.447,13.498 -4.531,8.562 1.994,15.365 9.141,19.176 14.731003,7.848004 33.571003,10.768004 48.851003,10.768004"
   style="fill:#d1b21b"
   id="path21" /><path
   inkscape:connector-curvature="0"
   d="m 201.5102,73.591466 c -13.452,-7.312 -29.608,-5.518 -44.209,-3.429 -7.68,1.098 -45.398,7.115 -27.62,19.552 11.871,8.304 32.387,7.632 46.141,6.484 11.11,-0.927 38.49,-7.465 25.69,-22.607"
   style="fill:#d1b21b"
   id="path23" /><path
   inkscape:connector-curvature="0"
   d="m 200.3702,73.971466 c -9.316,-7.768 -29.382,-5.076 -40.357,-3.343 -6.984,1.103 -14.401,2.053 -20.999,4.691 -6.593,2.635 -14.2,9.381 -4.08,14.049 11.875,5.478 28.183,7.161 41.178,5.449 7.552,-0.995 13.859,-2.455 20.373,-6.525 5.11,-3.189 11.1,-9.987 3.89,-14.321"
   style="fill:#d7ba32"
   id="path25" /><path
   inkscape:connector-curvature="0"
   d="m 199.6202,74.350466 c -11.62,-6.14 -25.29,-4.347 -37.87,-2.952 -6.623,0.734 -13.684,2.168 -19.902,4.559 -5.94,2.284 -10.771,8.468 -3.038,12.333 11.637,5.817 26.297,5.98 38.981,4.571 5.15,-0.572 34.8,-11.633 21.83,-18.511"
   style="fill:#ddc34a"
   id="path27" /><path
   inkscape:connector-curvature="0"
   d="m 198.8602,74.350466 c -11.615,-4.363 -23.258,-3.774 -35.528,-2.331 -6.049,0.712 -34.783,7.909 -19.143,15.739 9.575,4.794 22.613,5.577 33.07,3.647 4.1,-0.757 33.12,-10.948 21.6,-17.055"
   style="fill:#e3cc63"
   id="path29" /><path
   inkscape:connector-curvature="0"
   d="m 197.7202,74.729466 c -7.789,-5.594 -21.856,-3.126 -30.659,-1.951 -4.908,0.655 -31.476,5.305 -19.749,13.699 8.512,6.093 22.352,4.841 31.808,2.471 5.037,-1.262 10.658,-2.524 15.191,-5.123 2.78,-1.595 9.16,-6.922 3.41,-9.096"
   style="fill:#e8d57e"
   id="path31" /><path
   inkscape:connector-curvature="0"
   d="m 196.9602,75.106466 c -7.881,-4.214 -18.402,-2.979 -26.952,-1.838 -4.987,0.666 -28.938,4.582 -18.64,12.816 6.832,5.463 19.333,3.266 26.993,1.348 4.858,-1.216 9.953,-1.863 14.36,-4.379 2.34,-1.331 9.5,-5.658 4.24,-7.947"
   style="fill:#eedf9a"
   id="path33" /><path
   inkscape:connector-curvature="0"
   d="m 196.2102,75.106466 c -8.831,-1.633 -16.047,-2.43 -25.178,-1.024 -4.464,0.688 -24.998,4.082 -16.513,11.637 5.407,4.814 17.35,1.836 23.688,0.568 2.79,-0.558 25.34,-7.421 18,-11.181"
   style="fill:#f4e9b6"
   id="path35" /><path
   inkscape:connector-curvature="0"
   d="m 171.1902,86.100466 c 7.903,-1.396 18.408,-1.748 24.447,-7.771 4.303,-4.292 -15.185,-4.615 -17.352,-4.417 -5.489,0.5 -20.616,1.821 -23.015,8.019 -2.78,7.152 13.58,5.055 15.91,4.169"
   style="fill:#faf2d4"
   id="path37" /><path
   inkscape:connector-curvature="0"
   d="m 87.048197,61.842466 c 5.252,-6.252 15.911003,-7.199 23.122003,-10.802 10.96,-5.475 16.229,-12.064 11.749,-24.446 h 23.122 c -5.922,16.265 5.795,22.733 19.568,27.595 3.717,1.313 12.43,3.068 14.352,6.895 2.652,5.281 -9.351,7.937 -12.696,8.717 -12.887,3.003 -27.724,4.76 -40.955,3.369 -8.22,-0.865 -35.935003,-0.453 -38.252003,-11.328"
   id="path39" /><path
   inkscape:connector-curvature="0"
   d="m 95.388197,60.705466 c 2.098,-2.478 6.538003,-2.955 9.475003,-3.79 4.899,-1.393 9.302,-3.465 13.806,-5.888 11.341,-6.101 11.12,-13.329 7.42,-24.433 5.558,0.126 11.116,0.252 16.674,0.379 -2.282,5.714 -4.619,12.897 0,18.192 3.907,4.479 10.643,6.676 16.037,8.58 4.259,1.503 12.192,2.606 15.422,5.823 4.356,4.34 -2.234,6.639 -6.338,7.758 -12.505,3.411 -26.495,2.854 -39.369,2.854 -7.75,0 -30.893003,0.237 -33.122003,-9.475"
   style="fill:#6b7419"
   id="path41" /><path
   inkscape:connector-curvature="0"
   d="m 107.5202,60.326466 c 1.573,-2.833 5.55,-3.411 8.339,-4.548 4.315,-1.76 7.434,-3.829 10.955,-6.847 7.288,-6.247 5.627,-16.954 3.068,-24.991 4.294,1.011 8.589,2.022 12.884,3.033 -2.09,5.232 -4.115,10.982 -1.121,16.228 2.628,4.604 8.734,7.571 13.607,9.291 3.446,1.217 28.883,7.624 17.666,13.225 -8.27,4.12 -64.85,8.289 -65.41,-5.391"
   style="fill:#d1b21b"
   id="path43" /><path
   inkscape:connector-curvature="0"
   d="m 133.2902,35.690466 c 6.812,0.376 15.024,-2.768 16.486,-10.043 1.729,-8.603 -9.692,-11.345 -15.799,-12.22 -6.646,-0.952 -16.985,3.879 -16.985,11.272 -0.01,7.122 10.46,12.478 16.29,10.991"
   id="path45" /><path
   inkscape:connector-curvature="0"
   d="m 133.2902,32.280466 c 4.159,0.224 12.646,-0.779 14.213,-5.496 2.253,-6.787 -5.088,-10.609 -10.801,-11.181 -4.702,-0.47 -14.401,1.755 -14.401,7.958 0,5.856 5.52,8.559 10.99,8.719"
   style="fill:#6b7419"
   id="path47" /><path
   inkscape:connector-curvature="0"
   d="m 135.5602,30.384466 c 4.483,0 10.637,-0.107 12.316,-5.117 2.179,-6.496 -8.333,-9.215 -12.697,-8.907 -12.39,0.873 -8.54,16.576 0.38,14.024"
   style="fill:#d1b21b"
   id="path49" /><path
   inkscape:connector-curvature="0"
   d="m 134.4202,36.448466 c 0,4.603 -0.719,10.978 1.517,15.161 2.646,4.953 9.481,5.667 11.371,10.991 2.014,5.675 0.461,6.624 7.958,6.064 5.199,-0.388 10.103,-1.219 14.994,-2.849 7.705,-2.568 -0.509,-5.585 -4.213,-6.822 -4.506,-1.504 -9.378,-2.513 -13.644,-4.647 -4.273,-2.137 -8.561,-4.281 -11.158,-8.421 -1.303,-2.076 -1.778,-4.235 -2.178,-6.611 -0.71,-4.219 -1.78,-1.707 -4.65,-2.866"
   style="fill:#d1b21b"
   id="path51" /><path
   inkscape:connector-curvature="0"
   d="m 134.4202,36.828466 c 0.676,4.643 0.113,9.321 2.274,13.644 2.555,5.11 8.549,5.893 12.297,9.643 3.986,3.99 -2.63,7.151 3.243,8.549 4.732,1.126 12.185,-1.152 16.748,-2.456 12.25,-3.5 -11.344,-9.445 -14.854,-10.809 -8.625,-3.352 -16.097,-8.527 -15.538,-18.951 -1.38,0.164 -2.77,0.291 -4.17,0.38"
   style="fill:#dbc144"
   id="path53" /><path
   inkscape:connector-curvature="0"
   d="m 134.8102,36.828466 c 0.635,4.317 -0.045,8.933 2.272,12.886 2.864,4.887 8.799,6.068 13.195,9.208 5.352,3.822 -1.459,8.186 2.347,9.742 3.165,1.294 11.858,-1.168 15.09,-2.091 13.855,-3.958 -10.305,-9.245 -14.334,-10.794 -8.96,-3.445 -15.724,-8.904 -15.161,-19.33 -1.04,0.113 -2.48,-0.007 -3.42,0.379"
   style="fill:#e6d170"
   id="path55" /><path
   inkscape:connector-curvature="0"
   d="m 135.1802,36.828466 c -0.321,7.898 2.318,14.151 9.476,17.813 3.483,1.782 6.938,2.929 10.138,5.33 3.867,2.903 -1.829,6.345 -2.936,8.314 6.119,0 12.974,-0.233 18.571,-3.032 5.796,-2.898 -8.795,-7 -10.991,-7.579 -12.56,-3.312 -21.227,-6.854 -21.227,-21.226 -0.93,0.118 -2.16,0.017 -3.03,0.38"
   style="fill:#f0e1a1"
   id="path57" /><path
   inkscape:connector-curvature="0"
   d="m 135.1802,36.828466 c 0.883,8.214 3.047,14.781 11.582,17.63 2.984,0.996 9.333,2.666 11.158,5.488 2.604,4.028 -2.295,6.041 -5.304,7.959 3.209,1.079 14.23,0.043 17.056,-2.274 5.332,-4.375 -7.116,-6.742 -10.684,-7.761 -12.206,-3.487 -22.152,-6.585 -21.155,-21.422 -0.81,0.172 -1.92,0.078 -2.66,0.38"
   style="fill:#faf2d4"
   id="path59" /><path
   inkscape:connector-curvature="0"
   d="m 137.8402,16.740466 c 3.965,-0.23 9.925,2.372 9.476,7.201 -0.437,4.693 -7.41,5.273 -11.159,4.647 -2.931,-0.49 -7.429,-2.528 -7.414,-6.163 0.01,-4.815 5.67,-5.376 9.09,-5.685"
   style="fill:#d1b21b"
   id="path61" /><path
   inkscape:connector-curvature="0"
   d="m 138.2202,17.119466 c 3.511,-0.286 9.688,2.456 9.098,6.822 -0.595,4.398 -7.644,4.837 -10.992,4.169 -9.76,-1.945 -5.11,-12.196 1.89,-10.991"
   style="fill:#d9be3c"
   id="path63" /><path
   inkscape:connector-curvature="0"
   d="m 138.9702,17.499466 c 10.194,1.586 9.978,10.232 -0.757,10.232 -2.837,0 -6.606,-2.19 -6.442,-5.306 0.2,-3.782 5.44,-4.623 7.2,-4.926"
   style="fill:#e0ca5e"
   id="path65" /><path
   inkscape:connector-curvature="0"
   d="m 139.7302,17.878466 c 8.816,1.945 8.759,11.667 -0.759,9.285 -8.43,-2.111 -6.13,-7.682 0.76,-9.285"
   style="fill:#e8d783"
   id="path67" /><path
   inkscape:connector-curvature="0"
   d="m 140.4902,18.634466 c 3.562,0.211 4.847,1.748 6.253,4.549 1.622,3.232 -5.548,3.411 -7.012,3.411 -7.01,0 -6.18,-8.565 0.76,-7.96"
   style="fill:#f0e4aa"
   id="path69" /><path
   inkscape:connector-curvature="0"
   d="m 140.8702,19.014466 c 6.69,0.842 7.438,7.803 0,7.201 -7.22,-0.585 -4.61,-7.877 0,-7.201"
   style="fill:#f7f1d3"
   id="path71" /><path
   inkscape:connector-curvature="0"
   d="m 141.6302,19.394466 c 5.102,0.751 6.805,6.064 0.568,6.064 -6.59,0 -4.98,-4.824 -0.57,-6.064"
   style="fill:#ffffff"
   id="path73" /><path
   inkscape:connector-curvature="0"
   d="m 214.0202,84.961466 c 14.223,1.978 28.882,3.003 43.208,3.411 -4.84,18.132004 -16.252,23.017004 -33.805,25.617004 -15.888,2.353 -32.064,1.993 -48.06,1.673 8.245,-1.901 17.296,-3.553 24.31,-8.654 6.26,-4.55 15.53,-13.938004 14.35,-22.049004"
   id="path75" /><path
   inkscape:connector-curvature="0"
   d="m 178.0102,114.53047 c 14.65,0.324 29.068,0.467 43.646,-1.282 16.185,-1.941 29.149,-6.795 33.674,-23.733004 -7.222,-0.208 -14.562,-1.222 -21.794,-1.706 -4.006,-0.268 -7.961,-0.908 -11.967,-1.194 -1.928,-0.138 -4.172,-1.014 -6.036,-0.891 -3.257,0.214 -2.567,-0.679 -3.635,3.059 -4.54,15.895004 -18.19,24.095004 -33.89,25.745004"
   style="fill:#faf2d4"
   id="path77" /><path
   inkscape:connector-curvature="0"
   d="m 245.4802,91.405466 c 3.284,-0.631 6.569,-1.263 9.854,-1.895 -5.185,16.817004 -16.253,21.419004 -32.637,24.570004 -15.303,2.943 -31.865,1.892 -47.333,1.581 23.37,-8.08 46.74,-16.169004 70.12,-24.255004"
   style="fill:#6b7419"
   id="path79" /><path
   inkscape:connector-curvature="0"
   d="m 205.6802,86.477466 c -1.21,19.215004 -19.007,27.113004 -36.006,30.321004 15.493,0 31.904,1.098 47.281,-1.179 8.265,-1.225 15.465,-2.845 23.141,-6.206 7.099,-3.107 9.404,-12.509004 11.065,-19.147004 -7.98,0 -15.831,-0.432 -23.785,-1.096 -5.84,-0.485 -17.13,0.349 -21.7,-2.69"
   id="path81" /><path
   inkscape:connector-curvature="0"
   d="m 205.6802,86.477466 c -3.514,16.366004 -19.769,27.790004 -36.006,30.321004 15.493,0 31.904,1.098 47.281,-1.179 8.265,-1.225 15.465,-2.845 23.141,-6.206 7.099,-3.107 9.404,-12.509004 11.065,-19.147004 -7.98,0 -15.831,-0.432 -23.785,-1.096 -5.84,-0.485 -17.13,0.349 -21.7,-2.69"
   style="fill:#d1b21b"
   id="path83" /><path
   inkscape:connector-curvature="0"
   d="m 175.7402,113.77047 c 14.871,0.373 29.54,1.186 44.342,-0.662 15.575,-1.944 25.994,-7.564 31.083,-22.837004 -5.175,16.462004 -20.887,18.306004 -35.319,20.370004 -5.871,0.84 -14.755,0.519 -20.396,-1.419 -3.798,-1.305 -3.828,-4.017 -7.454,-2.014 -3.93,2.17 -8.05,5.09 -12.25,6.56"
   style="fill:#6b7419"
   id="path85" /><path
   inkscape:connector-curvature="0"
   d="m 205.6802,86.477466 c -2.093,22.854004 -31.021,31.900004 -50.03,29.185004 19.02,-1.46 44.59,-8.07 50.03,-29.183004"
   id="path87" /><path
   inkscape:connector-curvature="0"
   d="m 169.3002,116.80047 c 15.619,0 32.162,1.116 47.662,-1.179 8.265,-1.225 15.465,-2.845 23.141,-6.206 7.099,-3.107 9.404,-12.509004 11.065,-19.147004 -5.891,17.679004 -18.841,21.309004 -36.075,23.460004 -7.988,0.997 -15.921,0.663 -23.936,0.427 -4.035,-0.119 -8.071,-0.209 -12.106,-0.313 -3.83,-0.1 -6.13,1.87 -9.73,2.96"
   id="path89" /><path
   inkscape:connector-curvature="0"
   d="m 212.8802,85.341466 c -2.399,0.505 -4.8,1.01 -7.199,1.516 5.054,0.505 10.107,1.01 15.161,1.516 -0.12,-3.3 -5.33,-2.638 -7.96,-3.032"
   style="fill:#faf2d4"
   id="path91" /><path
   inkscape:connector-curvature="0"
   d="m 141.2502,133.10047 c 3.35,10.963 19.329,12.389 28.592,13.925 2.427,0.402 13.477,0.901 13.477,4.457 0,4.872 -12.865,6.084 -16.24,6.716 -12.013,2.251 -24.434,2.528 -36.631,2.001 -6.638,-0.287 -13.147,-0.631 -19.733,-1.528 -3.859,-0.526 -14.055003,-0.458 -16.463003,-3.587 16.723003,-2.97 51.133003,5.46 46.993003,-21.98"
   style="fill:#d1b21b"
   id="path93" /><path
   inkscape:connector-curvature="0"
   d="m 164.7402,151.67047 c 3.628,-0.907 7.215,-2.048 10.993,-1.895 1.935,0.079 8.002,1.493 3.411,3.789 -7.029,3.515 -15.169,4.099 -22.906,4.868 -7.631,0.759 -15.454,0.44 -23.125,0.44 -7.248,0 -16.898,0.823 -23.707,-1.896 18.83,-0.92 37.01,-0.22 55.35,-5.31"
   style="fill:#d1b21b"
   id="path95" /><path
   inkscape:connector-curvature="0"
   d="m 163.9902,152.05047 c 0.921,-0.058 17.812,-2.646 14.4,0.757 -4.855,4.843 -14.689,4.408 -21.035,5.117 -7.119,0.795 -14.254,0.567 -21.414,0.567 -6.408,0 -15.275,1.189 -21.222,-1.514 7.842,0.291 16.031,-0.296 23.876,-0.759 5.33,-0.33 22.95,-0.19 25.38,-4.18"
   style="fill:#d9be3c"
   id="path97" /><path
   inkscape:connector-curvature="0"
   d="m 163.6102,152.80047 c 2.393,-0.804 13.182,-3.553 12.888,0 -0.347,4.192 -15.051,4.66 -17.969,4.986 -6.597,0.737 -13.67,0.983 -20.313,0.698 -4.811,-0.206 -13.699,0.984 -17.811,-1.514 13.05,0 32.27,1.19 43.2,-4.18"
   style="fill:#e1ca5e"
   id="path99" /><path
   inkscape:connector-curvature="0"
   d="m 163.2302,153.18047 c 1.604,-0.17 11.324,-3.402 11.371,0 0.046,3.34 -13.232,4.169 -15.231,4.169 -5.686,0 -11.428,0.76 -17.176,0.76 -4.284,0 -12.917,1.292 -16.487,-1.137 10.44,0.01 29.51,1.62 37.53,-3.79"
   style="fill:#ead783"
   id="path101" /><path
   inkscape:connector-curvature="0"
   d="m 162.8502,153.56047 c 2.903,-0.548 7.248,-2.336 9.856,-0.38 -2.464,4.729 -14.647,4.394 -19.331,4.548 -6.18,0.203 -16.85,1.839 -22.36,-0.756 4.82,0.01 30.98,0.65 31.83,-3.41"
   style="fill:#f2e5ab"
   id="path103" /><path
   inkscape:connector-curvature="0"
   d="m 162.4702,153.94047 c 1.058,0.028 7.865,-1.883 7.957,0 0.126,2.589 -8.586,2.886 -10.23,3.035 -7.282,0.662 -16.999,2.229 -23.88,0 5.04,0 23.97,0.9 26.15,-3.04"
   style="fill:#faf2d4"
   id="path105" /><path
   inkscape:connector-curvature="0"
   d="m 55.973197,11.434466 c -7.542,-8.0700005 -20.238,-13.4490005 -30.891,-8.7180005 -11.93,5.299 -20.2290004,17.1580005 -20.2760004,30.3220005 6.0730004,-11.81 8.5350004,-21.394 21.0890004,-28.1500005 9.832,-5.29099999 22.97,2.256 30.078,6.5460005"
   id="path107" /><path
   inkscape:connector-curvature="0"
   d="m 69.238197,47.440466 c -1.26,13.513 -5.52,20.901 -19.499,22.302 -11.886,1.191 -20.746,-7.25 -21.571,-18.864 -0.19,-2.684 1.842,-6.084 2.809,-2.216 0.761,3.042 1.737,5.951 3.011,8.822 2.446,5.511 7.262,9.671 13.196,10.52 10.003,1.432 22.83,-10.805 22.054,-20.564"
   id="path109" /><path
   inkscape:connector-curvature="0"
   d="m 26.029197,37.964466 c 4.352,-8.726 16.81,-13.71 23.5,-4.168 -2.56,-6.001 -9.152,-8.14 -15.16,-6.822 -7.144,1.566 -7.601,5.531 -8.34,10.99"
   id="path111" /><path
   inkscape:connector-curvature="0"
   d="m 57.868197,9.9184655 c 14.582,10.6060005 22.54,26.1760005 14.02,43.2070005 1.381,-7.59 0.869,-16.097 -1.514,-23.5 -1.159,-3.599 -3.173,-6.885 -4.971,-10.184 -1.994,-3.657 -5.525,-6.155 -7.535,-9.5230005"
   style="fill:#d1b21b"
   id="path113" /><path
   inkscape:connector-curvature="0"
   d="m 4.8061966,20.150466 c -3.522,12.32 -3.829,22.806 0.851,34.838 4.7080004,12.107 14.4810004,19.068 25.6810004,24.667 -9.483,-6.162 -18.393,-13.125 -23.3430004,-23.638 -2.752,-5.842 -4.712,-11.537 -5.084,-18.053 -0.174,-3.049 0.001,-6.077 0.377,-9.096 0.316,-2.53 2.132,-6.678 1.518,-8.718"
   style="fill:#d1b21b"
   id="path115" /><path
   inkscape:connector-curvature="0"
   d="m 49.906197,50.471466 c 6.46,1.245 4.788,-10.002 -0.377,-10.232 -5.866,-0.26 -3.799,10.475 0.377,10.232"
   style="fill:#d1b21b"
   id="path117" /><path
   inkscape:connector-curvature="0"
   d="m 48.011197,40.618466 c 0.952,-2.764 0.302,-5.669 -1.513,-7.959 3.439,2.237 3.579,6.312 4.167,9.854 -0.863,-0.616 -1.901,-1.153 -2.654,-1.895"
   style="fill:#d1b21b"
   id="path119" /><path
   inkscape:connector-curvature="0"
   d="m 66.584197,19.772466 c 6.05,6.055 10.75,14.281 7.58,23.118 -1.391,-7.843 -2.627,-16.617 -7.58,-23.118"
   style="fill:#ffffff"
   id="path121" /><path
   inkscape:connector-curvature="0"
   d="m 49.529197,49.334466 c 5.424,-1.747 -5.057,-3.132 0,0"
   style="fill:#ffffff"
   id="path123" /><path
   inkscape:connector-curvature="0"
   d="m 244.3402,44.409466 c 2.98,6.923 7.85,13.9 7.962,21.603 0.074,5.092 -2.631,15.951 -9.856,13.645 -8.72,-2.784 -3.74,-11.499 -0.756,-15.919 3.54,-5.238 3.64,-13.968 2.66,-19.329"
   style="fill:#ffde38"
   id="path125" /><path
   inkscape:connector-curvature="0"
   d="m 245.1002,48.956466 c 2.867,5.743 5.813,11.492 6.725,17.884 0.637,4.473 -2.813,13.67 -8.237,13.195 -5.633,-0.493 -6.341,-8.506 -3.793,-12.318 4.07,-6.086 6.58,-11.734 5.31,-18.761"
   style="fill:#ffe66a"
   id="path127" /><path
   inkscape:connector-curvature="0"
   d="m 246.2302,53.125466 c 1.849,5.946 5.969,11.374 4.549,17.814 -0.751,3.407 -3.732,11.202 -8.337,8.906 -4.386,-2.188 -3.887,-7.68 -1.897,-11.181 3.24,-5.69 5.67,-8.626 5.69,-15.539"
   style="fill:#ffee9c"
   id="path129" /><path
   inkscape:connector-curvature="0"
   d="m 246.9902,57.674466 c 1.865,5.4 4.019,9.073 2.842,14.97 -0.696,3.491 -3.542,9.343 -7.77,7.012 -3.625,-1.999 -2.345,-7.22 -0.758,-9.854 2.7,-4.469 5.46,-6.609 5.69,-12.128"
   style="fill:#fff7cd"
   id="path131" /><path
   inkscape:connector-curvature="0"
   d="m 247.7502,61.842466 c 2.057,3.878 2.473,7.953 1.137,12.129 -0.521,1.628 -4.678,10.002 -7.011,5.306 -4.11,-8.26 5.98,-9.652 5.87,-17.435"
   style="fill:#ffffff"
   id="path133" /><path
   inkscape:connector-curvature="0"
   d="m 242.0602,88.751466 c 0.831,-0.171 8.082,-0.988 7.204,0.76 -0.8,1.604 -7.33,0.406 -7.2,-0.76"
   id="path135" />
<metadata
   id="metadata70"><rdf:RDF><cc:Work><dc:format>image/svg+xml</dc:format><dc:type
         rdf:resource="http://purl.org/dc/dcmitype/StillImage" /><cc:license
         rdf:resource="http://creativecommons.org/publicdomain/zero/1.0/" /><dc:publisher><cc:Agent
           rdf:about="http://openclipart.org/"><dc:title>Openclipart</dc:title></cc:Agent></dc:publisher><dc:title></dc:title><dc:date>2010-03-10T19:55:52</dc:date><dc:description>Drawing by Francesco 'Architetto' Rollandin. From OCAL 0.18 release.</dc:description><dc:source>https://openclipart.org/detail/30889/architetto----lampada-di-aladino-by-anonymous</dc:source><dc:creator><cc:Agent><dc:title>Anonymous</dc:title></cc:Agent></dc:creator><dc:subject><rdf:Bag><rdf:li>aladin</rdf:li><rdf:li>fairytale</rdf:li><rdf:li>genie</rdf:li><rdf:li>lamp</rdf:li><rdf:li>legend</rdf:li><rdf:li>magic</rdf:li></rdf:Bag></dc:subject></cc:Work><cc:License
       rdf:about="http://creativecommons.org/publicdomain/zero/1.0/"><cc:permits
         rdf:resource="http://creativecommons.org/ns#Reproduction" /><cc:permits
         rdf:resource="http://creativecommons.org/ns#Distribution" /><cc:permits
         rdf:resource="http://creativecommons.org/ns#DerivativeWorks" /></cc:License></rdf:RDF></metadata></svg>