<?xml version="1.0" encoding="UTF-8" standalone="no"?>
<!-- Created with Inkscape (http://www.inkscape.org/) -->
<svg xmlns:dc="http://purl.org/dc/elements/1.1/" xmlns:cc="http://creativecommons.org/ns#" xmlns:rdf="http://www.w3.org/1999/02/22-rdf-syntax-ns#" xmlns:svg="http://www.w3.org/2000/svg" xmlns="http://www.w3.org/2000/svg" xmlns:sodipodi="http://sodipodi.sourceforge.net/DTD/sodipodi-0.dtd" xmlns:inkscape="http://www.inkscape.org/namespaces/inkscape" width="199.99998" height="201.72141" viewBox="0 0 199.99998 201.72141" id="svg6502" version="1.1" inkscape:version="0.91 r13725" sodipodi:docname="meeting_icon.svg">
  <defs id="defs6504"/>
  <sodipodi:namedview id="base" pagecolor="#ffffff" bordercolor="#666666" borderopacity="1.0" inkscape:pageopacity="0.0" inkscape:pageshadow="2" inkscape:zoom="0.35" inkscape:cx="-407.00594" inkscape:cy="149.43206" inkscape:document-units="px" inkscape:current-layer="layer1" showgrid="false" fit-margin-top="20" fit-margin-left="20" fit-margin-right="20" fit-margin-bottom="20" units="px" inkscape:window-width="1366" inkscape:window-height="705" inkscape:window-x="-8" inkscape:window-y="-8" inkscape:window-maximized="1"/>
  <metadata id="metadata6507">
    <rdf:RDF>
      <cc:Work rdf:about="">
        <dc:format>image/svg+xml</dc:format>
        <dc:type rdf:resource="http://purl.org/dc/dcmitype/StillImage"/>
        <dc:title/>
      </cc:Work>
    </rdf:RDF>
  </metadata>
  <g inkscape:label="Layer 1" inkscape:groupmode="layer" id="layer1" transform="translate(-393.43451,-480.07287)">
    <path style="fill:#dc0000" d="m 413.43451,659.71407 c 0,-9.3572 6.90262,-17.9052 17.14247,-21.2284 2.80982,-0.912 3.76204,-0.6624 6.39462,1.6756 1.16706,1.0366 2.19462,1.8847 2.28364,1.8847 0.089,0 1.16764,-0.8586 2.39694,-1.908 2.768,-2.3627 3.52408,-2.5603 6.32182,-1.6523 10.13658,3.2898 17.11877,11.8018 17.13753,20.8926 l 0.009,2.416 -25.84095,0 -25.84102,0 0,-2.0802 z m 54.20306,-0.6067 c 0,-5.3825 2.81323,-11.2509 7.27934,-15.185 2.52226,-2.2217 8.6488,-5.4358 11.17549,-5.8625 1.93011,-0.3262 2.68771,0.029 5.51746,2.5853 l 1.6336,1.4757 1.168,-0.8368 c 0.6424,-0.4601 1.62371,-1.325 2.18058,-1.9218 1.49716,-1.6044 3.15462,-1.7456 6.44953,-0.5496 5.72371,2.0776 10.51759,5.9633 13.49789,10.9406 1.57505,2.6306 2.78014,7.0207 2.78014,10.1281 l 0,1.9129 -25.84094,0 -25.84109,0 0,-2.6869 z m 53.93039,2.0451 c -0.50298,-1.3107 0.71477,-7.1414 2.10371,-10.0727 2.99164,-6.3136 10.38306,-12.0039 16.95833,-13.0553 1.50873,-0.2413 1.82349,-0.099 4.23564,1.9167 l 2.60596,2.1775 2.55782,-2.1372 c 1.54291,-1.2894 2.96538,-2.1374 3.58502,-2.1374 0.56509,0 2.52931,0.5793 4.36523,1.2873 8.24204,3.1784 13.96895,10.0275 15.16357,18.1345 0.26298,1.7846 0.36734,3.5337 0.23193,3.8866 -0.21717,0.566 -3.28037,0.6418 -25.90357,0.6418 -22.6232,0 -25.68647,-0.076 -25.90364,-0.6418 z m -85.23374,-24.7101 c -11.42887,-3.7567 -19.08873,-20.595 -14.26175,-31.3509 2.89804,-6.4578 10.8675,-9.736 20.71571,-8.5212 5.36939,0.6624 8.21324,1.8746 10.98248,4.6815 3.17258,3.2159 3.99549,5.5665 3.984,11.3816 -0.0131,6.3075 -1.71098,11.1805 -5.78749,16.6032 -4.3552,5.7934 -10.83819,8.7817 -15.63295,7.2058 z m 54.57396,0.1857 c -4.99345,-1.28 -9.99323,-5.8782 -12.95956,-11.9186 -2.62669,-5.3491 -3.3176,-8.3618 -3.07454,-13.4083 0.24145,-5.0131 1.43498,-7.7817 4.56996,-10.6003 2.64385,-2.3771 5.78625,-3.5741 10.8832,-4.1454 4.72233,-0.5293 10.20022,0.2039 13.65585,1.828 8.43579,3.9648 10.50306,14.6819 5.0024,25.9342 -4.20545,8.6029 -11.9544,13.8798 -18.07731,12.3104 z m 53.60139,-0.1732 c -3.96102,-1.1168 -7.86444,-4.323 -10.89986,-8.9527 -6.07484,-9.2661 -6.34444,-20.6856 -0.6232,-26.4069 6.39833,-6.39831 22.64007,-6.35801 29.07018,0.071 6.81884,6.8189 4.83695,21.4989 -4.11571,30.4853 -4.38923,4.4059 -8.99563,6.0528 -13.43141,4.8023 z M 441.72833,588.47306 c -0.73287,-0.5387 -8.52356,-21.4877 -8.53593,-22.9534 -0.0153,-1.7997 0.98255,-2.2379 5.62,-2.4674 l 4.24473,-0.21 0.29396,-2.6656 c 0.62771,-5.692 3.28786,-11.0739 7.30771,-14.7854 2.68917,-2.4827 4.47193,-3.5404 7.38444,-4.3808 1.3096,-0.3778 2.60902,-0.9618 2.88771,-1.2978 0.33593,-0.4046 1.32262,-0.6107 2.92494,-0.6107 2.78408,0 3.5296,0.577 3.5296,2.7312 0,2.1349 -0.75178,2.7312 -3.44283,2.7312 -1.50553,0 -2.58378,-0.2283 -3.04357,-0.6443 -0.64043,-0.5797 -0.91563,-0.5754 -2.7344,0.042 -2.78043,0.944 -4.67803,2.219 -6.98625,4.6939 -3.07178,3.2936 -4.63346,6.8728 -5.59389,12.8205 l -0.25447,1.5757 50.65054,0 c 50.0904,0 50.65993,0.01 51.49098,0.8403 0.46218,0.4622 0.84029,1.1272 0.84029,1.4776 0,1.0239 -7.87447,22.124 -8.48182,22.7274 -0.44618,0.4434 -9.84487,0.5721 -49.04101,0.6721 -31.86102,0.081 -48.68517,-0.021 -49.06073,-0.2966 z m 25.29869,-31.6184 c 0.60058,-5.7419 3.46262,-10.8886 7.91695,-14.237 3.05869,-2.2992 3.94363,-2.7715 7.33403,-3.9136 2.44764,-0.8245 2.71833,-0.8397 4.01629,-0.2237 0.76546,0.3632 1.92699,1.219 2.58088,1.9016 0.65403,0.6827 1.41076,1.2411 1.6816,1.2411 0.27091,0 1.32276,-0.723 2.33745,-1.6066 2.5472,-2.2182 3.05593,-2.3299 6.06051,-1.33 8.97884,2.9879 15.32276,10.7429 15.32276,18.7307 l 0,2.2736 -23.7736,0 -23.7736,0 0.29673,-2.8361 z m 19.76407,-20.5154 c -7.38211,-2.7046 -13.74603,-13.7984 -13.14778,-22.9194 0.60837,-9.2723 7.33615,-13.9816 18.96946,-13.2782 7.80225,0.4718 12.79091,3.7659 14.56443,9.6175 0.6728,2.2197 0.54888,7.8495 -0.23883,10.8551 -2.3304,8.8906 -9.78306,16.4376 -16.15302,16.3573 -1.29186,-0.016 -3.08938,-0.3009 -3.99426,-0.6323 z m 8.16102,-5.9659 c 2.11702,-1.5568 4.83084,-5.0322 5.94466,-7.6127 0.43803,-1.0149 0.74443,-1.8791 0.68072,-1.9204 -0.064,-0.042 -1.23134,-0.4919 -2.5952,-1.0011 -2.59338,-0.9682 -7.49883,-4.018 -8.83149,-5.4905 l -0.77702,-0.8586 -1.51905,1.1952 c -2.0152,1.5854 -4.53716,2.8362 -6.93665,3.4404 -2.25128,0.567 -2.24924,0.5147 -0.20211,4.9856 1.54887,3.3832 3.7296,6.0744 6.2192,7.6748 2.58581,1.6626 5.39149,1.5181 8.01694,-0.4127 z" id="path5263" inkscape:connector-curvature="0"/>
  </g>
</svg>