<?xml version="1.0" encoding="UTF-8" standalone="no"?>
<svg
   xmlns:dc="http://purl.org/dc/elements/1.1/"
   xmlns:cc="http://creativecommons.org/ns#"
   xmlns:rdf="http://www.w3.org/1999/02/22-rdf-syntax-ns#"
   xmlns:svg="http://www.w3.org/2000/svg"
   xmlns="http://www.w3.org/2000/svg"
   xmlns:sodipodi="http://sodipodi.sourceforge.net/DTD/sodipodi-0.dtd"
   xmlns:inkscape="http://www.inkscape.org/namespaces/inkscape"
   id="body_2"
   width="229.8703"
   height="229.8703"
   version="1.1"
   sodipodi:docname="pr-accepted.svg"
   inkscape:version="0.92.2 2405546, 2018-03-11">
  <sodipodi:namedview
     pagecolor="#ffffff"
     bordercolor="#666666"
     borderopacity="1"
     objecttolerance="10"
     gridtolerance="10"
     guidetolerance="10"
     inkscape:pageopacity="0"
     inkscape:pageshadow="2"
     inkscape:window-width="640"
     inkscape:window-height="480"
     id="namedview24"
     showgrid="false"
     fit-margin-top="0"
     fit-margin-left="0"
     fit-margin-right="0"
     fit-margin-bottom="0"
     inkscape:zoom="0.77377049"
     inkscape:cx="152.5"
     inkscape:cy="76.5"
     inkscape:window-x="0"
     inkscape:window-y="0"
     inkscape:window-maximized="0"
     inkscape:current-layer="body_2" />
  <g
     id="g14"
     transform="translate(0,0.8703)">
    <g
       clip-path="url(#1)"
       id="g12">
      <path
         transform="matrix(1,0,0,-1,0,229)"
         d="m 224.6571,114.9352 c 0,60.5977 -49.1242,109.7219 -109.7219,109.7219 -60.59778,0 -109.721946,-49.1242 -109.721946,-109.7219 0,-60.59778 49.124166,-109.721946 109.721946,-109.721946 60.5977,0 109.7219,49.124166 109.7219,109.721946 z"
         id="path2"
         inkscape:connector-curvature="0"
         style="fill:#14cb00;fill-rule:evenodd;stroke:none" />
      <path
         transform="matrix(1,0,0,-1,0,229)"
         d="m 150.2502,52.34428 c 2.1894,-2.82697 5.563,-4.48252 9.1386,-4.48454 v 0 h 16.8215 c 6.3876,-3.5e-4 11.5654,5.17842 11.564,11.56593 v 0 53.23773 c 0.002,6.388 -5.1763,11.5674 -11.5643,11.5663 v 0 h -16.8202 c -2.7669,-10e-4 -5.4418,-0.9941 -7.5391,-2.7988 v 0 h -6.233 c -0.7201,0.0471 -2.7269,2.0971 -3.2839,2.7535 -4.8439,5.7091 -9.8992,16.8019 -12.864,24.531 -1.9788,5.1587 -5.8748,8.6815 -10.216,11.8581 -1.5686,1.1699 -2.9035,2.6241 -3.935,4.2869 -3.4794,5.7874 -4.9099,17.2975 -5.2627,24.6754 -0.2332,4.8773 -4.6533,7.5658 -9.3469,7.553 -6.18989,-0.0169 -13.21568,-3.5313 -16.89685,-8.8162 -2.99726,-4.4528 -4.63447,-9.6813 -4.71208,-15.0482 -0.25898,-5.3815 0.63461,-10.7562 2.62097,-15.7643 v 0 l 5.79429,-11.9751 c 0.61249,-1.3309 1.1461,-2.6967 1.59804,-4.0904 -8.20333,0.1696 -16.41006,0.0591 -24.60584,-0.3313 -2.50364,-0.1181 -6.87272,-0.6942 -9.18596,-1.538 -2.06474,-0.9386 -3.93241,-2.2608 -5.5037,-3.8964 v 0 l 0.10642,0.1109 c -3.6797,-3.7246 -8.0902,-10.4702 -7.8163,-16.1762 0.15607,-3.2513 2.44036,-5.8311 4.23794,-8.3162 v 0 l -2.42863,-4.1137 c -1.00575,-1.7091 -1.62162,-3.6191 -1.80362,-5.5937 -0.28282,-4.3391 3.27747,-7.59412 5.7601,-10.60271 v 0 l -1.65909,-4.27002 c -0.61197,-1.53112 -1.09992,-3.43575 -1.11741,-5.08352 0.11662,-2.58693 1.04789,-5.07082 2.66076,-7.09677 v 0 l -0.1083,0.13583 c 1.02523,-1.3293 2.1596,-2.57072 3.3913,-3.71134 0.77174,-0.68504 1.48793,-1.43023 2.14182,-2.22854 v 0 L 53.122,65.13348 c -0.04458,-1.56379 0.1777,-3.48331 0.78224,-4.92216 1.91382,-4.55505 9.08973,-11.36126 14.95401,-13.32831 4.77475,-1.60158 13.42194,-1.7596 18.47604,-1.82923 10.76788,0.07614 21.52781,0.60522 32.25121,1.58582 v 0 z"
         id="path4"
         inkscape:connector-curvature="0"
         style="fill:#000000;fill-rule:evenodd;stroke:none" />
      <path
         transform="matrix(1,0,0,-1,0,229)"
         d="m 52.741,111.9114 c -0.30269,2.2934 -4.53051,5.692 -4.66284,8.0023 -0.24779,4.2067 5.43293,12.4286 9.33272,14.0068 4.54576,1.8392 22.69907,1.6991 32.05216,1.4938 1.11361,-0.0244 8.28221,1.3762 5.52945,7.1714 -1.7776,5.9774 -6.15144,13.2239 -7.73071,17.0719 -3.45911,8.4036 -2.87626,19.5623 1.49516,25.2867 5.34001,7.0013 15.14016,7.4687 15.34426,4.3333 1.4572,-22.7172 5.8075,-29.0202 11.6304,-33.5127 3.4985,-2.6946 6.5564,-5.0599 8.167,-9.168 9.9268,-25.2754 17.2801,-31.1264 21.4868,-31.1264 0,0 0.4467,0 0.9832,0 0.8064,0 2.0636,-1.7017 2.399,-4.5809 1.178,-10.1125 3.4343,-34.75085 -0.1881,-51.19856 -0.1247,-0.56615 -1.0098,-1.78273 -4.6469,-2.45937 -3.6372,-0.67663 -25.1643,-4.68139 -25.1643,-4.68139 0,0 -36.52273,-3.45912 -48.02215,0 -3.61821,1.08405 -9.86066,6.51699 -11.33892,10.00426 -0.8419,2.00058 0.32944,6.74226 -0.66592,8.67244 -1.47403,2.86499 -7.67708,6.45082 -7.67144,10.33934 0.0056,2.77067 3.23948,7.57149 3.00296,10.33793 -0.23652,2.76646 -6.01157,6.56628 -6.00594,9.33835 0.0169,2.9087 5.05986,7.7813 4.67411,10.6688 z"
         id="path6"
         inkscape:connector-curvature="0"
         style="fill:#ffffff;fill-rule:evenodd;stroke:none" />
      <path
         transform="matrix(1,0,0,-1,0,229)"
         d="m 153.8112,58.92228 c 0.2544,-2.86033 2.6598,-5.10211 5.581,-5.10211 v 0 h 16.8183 c 3.0959,0 5.6033,2.50881 5.6033,5.60469 v 0 53.23974 c 0,3.0973 -2.5074,5.6047 -5.6033,5.6047 v 0 h -16.8183 c -3.0902,0 -5.6033,-2.5074 -5.6033,-5.6047 0,0 0,-3e-4 0,-0.13 0,-0.1296 4.3378,-28.13549 0.0223,-53.61232 z"
         id="path8"
         inkscape:connector-curvature="0"
         style="fill:#ffffff;fill-rule:evenodd;stroke:none" />
      <path
         transform="matrix(1,0,0,-1,0,229)"
         d="m 224.1285,114.9352 c 0,60.3058 -48.8875,109.1933 -109.1933,109.1933 C 54.62932,224.1285 5.741788,175.241 5.741788,114.9352 5.741788,54.62932 54.62932,5.741788 114.9352,5.741788 c 60.3058,0 109.1933,48.887532 109.1933,109.193412 z m 5.7418,0 c 0,63.4769 -51.4582,114.9351 -114.9351,114.9351 C 51.45822,229.8703 0,178.4121 0,114.9352 0,51.45822 51.45822,0 114.9352,0 178.4121,0 229.8703,51.45822 229.8703,114.9352 Z"
         id="path10"
         inkscape:connector-curvature="0"
         style="fill:#75f250;fill-rule:evenodd;stroke:none" />
    </g>
  </g>
  <defs
     id="defs19">
    <clipPath
       id="1">
      <path
         d="m 0,229 v -229.8703156 0 h 229.8703 v 0 V 229 v 0 z"
         id="path16"
         inkscape:connector-curvature="0" />
    </clipPath>
  </defs>
  <metadata
     id="metadata21">
    <rdf:RDF>
      <cc:Work>
        <dc:format>image/svg+xml</dc:format>
        <dc:type
           rdf:resource="http://purl.org/dc/dcmitype/StillImage" />
        <cc:license
           rdf:resource="http://creativecommons.org/publicdomain/zero/1.0/" />
        <dc:publisher>
          <cc:Agent
             rdf:about="http://openclipart.org/">
            <dc:title>Openclipart</dc:title>
          </cc:Agent>
        </dc:publisher>
        <dc:title></dc:title>
      </cc:Work>
      <cc:License
         rdf:about="http://creativecommons.org/publicdomain/zero/1.0/">
        <cc:permits
           rdf:resource="http://creativecommons.org/ns#Reproduction" />
        <cc:permits
           rdf:resource="http://creativecommons.org/ns#Distribution" />
        <cc:permits
           rdf:resource="http://creativecommons.org/ns#DerivativeWorks" />
      </cc:License>
    </rdf:RDF>
  </metadata>
</svg>
