<?xml version="1.0" encoding="UTF-8" standalone="no"?>
<!-- Created with Inkscape (http://www.inkscape.org/) -->
<svg xmlns:dc="http://purl.org/dc/elements/1.1/" xmlns:cc="http://creativecommons.org/ns#" xmlns:rdf="http://www.w3.org/1999/02/22-rdf-syntax-ns#" xmlns:svg="http://www.w3.org/2000/svg" xmlns="http://www.w3.org/2000/svg" xmlns:sodipodi="http://sodipodi.sourceforge.net/DTD/sodipodi-0.dtd" xmlns:inkscape="http://www.inkscape.org/namespaces/inkscape" width="400" height="400" id="svg6386" version="1.1" inkscape:version="0.48.4 r9939" sodipodi:docname="Bomb.svg">
  <title id="title5938">Paper plane</title>
  <defs id="defs6388"/>
  <sodipodi:namedview id="base" pagecolor="#ffffff" bordercolor="#666666" borderopacity="1.0" inkscape:pageopacity="0.0" inkscape:pageshadow="2" inkscape:zoom="0.61" inkscape:cx="198.36066" inkscape:cy="200" inkscape:document-units="px" inkscape:current-layer="layer1" showgrid="false" inkscape:window-width="944" inkscape:window-height="1041" inkscape:window-x="0" inkscape:window-y="0" inkscape:window-maximized="0"/>
  <metadata id="metadata6391">
    <rdf:RDF>
      <cc:Work rdf:about="">
        <dc:format>image/svg+xml</dc:format>
        <dc:type rdf:resource="http://purl.org/dc/dcmitype/StillImage"/>
        <dc:title>Paper plane</dc:title>
        <dc:date>2017-01-16</dc:date>
        <dc:creator>
          <cc:Agent>
            <dc:title>m1981</dc:title>
          </cc:Agent>
        </dc:creator>
        <dc:rights>
          <cc:Agent>
            <dc:title>Public domain</dc:title>
          </cc:Agent>
        </dc:rights>
        <dc:publisher>
          <cc:Agent>
            <dc:title>Inkscape</dc:title>
          </cc:Agent>
        </dc:publisher>
        <dc:subject>
          <rdf:Bag>
            <rdf:li>icon</rdf:li>
            <rdf:li>paper</rdf:li>
            <rdf:li>plane</rdf:li>
            <rdf:li>origami</rdf:li>
            <rdf:li>folded</rdf:li>
            <rdf:li/>
          </rdf:Bag>
        </dc:subject>
      </cc:Work>
    </rdf:RDF>
  </metadata>
  <g inkscape:label="Calque 1" inkscape:groupmode="layer" id="layer1" transform="translate(0,-652.36218)">
    <path style="font-size:medium;font-style:normal;font-variant:normal;font-weight:normal;font-stretch:normal;text-indent:0;text-align:start;text-decoration:none;line-height:normal;letter-spacing:normal;word-spacing:normal;text-transform:none;direction:ltr;block-progression:tb;writing-mode:lr-tb;text-anchor:start;baseline-shift:baseline;color:#000000;fill:#4d4d4d;fill-opacity:1;stroke:none;stroke-width:17.09701729;marker:none;visibility:visible;display:inline;overflow:visible;enable-background:accumulate;font-family:Sans;-inkscape-font-specification:Sans" d="m 197.67212,691.97079 a 10.000999,10.000999 0 0 0 -5.9062,2.0625 l -82.25,41.5625 a 10.000999,10.000999 0 0 0 -4.9688,5.74999 l -86.312498,257.68752 -0.1875,0.5312 a 10.009357,10.009357 0 0 0 -0.125,0.4375 10.005209,10.005209 0 0 0 -0.1875,0.7187 10.009357,10.009357 0 0 0 -0.125,0.8125 10.009357,10.009357 0 0 0 -0.062,0.7814 10.005209,10.005209 0 0 0 -0.031,0.4375 10.009357,10.009357 0 0 0 0.031,0.6249 10.005209,10.005209 0 0 0 0,0.2187 10.009357,10.009357 0 0 0 0.094,0.7189 10.005209,10.005209 0 0 0 0.094,0.4999 10.009357,10.009357 0 0 0 0.062,0.2812 10.005209,10.005209 0 0 0 0.125,0.5 10.009357,10.009357 0 0 0 0.3125,0.8438 10.009357,10.009357 0 0 0 0.4063,0.9062 10.009357,10.009357 0 0 0 0.375,0.6563 10.005209,10.005209 0 0 0 0.2812,0.4375 10.009357,10.009357 0 0 0 0.3125,0.4062 10.005209,10.005209 0 0 0 0.1875,0.25 10.009357,10.009357 0 0 0 0.4375,0.5 10.005209,10.005209 0 0 0 0.2813,0.2501 10.009357,10.009357 0 0 0 0.1874,0.2188 10.005209,10.005209 0 0 0 0.4376,0.3749 10.009357,10.009357 0 0 0 0.7812,0.5938 10.009357,10.009357 0 0 0 0.6875,0.4062 10.005209,10.005209 0 0 0 0.1875,0.125 10.009357,10.009357 0 0 0 0.375,0.1875 10.005209,10.005209 0 0 0 0.7188,0.3126 10.009357,10.009357 0 0 0 0.750001,0.2499 10.009357,10.009357 0 0 0 0.9687,0.25 10.009357,10.009357 0 0 0 0.8125,0.125 10.005209,10.005209 0 0 0 0.1562,0.032 10.009357,10.009357 0 0 0 0.1563,0 10.009357,10.009357 0 0 0 0.8437,0.032 10.009357,10.009357 0 0 0 1,-0.062 10.009357,10.009357 0 0 0 0.9688,-0.1561 10.009357,10.009357 0 0 0 0.031,0 10.005209,10.005209 0 0 0 0.4063,-0.094 10.009357,10.009357 0 0 0 0.5625,-0.1562 10.005209,10.005209 0 0 0 0.094,-0.032 10.009357,10.009357 0 0 0 0.8124,-0.3124 10.009357,10.009357 0 0 0 0.031,0 10.009357,10.009357 0 0 0 0.875,-0.4375 10.009357,10.009357 0 0 0 0.7187,-0.4375 10.009357,10.009357 0 0 0 0.1563,-0.094 10.005209,10.005209 0 0 0 0.3437,-0.2501 10.009357,10.009357 0 0 0 0.3438,-0.25 l 0.094,-0.094 96.656197,-79.93749 a 10.006946,10.006946 0 0 0 15.4062,7.3438 l 65.25,-42.31248 67.5626,-43.81254 a 10.000999,10.000999 0 0 0 5.625,-5.625 10.000999,10.000999 0 0 0 0.062,-0.12499 10.000999,10.000999 0 0 0 0.063,-0.18751 10.000999,10.000999 0 0 0 0.3437,-6.37499 l -3.5,-33.6875 97.3437,-80.56251 a 10.000999,10.000999 0 0 0 -5.125,-17.65556 l -111.6874,-14.03124 a 10.000999,10.000999 0 0 0 -1,-0.0625 10.000999,10.000999 0 0 0 -8.125,3.84374 l -27.0626,34.75 -18.2187,-33 a 10.000999,10.000999 0 0 0 -6.9375,-6.5625 10.000999,10.000999 0 0 0 -0.4688,-0.125 10.000999,10.000999 0 0 0 -0.1562,-0.0312 10.000999,10.000999 0 0 0 -2.375,-0.24999 z m 67.5312,22 83.0626,10.4375 -82.5,68.24999 a 10.000999,10.000999 0 0 0 -2.2188,1.84375 L 48.140923,972.6895 101.35962,813.84579 l 8.625,-4.37501 a 5.0005002,5.0005002 0 0 0 -2.2813,-9.49999 5.0005002,5.0005002 0 0 0 -1.8437,0.40624 l 2.0625,-6.15624 17.9688,-9.09375 a 5.0005002,5.0005002 0 0 0 -2.2813,-9.50001 5.0005002,5.0005002 0 0 0 -2.2187,0.59376 l -8.9688,4.5 2.0625,-6.15626 27.3125,-13.78124 a 5.0005002,5.0005002 0 0 0 -2.2812,-9.50001 5.0005002,5.0005002 0 0 0 -2.2188,0.59375 l -18.2812,9.21876 3.1874,-9.53126 71.625,-36.1875 18.625,33.71876 -4.2812,5.5 -1.3125,-2.375 a 5.0005002,5.0005002 0 0 0 -4.5313,-2.65625 5.0005002,5.0005002 0 0 0 -4.25,7.49999 l 3.375,6.125 -6.1562,7.9375 -2.4062,-4.37499 a 5.0005002,5.0005002 0 0 0 -4.5,-2.6875 5.0005002,5.0005002 0 0 0 -4.25,7.5 l 4.4687,8.12499 -6.1563,7.90626 -3.5,-6.34375 a 5.0005002,5.0005002 0 0 0 -4.5312,-2.65625 5.0005002,5.0005002 0 0 0 -4.2188,7.49999 l 5.5626,10.06251 -6.1876,7.96874 -4.5937,-8.34374 a 5.0005002,5.0005002 0 0 0 -4.4687,-2.6875 5.0005002,5.0005002 0 0 0 -3.5313,1.56249 l 21.0313,-37.125 a 10.000999,10.000999 0 0 0 -8.625,-15.06249 10.000999,10.000999 0 0 0 -8.7813,5.1875 l -59.8437,105.625 a 10.006143,10.006143 0 1 0 17.4062,9.87499 l 3.4375,-6.06249 2.7813,5.03125 -32.968797,42.31249 a 10.005397,10.005397 0 1 0 15.749997,12.3438 l 110.1562,-141.37505 11.125,1.40626 a 5.0234121,5.0234121 0 1 0 1.25,-9.96876 l -5.1874,-0.65624 4.25,-5.46875 19.375,2.40625 a 5.0005002,5.0005002 0 1 0 1.2187,-9.90625 l -13.4063,-1.6875 4.625,-5.9375 31.0313,3.90624 a 5.0103173,5.0103173 0 1 0 1.2187,-9.93749 l -25.0937,-3.15625 4.7813,-6.15626 44.2187,5.56251 a 5.0005002,5.0005002 0 1 0 1.2813,-9.90626 l -38.3438,-4.84374 5.5312,-7.09375 z m -109.4374,82.875 a 5.0005002,5.0005002 0 0 0 0.5,3.74999 l 6.6562,12.06251 -6.1562,7.9375 -5.6876,-10.3125 a 5.0005002,5.0005002 0 0 0 -1.8437,-1.9375 l 6.5313,-11.5 z m -11.9376,21.03125 6.25,11.28125 -6.1874,7.9375 -5.4063,-9.8125 5.3437,-9.40625 z m 119.125,3.09375 1.6876,16.09375 -21.4063,13.87499 -1.3125,-12.59374 8.2188,-6.75 0.3124,3.1875 a 5.0110007,5.0110007 0 1 0 9.9688,-1.03126 l -1.0312,-9.84375 3.5624,-2.93749 z m -130.25,16.53125 4.5313,8.15624 -6.1875,7.90626 -3.6875,-6.65625 5.3437,-9.40625 z m 100,8.5 1.125,11.03125 -8.3437,5.43749 -1.0313,-9.65624 8.25,-6.8125 z m -17.5,14.46875 0.8438,8.09375 -8.3438,5.40625 -0.6874,-6.71875 8.1874,-6.78125 z m -17.4374,14.4375 0.5312,5.1875 -8.3438,5.40625 -0.4062,-3.8125 8.2188,-6.78125 z m -17.4688,14.46875 0.2188,2.21875 -13.5,8.74994 13.2812,-10.96869 z" id="path4699" inkscape:connector-curvature="0"/>
  </g>
</svg>