<?xml version="1.0" encoding="UTF-8" standalone="no"?>
<svg
   xmlns:dc="http://purl.org/dc/elements/1.1/"
   xmlns:cc="http://creativecommons.org/ns#"
   xmlns:rdf="http://www.w3.org/1999/02/22-rdf-syntax-ns#"
   xmlns:svg="http://www.w3.org/2000/svg"
   xmlns="http://www.w3.org/2000/svg"
   style="enable-background:new"
   width="76.883797mm"
   height="86.109856mm"
   viewBox="0 0 76.883797 86.109856"
   version="1.1"
   id="svg8">
  <defs
     id="defs2">
    <filter
       style="color-interpolation-filters:sRGB"
       id="filter1042">
      <feFlood
         flood-opacity="0.498039"
         flood-color="rgb(0,0,0)"
         result="flood"
         id="feFlood1032" />
      <feComposite
         in="flood"
         in2="SourceGraphic"
         operator="in"
         result="composite1"
         id="feComposite1034" />
      <feGaussianBlur
         in="composite1"
         stdDeviation="3"
         result="blur"
         id="feGaussianBlur1036" />
      <feOffset
         dx="6"
         dy="6"
         result="offset"
         id="feOffset1038" />
      <feComposite
         in="SourceGraphic"
         in2="offset"
         operator="over"
         result="composite2"
         id="feComposite1040" />
    </filter>
    <filter
       style="color-interpolation-filters:sRGB"
       id="filter1165">
      <feOffset
         dy="3"
         dx="3"
         id="feOffset1155" />
      <feGaussianBlur
         stdDeviation="3"
         result="blur"
         id="feGaussianBlur1157" />
      <feFlood
         flood-color="rgb(0,0,0)"
         flood-opacity="1"
         result="flood"
         id="feFlood1159" />
      <feComposite
         in="flood"
         in2="SourceGraphic"
         operator="in"
         result="composite"
         id="feComposite1161" />
      <feBlend
         in="blur"
         in2="composite"
         mode="normal"
         id="feBlend1163" />
    </filter>
  </defs>
  <metadata
     id="metadata5">
    <rdf:RDF>
      <cc:Work
         rdf:about="">
        <dc:format>image/svg+xml</dc:format>
        <dc:type
           rdf:resource="http://purl.org/dc/dcmitype/StillImage" />
        <dc:title></dc:title>
      </cc:Work>
    </rdf:RDF>
  </metadata>
  <g
     transform="translate(-76.084887,-94.06113)"
     id="layer1">
    <g
       style="fill:#3f3f3f;stroke:none"
       id="layer1-3"
       transform="matrix(0.06150704,0,0,0.06150704,64.398549,90.985778)">
      <path
         d="m 340,1425 c 0,-20 -5,-25 -25,-25 -20,0 -25,-5 -25,-25 0,-24 2,-25 75,-25 h 75 v -75 -75 h -50 -50 v 50 50 h -50 c -47,0 -50,-2 -50,-25 0,-20 -5,-25 -25,-25 -20,0 -25,-5 -25,-25 0,-20 5,-25 25,-25 20,0 25,-5 25,-25 0,-24 2,-25 75,-25 h 75 v -50 c 0,-47 -2,-50 -25,-50 -20,0 -25,-5 -25,-25 0,-20 -5,-25 -25,-25 -20,0 -25,-5 -25,-25 0,-20 -5,-25 -25,-25 H 240 V 800 650 h 25 c 20,0 25,-5 25,-25 0,-20 5,-25 25,-25 20,0 25,-5 25,-25 0,-20 5,-25 25,-25 24,0 25,-2 25,-75 0,-73 1,-75 25,-75 20,0 25,-5 25,-25 0,-20 5,-25 25,-25 20,0 25,-5 25,-25 0,-20 5,-25 25,-25 20,0 25,-5 25,-25 0,-24 2,-25 75,-25 73,0 75,1 75,25 0,20 5,25 25,25 23,0 25,-3 25,-50 v -50 h -50 c -47,0 -50,-2 -50,-25 V 150 H 540 440 V 100 50 h 39 c 67,0 101,11 101,31 0,16 8,19 55,19 52,0 55,1 55,25 0,20 5,25 25,25 20,0 25,5 25,25 0,20 5,25 25,25 20,0 25,5 25,25 0,20 5,25 25,25 20,0 25,-5 25,-25 0,-20 5,-25 25,-25 20,0 25,-5 25,-25 0,-20 5,-25 25,-25 20,0 25,-5 25,-25 0,-24 2,-25 75,-25 73,0 75,-1 75,-25 0,-23 3,-25 50,-25 h 50 v 50 50 H 1090 990 v 25 c 0,20 -5,25 -25,25 -20,0 -25,5 -25,25 0,20 -5,25 -25,25 -20,0 -25,5 -25,25 0,23 3,25 50,25 47,0 50,-2 50,-25 0,-23 3,-25 50,-25 47,0 50,2 50,25 0,23 3,25 50,25 47,0 50,2 50,25 0,20 5,25 25,25 h 25 v 100 100 h 25 c 20,0 25,5 25,25 0,20 5,25 25,25 20,0 25,5 25,25 0,20 5,25 25,25 h 25 v 125 125 h -25 c -23,0 -25,3 -25,50 0,46 -2,50 -24,50 -19,0 -24,6 -29,38 -4,20 -4,54 0,75 5,31 10,37 29,37 19,0 24,-5 24,-25 0,-23 3,-25 50,-25 h 50 v 75 c 0,73 -1,75 -25,75 -20,0 -25,5 -25,25 0,20 -5,25 -25,25 -23,0 -25,-3 -25,-49 v -49 l -44,-6 c -44,-7 -45,-8 -52,-52 l -6,-44 h -49 -49 v 50 c 0,47 2,50 25,50 20,0 25,5 25,25 0,20 5,25 25,25 23,0 25,3 25,50 v 50 h 50 c 47,0 50,2 50,25 v 25 h -100 -100 v -50 c 0,-47 2,-50 25,-50 20,0 25,-5 25,-25 0,-20 -5,-25 -25,-25 -20,0 -25,-5 -25,-25 0,-24 -2,-25 -75,-25 -73,0 -75,1 -75,25 0,20 5,25 25,25 23,0 25,3 25,50 0,47 2,50 25,50 20,0 25,5 25,25 0,24 -2,25 -64,25 -35,0 -78,-3 -95,-6 -34,-7 -43,-34 -11,-34 16,0 20,-7 20,-30 0,-25 4,-30 25,-30 20,0 25,-5 25,-25 0,-20 -5,-25 -25,-25 -20,0 -25,-5 -25,-25 v -25 H 840 740 v 25 c 0,20 -5,25 -25,25 -23,0 -25,3 -25,50 0,47 2,50 25,50 20,0 25,5 25,25 0,20 -5,25 -25,25 -20,0 -25,5 -25,25 0,23 -3,25 -50,25 h -50 v -50 c 0,-47 2,-50 25,-50 24,0 25,-2 25,-75 v -75 h -50 c -47,0 -50,2 -50,25 0,20 -5,25 -25,25 h -25 v 100 100 h -75 c -73,0 -75,-1 -75,-25 z m 150,-250 c 0,-20 -5,-25 -25,-25 -20,0 -25,5 -25,25 0,20 5,25 25,25 20,0 25,-5 25,-25 z M 790,950 V 800 H 690 590 v 50 c 0,47 -2,50 -25,50 -24,0 -25,2 -25,75 0,73 1,75 25,75 20,0 25,5 25,25 v 25 h 100 100 z m 250,125 c 0,-20 5,-25 25,-25 24,0 25,-2 25,-75 0,-73 -1,-75 -25,-75 -23,0 -25,-3 -25,-50 V 800 H 940 840 v 150 150 h 100 100 z M 490,875 V 750 h -25 c -20,0 -25,-5 -25,-25 0,-20 -5,-25 -25,-25 -23,0 -25,3 -25,50 0,47 -2,50 -25,50 -20,0 -25,5 -25,25 0,20 5,25 25,25 23,0 25,3 25,50 0,47 2,50 25,50 20,0 25,5 25,25 0,20 5,25 25,25 h 25 z m 700,100 c 0,-20 5,-25 25,-25 h 25 V 825 700 h -25 c -20,0 -25,5 -25,25 0,20 -5,25 -25,25 -20,0 -25,5 -25,25 0,20 -5,25 -25,25 -20,0 -25,5 -25,25 0,20 5,25 25,25 24,0 25,2 25,75 0,73 1,75 25,75 20,0 25,-5 25,-25 z M 690,675 c 0,-20 5,-25 25,-25 20,0 25,-5 25,-25 0,-20 5,-25 25,-25 h 25 V 500 400 h -25 c -20,0 -25,-5 -25,-25 0,-23 -3,-25 -50,-25 -47,0 -50,-2 -50,-25 0,-20 -5,-25 -25,-25 -20,0 -25,5 -25,25 0,23 -3,25 -50,25 -47,0 -50,2 -50,25 0,20 -5,25 -25,25 h -25 v 100 100 h 25 c 20,0 25,5 25,25 0,20 5,25 25,25 20,0 25,5 25,25 0,24 2,25 75,25 73,0 75,-1 75,-25 z m 400,0 c 0,-23 3,-25 50,-25 h 50 V 525 400 h -25 c -20,0 -25,-5 -25,-25 V 350 H 1040 940 v 25 c 0,20 -5,25 -25,25 h -25 v 125 125 h 50 c 47,0 50,2 50,25 0,23 3,25 50,25 47,0 50,-2 50,-25 z"
         id="path910" />
      <path
         d="m 590,500 c 0,-47 2,-50 25,-50 23,0 25,3 25,50 0,47 -2,50 -25,50 -23,0 -25,-3 -25,-50 z"
         id="path912" />
      <path
         d="m 990,525 c 0,-20 5,-25 25,-25 20,0 25,-5 25,-25 0,-20 5,-25 25,-25 23,0 25,3 25,50 v 50 h -50 c -47,0 -50,-2 -50,-25 z"
         id="path914" />
    </g>
  </g>
</svg>
