<?xml version="1.0" encoding="UTF-8" standalone="no"?>
<!-- Created with Inkscape (http://www.inkscape.org/) -->
<svg xmlns:dc="http://purl.org/dc/elements/1.1/" xmlns:cc="http://creativecommons.org/ns#" xmlns:rdf="http://www.w3.org/1999/02/22-rdf-syntax-ns#" xmlns:svg="http://www.w3.org/2000/svg" xmlns="http://www.w3.org/2000/svg" xmlns:sodipodi="http://sodipodi.sourceforge.net/DTD/sodipodi-0.dtd" xmlns:inkscape="http://www.inkscape.org/namespaces/inkscape" width="134.34467mm" height="152.52301mm" viewBox="0 0 476.02441 540.43586" id="svg2" version="1.1" inkscape:version="0.91 r13725" sodipodi:docname="happy_python.svg">
  <defs id="defs4"/>
  <sodipodi:namedview id="base" pagecolor="#ffffff" bordercolor="#666666" borderopacity="1.0" inkscape:pageopacity="0.0" inkscape:pageshadow="2" inkscape:zoom="0.7" inkscape:cx="154.04407" inkscape:cy="251.04594" inkscape:document-units="px" inkscape:current-layer="layer2" showgrid="false" inkscape:window-width="1440" inkscape:window-height="819" inkscape:window-x="16" inkscape:window-y="0" inkscape:window-maximized="0" fit-margin-top="0" fit-margin-left="0" fit-margin-right="0" fit-margin-bottom="0"/>
  <metadata id="metadata7">
    <rdf:RDF>
      <cc:Work rdf:about="">
        <dc:format>image/svg+xml</dc:format>
        <dc:type rdf:resource="http://purl.org/dc/dcmitype/StillImage"/>
        <dc:title/>
      </cc:Work>
    </rdf:RDF>
  </metadata>
  <g inkscape:groupmode="layer" id="layer2" inkscape:label="Layer 2" transform="translate(-109.89996,-221.03212)">
    <g id="g4237">
      <path sodipodi:nodetypes="csssssssscsssscssscssssssssssssssssssssssssssc" inkscape:connector-curvature="0" id="path4190" d="m 387.89858,600.82402 c 0,0 -10.50842,7.82902 -16.16244,11.11167 -9.37726,5.44432 -18.86557,11.17353 -29.29443,14.14214 -12.37439,3.52241 -25.53025,4.55814 -38.38579,4.04061 -10.95386,-0.44097 -26.93928,1.80928 -35.53918,-4.98948 -2.60152,-2.05666 -4.39927,-4.91628 -2.84663,-7.84664 8.00905,-15.11574 37.05213,-4.11852 52.52794,-11.40754 20.75001,-9.77313 38.03549,-26.66902 52.52793,-44.44671 10.66332,-13.08055 18.791,-28.47562 24.24367,-44.44671 5.50882,-16.13555 8.08122,-50.50763 8.08122,-50.50763 0,0 -36.17275,24.34882 -56.56855,31.31473 -25.14676,8.58854 -52.21915,12.22963 -78.7919,12.12183 -12.62119,-0.0512 -25.06546,-3.27587 -37.37564,-6.06092 -30.45087,-6.8892 -62.42903,-11.43609 -89.90358,-26.26396 -10.50987,-5.67212 -27.27411,-23.23351 -27.27411,-23.23351 0,0 8.69724,-45.4165 19.19289,-65.65992 9.70613,-18.72064 24.53855,-34.53321 39.39595,-49.49747 7.92895,-7.98598 16.24507,-16.08819 26.26397,-21.21321 23.9256,-12.23878 77.78174,-21.2132 77.78174,-21.2132 0,0 64.08768,-3.09224 94.95434,4.04061 25.41657,5.87341 51.05863,15.39078 71.72083,31.31473 22.78403,17.5592 41.27005,41.66229 53.53809,67.68022 11.60459,24.6109 15.40286,52.65006 17.17259,79.80205 1.3404,20.56502 -0.75808,41.46268 -5.05076,61.61931 -2.75057,12.91552 -7.98037,25.2168 -13.13198,37.37564 -5.58089,13.17202 -12.09747,25.96391 -19.1929,38.3858 -3.38167,5.92026 -11.45392,10.36318 -11.11168,17.17259 0.10823,2.15333 2.0653,4.18665 4.04061,5.05076 8.65976,3.78827 19.39046,-5.2207 28.28427,-2.0203 9.63597,3.46747 18.02722,11.87148 22.22336,21.2132 3.86558,8.60579 -1.75211,19.26362 1.01015,28.28427 0.93009,3.03737 2.457,6.24734 5.05076,8.08122 2.5348,1.7922 6.07453,2.7523 9.09138,2.02031 12.77847,-3.1005 18.8174,-18.8548 30.30457,-25.25381 3.72082,-2.07271 8.258,-5.83266 12.12183,-4.04062 4.9349,2.2888 6.47183,9.72799 6.06092,15.15229 -1.50494,19.8664 -16.98717,36.69937 -30.30458,51.51778 -8.68794,9.66716 -18.66495,20.2473 -31.31473,23.23351 -11.3143,2.67094 -24.50261,0.12545 -34.34518,-6.06091 -11.23457,-7.06128 -10.42622,-28.85353 -23.23351,-32.32489 -19.20475,-5.20537 -35.73452,17.76582 -54.54824,24.24367 -11.8142,4.06781 -24.32397,12.42668 -36.36549,9.09137 -15.60301,-4.32178 -29.27344,-18.9696 -34.34519,-34.34519 -7.14535,-21.66192 5.64661,-45.30951 10.10153,-67.68022 2.16918,-10.89269 -1.38138,-15.85239 5.40265,-24.64631 7.27157,-9.4259 33.9933,-24.85116 33.9933,-24.85116 z" style="fill:#508227;fill-opacity:1;fill-rule:evenodd;stroke:#000000;stroke-width:6;stroke-linecap:butt;stroke-linejoin:miter;stroke-miterlimit:4;stroke-dasharray:none;stroke-opacity:1"/>
      <path sodipodi:nodetypes="sssssssss" inkscape:connector-curvature="0" id="path4188" d="m 361.63461,239.18941 c -19.49215,-0.81747 -37.96792,6.42765 -53.53808,18.18274 -11.12559,8.39955 -19.43095,24.72807 -22.22336,38.3858 -3.61527,17.68239 -0.77741,33.07628 10.10153,47.47717 9.36497,12.39679 25.01068,21.14446 40.4061,23.23351 22.74033,3.0857 48.30406,-3.41273 66.67007,-17.1726 13.17134,-9.868 22.06499,-29.04052 23.2335,-45.45686 1.24316,-17.46513 -6.17827,-32.71055 -18.18274,-45.45687 -11.56352,-12.27812 -29.61568,-18.48617 -46.46702,-19.19289 z" style="fill:#ffffff;fill-rule:evenodd;stroke:#000000;stroke-width:6;stroke-linecap:butt;stroke-linejoin:miter;stroke-miterlimit:4;stroke-dasharray:none;stroke-opacity:1"/>
      <path sodipodi:nodetypes="sssssssss" inkscape:connector-curvature="0" id="path4186" d="m 235.36554,224.03712 c -16.2728,0.22061 -33.34882,8.29971 -44.44671,20.20305 -12.49673,13.40371 -19.65682,33.19805 -19.1929,51.51778 0.47345,18.69623 8.85358,38.44023 22.22336,51.51778 9.61039,9.40032 23.93503,14.87713 37.37564,15.15229 18.95415,0.38804 40.50438,-5.4258 53.53809,-19.1929 11.35261,-11.99141 14.50324,-30.96822 14.14213,-47.47717 -0.4052,-18.52421 -5.52226,-38.99934 -18.18274,-52.52793 -11.23848,-12.00909 -29.01084,-19.41586 -45.45687,-19.1929 z" style="fill:#ffffff;fill-rule:evenodd;stroke:#000000;stroke-width:6;stroke-linecap:butt;stroke-linejoin:miter;stroke-miterlimit:4;stroke-dasharray:none;stroke-opacity:1"/>
      <path sodipodi:nodetypes="csc" inkscape:connector-curvature="0" id="path4202" d="m 323.57143,312.3622 c 0,0 9.00938,-25.40665 19.28571,-24.28571 10.79738,1.17777 14.28572,29.28571 14.28572,29.28571" style="fill:none;fill-rule:evenodd;stroke:#000000;stroke-width:6;stroke-linecap:butt;stroke-linejoin:miter;stroke-miterlimit:4;stroke-dasharray:none;stroke-opacity:1"/>
      <path sodipodi:nodetypes="cacc" inkscape:connector-curvature="0" id="path4200" d="m 230.71429,304.50506 c 0,0 10.067,-20.88676 19.28571,-20 10.45227,1.00542 17.14286,26.42857 17.14286,26.42857 l 0,0" style="fill:none;fill-rule:evenodd;stroke:#000000;stroke-width:6;stroke-linecap:butt;stroke-linejoin:miter;stroke-miterlimit:4;stroke-dasharray:none;stroke-opacity:1"/>
      <path id="path4204" d="m 468.10547,356.6543 c -5.52827,3.43782 -11.49208,7.40095 -15.24805,10.70703 -7.73475,6.80828 -16.16658,14.00753 -20,23.57226 -4.5252,11.29078 -8.28234,25.92715 -2.14258,36.42774 5.48236,9.37626 18.70219,11.84351 29.28516,14.28711 10.20762,2.35693 21.02699,1.25502 31.42773,0 4.57741,-0.55234 10.78931,-1.94644 16.7168,-3.45117 -2.61879,-13.28592 -6.43771,-26.25843 -12.16015,-38.39454 -7.24936,-15.37436 -16.68333,-30.06645 -27.87891,-43.14843 z" style="fill:#6b4849;fill-opacity:1;fill-rule:evenodd;stroke:#000000;stroke-width:6;stroke-linecap:butt;stroke-linejoin:miter;stroke-miterlimit:4;stroke-dasharray:none;stroke-opacity:1" inkscape:connector-curvature="0"/>
      <path id="path4207" d="m 508.53906,484.31055 c -7.48062,0.0324 -15.18362,0.43123 -20.68164,1.62304 -9.89963,2.14595 -20.29495,5.40338 -27.85742,12.14258 -6.372,5.67833 -10.31114,13.99628 -12.85742,22.14258 -1.78148,5.69947 -3.30331,12.18822 -1.42774,17.85742 1.58993,4.8058 8.27181,13.16768 12.14258,16.42969 7.68136,6.47331 14.09263,7.38414 23.57031,10.71289 4.59359,1.61335 11.44031,2.6089 17.7793,3.24609 3.61623,-8.87842 6.91072,-17.89757 8.90039,-27.24023 3.96342,-18.61054 6.04828,-37.85198 5.29102,-56.88086 -1.59714,-0.0237 -3.21502,-0.0403 -4.85938,-0.0332 z" style="fill:#6b4849;fill-opacity:1;fill-rule:evenodd;stroke:#000000;stroke-width:6;stroke-linecap:butt;stroke-linejoin:miter;stroke-miterlimit:4;stroke-dasharray:none;stroke-opacity:1" inkscape:connector-curvature="0"/>
      <path id="path4210" d="m 492.70703,636.48828 c -7.4941,0.004 -15.77152,5.3069 -22.83594,3.14258 -2.23013,4.57362 -4.41587,10.17191 -4.15625,14.16016 0.3876,5.95404 4.34536,11.65348 9.28516,15 4.96334,3.36248 11.14807,2.9403 17.14258,2.85742 6.49811,-0.0898 13.24116,-0.46918 19.28515,-2.85742 2.66247,-1.05206 5.98223,-3.16466 9.07813,-5.37696 -0.17682,-1.72588 -0.56535,-3.4049 -1.28711,-5.01172 -4.19614,-9.34172 -12.58864,-17.74542 -22.22461,-21.21289 -1.38966,-0.50006 -2.82267,-0.70187 -4.28711,-0.70117 z" style="fill:#6b4849;fill-opacity:1;fill-rule:evenodd;stroke:#000000;stroke-width:6;stroke-linecap:butt;stroke-linejoin:miter;stroke-miterlimit:4;stroke-dasharray:none;stroke-opacity:1" inkscape:connector-curvature="0"/>
      <path sodipodi:nodetypes="ssssssscssssssscccss" inkscape:connector-curvature="0" id="path4198" d="m 282.17578,532.38672 c -8.62262,0.0531 -17.24484,0.38841 -25.74805,0.68945 -17.56617,0.62189 -35.38512,2.55224 -52.14257,7.85742 -17.76489,5.62413 -36.24031,12.43445 -50,25 -8.68461,7.93092 -15.6223,18.61443 -18.57032,30 -1.25472,4.84586 -1.5195,10.51969 0.71289,15 2.93661,5.89366 17.09443,-5.09235 31.42941,-9.28515 10.06514,-2.94393 31.42802,-5.36167 31.42802,-1.42969 0,0 -13.59978,6.65508 -17.14258,12.85742 -4.27752,7.48861 -5.98132,17.67634 -2.85742,25.71485 1.83358,4.71822 6.38986,10.47309 11.42968,10 11.14402,-1.04609 13.28969,-18.05237 20.71289,-26.42969 7.36926,-8.31645 14.0633,-17.82149 23.57227,-23.57031 16.43343,-9.93512 35.96049,-14.64032 55,-17.14258 11.57683,-1.52148 23.50764,-0.63713 35,1.42773 5.29401,0.95119 12.96383,3.44857 19.31445,5.70899 9.71128,-8.17653 18.48297,-17.63084 26.41211,-27.35743 0.34155,-0.41896 0.67343,-0.84587 1.00977,-1.26953 -9.04783,-6.8732 -23.61438,-17.18814 -33.87891,-20.65234 -17.73594,-5.98574 -36.71188,-7.23599 -55.68164,-7.11914 z" style="fill:#cf2257;fill-opacity:1;fill-rule:evenodd;stroke:#000000;stroke-width:6;stroke-linecap:butt;stroke-linejoin:miter;stroke-miterlimit:4;stroke-dasharray:none;stroke-opacity:1"/>
    </g>
  </g>
</svg>