<?xml version="1.0" encoding="UTF-8" standalone="no"?>
<svg
   xmlns:dc="http://purl.org/dc/elements/1.1/"
   xmlns:cc="http://creativecommons.org/ns#"
   xmlns:rdf="http://www.w3.org/1999/02/22-rdf-syntax-ns#"
   xmlns:svg="http://www.w3.org/2000/svg"
   xmlns="http://www.w3.org/2000/svg"
   id="svg314"
   viewBox="0, 0, 808, 552"
   height="552"
   width="808"
   y="0"
   x="0"
   version="1.1">
  <metadata
     id="metadata318">
    <rdf:RDF>
      <cc:Work
         rdf:about="">
        <dc:format>image/svg+xml</dc:format>
        <dc:type
           rdf:resource="http://purl.org/dc/dcmitype/StillImage" />
        <dc:title></dc:title>
      </cc:Work>
    </rdf:RDF>
  </metadata>
  <defs
     id="defs33">
    <linearGradient
       y2="12.603"
       x2="779.512"
       y1="12.603"
       x1="130.789"
       gradientUnits="userSpaceOnUse"
       id="Gradient_1">
      <stop
         id="stop2"
         stop-color="#0C5C35"
         offset="0" />
      <stop
         id="stop4"
         stop-color="#095833"
         offset="0.125" />
      <stop
         id="stop6"
         stop-color="#065531"
         offset="0.25" />
      <stop
         id="stop8"
         stop-color="#06512F"
         offset="0.375" />
      <stop
         id="stop10"
         stop-color="#064E2E"
         offset="0.5" />
      <stop
         id="stop12"
         stop-color="#064B2C"
         offset="0.625" />
      <stop
         id="stop14"
         stop-color="#06482A"
         offset="0.75" />
      <stop
         id="stop16"
         stop-color="#064528"
         offset="0.875" />
      <stop
         id="stop18"
         stop-color="#064226"
         offset="1" />
    </linearGradient>
    <clipPath
       id="Clip_1">
      <path
         id="path21"
         d="M779.512,12.603 L779.512,515.852 L130.789,515.852 L130.789,12.603 L779.512,12.603 z" />
    </clipPath>
    <clipPath
       id="Clip_2">
      <path
         id="path24"
         d="M10.657,12.603 L779.512,12.603 L779.512,515.852 L10.657,515.852 z" />
    </clipPath>
    <clipPath
       id="Clip_3">
      <path
         id="path27"
         d="M663.104,398.642 C663.104,403.829 658.9,408.033 653.713,408.033 C648.525,408.033 644.321,403.829 644.321,398.642 C644.321,393.457 648.525,389.252 653.713,389.252 C658.9,389.252 663.104,393.457 663.104,398.642 z" />
    </clipPath>
    <clipPath
       id="Clip_4">
      <path
         id="path30"
         d="M778.216,401.662 C778.216,406.85 774.012,411.055 768.824,411.055 C763.637,411.055 759.433,406.85 759.433,401.662 C759.433,396.477 763.637,392.273 768.824,392.273 C774.012,392.273 778.216,396.477 778.216,401.662 z" />
    </clipPath>
  </defs>
  <path
     d="m 0.604,0.601 h 788.96 V 527.852 H 0.604 Z"
     id="path35"
     style="fill:#b79267" />
  <g
     id="g41">
    <path
       d="M 10.657,12.603 H 94.75 V 515.852 H 10.657 Z"
       id="path37"
       style="fill:#0d5d35" />
    <path
       d="m 94.75,12.603 h 36.039 V 515.852 H 94.75 Z"
       id="path39"
       style="fill:#0d5d35" />
  </g>
  <g
     clip-path="url(#Clip_1)"
     id="g45">
    <path
       d="M 130.789,12.603 H 779.512 V 515.852 H 130.789 Z"
       id="path43"
       style="fill:url(#Gradient_1)" />
  </g>
  <g
     clip-path="url(#Clip_2)"
     id="g49">
    <path
       d="M 779.512,515.852 V 12.602 515.852"
       id="path47"
       style="fill:#064226" />
  </g>
  <path
     d="m 39,509.25 h 41.25 v 6.602 H 39 Z"
     id="path51"
     style="fill:#e680a9" />
  <path
     d="m 91.5,509.25 h 41.25 v 6.602 H 91.5 Z"
     id="path53"
     style="fill:#fffffe" />
  <path
     d="m 196,509.25 h 41.25 v 6.602 H 196 Z"
     id="path55"
     style="fill:#fff038" />
  <path
     d="m 144,509.25 h 41.25 v 6.602 H 144 Z"
     id="path57"
     style="fill:#35a0cd" />
  <path
     d="m 316.75,493.703 v 19.009 c 0,1.726 -1.413,3.14 -3.14,3.14 h -60.721 c -1.726,0 -3.139,-1.414 -3.139,-3.14 v -19.009"
     id="path59"
     style="fill:#04301b" />
  <path
     d="m 249.75,489.273 h 67 v 8.858 h -67 z"
     id="path61"
     style="fill:#f1a948" />
  <path
     d="m 279.928,486.781 h 6.645 v 11.35 h -6.645 z"
     id="path63"
     style="fill:#1a1919" />
  <g
     transform="matrix(1.7722505,0,0,1.7722505,-623.64921,-426.0245)"
     id="g1727">
    <path
       style="fill:#f9ce97"
       id="path65"
       d="m 647.348,466.968 c -1.682,-2.226 10.736,-25.255 -7.058,-23.563 -1.715,-6.268 -7.879,-20.465 -15.137,-20.889 -4.686,3.916 3.239,14.709 7.146,23.082 -7.022,0.275 -13.695,7.397 -11.356,14.749 3.072,9.636 13.654,2.252 16.388,11.607 3.451,-0.96 6.757,-2.738 9.595,-4.565" />
    <path
       style="fill:#1f4e7a"
       id="path67"
       d="m 666.06,527.048 c 3.882,-111.867 80.671,-94.823 77.365,18.239 -15.696,0.683 -77.365,22.339 -77.365,-18.239" />
    <path
       style="fill:#fffffe"
       id="path69"
       d="m 712.655,455.41 c -3.183,6.799 -14.879,15.603 -21.156,20.071 -6.316,4.501 -10.702,4.949 -18.524,4.795 6.31,-13.476 25.256,-44.334 41.126,-22.699" />
    <path
       style="fill:#f9ce97"
       id="path71"
       d="m 794.403,384.267 c 0,39.516 -36.691,71.549 -81.951,71.549 -45.265,0 -81.957,-32.033 -81.957,-71.549 0,-39.514 36.692,-71.549 81.957,-71.549 45.26,0 81.951,32.035 81.951,71.549" />
    <path
       style="fill:#f9ce97"
       id="path73"
       d="m 635.92,370.911 c -23.939,-8.787 -25.075,24.427 -2.86,24.805" />
    <path
       style="fill:#f9ce97"
       id="path75"
       d="m 789.513,372.82 c 32.46,-5.226 15.716,48.049 -7.631,28.62" />
    <path
       style="fill:#eb928c"
       id="path77"
       d="m 690.386,409.22 c 4.537,8.157 16.126,13.522 23.052,6.125 -0.701,8.79 -2.434,22.082 -14.265,20.306 -12.488,-1.873 -9.992,-17.793 -8.787,-26.431" />
    <path
       style="fill-opacity:0;stroke:#da9d52;stroke-width:2.86199999;stroke-linecap:round;stroke-linejoin:round"
       d="m 701.00195,381.46484 c -11.38202,-0.0384 -9.52144,12.62258 4.20117,12.29883 l 1.49024,-11.43164 c -2.17063,-0.59875 -4.0654,-0.86171 -5.69141,-0.86719 z"
       id="path79" />
    <g
       id="g85">
      <path
         style="fill:#2d2118"
         id="path81"
         d="m 672.823,373.725 c 0,3.017 -2.446,5.46 -5.461,5.46 -3.016,0 -5.46,-2.443 -5.46,-5.46 0,-3.016 2.444,-5.461 5.46,-5.461 3.015,0 5.461,2.445 5.461,5.461 z" />
      <path
         style="fill-opacity:0;stroke:#2d2118;stroke-width:1.90100002;stroke-linecap:round;stroke-linejoin:round"
         id="path83"
         d="m 672.823,373.725 c 0,3.017 -2.446,5.46 -5.461,5.46 -3.016,0 -5.46,-2.443 -5.46,-5.46 0,-3.016 2.444,-5.461 5.46,-5.461 3.015,0 5.461,2.445 5.461,5.461 z" />
    </g>
    <g
       id="g91">
      <path
         style="fill:#2d2118"
         id="path87"
         d="m 749.559,377.637 c 0,3.017 -2.447,5.461 -5.457,5.461 -3.021,0 -5.464,-2.444 -5.464,-5.461 0,-3.017 2.443,-5.46 5.464,-5.46 3.01,0 5.457,2.443 5.457,5.46 z" />
      <path
         style="fill-opacity:0;stroke:#2d2118;stroke-width:1.90100002;stroke-linecap:round;stroke-linejoin:round"
         id="path89"
         d="m 749.559,377.637 c 0,3.017 -2.447,5.461 -5.457,5.461 -3.021,0 -5.464,-2.444 -5.464,-5.461 0,-3.017 2.443,-5.46 5.464,-5.46 3.01,0 5.457,2.443 5.457,5.46 z" />
    </g>
    <g
       id="g193"
       clip-path="url(#Clip_3)">
      <path
         style="fill:#f9ce97"
         id="path93"
         d="m 644.321,389.252 h 18.78 v 18.779 h -18.78 z" />
      <path
         style="fill:#f9ce97"
         id="path95"
         d="m 663.102,398.641 c 0,5.187 -4.204,9.39 -9.391,9.39 -5.184,0 -9.391,-4.203 -9.391,-9.39 0,-5.184 4.207,-9.391 9.391,-9.391 5.187,0 9.391,4.207 9.391,9.391" />
      <path
         style="fill:#f8ce97"
         id="path97"
         d="m 662.984,398.641 c 0,5.121 -4.152,9.273 -9.273,9.273 -5.117,0 -9.27,-4.152 -9.27,-9.273 0,-5.118 4.153,-9.27 9.27,-9.27 5.121,0 9.273,4.152 9.273,9.27" />
      <path
         style="fill:#f8cd97"
         id="path99"
         d="m 662.863,398.641 c 0,5.054 -4.097,9.152 -9.152,9.152 -5.051,0 -9.149,-4.098 -9.149,-9.152 0,-5.051 4.098,-9.149 9.149,-9.149 5.055,0 9.152,4.098 9.152,9.149" />
      <path
         style="fill:#f8cc97"
         id="path101"
         d="m 662.742,398.641 c 0,4.988 -4.043,9.031 -9.031,9.031 -4.984,0 -9.027,-4.043 -9.027,-9.031 0,-4.985 4.043,-9.028 9.027,-9.028 4.988,0 9.031,4.043 9.031,9.028" />
      <path
         style="fill:#f8cb97"
         id="path103"
         d="m 662.621,398.641 c 0,4.922 -3.988,8.91 -8.91,8.91 -4.918,0 -8.906,-3.988 -8.906,-8.91 0,-4.918 3.988,-8.907 8.906,-8.907 4.922,0 8.91,3.989 8.91,8.907" />
      <path
         style="fill:#f8cb97"
         id="path105"
         d="m 662.5,398.641 c 0,4.855 -3.934,8.789 -8.789,8.789 -4.852,0 -8.785,-3.934 -8.785,-8.789 0,-4.852 3.933,-8.785 8.785,-8.785 4.855,0 8.789,3.933 8.789,8.785" />
      <path
         style="fill:#f7ca97"
         id="path107"
         d="m 662.379,398.641 c 0,4.789 -3.879,8.668 -8.668,8.668 -4.785,0 -8.664,-3.879 -8.664,-8.668 0,-4.785 3.879,-8.664 8.664,-8.664 4.789,0 8.668,3.879 8.668,8.664" />
      <path
         style="fill:#f7c997"
         id="path109"
         d="m 662.258,398.641 c 0,4.722 -3.824,8.546 -8.547,8.546 -4.719,0 -8.547,-3.824 -8.547,-8.546 0,-4.719 3.828,-8.547 8.547,-8.547 4.723,0 8.547,3.828 8.547,8.547" />
      <path
         style="fill:#f7c897"
         id="path111"
         d="m 662.141,398.641 c 0,4.656 -3.774,8.429 -8.43,8.429 -4.652,0 -8.422,-3.773 -8.422,-8.429 0,-4.653 3.77,-8.422 8.422,-8.422 4.656,0 8.43,3.769 8.43,8.422" />
      <path
         style="fill:#f7c896"
         id="path113"
         d="m 662.019,398.641 c 0,4.59 -3.718,8.308 -8.308,8.308 -4.586,0 -8.305,-3.718 -8.305,-8.308 0,-4.586 3.719,-8.305 8.305,-8.305 4.59,0 8.308,3.719 8.308,8.305" />
      <path
         style="fill:#f7c796"
         id="path115"
         d="m 661.898,398.641 c 0,4.523 -3.664,8.187 -8.187,8.187 -4.52,0 -8.184,-3.664 -8.184,-8.187 0,-4.52 3.664,-8.184 8.184,-8.184 4.523,0 8.187,3.664 8.187,8.184" />
      <path
         style="fill:#f6c696"
         id="path117"
         d="m 661.777,398.641 c 0,4.457 -3.609,8.066 -8.066,8.066 -4.453,0 -8.063,-3.609 -8.063,-8.066 0,-4.453 3.61,-8.063 8.063,-8.063 4.457,0 8.066,3.61 8.066,8.063" />
      <path
         style="fill:#f6c696"
         id="path119"
         d="m 661.656,398.641 c 0,4.39 -3.554,7.945 -7.945,7.945 -4.383,0 -7.942,-3.555 -7.942,-7.945 0,-4.383 3.559,-7.942 7.942,-7.942 4.391,0 7.945,3.559 7.945,7.942" />
      <path
         style="fill:#f6c596"
         id="path121"
         d="m 661.535,398.641 c 0,4.32 -3.504,7.824 -7.824,7.824 -4.32,0 -7.82,-3.504 -7.82,-7.824 0,-4.321 3.5,-7.821 7.82,-7.821 4.32,0 7.824,3.5 7.824,7.821" />
      <path
         style="fill:#f6c496"
         id="path123"
         d="m 661.414,398.641 c 0,4.257 -3.445,7.703 -7.703,7.703 -4.25,0 -7.699,-3.446 -7.699,-7.703 0,-4.25 3.449,-7.7 7.699,-7.7 4.258,0 7.703,3.45 7.703,7.7" />
      <path
         style="fill:#f6c396"
         id="path125"
         d="m 661.297,398.641 c 0,4.187 -3.399,7.586 -7.586,7.586 -4.188,0 -7.578,-3.399 -7.578,-7.586 0,-4.188 3.39,-7.579 7.578,-7.579 4.187,0 7.586,3.391 7.586,7.579" />
      <path
         style="fill:#f5c396"
         id="path127"
         d="m 661.172,398.641 c 0,4.125 -3.336,7.461 -7.461,7.461 -4.117,0 -7.461,-3.336 -7.461,-7.461 0,-4.118 3.344,-7.461 7.461,-7.461 4.125,0 7.461,3.343 7.461,7.461" />
      <path
         style="fill:#f5c296"
         id="path129"
         d="m 661.055,398.641 c 0,4.054 -3.289,7.343 -7.344,7.343 -4.051,0 -7.34,-3.289 -7.34,-7.343 0,-4.051 3.289,-7.34 7.34,-7.34 4.055,0 7.344,3.289 7.344,7.34" />
      <path
         style="fill:#f5c196"
         id="path131"
         d="m 660.934,398.641 c 0,3.988 -3.235,7.222 -7.223,7.222 -3.984,0 -7.219,-3.234 -7.219,-7.222 0,-3.985 3.235,-7.219 7.219,-7.219 3.988,0 7.223,3.234 7.223,7.219" />
      <path
         style="fill:#f5c096"
         id="path133"
         d="m 660.813,398.641 c 0,3.921 -3.18,7.101 -7.102,7.101 -3.918,0 -7.098,-3.18 -7.098,-7.101 0,-3.918 3.18,-7.098 7.098,-7.098 3.922,0 7.102,3.18 7.102,7.098" />
      <path
         style="fill:#f5bf96"
         id="path135"
         d="m 660.691,398.641 c 0,3.855 -3.125,6.98 -6.98,6.98 -3.852,0 -6.977,-3.125 -6.977,-6.98 0,-3.852 3.125,-6.977 6.977,-6.977 3.855,0 6.98,3.125 6.98,6.977" />
      <path
         style="fill:#f5be96"
         id="path137"
         d="m 660.57,398.641 c 0,3.789 -3.07,6.859 -6.859,6.859 -3.785,0 -6.855,-3.07 -6.855,-6.859 0,-3.785 3.07,-6.856 6.855,-6.856 3.789,0 6.859,3.071 6.859,6.856" />
      <path
         style="fill:#f4be96"
         id="path139"
         d="m 660.449,398.641 c 0,3.722 -3.015,6.738 -6.738,6.738 -3.719,0 -6.734,-3.016 -6.734,-6.738 0,-3.719 3.015,-6.735 6.734,-6.735 3.723,0 6.738,3.016 6.738,6.735" />
      <path
         style="fill:#f4bd95"
         id="path141"
         d="m 660.328,398.641 c 0,3.656 -2.961,6.617 -6.617,6.617 -3.652,0 -6.617,-2.961 -6.617,-6.617 0,-3.653 2.965,-6.618 6.617,-6.618 3.656,0 6.617,2.965 6.617,6.618" />
      <path
         style="fill:#f4bc95"
         id="path143"
         d="m 660.211,398.641 c 0,3.59 -2.91,6.5 -6.5,6.5 -3.586,0 -6.492,-2.91 -6.492,-6.5 0,-3.586 2.906,-6.493 6.492,-6.493 3.59,0 6.5,2.907 6.5,6.493" />
      <path
         style="fill:#f4bb95"
         id="path145"
         d="m 660.09,398.641 c 0,3.523 -2.856,6.378 -6.379,6.378 -3.52,0 -6.375,-2.855 -6.375,-6.378 0,-3.52 2.855,-6.375 6.375,-6.375 3.523,0 6.379,2.855 6.379,6.375" />
      <path
         style="fill:#f4ba95"
         id="path147"
         d="m 659.969,398.641 c 0,3.457 -2.801,6.257 -6.258,6.257 -3.453,0 -6.254,-2.8 -6.254,-6.257 0,-3.454 2.801,-6.254 6.254,-6.254 3.457,0 6.258,2.8 6.258,6.254" />
      <path
         style="fill:#f4b995"
         id="path149"
         d="m 659.848,398.641 c 0,3.39 -2.746,6.136 -6.137,6.136 -3.387,0 -6.133,-2.746 -6.133,-6.136 0,-3.387 2.746,-6.133 6.133,-6.133 3.391,0 6.137,2.746 6.137,6.133" />
      <path
         style="fill:#f3b995"
         id="path151"
         d="m 659.727,398.641 c 0,3.324 -2.692,6.015 -6.016,6.015 -3.32,0 -6.012,-2.691 -6.012,-6.015 0,-3.321 2.692,-6.012 6.012,-6.012 3.324,0 6.016,2.691 6.016,6.012" />
      <path
         style="fill:#f3b895"
         id="path153"
         d="m 659.606,398.641 c 0,3.257 -2.637,5.894 -5.895,5.894 -3.254,0 -5.891,-2.637 -5.891,-5.894 0,-3.254 2.637,-5.891 5.891,-5.891 3.258,0 5.895,2.637 5.895,5.891" />
      <path
         style="fill:#f3b795"
         id="path155"
         d="m 659.484,398.641 c 0,3.191 -2.582,5.773 -5.773,5.773 -3.188,0 -5.774,-2.582 -5.774,-5.773 0,-3.188 2.586,-5.774 5.774,-5.774 3.191,0 5.773,2.586 5.773,5.774" />
      <path
         style="fill:#f3b695"
         id="path157"
         d="m 659.367,398.641 c 0,3.125 -2.531,5.656 -5.656,5.656 -3.121,0 -5.649,-2.531 -5.649,-5.656 0,-3.122 2.528,-5.649 5.649,-5.649 3.125,0 5.656,2.527 5.656,5.649" />
      <path
         style="fill:#f3b595"
         id="path159"
         d="m 659.246,398.641 c 0,3.054 -2.48,5.535 -5.535,5.535 -3.055,0 -5.531,-2.481 -5.531,-5.535 0,-3.055 2.476,-5.532 5.531,-5.532 3.055,0 5.535,2.477 5.535,5.532" />
      <path
         style="fill:#f2b495"
         id="path161"
         d="m 659.125,398.641 c 0,2.992 -2.422,5.414 -5.414,5.414 -2.984,0 -5.41,-2.422 -5.41,-5.414 0,-2.985 2.426,-5.41 5.41,-5.41 2.992,0 5.414,2.425 5.414,5.41" />
      <path
         style="fill:#f2b495"
         id="path163"
         d="m 659.004,398.641 c 0,2.921 -2.371,5.293 -5.293,5.293 -2.922,0 -5.289,-2.372 -5.289,-5.293 0,-2.922 2.367,-5.289 5.289,-5.289 2.922,0 5.293,2.367 5.293,5.289" />
      <path
         style="fill:#f2b394"
         id="path165"
         d="m 658.883,398.641 c 0,2.859 -2.313,5.171 -5.172,5.171 -2.852,0 -5.168,-2.312 -5.168,-5.171 0,-2.852 2.316,-5.168 5.168,-5.168 2.859,0 5.172,2.316 5.172,5.168" />
      <path
         style="fill:#f2b294"
         id="path167"
         d="m 658.762,398.641 c 0,2.789 -2.262,5.05 -5.051,5.05 -2.789,0 -5.047,-2.261 -5.047,-5.05 0,-2.789 2.258,-5.047 5.047,-5.047 2.789,0 5.051,2.258 5.051,5.047" />
      <path
         style="fill:#f2b194"
         id="path169"
         d="m 658.641,398.641 c 0,2.726 -2.204,4.929 -4.93,4.929 -2.719,0 -4.926,-2.203 -4.926,-4.929 0,-2.719 2.207,-4.926 4.926,-4.926 2.726,0 4.93,2.207 4.93,4.926" />
      <path
         style="fill:#f1b094"
         id="path171"
         d="m 658.523,398.641 c 0,2.656 -2.156,4.812 -4.812,4.812 -2.652,0 -4.805,-2.156 -4.805,-4.812 0,-2.653 2.153,-4.805 4.805,-4.805 2.656,0 4.812,2.152 4.812,4.805" />
      <path
         style="fill:#f1b094"
         id="path173"
         d="m 658.398,398.641 c 0,2.59 -2.097,4.687 -4.687,4.687 -2.586,0 -4.688,-2.097 -4.688,-4.687 0,-2.586 2.102,-4.688 4.688,-4.688 2.59,0 4.687,2.102 4.687,4.688" />
      <path
         style="fill:#f1af94"
         id="path175"
         d="m 658.281,398.641 c 0,2.523 -2.047,4.57 -4.57,4.57 -2.52,0 -4.567,-2.047 -4.567,-4.57 0,-2.52 2.047,-4.567 4.567,-4.567 2.523,0 4.57,2.047 4.57,4.567" />
      <path
         style="fill:#f1ae94"
         id="path177"
         d="m 658.16,398.641 c 0,2.457 -1.992,4.449 -4.449,4.449 -2.453,0 -4.445,-1.992 -4.445,-4.449 0,-2.454 1.992,-4.446 4.445,-4.446 2.457,0 4.449,1.992 4.449,4.446" />
      <path
         style="fill:#f1ad94"
         id="path179"
         d="m 658.039,398.641 c 0,2.39 -1.937,4.328 -4.328,4.328 -2.387,0 -4.324,-1.938 -4.324,-4.328 0,-2.387 1.937,-4.325 4.324,-4.325 2.391,0 4.328,1.938 4.328,4.325" />
      <path
         style="fill:#f0ac94"
         id="path181"
         d="m 657.918,398.641 c 0,2.324 -1.883,4.207 -4.207,4.207 -2.32,0 -4.203,-1.883 -4.203,-4.207 0,-2.321 1.883,-4.204 4.203,-4.204 2.324,0 4.207,1.883 4.207,4.204" />
      <path
         style="fill:#f0ab94"
         id="path183"
         d="m 657.797,398.641 c 0,2.257 -1.828,4.086 -4.086,4.086 -2.254,0 -4.082,-1.829 -4.082,-4.086 0,-2.254 1.828,-4.082 4.082,-4.082 2.258,0 4.086,1.828 4.086,4.082" />
      <path
         style="fill:#f0ab94"
         id="path185"
         d="m 657.676,398.641 c 0,2.191 -1.774,3.965 -3.965,3.965 -2.188,0 -3.961,-1.774 -3.961,-3.965 0,-2.188 1.773,-3.961 3.961,-3.961 2.191,0 3.965,1.773 3.965,3.961" />
      <path
         style="fill:#f0aa93"
         id="path187"
         d="m 657.555,398.641 c 0,2.125 -1.719,3.843 -3.844,3.843 -2.121,0 -3.844,-1.718 -3.844,-3.843 0,-2.121 1.723,-3.844 3.844,-3.844 2.125,0 3.844,1.723 3.844,3.844" />
      <path
         style="fill:#efa993"
         id="path189"
         d="m 657.437,398.641 c 0,2.058 -1.668,3.726 -3.726,3.726 -2.055,0 -3.719,-1.668 -3.719,-3.726 0,-2.055 1.664,-3.719 3.719,-3.719 2.058,0 3.726,1.664 3.726,3.719" />
      <path
         style="fill:#efa893"
         id="path191"
         d="m 657.316,398.641 c 0,1.992 -1.613,3.605 -3.605,3.605 -1.988,0 -3.602,-1.613 -3.602,-3.605 0,-1.989 1.614,-3.602 3.602,-3.602 1.992,0 3.605,1.613 3.605,3.602" />
    </g>
    <g
       id="g295"
       clip-path="url(#Clip_4)">
      <path
         style="fill:#f9ce97"
         id="path195"
         d="m 759.434,392.273 h 18.781 v 18.781 h -18.781 z" />
      <path
         style="fill:#f9ce97"
         id="path197"
         d="m 778.215,401.664 c 0,5.188 -4.203,9.391 -9.391,9.391 -5.187,0 -9.39,-4.203 -9.39,-9.391 0,-5.187 4.203,-9.391 9.39,-9.391 5.188,0 9.391,4.204 9.391,9.391" />
      <path
         style="fill:#f8ce97"
         id="path199"
         d="m 778.094,401.664 c 0,5.121 -4.149,9.27 -9.27,9.27 -5.121,0 -9.269,-4.149 -9.269,-9.27 0,-5.121 4.148,-9.269 9.269,-9.269 5.121,0 9.27,4.148 9.27,9.269" />
      <path
         style="fill:#f8cd97"
         id="path201"
         d="m 777.977,401.664 c 0,5.055 -4.098,9.149 -9.153,9.149 -5.055,0 -9.152,-4.094 -9.152,-9.149 0,-5.055 4.097,-9.148 9.152,-9.148 5.055,0 9.153,4.093 9.153,9.148" />
      <path
         style="fill:#f8cc97"
         id="path203"
         d="m 777.852,401.664 c 0,4.984 -4.04,9.031 -9.028,9.031 -4.988,0 -9.027,-4.047 -9.027,-9.031 0,-4.984 4.039,-9.031 9.027,-9.031 4.988,0 9.028,4.047 9.028,9.031" />
      <path
         style="fill:#f8cb97"
         id="path205"
         d="m 777.734,401.664 c 0,4.922 -3.992,8.91 -8.91,8.91 -4.918,0 -8.91,-3.988 -8.91,-8.91 0,-4.922 3.992,-8.91 8.91,-8.91 4.918,0 8.91,3.988 8.91,8.91" />
      <path
         style="fill:#f8cb97"
         id="path207"
         d="m 777.613,401.664 c 0,4.852 -3.933,8.789 -8.789,8.789 -4.855,0 -8.789,-3.937 -8.789,-8.789 0,-4.851 3.934,-8.789 8.789,-8.789 4.856,0 8.789,3.938 8.789,8.789" />
      <path
         style="fill:#f7ca97"
         id="path209"
         d="m 777.492,401.664 c 0,4.789 -3.883,8.668 -8.668,8.668 -4.785,0 -8.668,-3.879 -8.668,-8.668 0,-4.789 3.883,-8.668 8.668,-8.668 4.785,0 8.668,3.879 8.668,8.668" />
      <path
         style="fill:#f7c997"
         id="path211"
         d="m 777.371,401.664 c 0,4.719 -3.824,8.547 -8.547,8.547 -4.722,0 -8.547,-3.828 -8.547,-8.547 0,-4.719 3.825,-8.547 8.547,-8.547 4.723,0 8.547,3.828 8.547,8.547" />
      <path
         style="fill:#f7c897"
         id="path213"
         d="m 777.25,401.664 c 0,4.652 -3.773,8.426 -8.426,8.426 -4.652,0 -8.426,-3.774 -8.426,-8.426 0,-4.652 3.774,-8.426 8.426,-8.426 4.653,0 8.426,3.774 8.426,8.426" />
      <path
         style="fill:#f7c896"
         id="path215"
         d="m 777.129,401.664 c 0,4.586 -3.719,8.305 -8.305,8.305 -4.586,0 -8.305,-3.719 -8.305,-8.305 0,-4.586 3.719,-8.305 8.305,-8.305 4.586,0 8.305,3.719 8.305,8.305" />
      <path
         style="fill:#f7c796"
         id="path217"
         d="m 777.008,401.664 c 0,4.52 -3.664,8.188 -8.184,8.188 -4.519,0 -8.183,-3.668 -8.183,-8.188 0,-4.52 3.664,-8.187 8.183,-8.187 4.52,0 8.184,3.667 8.184,8.187" />
      <path
         style="fill:#f6c696"
         id="path219"
         d="m 776.891,401.664 c 0,4.453 -3.614,8.063 -8.067,8.063 -4.453,0 -8.066,-3.61 -8.066,-8.063 0,-4.453 3.613,-8.062 8.066,-8.062 4.453,0 8.067,3.609 8.067,8.062" />
      <path
         style="fill:#f6c696"
         id="path221"
         d="m 776.769,401.664 c 0,4.387 -3.558,7.945 -7.945,7.945 -4.387,0 -7.945,-3.558 -7.945,-7.945 0,-4.387 3.558,-7.945 7.945,-7.945 4.387,0 7.945,3.558 7.945,7.945" />
      <path
         style="fill:#f6c596"
         id="path223"
         d="m 776.648,401.664 c 0,4.32 -3.504,7.824 -7.824,7.824 -4.32,0 -7.824,-3.504 -7.824,-7.824 0,-4.32 3.504,-7.824 7.824,-7.824 4.32,0 7.824,3.504 7.824,7.824" />
      <path
         style="fill:#f6c496"
         id="path225"
         d="m 776.527,401.664 c 0,4.254 -3.449,7.703 -7.703,7.703 -4.254,0 -7.703,-3.449 -7.703,-7.703 0,-4.254 3.449,-7.703 7.703,-7.703 4.254,0 7.703,3.449 7.703,7.703" />
      <path
         style="fill:#f6c396"
         id="path227"
         d="m 776.406,401.664 c 0,4.188 -3.394,7.582 -7.582,7.582 -4.187,0 -7.582,-3.394 -7.582,-7.582 0,-4.187 3.395,-7.582 7.582,-7.582 4.188,0 7.582,3.395 7.582,7.582" />
      <path
         style="fill:#f5c396"
         id="path229"
         d="m 776.285,401.664 c 0,4.121 -3.34,7.461 -7.461,7.461 -4.121,0 -7.461,-3.34 -7.461,-7.461 0,-4.121 3.34,-7.461 7.461,-7.461 4.121,0 7.461,3.34 7.461,7.461" />
      <path
         style="fill:#f5c296"
         id="path231"
         d="m 776.164,401.664 c 0,4.055 -3.285,7.34 -7.34,7.34 -4.055,0 -7.34,-3.285 -7.34,-7.34 0,-4.055 3.285,-7.34 7.34,-7.34 4.055,0 7.34,3.285 7.34,7.34" />
      <path
         style="fill:#f5c196"
         id="path233"
         d="m 776.047,401.664 c 0,3.988 -3.234,7.219 -7.223,7.219 -3.988,0 -7.222,-3.231 -7.222,-7.219 0,-3.988 3.234,-7.219 7.222,-7.219 3.989,0 7.223,3.231 7.223,7.219" />
      <path
         style="fill:#f5c096"
         id="path235"
         d="m 775.922,401.664 c 0,3.922 -3.176,7.102 -7.098,7.102 -3.922,0 -7.097,-3.18 -7.097,-7.102 0,-3.922 3.175,-7.101 7.097,-7.101 3.922,0 7.098,3.179 7.098,7.101" />
      <path
         style="fill:#f5bf96"
         id="path237"
         d="m 775.805,401.664 c 0,3.856 -3.125,6.98 -6.981,6.98 -3.855,0 -6.98,-3.124 -6.98,-6.98 0,-3.855 3.125,-6.98 6.98,-6.98 3.856,0 6.981,3.125 6.981,6.98" />
      <path
         style="fill:#f5be96"
         id="path239"
         d="m 775.684,401.664 c 0,3.789 -3.071,6.859 -6.86,6.859 -3.789,0 -6.859,-3.07 -6.859,-6.859 0,-3.789 3.07,-6.859 6.859,-6.859 3.789,0 6.86,3.07 6.86,6.859" />
      <path
         style="fill:#f4be96"
         id="path241"
         d="m 775.563,401.664 c 0,3.723 -3.016,6.738 -6.739,6.738 -3.722,0 -6.738,-3.015 -6.738,-6.738 0,-3.723 3.016,-6.738 6.738,-6.738 3.723,0 6.739,3.015 6.739,6.738" />
      <path
         style="fill:#f4bd95"
         id="path243"
         d="m 775.441,401.664 c 0,3.656 -2.964,6.617 -6.617,6.617 -3.652,0 -6.617,-2.961 -6.617,-6.617 0,-3.656 2.965,-6.617 6.617,-6.617 3.653,0 6.617,2.961 6.617,6.617" />
      <path
         style="fill:#f4bc95"
         id="path245"
         d="m 775.32,401.664 c 0,3.586 -2.906,6.496 -6.496,6.496 -3.59,0 -6.496,-2.91 -6.496,-6.496 0,-3.586 2.906,-6.496 6.496,-6.496 3.59,0 6.496,2.91 6.496,6.496" />
      <path
         style="fill:#f4bb95"
         id="path247"
         d="m 775.199,401.664 c 0,3.524 -2.855,6.375 -6.375,6.375 -3.519,0 -6.375,-2.851 -6.375,-6.375 0,-3.523 2.856,-6.375 6.375,-6.375 3.52,0 6.375,2.852 6.375,6.375" />
      <path
         style="fill:#f4ba95"
         id="path249"
         d="m 775.078,401.664 c 0,3.453 -2.797,6.258 -6.254,6.258 -3.457,0 -6.254,-2.805 -6.254,-6.258 0,-3.453 2.797,-6.258 6.254,-6.258 3.457,0 6.254,2.805 6.254,6.258" />
      <path
         style="fill:#f4b995"
         id="path251"
         d="m 774.961,401.664 c 0,3.391 -2.75,6.133 -6.137,6.133 -3.387,0 -6.137,-2.742 -6.137,-6.133 0,-3.391 2.75,-6.133 6.137,-6.133 3.387,0 6.137,2.742 6.137,6.133" />
      <path
         style="fill:#f3b995"
         id="path253"
         d="m 774.84,401.664 c 0,3.32 -2.696,6.016 -6.016,6.016 -3.32,0 -6.015,-2.696 -6.015,-6.016 0,-3.32 2.695,-6.016 6.015,-6.016 3.32,0 6.016,2.696 6.016,6.016" />
      <path
         style="fill:#f3b895"
         id="path255"
         d="m 774.719,401.664 c 0,3.254 -2.641,5.895 -5.895,5.895 -3.254,0 -5.894,-2.641 -5.894,-5.895 0,-3.254 2.64,-5.894 5.894,-5.894 3.254,0 5.895,2.64 5.895,5.894" />
      <path
         style="fill:#f3b795"
         id="path257"
         d="m 774.598,401.664 c 0,3.188 -2.586,5.774 -5.774,5.774 -3.187,0 -5.773,-2.586 -5.773,-5.774 0,-3.187 2.586,-5.773 5.773,-5.773 3.188,0 5.774,2.586 5.774,5.773" />
      <path
         style="fill:#f3b695"
         id="path259"
         d="m 774.477,401.664 c 0,3.121 -2.532,5.652 -5.653,5.652 -3.121,0 -5.652,-2.531 -5.652,-5.652 0,-3.121 2.531,-5.652 5.652,-5.652 3.121,0 5.653,2.531 5.653,5.652" />
      <path
         style="fill:#f3b595"
         id="path261"
         d="m 774.356,401.664 c 0,3.055 -2.477,5.531 -5.532,5.531 -3.055,0 -5.531,-2.476 -5.531,-5.531 0,-3.055 2.476,-5.531 5.531,-5.531 3.055,0 5.532,2.476 5.532,5.531" />
      <path
         style="fill:#f2b495"
         id="path263"
         d="m 774.234,401.664 c 0,2.988 -2.422,5.41 -5.41,5.41 -2.988,0 -5.41,-2.422 -5.41,-5.41 0,-2.988 2.422,-5.41 5.41,-5.41 2.988,0 5.41,2.422 5.41,5.41" />
      <path
         style="fill:#f2b495"
         id="path265"
         d="m 774.117,401.664 c 0,2.922 -2.371,5.289 -5.293,5.289 -2.922,0 -5.293,-2.367 -5.293,-5.289 0,-2.922 2.371,-5.289 5.293,-5.289 2.922,0 5.293,2.367 5.293,5.289" />
      <path
         style="fill:#f2b394"
         id="path267"
         d="m 773.992,401.664 c 0,2.855 -2.312,5.172 -5.168,5.172 -2.855,0 -5.168,-2.317 -5.168,-5.172 0,-2.855 2.313,-5.172 5.168,-5.172 2.856,0 5.168,2.317 5.168,5.172" />
      <path
         style="fill:#f2b294"
         id="path269"
         d="m 773.875,401.664 c 0,2.789 -2.262,5.051 -5.051,5.051 -2.789,0 -5.051,-2.262 -5.051,-5.051 0,-2.789 2.262,-5.051 5.051,-5.051 2.789,0 5.051,2.262 5.051,5.051" />
      <path
         style="fill:#f2b194"
         id="path271"
         d="m 773.754,401.664 c 0,2.723 -2.207,4.93 -4.93,4.93 -2.722,0 -4.93,-2.207 -4.93,-4.93 0,-2.723 2.208,-4.93 4.93,-4.93 2.723,0 4.93,2.207 4.93,4.93" />
      <path
         style="fill:#f1b094"
         id="path273"
         d="m 773.633,401.664 c 0,2.656 -2.152,4.809 -4.809,4.809 -2.656,0 -4.808,-2.153 -4.808,-4.809 0,-2.656 2.152,-4.808 4.808,-4.808 2.657,0 4.809,2.152 4.809,4.808" />
      <path
         style="fill:#f1b094"
         id="path275"
         d="m 773.512,401.664 c 0,2.59 -2.098,4.688 -4.688,4.688 -2.59,0 -4.687,-2.098 -4.687,-4.688 0,-2.59 2.097,-4.687 4.687,-4.687 2.59,0 4.688,2.097 4.688,4.687" />
      <path
         style="fill:#f1af94"
         id="path277"
         d="m 773.391,401.664 c 0,2.523 -2.043,4.567 -4.567,4.567 -2.523,0 -4.566,-2.044 -4.566,-4.567 0,-2.523 2.043,-4.566 4.566,-4.566 2.524,0 4.567,2.043 4.567,4.566" />
      <path
         style="fill:#f1ae94"
         id="path279"
         d="m 773.273,401.664 c 0,2.457 -1.992,4.445 -4.449,4.445 -2.457,0 -4.449,-1.988 -4.449,-4.445 0,-2.457 1.992,-4.445 4.449,-4.445 2.457,0 4.449,1.988 4.449,4.445" />
      <path
         style="fill:#f1ad94"
         id="path281"
         d="m 773.148,401.664 c 0,2.391 -1.933,4.328 -4.324,4.328 -2.39,0 -4.324,-1.937 -4.324,-4.328 0,-2.391 1.934,-4.328 4.324,-4.328 2.391,0 4.324,1.937 4.324,4.328" />
      <path
         style="fill:#f0ac94"
         id="path283"
         d="m 773.031,401.664 c 0,2.32 -1.883,4.207 -4.207,4.207 -2.324,0 -4.207,-1.887 -4.207,-4.207 0,-2.32 1.883,-4.207 4.207,-4.207 2.324,0 4.207,1.887 4.207,4.207" />
      <path
         style="fill:#f0ab94"
         id="path285"
         d="m 772.91,401.664 c 0,2.258 -1.832,4.086 -4.086,4.086 -2.254,0 -4.086,-1.828 -4.086,-4.086 0,-2.258 1.832,-4.086 4.086,-4.086 2.254,0 4.086,1.828 4.086,4.086" />
      <path
         style="fill:#f0ab94"
         id="path287"
         d="m 772.789,401.664 c 0,2.188 -1.773,3.965 -3.965,3.965 -2.191,0 -3.965,-1.777 -3.965,-3.965 0,-2.187 1.774,-3.965 3.965,-3.965 2.192,0 3.965,1.778 3.965,3.965" />
      <path
         style="fill:#f0aa93"
         id="path289"
         d="m 772.668,401.664 c 0,2.125 -1.723,3.844 -3.844,3.844 -2.121,0 -3.843,-1.719 -3.843,-3.844 0,-2.125 1.722,-3.844 3.843,-3.844 2.121,0 3.844,1.719 3.844,3.844" />
      <path
         style="fill:#efa993"
         id="path291"
         d="m 772.547,401.664 c 0,2.055 -1.664,3.723 -3.723,3.723 -2.058,0 -3.722,-1.668 -3.722,-3.723 0,-2.055 1.664,-3.723 3.722,-3.723 2.059,0 3.723,1.668 3.723,3.723" />
      <path
         style="fill:#efa893"
         id="path293"
         d="m 772.426,401.664 c 0,1.988 -1.614,3.602 -3.602,3.602 -1.988,0 -3.601,-1.614 -3.601,-3.602 0,-1.988 1.613,-3.601 3.601,-3.601 1.988,0 3.602,1.613 3.602,3.601" />
    </g>
    <path
       style="fill:#4b3110"
       id="path297"
       d="m 785.952,405.416 c 11.292,-22.112 9.789,-59.542 -7.19,-77.552 -2.246,-4.718 -1.42,-6.329 7.115,-11.534 -3.549,-1.738 -31.531,-4.346 -31.52,3.017 -0.011,-7.23 -4.547,-13.619 -6.361,-20.097 1.068,3.813 -0.686,13.099 -1.163,17.193 -16.227,-8.879 -38.051,-16.075 -56.551,-10.863 -11.325,3.189 -29.922,8.559 -38.193,16.734 -19.742,19.518 -26.733,49.708 -23.299,77.048 1.991,-11.372 1.253,-25.581 8.608,-35.172 8.496,-11.083 22.843,-17.899 31.871,-29.351 -6.359,8.068 -15.365,16.734 -19.053,26.398 12.967,-3.065 35.171,-17.68 44.78,-30.094 -5.166,7.357 -11.109,13.825 -16.144,21.251 12.265,-1.8 31.379,-13.26 38.757,-23.604 -4.213,10.023 -12.675,17.993 -19.542,26.026 9.444,-0.93 18.14,-4.618 26.435,-9.033 12.961,-6.904 24.802,-21.643 35.675,-3.94 5.785,9.424 6.474,23.722 4.686,34.391 4.857,-8.524 6.832,-18.892 7.856,-28.941 5.138,5.383 9.475,11.208 10.811,19.426 2.219,13.626 -0.898,28.443 0.641,41.988 0.097,-0.161 0.176,-0.345 0.273,-0.506 -0.604,2.12 -1.007,4.291 -1.017,6.576 1.117,-2.999 1.93,-6.143 2.525,-9.361" />
    <path
       style="fill-opacity:0;stroke:#1a1919;stroke-width:1.14499998"
       id="path299"
       d="m 693.542,461.363 4.001,7.801" />
    <path
       style="fill:#675e50"
       id="path301"
       d="m 692.155,453.965 c 6.432,4.711 -0.768,14.21 -6.787,11.199 -5.573,-2.79 0.434,-14.758 7.506,-10.476" />
    <path
       style="fill:#675e50"
       id="path303"
       d="m 686.151,464.42 c -1.551,6.401 -5.649,10.447 -8.684,15.851 -1.008,0.024 -3.479,-0.012 -4.492,0.005 1.183,-5.364 2.895,-11.521 10.972,-18.114" />
    <path
       style="fill:#10304f"
       id="path305"
       d="m 713.687,456.487 c 1.688,2.24 7.467,9.521 5.722,12.203 -1.427,2.194 -14.779,1.418 -17.787,1.709 0.717,0.863 1.303,3.111 2.065,3.992 -7.759,1.05 -23.652,12.278 -30.655,5.646 17.099,-3.318 25.78,-13.501 38.458,-24.647" />
    <path
       style="fill-opacity:0;stroke:#2d2118;stroke-width:1.55400002"
       id="path307"
       d="m 663.08,360.225 c -0.544,-4.275 4.531,-5.244 6.814,-2.096 m 77.043,1.048 c 2.607,-3.575 7.145,-0.673 6.553,3.407" />
    <path
       style="fill:#1f4e7a"
       id="path309"
       d="m 709.083,483.632 c -8.742,2.239 -23.937,14.931 -32.399,11.241 -9.303,-4.055 -21.399,-27.725 -25.663,-36.843 -4.092,0.984 -19.691,8.762 -20.444,13.868 -0.937,6.362 18.437,27.159 23.597,32.531 7.898,8.222 15.884,14.513 27.54,14.105 9.949,-0.349 24.17,-4.849 32.826,-9.284" />
    <path
       style="fill:#173a5d"
       id="path311"
       d="m 668.828,514.709 c 13.468,11.399 36.398,-0.51 49.974,-5.163 -6.468,6.036 -56.652,27.693 -51.233,6.423" />
  </g>
</svg>
