<?xml version="1.0" encoding="UTF-8" standalone="no"?>
<svg
   xmlns:dc="http://purl.org/dc/elements/1.1/"
   xmlns:cc="http://creativecommons.org/ns#"
   xmlns:rdf="http://www.w3.org/1999/02/22-rdf-syntax-ns#"
   xmlns:svg="http://www.w3.org/2000/svg"
   xmlns="http://www.w3.org/2000/svg"
   height="136.60094"
   width="146.75017"
   version="1.0"
   viewBox="0 0 146.75015 136.60094"
   id="svg2">
  <defs
     id="defs5"><linearGradient
   x1="194.69"
   y1="31.854"
   x2="194.69"
   gradientUnits="userSpaceOnUse"
   y2="74.711998"
   id="linearGradient10509">
  <stop
     offset="0"
     style="stop-color:#1f2259"
     id="stop2167" />
  <stop
     offset="1"
     style="stop-color:#2fb5ea"
     id="stop2169" />
</linearGradient>
<linearGradient
   x1="182"
   y1="36.387001"
   x2="183.28"
   gradientUnits="userSpaceOnUse"
   y2="53.875"
   id="linearGradient10507">
  <stop
     offset="0"
     style="stop-color:#ffffff"
     id="stop4450" />
  <stop
     offset="1"
     style="stop-color:#ffffff;stop-opacity:0"
     id="stop4452" />
</linearGradient>
<radialGradient
   r="28.884001"
   gradientTransform="matrix(0.16244,2.1067,-1.6909,0.26266,228.26,-371.43)"
   cx="180.72"
   cy="38.594002"
   gradientUnits="userSpaceOnUse"
   id="radialGradient10505">
  <stop
     offset="0"
     style="stop-color:#ffffff;stop-opacity:.87451"
     id="stop2175" />
  <stop
     offset="1"
     style="stop-color:#ffffff;stop-opacity:0"
     id="stop2177" />
</radialGradient>
<radialGradient
   r="28.884001"
   gradientTransform="matrix(-1.0179,0,6.233e-7,-1.1824,391.62,74.389)"
   cx="194.08"
   cy="26.292999"
   gradientUnits="userSpaceOnUse"
   id="radialGradient10503">
  <stop
     offset="0"
     style="stop-color:#ffffff"
     id="stop3600" />
  <stop
     offset="1"
     style="stop-color:#ffffff;stop-opacity:0"
     id="stop3602" />
</radialGradient>
<style
   type="text/css"
   id="style5113">
    .str0 {stroke:#373435;stroke-width:0.7056}
    .fil1 {fill:#00A859}
    .fil4 {fill:#00AFEF}
    .fil2 {fill:#373435}
    .fil3 {fill:#ED3237}
    .fil0 {fill:#FFF212}
  </style>

  
 
   
   
   
   
   
  </defs>
  <g
     transform="translate(-1.3535645,11.430506)"
     id="g3098">
    <path
       transform="matrix(2.0836,0,0,2.0835,-336.93,-52.699)"
       d="m 222.45,56.486 a 28.8845,28.8845 0 1 1 -57.769,0 28.8845,28.8845 0 1 1 57.769,0 z"
       style="fill:url(#linearGradient10509)"
       id="path3523" />
    <path
       d="m 61.04,123.52 c -3.6863,-0.41637 -8.0281,-1.27 -8.2451,-1.6211 -0.13162,-0.21297 0.46833,-0.52455 1.3332,-0.69239 2.0687,-0.40145 2.1043,-0.40155 5.268,-0.0147 1.799,0.22 2.8368,0.15174 3.0547,-0.20091 0.23263,-0.37639 0.89849,-0.30668 2.255,0.23609 1.726,0.69062 3.0753,0.72287 5.3139,0.12701 0.42552,-0.11327 0.66941,0.0831 0.58688,0.47248 -0.09925,0.46835 0.11705,0.55728 0.72809,0.29933 0.4781,-0.20185 1.5246,-0.3316 2.3254,-0.28836 l 1.4562,0.0786 -1.1698,-0.82388 -1.1698,-0.82389 1.111,-0.41098 c 0.7088,-0.26221 1.356,-0.20769 1.7876,0.15057 0.86845,0.72076 6.8403,0.20656 9.2385,-0.79547 0.95021,-0.39702 2.4109,-0.7296 3.2459,-0.73906 0.83503,-0.009 2.0643,-0.32936 2.7317,-0.71088 1.349,-0.77117 2.427,-0.92694 2.427,-0.35071 0,0.43745 -4.7588,2.5572 -8.9797,3.9998 -5.732,1.9591 -16.219,2.9081 -23.299,2.1084 z m 12.965,-7.7895 c -1.7437,-0.71642 -2.7182,-2.4488 -1.9286,-3.4286 0.34488,-0.42798 0.29266,-0.60893 -0.17725,-0.61417 -0.46812,-0.005 -0.49994,-0.11345 -0.10702,-0.36405 0.30753,-0.19613 0.70723,-1.4487 0.88822,-2.7836 0.18099,-1.3348 0.61435,-3.4099 0.96303,-4.6112 0.34867,-1.2013 0.6306,-2.6211 0.62649,-3.155 -0.0079,-1.0284 0.41729,-4.2665 0.91334,-6.9556 0.39747,-2.1547 -0.56008,-3.826 -2.866,-5.0024 -1.0228,-0.5218 -1.9785,-1.3211 -2.1237,-1.7762 -0.72153,-2.261 -2.3998,-5.6455 -3.7372,-7.5369 -1.3056,-1.8464 -0.4143,-5.7919 1.7436,-7.7185 1.3022,-1.1626 1.5247,-1.6709 1.3944,-3.1855 -0.08524,-0.9912 -0.33124,-1.9114 -0.54667,-2.0449 -0.21542,-0.13348 -0.41254,-0.46112 -0.43803,-0.72808 -0.02549,-0.26697 -0.31938,-0.4854 -0.65308,-0.4854 -0.33371,0 -0.55409,0.26719 -0.48973,0.59374 0.15179,0.77017 -2.7582,0.23218 -3.6686,-0.67824 -0.35397,-0.35397 -0.8464,-0.64358 -1.0943,-0.64358 -0.24789,0 -0.45071,-0.28957 -0.45071,-0.64348 0,-1.0401 -2.0496,-2.6219 -3.8831,-2.9969 -0.93438,-0.19113 -2.1776,-0.78691 -2.7628,-1.324 -0.71321,-0.65459 -1.8752,-1.0202 -3.5252,-1.1093 -2.529,-0.13646 -5.1298,-1.3745 -4.6201,-2.1993 0.15807,-0.25577 -0.36679,-0.46406 -1.1694,-0.46406 -1.8186,0 -2.3794,-0.81366 -1.198,-1.7382 0.49392,-0.38656 0.66017,-0.64505 0.36945,-0.57444 -0.44063,0.10701 -2.3063,-1.7879 -3.6968,-3.7547 -0.18873,-0.26696 -1.0069,-1.2499 -1.8181,-2.1843 l -1.4749,-1.6989 0.76108,1.5775 c 0.4186,0.86764 0.95666,1.5775 1.1957,1.5775 0.23903,0 0.31735,0.30554 0.17404,0.67899 -0.1433,0.37344 -0.02723,0.82318 0.25793,0.99943 0.28516,0.17624 0.51848,0.66903 0.51848,1.0951 0,0.67467 -0.12531,0.66127 -0.97078,-0.10387 -0.53393,-0.4832 -0.97078,-1.1792 -0.97078,-1.5466 0,-0.36745 -0.33414,-0.79631 -0.74255,-0.95303 -0.45343,-0.17401 -0.63473,-0.62464 -0.46564,-1.1574 0.1523,-0.47984 0.04958,-1.0129 -0.22824,-1.1846 -0.27782,-0.17171 -0.50513,-0.70426 -0.50513,-1.1834 0,-0.47919 -0.5262,-1.439 -1.1693,-2.133 -1.784,-1.925 -2.2747,-5.0337 -1.2093,-7.6606 0.97823,-2.4119 1.1675,-4.3249 0.42784,-4.3249 -0.27922,0 -0.36778,-0.50542 -0.20337,-1.1605 0.1602,-0.63828 0.05515,-1.3065 -0.23344,-1.4848 -0.29033,-0.17944 -0.52472,0.01373 -0.52472,0.43244 0,0.4162 -0.22669,0.75673 -0.50376,0.75673 -0.27708,0 -0.46153,-0.49146 -0.40991,-1.0921 0.17812,-2.0726 -0.06004,-2.791 -0.92527,-2.791 -1.1022,0 -4.5262,1.7307 -5.027,2.5409 -0.20875,0.33777 -0.55134,0.61678 -0.7613,0.62002 -0.20996,0.0032 -1.3915,0.70449 -2.6256,1.5584 -1.2341,0.85386 -2.3721,1.4242 -2.5289,1.2675 -0.15675,-0.15676 0.41462,-0.75648 1.2697,-1.3327 0.8551,-0.57626 1.6294,-1.4769 1.7207,-2.0014 0.09128,-0.52454 0.96649,-1.6631 1.9449,-2.5301 0.97843,-0.86703 1.3669,-1.4329 0.86331,-1.2575 -1.3943,0.48566 -0.73483,-0.91947 0.7779,-1.6574 0.6857,-0.3345 1.3773,-1.099 1.537,-1.6989 0.38372,-1.4421 3.7367,-3.7559 5.4738,-3.7774 0.75824,-0.0094 2.6892,-0.29552 4.291,-0.63586 1.6018,-0.34036 3.7169,-0.56444 4.7002,-0.49798 1.4693,0.09932 1.776,-0.03655 1.7213,-0.76262 -0.05396,-0.71638 -0.22725,-0.78311 -0.9163,-0.35278 -0.46736,0.29188 -1,0.38041 -1.1837,0.19674 -0.46399,-0.46398 0.73758,-1.8136 1.6146,-1.8136 0.4226,0 0.61135,-0.28464 0.45644,-0.68833 -0.17402,-0.45347 0.34653,-0.95718 1.5256,-1.4762 0.98435,-0.43335 1.3529,-0.6884 0.81895,-0.56678 -1.2812,0.29183 -4.1533,1.298 -5.2114,1.8256 -0.46356,0.23118 -1.2827,0.42032 -1.8202,0.42032 -0.53755,0 -0.97737,0.19254 -0.97737,0.42785 0,0.4218 -3.4598,1.8102 -5.8247,2.3375 -1.0509,0.23429 -0.98587,0.11409 0.48539,-0.89718 5.2559,-3.6127 9.9281,-5.6018 17.13,-7.2928 3.692,-0.8719 5.991,-1.0572 13.207,-1.0697 8.707,-0.0152 15.24,0.7667 13.806,1.6526 -0.36,0.2224 -0.837,0.2913 -1.06,0.1531 -0.224,-0.1381 -2.675,-0.3169 -5.447,-0.3973 -4.231,-0.1226 -4.998,-0.0336 -4.773,0.5538 0.14772,0.38494 0.54236,0.59485 0.87697,0.46645 0.83343,-0.31982 4.7535,1.7257 7.2893,3.8036 1.15,0.94232 2.2746,1.7133 2.4992,1.7133 0.22456,0 0.69183,0.45401 1.0384,1.0089 0.55172,0.88345 0.51187,1.0398 -0.32047,1.2575 -1.2498,0.32683 -1.5908,2.2994 -0.78998,4.5693 0.35191,0.99743 0.53417,1.9192 0.40501,2.0484 -0.44379,0.44378 -3.3121,-1.3014 -5.1825,-3.1531 -1.0299,-1.0196 -2.106,-1.7095 -2.3914,-1.5332 -0.28654,0.17709 -0.37904,0.09439 -0.20656,-0.18469 0.17179,-0.27796 -0.02282,-0.78356 -0.43247,-1.1235 -0.40966,-0.33998 -0.63254,-0.91079 -0.49528,-1.2685 0.14021,-0.36538 -0.06946,-0.65032 -0.47853,-0.65032 -0.40045,0 -0.85382,-0.32764 -1.0075,-0.72808 -0.15367,-0.40045 -0.51186,-0.72809 -0.79598,-0.72809 -0.28412,0 -0.87104,-0.32078 -1.3043,-0.71284 -0.58049,-0.52534 -1.1651,-0.60015 -2.2225,-0.28442 -0.78914,0.23564 -1.1446,0.44721 -0.79,0.47015 1.0464,0.06771 4.5215,3.8712 4.3714,4.7844 -0.07591,0.46162 0.0059,1.0682 0.18188,1.3479 0.17595,0.27972 0.12217,0.82578 -0.11951,1.2135 -0.37347,0.59912 -0.7511,0.5408 -2.5163,-0.38857 -1.1423,-0.6014 -2.4462,-1.0929 -2.8976,-1.0921 -1.0997,0.0018 -1.6093,-0.90558 -0.70368,-1.2531 0.39673,-0.15224 0.84605,-0.60183 0.99849,-0.99909 0.208,-0.54206 0.03568,-0.64566 -0.69056,-0.41515 -0.71274,0.22621 -0.96772,0.08537 -0.96772,-0.53456 0,-0.46293 -0.14373,-0.69797 -0.31938,-0.52231 -0.17566,0.17566 -0.55791,0.1215 -0.84943,-0.12035 -0.36604,-0.30367 -0.52822,0.0847 -0.52411,1.2552 0.0039,1.1082 0.30144,1.8603 0.85964,2.1726 0.46953,0.26277 0.75143,0.64323 0.62643,0.84548 -0.125,0.20225 0.36187,0.28217 1.0819,0.17758 0.8829,-0.12823 2.0204,0.29018 3.4934,1.285 1.6839,1.1372 2.2202,1.3121 2.3412,0.76337 0.23926,-1.0851 0.69341,-0.8819 2.761,1.2355 1.0458,1.071 2.114,1.8765 2.3738,1.7899 0.54765,-0.18255 1.8144,0.99926 2.9833,2.7831 0.81779,1.2481 2.0045,1.7806 1.4245,0.63919 -0.16958,-0.3337 0.14517,-0.09108 0.69944,0.53916 0.55428,0.63025 1.0044,1.504 1.0003,1.9416 -0.0065,0.69106 -0.0693,0.69994 -0.47796,0.06758 -0.41825,-0.64718 -0.47561,-0.64718 -0.51628,0 -0.03141,0.49969 -0.12256,0.53775 -0.29058,0.12135 -0.39138,-0.96995 -2.4951,-0.75879 -2.4156,0.24246 0.04269,0.53771 -0.33317,0.90617 -1.0247,1.0045 -0.60067,0.08544 -1.0921,0.38733 -1.0921,0.67088 0,0.32128 -0.73162,0.41741 -1.9416,0.25512 -1.5853,-0.21264 -1.9435,-0.11304 -1.9524,0.54283 -0.0059,0.44178 -0.43793,1.3493 -0.95999,2.0167 -0.52205,0.66741 -0.95405,1.5133 -0.95999,1.8796 -0.0091,0.56463 -0.13899,0.56463 -0.85184,0 -0.78026,-0.61802 -0.7788,-0.56869 0.02017,0.68236 0.94866,1.4854 0.78517,1.9762 -1.2207,3.664 -1.3694,1.1522 -1.8159,3.1403 -0.84081,3.743 0.71305,0.44069 1.4958,2.6312 1.1438,3.2008 -0.42087,0.68099 -1.6973,-0.52397 -2.4418,-2.3051 -0.46004,-1.1005 -1.0512,-1.5965 -2.1697,-1.8202 -2.3849,-0.47699 -3.3576,-0.3683 -3.3576,0.37516 0,0.43905 -0.33952,0.59386 -0.95142,0.43385 -1.0991,-0.28742 -4.0517,1.3946 -5.1163,2.9144 -0.93502,1.3349 -0.92282,2.9348 0.03786,4.9592 0.89382,1.8836 1.6178,2.2553 3.6145,1.856 0.99933,-0.19987 1.548,-0.65324 1.7462,-1.443 0.15896,-0.63334 0.53837,-1.1683 0.84313,-1.1887 0.30476,-0.02043 0.9355,-0.11019 1.4016,-0.19947 1.2662,-0.24252 1.4692,0.51408 0.59271,2.209 -0.43104,0.83355 -0.66029,1.639 -0.50943,1.7898 0.15085,0.15084 0.0236,0.5763 -0.28276,0.94547 -0.46129,0.55581 -0.24205,0.63647 1.2754,0.46925 3.0056,-0.33121 3.5997,0.01455 3.5712,2.0784 -0.04808,3.4836 1.0836,4.9341 3.0348,3.8898 0.64333,-0.34431 1.2289,-0.34376 1.8745,0.0017 1.2488,0.66836 1.3067,0.65656 2.3677,-0.48226 0.50459,-0.5416 1.3322,-1.0689 1.8391,-1.1717 0.50693,-0.10282 1.3398,-0.35209 1.8508,-0.55393 0.65149,-0.25734 0.82421,-0.19731 0.5781,0.2009 -0.19304,0.31234 -0.11965,0.56788 0.16307,0.56788 0.28271,0 0.51403,-0.20547 0.51403,-0.4566 0,-0.25112 0.58501,-0.1531 1.3,0.21786 0.71501,0.37096 1.5132,0.54267 1.7739,0.38161 0.26061,-0.16107 0.33333,-0.06551 0.16161,0.21235 -0.17173,0.27786 0.17677,0.63627 0.77443,0.79645 1.5274,0.40939 1.9147,0.37356 1.5928,-0.14735 -0.1536,-0.24851 -0.02353,-0.6099 0.28904,-0.80308 0.35493,-0.21936 0.43827,-0.14083 0.22197,0.20916 -0.32199,0.52099 0.35394,0.75254 2.0166,0.69079 0.3337,-0.01241 0.61067,0.33544 0.61548,0.77296 0.01225,1.1137 3.3204,3.7271 5.1835,4.095 1.8779,0.37077 3.5448,1.7096 3.5448,2.8471 0,0.45884 0.23266,0.97805 0.51701,1.1538 0.3383,0.20908 0.2169,0.68039 -0.35116,1.3635 -0.4775,0.57416 -0.55981,0.77346 -0.18293,0.44289 0.55601,-0.48769 1.2662,-0.2817 3.7656,1.0921 1.6942,0.93124 3.4758,1.6932 3.9592,1.6932 0.48337,0 1.2609,0.42212 1.7278,0.93805 0.46691,0.51592 1.156,0.82019 1.5314,0.67615 0.49366,-0.18945 0.68248,0.1443 0.68248,1.2066 0,1.0352 -0.63715,2.2149 -2.1596,3.9985 -1.1878,1.3915 -2.3075,3.2114 -2.4883,4.0441 -0.49847,2.2962 -2.6764,5.0683 -4.4531,5.668 -0.86765,0.29287 -1.5775,0.83814 -1.5775,1.2117 0,0.37359 -0.60067,1.0654 -1.3348,1.5374 -0.73416,0.472 -1.7288,1.3454 -2.2102,1.9409 -2.3837,2.9485 -4.9807,5.0165 -6.0612,4.8266 -0.83839,-0.14736 -1.0772,0.009 -0.97081,0.63724 0.15122,0.89263 -0.8944,2.438 -1.6496,2.438 -0.2521,0 -1.6451,1.0246 -3.0957,2.2769 -1.7519,1.5125 -2.4423,2.3974 -2.0564,2.6359 0.40779,0.25203 0.22702,0.65825 -0.60666,1.3632 -1.1134,0.94144 -1.1345,1.0454 -0.33811,1.6648 0.46719,0.36331 0.84943,0.77482 0.84943,0.91448 0,0.61559 -1.8338,0.63451 -3.2954,0.034 z m -1.953,-83.49 c -0.35039,-0.14021 -0.76903,-0.12297 -0.93033,0.03832 -0.16129,0.1613 0.12539,0.27601 0.63708,0.25494 0.56546,-0.02329 0.68047,-0.13831 0.29325,-0.29326 z m 3.2895,-2.2015 c 0.0095,-0.19185 -0.31044,-0.22309 -0.71088,-0.06943 -0.42546,0.16327 -0.73117,0.0056 -0.73552,-0.37927 -0.0061,-0.53668 -0.08756,-0.53209 -0.44005,0.02472 -0.26239,0.41446 -0.22403,1.1412 0.09746,1.8468 l 0.53009,1.1634 0.62085,-1.1187 c 0.341,-0.615 0.628,-1.275 0.637,-1.467 z m -15.515,1.3649 c 0,-0.097 -0.49927,-0.5035 -1.1095,-0.90333 -0.99524,-0.65211 -1.2127,-0.64341 -2.1116,0.08447 -0.9746,0.78918 -0.94418,0.81395 1.1095,0.90333 1.1614,0.05055 2.1116,0.01253 2.1116,-0.08447 z m -1.1674,-2.4986 c -0.88078,-0.64405 -0.88291,-0.6905 -0.04628,-1.0115 0.48229,-0.18507 1.6965,-0.11772 2.6983,0.14968 1.5452,0.41244 1.7791,0.37575 1.5421,-0.24188 -0.18085,-0.47126 -0.08046,-0.6051 0.28465,-0.37946 0.31022,0.19173 0.948,0.12499 1.4173,-0.14831 0.77498,-0.45131 0.75863,-0.49825 -0.17817,-0.51166 -0.79065,-0.01132 -1.0315,-0.31755 -1.0315,-1.3117 0,-0.71333 -0.40954,-1.5964 -0.9101,-1.9625 -0.50056,-0.36602 -0.8555,-0.76529 -0.78876,-0.88729 0.33599,-0.61412 0.04169,-1.1926 -0.60673,-1.1926 -0.40045,0 -0.72808,-0.23663 -0.72808,-0.52584 0,-0.28922 -0.27303,-0.42794 -0.60674,-0.30829 -0.3337,0.11965 -0.99424,0.01815 -1.4679,-0.22558 -0.66861,-0.34407 -1.1397,-0.11208 -2.1071,1.0377 -0.68531,0.81444 -1.4217,1.3723 -1.6363,1.2396 -0.21465,-0.13267 -0.51452,0.08255 -0.66637,0.47827 -0.15185,0.39571 -0.12013,0.67103 0.07048,0.61182 0.19062,-0.05921 0.95696,0.50912 1.703,1.2629 0.84869,0.85757 1.6465,1.2593 2.1313,1.0732 1.0011,-0.38414 2.6774,0.14465 2.3154,0.73039 -0.15311,0.24774 -0.60602,0.45044 -1.0065,0.45044 -0.42675,0 -0.58474,-0.23192 -0.38175,-0.56038 0.2163,-0.34999 0.13296,-0.42851 -0.22196,-0.20916 -0.31257,0.19318 -0.44264,0.55457 -0.28905,0.80308 0.15359,0.24852 0.04794,0.45186 -0.23478,0.45186 -0.28272,0 -0.51403,-0.21842 -0.51403,-0.48539 0,-0.85401 -1.8196,-0.51886 -2.0542,0.37838 -0.26676,1.0201 0.86373,2.3113 1.3437,1.5348 0.21539,-0.3485 0.49934,-0.3483 0.91975,6.13e-4 0.3345,0.27761 0.7519,0.36103 0.92757,0.18537 0.17566,-0.17566 0.31938,-0.02815 0.31938,0.3278 0,0.35595 0.16348,0.48371 0.36328,0.28391 0.1998,-0.19981 -0.05215,-0.66706 -0.5599,-1.0383 z m 3.5944,-2.6147 c 0,-0.25121 0.21592,-0.59019 0.47983,-0.75329 0.27514,-0.17006 0.35652,0.02478 0.19076,0.45674 -0.32268,0.8409 -0.67059,0.99475 -0.67059,0.29655 z m -6.097,-1.225 c -0.51822,-0.39196 -0.68704,-0.71959 -0.37517,-0.72808 0.92214,-0.0251 2.1026,0.54041 2.1026,1.0073 0,0.63614 -0.65784,0.52981 -1.7274,-0.27919 z m 16.289,4.7342 c 0,-0.05734 -0.41391,-0.32579 -0.91981,-0.59653 -0.65579,-0.35097 -1.0619,-0.32104 -1.4149,0.10427 -0.37229,0.44858 -0.14416,0.59654 0.91981,0.59654 0.77819,0 1.4149,-0.04693 1.4149,-0.10428 z m -7.281,-1.109 c 0,-0.26696 -0.34054,-0.4854 -0.75674,-0.4854 -0.4162,0 -0.62173,0.21843 -0.45674,0.4854 0.16499,0.26696 0.50552,0.48538 0.75673,0.48538 0.25121,0 0.45675,-0.21842 0.45675,-0.48538 z m 1.6989,0 c -0.16499,-0.26696 -0.39631,-0.4854 -0.51404,-0.4854 -0.11772,0 -0.21404,0.21843 -0.21404,0.4854 0,0.26696 0.23131,0.48538 0.51403,0.48538 0.28272,0 0.37904,-0.21842 0.21405,-0.48538 z m -15.775,-2.443 c -0.61579,-0.41163 -0.52222,-0.6689 0.60674,-1.6682 0.73414,-0.64979 1.3348,-1.4521 1.3348,-1.7829 0,-0.3308 -0.30978,-0.1778 -0.6884,0.34 -0.37862,0.51779 -0.85187,0.77797 -1.0517,0.57816 -0.19981,-0.19981 -0.10845,-0.36328 0.203,-0.36328 0.31146,0 0.56629,-0.32763 0.56629,-0.72808 0,-0.94205 -0.91837,-0.94406 -1.2796,-0.0028 -0.15308,0.3989 -0.47743,0.60224 -0.72078,0.45184 -0.24334,-0.1504 -0.31677,-0.47678 -0.16318,-0.7253 0.1536,-0.24851 0.06083,-0.45185 -0.20613,-0.45185 -0.26696,0 -0.62258,0.22199 -0.79027,0.4933 -0.16768,0.27132 -0.53154,0.35323 -0.80855,0.18202 -0.32475,-0.2007 -0.26972,-0.45952 0.15489,-0.72856 0.53622,-0.33977 0.52332,-0.41547 -0.06953,-0.40751 -0.92157,0.01236 -3.3778,1.3911 -2.5196,1.4143 0.34946,0.0095 0.51297,0.21526 0.36337,0.45732 -0.1496,0.24208 0.21975,0.33759 0.82078,0.21228 l 1.0928,-0.22785 -1.1187,0.66847 -1.1187,0.66848 1.3484,0.61439 c 0.97271,0.4432 1.399,0.46265 1.53,0.06978 0.13102,-0.39307 0.37739,-0.38207 0.88539,0.03954 0.56727,0.47078 0.58166,0.66166 0.07415,0.98361 -0.41016,0.26018 -0.12201,0.39945 0.82646,0.39945 1.1339,0 1.295,-0.10772 0.72808,-0.4867 z m -1.8393,-1.7336 c -0.69357,-0.75038 -0.2252,-0.89397 0.79904,-0.24499 0.36221,0.22951 0.47142,0.53088 0.2427,0.66971 -0.22873,0.13883 -0.6975,-0.0523 -1.0417,-0.42472 z m 19.054,-0.119 c -0.2735,-0.28791 -1.1968,0.44177 -1.1968,0.94582 0,0.26174 0.3056,0.19424 0.67912,-0.14999 0.37353,-0.34423 0.60648,-0.70236 0.51769,-0.79583 z m -13.817,0.707 c 0,-0.10493 -0.33899,-0.32084 -0.7533,-0.47983 -0.43196,-0.16576 -0.62679,-0.08439 -0.45675,0.19076 0.28505,0.46122 1.21,0.68219 1.21,0.28908 z m -7.385,-4.9251 c 0.41949,-0.36531 0.1793,-0.49508 -0.8698,-0.46992 -0.79712,0.01913 -1.8324,0.45737 -2.3006,0.97388 -0.8339,0.91992 -0.82996,0.92144 0.19265,0.07425 1.0857,-0.8995 1.9713,-0.40003 1.3757,0.77588 -0.16904,0.33371 -0.0081,0.2791 0.35762,-0.12135 0.36572,-0.40044 0.92575,-0.95519 1.2445,-1.2328 z m 3.9872,0.71872 c 0,-0.28272 -0.21842,-0.37904 -0.48538,-0.21405 -0.26697,0.16499 -0.48539,0.39631 -0.48539,0.51404 0,0.11772 0.21842,0.21404 0.48539,0.21404 0.26696,0 0.48538,-0.23131 0.48538,-0.51403 z m -2.557,-3.706 c -0.47227,-0.12306 -1.1275,-0.11498 -1.4562,0.01799 -0.32862,0.13296 0.05778,0.23365 0.85867,0.22376 0.80089,-0.0099 1.0698,-0.11868 0.5975,-0.24174 z m 3.7838,-0.54066 c -0.14944,-0.14945 -0.5411,-3.11e-4 -0.87037,0.33141 -0.47581,0.47938 -0.42005,0.53514 0.27172,0.27172 0.4787,-0.18227 0.7481,-0.45369 0.59864,-0.60313 z m 5.5691,-0.60778 c 0,-0.25121 -0.18202,-0.45675 -0.40449,-0.45675 -0.22248,0 -0.4045,0.31804 -0.4045,0.70673 0,0.38871 0.18202,0.59424 0.4045,0.45675 0.22247,-0.1375 0.40449,-0.45552 0.40449,-0.70673 z m -1.9469,-0.95216 c -0.28871,-0.53945 -0.36368,-1.2493 -0.16661,-1.5775 0.2255,-0.37552 0.04936,-0.346 -0.47519,0.07963 -0.78101,0.63375 -0.78214,0.73309 -0.01795,1.5775 1.0628,1.1744 1.3146,1.144 0.65974,-0.07963 z m -2.462,0.321 c -0.11124,-0.09592 -0.85753,-0.32098 -1.6584,-0.50013 -1.0634,-0.23788 -1.2598,-0.19285 -0.72808,0.16697 0.65546,0.44356 2.8736,0.7532 2.3865,0.33316 z m -4.3281,-1.3261 c 0.64718,-0.45769 0.64718,-0.49113 0,-0.30085 -0.40044,0.11773 -1.1649,-0.01061 -1.6989,-0.28521 -0.86781,-0.44631 -0.90013,-0.41361 -0.30461,0.30829 0.77572,0.94036 1.0189,0.97408 2.0035,0.27777 z m 2.427,-0.66846 c 0,-0.451 -0.2824,-0.60449 -0.76879,-0.41784 -0.61898,0.23752 -0.64262,0.37498 -0.12135,0.70542 0.86211,0.54649 0.89014,0.53743 0.89014,-0.28758 z m 12.814,-0.25793 c 1.907,0 -0.04483,-1.0642 -2.1488,-1.1716 -1.2684,-0.06476 -2.2813,-0.41734 -2.6509,-0.92276 -0.86498,-1.1829 -1.2192,-1.0107 -1.2192,0.59278 0,1.1566 0.16941,1.3664 0.94054,1.1648 0.51729,-0.13528 1.4367,0.10157 2.0431,0.52633 0.72819,0.51004 1.2659,0.60899 1.5835,0.2914 0.26449,-0.26449 0.91775,-0.48089 1.4517,-0.48089 z m -10.873,0 c 0,-0.26696 -0.23132,-0.4854 -0.51404,-0.4854 -0.28272,0 -0.37904,0.21843 -0.21405,0.4854 0.16499,0.26696 0.39631,0.48538 0.51404,0.48538 0.11773,0 0.21405,-0.21842 0.21405,-0.48538 z m 13.197,-4.6997 c -0.351,-0.1402 -0.769,-0.123 -0.931,0.0383 -0.161,0.1613 0.126,0.276 0.637,0.2549 0.566,-0.0233 0.681,-0.1383 0.294,-0.2932 z m 12.866,106.32 c -0.5176,-0.5176 0.14441,-1.1458 1.2075,-1.1458 0.83525,0 0.90122,0.12091 0.39731,0.72809 -0.65249,0.7862 -1.1157,0.90677 -1.6048,0.41769 z m -52.031,-11.807 c -1.3348,-1.5559 -2.515,-2.7452 -2.6227,-2.643 -0.10764,0.1022 -0.71378,-0.51636 -1.347,-1.3746 -1.1774,-1.5958 -2.8131,-2.7472 -3.9466,-2.7778 -0.34945,-0.0095 -0.50579,0.19248 -0.34742,0.44874 0.17203,0.27834 -0.2989,0.26135 -1.1696,-0.0422 -1.1374,-0.39649 -1.7934,-1.2186 -2.9864,-3.7423 -2.4585,-5.201 -2.4879,-5.329 -1.3609,-5.9322 0.56621,-0.30303 0.8791,-0.82841 0.72793,-1.2223 -0.1458,-0.37997 -0.05353,-0.69086 0.20505,-0.69086 0.25859,0 0.47016,-0.34137 0.47016,-0.75859 0,-0.5081 0.36064,-0.70846 1.0921,-0.60675 0.75761,0.10535 1.094,-0.09783 1.0983,-0.66331 0.0034,-0.44834 0.16723,-0.9762 0.36405,-1.173 0.19682,-0.19682 0.35785,-0.12038 0.35785,0.16988 0,0.29024 0.65528,0.67164 1.4562,0.84754 0.80089,0.17591 1.4562,0.59506 1.4562,0.93144 0,0.33639 0.60067,0.91269 1.3348,1.2807 0.73415,0.368 1.4552,0.73442 1.6024,0.81429 0.14715,0.07986 0.17785,-0.62301 0.06825,-1.5619 -0.24421,-2.0917 0.67105,-2.2967 1.1204,-0.25098 0.1759,0.8009 0.50396,1.4562 0.72901,1.4562 0.22505,0 0.67682,0.8191 1.0039,1.8202 0.32711,1.0011 1.0539,2.2911 1.6152,2.8666 1.4622,1.4995 2.2339,2.501 2.2339,2.8994 0,0.19047 0.34416,0.72661 0.76481,1.1914 1.0218,1.1291 1.2637,4.7678 0.3989,6.0025 -0.37308,0.53264 -0.67832,1.3525 -0.67832,1.822 0,0.51008 -0.49804,0.97854 -1.2377,1.1642 -1.2229,0.30692 -1.2258,0.31898 -0.24269,1.0076 0.97147,0.68045 1.357,1.6456 0.63093,1.5795 -0.20022,-0.0182 -1.4562,-1.3061 -2.791,-2.862 z m 3.8079,-7.5617 c -0.15808,-0.41196 -0.39152,-0.64491 -0.51876,-0.51768 -0.12724,0.12723 -0.08737,0.4643 0.0886,0.74902 0.47863,0.77442 0.75837,0.62397 0.43015,-0.23134 z m 4.4709,9.53 c -0.28876,-0.46721 3.4335,-2.4658 4.6159,-2.4784 0.5833,-0.006 0.57813,-0.0837 -0.0319,-0.47795 -0.57351,-0.37064 -0.5864,-0.47211 -0.06067,-0.47796 0.48194,-0.005 0.58648,-0.41207 0.37618,-1.4636 -0.16429,-0.82143 -0.08494,-1.4562 0.18202,-1.4562 0.26029,0 0.47325,0.21843 0.47325,0.48539 0,0.26697 0.45687,0.94226 1.0153,1.5007 l 1.0153,1.0153 -1.1366,0.80139 c -0.62513,0.44077 -1.2458,0.80334 -1.3793,0.8057 -0.13349,0.002 -0.9317,0.49542 -1.7738,1.0957 -1.6097,1.1474 -2.8384,1.3897 -3.2956,0.64998 z m 4.6811,-11.79 c -0.32035,-0.32036 -0.58246,-0.75721 -0.58246,-0.97078 0,-0.71518 0.73107,-0.39823 1.3435,0.58247 0.66375,1.0628 0.16694,1.3163 -0.76106,0.38831 z m 76.35,-0.50966 c 0.19485,-0.60068 0.55335,-3.4948 0.79665,-6.4314 0.26177,-3.161 0.75167,-5.8942 1.2008,-6.6994 0.63865,-1.1451 0.66797,-1.7375 0.1858,-3.7477 -0.31853,-1.3276 -0.42609,-3.2559 -0.24236,-4.3432 0.29816,-1.765 0.23151,-1.9556 -0.68315,-1.9556 -0.57719,0 -1.0134,-0.31338 -1.0134,-0.72808 0,-0.91753 -0.93229,-0.90988 -2.1588,0.01771 -0.51998,0.3932 -1.3308,0.59258 -1.8019,0.44306 -0.47114,-0.14952 -1.2783,-0.04614 -1.7938,0.22974 -1.2176,0.65161 -3.3079,-0.91691 -4.2606,-3.1971 -0.37122,-0.8885 -0.9454,-1.5617 -1.276,-1.496 -0.42947,0.08536 -0.601,-0.80218 -0.601,-3.1104 0,-1.7764 0.17191,-3.1237 0.38193,-2.994 0.21002,0.12968 0.33606,-0.49195 0.27997,-1.3814 -0.056,-0.88946 0.3157,-2.3817 0.82605,-3.3161 0.51045,-0.93437 0.93079,-2.0265 0.93418,-2.427 0.003,-0.40044 0.22426,-0.69748 0.49084,-0.66009 0.66807,0.0937 3.2746,-1.8085 2.9386,-2.1445 -0.14942,-0.14944 0.0903,-0.67167 0.53269,-1.1605 0.44239,-0.48886 0.6346,-0.88882 0.42703,-0.88882 -0.20758,0 -0.0776,-0.38224 0.28883,-0.84943 0.60377,-0.76985 0.58662,-0.78703 -0.18325,-0.18325 -0.46719,0.36638 -0.87677,0.53021 -0.91014,0.36404 -0.0334,-0.16617 -0.0928,-0.57516 -0.13226,-0.90887 -0.0393,-0.3337 -0.48019,-0.53537 -0.97961,-0.44814 -0.80494,0.14059 -0.86781,-0.05236 -0.55287,-1.6989 0.19541,-1.0216 0.33653,-2.3708 0.31372,-2.9982 -0.0649,-1.7773 0.37951,-2.0709 1.9246,-1.2719 1.3301,0.68783 1.4286,0.67747 1.4286,-0.15018 0,-0.48892 -0.54599,-1.6291 -1.2135,-2.5337 -1.4442,-1.9576 -1.4505,-1.9856 -0.36396,-1.644 0.76855,0.24168 0.77553,0.20559 0.0731,-0.37928 -0.84189,-0.70103 -0.89477,-0.83422 -0.97895,-2.4666 -0.0423,-0.82185 -0.11124,-0.88191 -0.27827,-0.2427 -0.12208,0.46719 -0.5081,0.84943 -0.85783,0.84943 -0.89213,0 -1.3216,-1.9386 -0.49942,-2.2541 0.36293,-0.13924 0.54005,-0.56521 0.39366,-0.94659 -0.19325,-0.50354 -0.0288,-0.60238 0.60038,-0.36094 0.67937,0.26072 0.79702,0.15172 0.54495,-0.5051 -0.20258,-0.52785 -0.13169,-0.72034 0.19155,-0.52056 0.28204,0.17435 0.38998,0.63728 0.23981,1.0287 -0.15026,0.39144 0.26593,1.6772 0.92475,2.8573 0.65873,1.1801 1.0876,2.5305 0.95303,3.001 -0.13904,0.48604 -0.003,0.39786 0.31532,-0.20423 0.46303,-0.87595 0.37188,-1.3642 -0.52572,-2.8165 -0.59718,-0.96629 -0.9914,-1.8513 -0.87602,-1.9667 0.28601,-0.28597 3.1168,3.777 3.5227,5.0562 0.17967,0.56616 0.48575,1.0294 0.68003,1.0294 0.7431,0 5.8913,11.46 5.8913,13.114 0,0.42517 -0.35227,0.28202 -0.9897,-0.40213 -0.88902,-0.95432 -1.9226,-1.4098 -1.9226,-0.84736 0,0.33411 2.015,3.6682 2.217,3.6682 0.0988,0 0.0421,-0.35812 -0.12584,-0.79581 -0.25056,-0.65306 -0.14536,-0.70626 0.58671,-0.29657 0.49065,0.27459 0.93502,0.90573 0.98753,1.4025 0.0525,0.49682 0.23397,1.5586 0.40327,2.3595 0.1693,0.80089 0.62772,3.691 1.0188,6.4224 0.76855,5.3682 0.39111,12.291 -1.005,18.432 -0.3766,1.6566 -0.68598,3.7317 -0.68749,4.6112 -0.005,2.6771 -0.95067,5.3259 -2.0006,5.6004 -0.52591,0.13754 -1.4953,1.314 -2.1543,2.6142 -1.2454,2.4578 -2.0409,3.1673 -1.426,1.272 z m 3.24,-46.582 c -0.34822,-0.34829 -0.57436,-0.37695 -0.57436,-0.07281 0,0.64789 0.57408,1.2219 0.89798,0.89798 0.13791,-0.13793 -0.008,-0.50925 -0.32362,-0.82517 z m -1.2786,-0.01618 c -0.40591,-1.8507 -2.0663,-4.7233 -2.7328,-4.7276 -0.88789,-0.0057 -2.1166,2.0216 -1.8004,2.9704 0.11812,0.35424 0.63498,0.66606 1.1485,0.69292 2.5226,0.13196 3.1136,0.24374 3.0606,0.57894 -0.0887,0.56202 0.0361,1.0921 0.25725,1.0921 0.10982,0 0.13989,-0.27303 0.0667,-0.60673 z m -68.216,44.494 c 0,-0.4227 0.25937,-0.68207 0.5764,-0.5764 0.90001,0.3 1.0493,1.3449 0.19213,1.3449 -0.4227,0 -0.76853,-0.34583 -0.76853,-0.76853 z m 1.7038,-0.67971 c -0.16768,-0.27133 0.03564,-0.49332 0.45184,-0.49332 0.85261,0 0.97814,0.29127 0.30488,0.70736 -0.24852,0.15359 -0.58904,0.05727 -0.75673,-0.21404 z m -10.158,-1.2909 c -0.40635,-1.059 0.13319,-1.5512 0.70654,-0.64456 0.574,0.90761 0.58621,1.4421 0.03297,1.4421 -0.23841,0 -0.57119,-0.3589 -0.73952,-0.79755 z m -4.1663,-5.0119 c 0,-0.25858 -0.32764,-0.34443 -0.72809,-0.19077 -0.88468,0.33949 -0.96471,-0.47999 -0.11568,-1.1846 0.4537,-0.37654 0.75633,-0.20326 1.1678,0.66865 0.30548,0.6473 0.35753,1.1769 0.11568,1.1769 -0.24184,0 -0.43971,-0.21157 -0.43971,-0.47016 z m -9.4755,-0.62451 c -0.52822,-0.29117 -1.2458,-0.92846 -1.5947,-1.4162 -0.67523,-0.94412 -2.0354,-1.2124 -2.0354,-0.40144 0,0.26696 -0.43685,0.48538 -0.97078,0.48538 -0.53393,0 -0.97078,-0.21842 -0.97078,-0.48538 0,-0.26696 -0.43685,-0.4854 -0.97078,-0.4854 -0.53393,0 -0.97078,-0.21842 -0.97078,-0.48538 0,-0.26696 0.22027,-0.4854 0.4895,-0.4854 0.95846,0 -0.66853,-1.8471 -2.3211,-2.6352 -1.1045,-0.52669 -1.5674,-1.0297 -1.3851,-1.5049 0.16274,-0.42408 -0.0092,-0.71379 -0.42371,-0.71379 -0.42068,0 -0.5867,0.28903 -0.41823,0.72809 0.2033,0.52978 -0.05744,0.72808 -0.95737,0.72808 -0.68021,0 -1.3717,-0.21842 -1.5367,-0.48539 -0.16499,-0.26696 0.14975,-0.48538 0.69944,-0.48538 0.54968,0 1.0267,-0.21842 1.0601,-0.4854 0.03337,-0.26696 0.08797,-0.68561 0.12134,-0.93033 0.0984,-0.72149 0.78876,-1.2275 0.78876,-0.57809 0,0.32722 0.19368,0.47523 0.43039,0.32894 0.23671,-0.14631 0.70031,0.05923 1.0302,0.45674 0.3299,0.3975 0.42018,0.72274 0.20062,0.72274 -0.21956,0 -0.14636,0.25286 0.16269,0.5619 0.42559,0.4256 0.73419,0.41891 1.2722,-0.02761 0.56999,-0.47306 1.1794,-0.35182 3.0847,0.61371 1.3059,0.66178 2.6605,1.5479 3.0101,1.9692 0.34962,0.42128 1.2375,0.76595 1.973,0.76595 1.3512,0 2.6882,-1.0332 2.0991,-1.6222 -0.17566,-0.17566 -0.07745,-0.31938 0.21825,-0.31938 1.0352,0 1.1214,0.96726 0.1766,1.9814 -0.63916,0.68606 -1.2736,0.92152 -1.9255,0.71462 -1.6979,-0.53888 -1.8008,0.76455 -0.17504,2.2171 1.5882,1.419 1.4913,2.1839 -0.16117,1.273 z m 5.7799,-1.4215 c -0.22575,-0.36526 -0.08551,-0.46085 0.40178,-0.27384 0.41171,0.15798 0.96895,0.06686 1.2383,-0.20251 0.32941,-0.3294 0.59652,-0.31699 0.81588,0.03793 0.17937,0.29023 0.25863,0.54392 0.17614,0.56376 -1.5403,0.37039 -2.3496,0.33185 -2.6321,-0.12534 z m -21.852,-1.4417 c -0.23141,-0.37214 -1.0137,-1.0536 -1.7385,-1.5144 -1.8558,-1.1799 -2.5503,-2.5881 -1.4791,-2.9992 0.45416,-0.17428 0.66811,-0.15924 0.47544,0.03345 -0.49145,0.49144 1.1284,2.1726 1.7332,1.7988 0.27925,-0.17258 0.3482,-0.06787 0.15798,0.23992 -0.20419,0.33037 0.14973,0.66846 0.89578,0.8557 1.3299,0.3338 1.4479,0.57017 0.79721,1.5974 -0.35564,0.56141 -0.48677,0.55959 -0.84199,-0.01165 z m 1.5736,-0.13041 c 0.14575,-0.37981 0.60007,-0.81913 1.0096,-0.97628 0.53376,-0.20482 0.66058,-0.06677 0.44786,0.48756 -0.16321,0.42531 -0.29674,0.86464 -0.29674,0.97628 0,0.11165 -0.32079,0.20299 -0.71285,0.20299 -0.417,0 -0.60288,-0.28659 -0.44787,-0.69056 z m 18.635,-0.28022 c -0.65463,-1.2232 -0.1076,-1.2232 1.4562,0 1.2006,0.93916 1.2021,0.94931 0.13842,0.95999 -0.59127,0.0059 -1.3088,-0.42606 -1.5946,-0.95999 z M 17.111,79.4406 c 0,-0.11773 0.21842,-0.34905 0.48539,-0.51404 0.26696,-0.16499 0.48538,-0.06867 0.48538,0.21405 0,0.28272 -0.21842,0.51403 -0.48538,0.51403 -0.26697,0 -0.48539,-0.09632 -0.48539,-0.21404 z m 1.7391,-0.69159 c -0.20909,-0.33832 -0.24909,-0.7462 -0.08887,-0.90642 0.43441,-0.43441 0.90806,0.2045 0.67343,0.90838 -0.16441,0.49324 -0.27874,0.49285 -0.58455,-0.002 z m -6.7475,-1.8376 c -0.18199,-0.18199 -0.35673,-1.332 -0.38832,-2.5556 -0.04836,-1.8734 -0.10584,-1.9991 -0.36405,-0.79606 -0.16863,0.78575 -0.47042,1.3864 -0.67065,1.3348 -0.20023,-0.0516 -0.55816,-0.09383 -0.79542,-0.09383 -0.986,0 -1.0404,-3.3159 -0.092749,-5.6515 0.93189,-2.2966 1.061,-2.2594 1.2548,0.36118 0.13778,1.8632 0.69959,2.4961 1.9958,2.2483 0.76039,-0.14536 1.1566,0.0053 1.1566,0.43968 0,0.36343 -0.49146,0.67462 -1.0921,0.69154 l -1.0921,0.03077 1.0921,0.43898 c 0.60067,0.24144 1.0888,0.71905 1.0847,1.0614 -0.0057,0.47903 -0.10354,0.4707 -0.42472,-0.03619 -0.22951,-0.36221 -0.53939,-0.46099 -0.68863,-0.21952 -0.14923,0.24147 -0.07067,0.75625 0.17459,1.1439 0.24526,0.38771 0.43203,1.0326 0.41504,1.433 -0.02419,0.57024 -0.08793,0.58465 -0.29402,0.06643 -0.18528,-0.46588 -0.36327,-0.49963 -0.60158,-0.11405 -0.18614,0.30118 -0.48734,0.39871 -0.66933,0.21672 z m 48.289,-1.6253 c 0.24432,-0.73296 1.0249,-0.8085 1.2539,-0.12135 0.11124,0.3337 -0.16179,0.60673 -0.60673,0.60673 -0.44494,0 -0.73618,-0.21842 -0.64718,-0.48538 z m -40.816,-0.686 c -0.02108,-0.51168 0.09364,-0.79836 0.25493,-0.63707 0.16129,0.16129 0.17853,0.57993 0.03832,0.93033 -0.15495,0.38721 -0.26997,0.27219 -0.29325,-0.29326 z m -11.963,-2.832 c -0.55602,-4.5491 -0.564,-4.7564 -0.19194,-4.9864 0.18929,-0.11698 0.49448,1.1482 0.67821,2.8115 0.18372,1.6633 0.45355,3.5157 0.59964,4.1164 0.14607,0.60067 0.044936,1.0921 -0.22476,1.0921 -0.269696,0 -0.65721,-1.3652 -0.86115,-3.0337 z m 7.5203,2.9123 c -0.36505,-1.2281 -0.35739,-2.5489 0.01853,-3.1932 0.3616,-0.6197 0.47689,-0.32412 0.48817,1.2516 0.0081,1.1346 -0.09445,2.0629 -0.22794,2.0629 -0.13348,0 -0.25893,-0.0546 -0.27876,-0.12135 z m 21.879,-4.0149 c 0,-0.40617 -0.54606,-0.9873 -1.2135,-1.2914 -1.056,-0.48114 -1.681,-1.3679 -0.96419,-1.3679 0.44757,0 2.4116,1.2015 2.777,1.6989 0.51731,0.70413 0.45061,1.6989 -0.11392,1.6989 -0.26696,0 -0.48538,-0.33232 -0.48538,-0.73849 z m -24.269,-3.1446 c -0.35225,-0.65818 -0.35775,-0.97078 -0.01708,-0.97078 0.27636,0 0.50247,-0.34054 0.50247,-0.75674 0,-0.41619 0.21842,-0.62173 0.4854,-0.45674 0.62238,0.38466 0.63738,3.155 0.01707,3.155 -0.25757,0 -0.7021,-0.43686 -0.98785,-0.97078 z m -2.4195,-1.5489 c 0.0041,-0.34945 0.21917,-0.96303 0.47797,-1.3635 0.38253,-0.59192 0.47191,-0.5292 0.47796,0.33539 0.0041,0.58492 -0.211,1.1985 -0.47796,1.3635 -0.26697,0.16499 -0.48205,0.01407 -0.47797,-0.3354 z m -2.9826,-1.484 c -0.1923,-4.8431 1.5244,-15.947 2.5203,-16.301 0.25007,-0.089 0.45467,-0.652 0.45467,-1.2511 0,-1.3151 2.258,-7.066 3.1287,-7.9684 0.51522,-0.53402 0.67368,-0.50891 0.92521,0.14656 0.19331,0.50377 0.11042,0.6716 -0.22832,0.46224 -0.35201,-0.21756 -0.42522,0.0072 -0.21653,0.66475 0.2113,0.66574 -0.0013,1.2884 -0.64448,1.8876 -1.0214,0.9516 -1.9938,3.0989 -1.9938,4.403 0,0.65931 0.11734,0.63412 0.71265,-0.15295 0.39195,-0.51821 0.71959,-1.5429 0.72808,-2.277 0.0085,-0.73415 0.23386,-1.3348 0.50083,-1.3348 0.87761,0 0.50694,3.3268 -0.60673,5.4457 -0.9353,1.7795 -1.1144,1.921 -1.2472,0.98573 -0.08531,-0.60067 -0.33287,-1.0921 -0.55013,-1.0921 -0.94733,0 -1.4122,5.9941 -0.50824,6.5528 0.80741,0.49901 0.59329,2.3295 -0.23529,2.0116 -1.0693,-0.41035 -1.5669,0.99444 -1.6085,4.5412 -0.056182,4.7929 -0.063516,4.8539 -0.58317,4.8539 -0.26697,0 -0.51358,-0.70988 -0.54803,-1.5775 z m 4.5415,-0.07703 c 0.14913,-0.78016 0.02852,-1.0943 -0.36254,-0.94428 -0.76924,0.29518 -1.4378,-3.6716 -0.73691,-4.3725 0.34803,-0.34803 0.50372,-0.06936 0.50372,0.90163 0,0.85922 0.50032,1.9276 1.2875,2.7492 1.0752,1.1223 1.1855,1.4667 0.66865,2.0895 -0.92495,1.1145 -1.6134,0.90016 -1.3604,-0.42353 z m 57.069,-8.1503 c 0.45303,-0.45303 0.71191,-0.45303 1.1649,0 0.45302,0.45303 0.3236,0.58247 -0.58247,0.58247 -0.90607,0 -1.0355,-0.12944 -0.58247,-0.58247 z m 3.0094,0.06942 c 0,-0.30887 0.30956,-0.4428 0.68791,-0.29762 0.37836,0.14519 0.81367,-0.0637 0.96736,-0.46422 0.16922,-0.44099 0.52009,-0.57839 0.8896,-0.34837 0.3356,0.2089 1.0808,0.31906 1.6559,0.2448 0.57517,-0.07427 1.1887,0.09628 1.3635,0.37902 0.17725,0.28679 -0.07049,0.5274 -0.56038,0.54424 -0.48294,0.0166 -1.8064,0.13673 -2.941,0.26696 -1.3747,0.15779 -2.0629,0.04943 -2.0629,-0.32481 z m 6.6984,-0.06942 c 0.45303,-0.45303 0.71191,-0.45303 1.1649,0 0.45302,0.45303 0.3236,0.58247 -0.58247,0.58247 -0.90607,0 -1.0355,-0.12944 -0.58247,-0.58247 z m -11.199,-2.614 c -0.74048,-0.4016 -1.5933,-0.57753 -1.8952,-0.39096 -0.33596,0.20764 -0.41453,0.12185 -0.20254,-0.22116 0.22016,-0.35622 -0.02822,-0.56039 -0.68173,-0.56039 -0.56544,0 -0.92201,0.17162 -0.79237,0.38138 0.12964,0.20976 -0.18511,0.38138 -0.69944,0.38138 -1.2911,0 -1.1715,-0.67589 0.23294,-1.3158 0.9425,-0.42944 1.7393,-0.31073 4.1258,0.61467 2.9076,1.1274 3.7816,1.8988 2.1083,1.8605 -0.46719,-0.01069 -1.4553,-0.34802 -2.1958,-0.74962 z m 43.33,-6.483 c 0,-0.28272 0.21841,-0.51404 0.48538,-0.51404 0.26696,0 0.48537,0.09632 0.48537,0.21405 0,0.11773 -0.21841,0.34905 -0.48537,0.51404 -0.26697,0.16499 -0.48538,0.06866 -0.48538,-0.21405 z m 0.97075,-8.9797 c 0,-0.11773 0.21842,-0.34904 0.48538,-0.51403 0.26696,-0.16499 0.48537,-0.06867 0.48537,0.21404 0,0.28272 -0.21841,0.51404 -0.48537,0.51404 -0.26696,0 -0.48538,-0.09632 -0.48538,-0.21405 z m -96.104,-2.398 c 0,-0.40044 0.21842,-0.86307 0.48538,-1.0281 0.26696,-0.165 0.48539,0.02765 0.48539,0.4281 0,0.40044 -0.21843,0.86307 -0.48539,1.0281 -0.26696,0.16499 -0.48538,-0.02765 -0.48538,-0.4281 z m 1.9416,-0.02864 c 0,-0.11773 0.21842,-0.34905 0.48538,-0.51404 0.26696,-0.16499 0.4854,-0.06867 0.4854,0.21405 0,0.28272 -0.21843,0.51403 -0.4854,0.51403 -0.26696,0 -0.48538,-0.09632 -0.48538,-0.21404 z m 2.9123,-2.6697 c 0,-0.28271 0.21842,-0.51403 0.48538,-0.51403 0.26696,0 0.4854,0.09632 0.4854,0.21405 0,0.11772 -0.21843,0.34904 -0.4854,0.51403 -0.26696,0.16499 -0.48538,0.06867 -0.48538,-0.21405 z m 0.71704,-4.415 c -0.16431,-0.26585 -0.55668,-0.32866 -0.87193,-0.13957 -0.32655,0.19585 -0.28653,-0.0096 0.09297,-0.47748 0.69277,-0.85405 2.2548,-1.1072 2.6715,-0.43302 0.13197,0.21353 -0.17265,0.64591 -0.67693,0.96083 -0.59224,0.36986 -1.0227,0.40145 -1.2156,0.08923 z m 64.174,-6.833 c -0.4834,-0.28119 -1.2046,-0.38626 -1.6027,-0.2335 -0.40871,0.15684 -0.59472,0.06887 -0.42726,-0.20207 0.16311,-0.26391 0.02884,-0.47983 -0.29838,-0.47983 -1.0761,0 0.02218,-0.64259 1.338,-0.78289 1.5116,-0.16116 4.214,1.1013 3.7981,1.7743 -0.37387,0.60492 -1.6987,0.56904 -2.8077,-0.07605 z"
       style="opacity:0.78365;fill:#429d2d"
       id="path3525" />
    <path
       transform="matrix(1.172,-0.20957,0.14765,0.82572,-175.35,26.94)"
       d="m 222.45,56.486 a 28.8845,28.8845 0 1 1 -57.769,0 28.8845,28.8845 0 1 1 57.769,0 z"
       style="opacity:0.76923002;fill:url(#radialGradient10505);stroke:url(#linearGradient10507);stroke-width:0.86461002"
       id="path3527" />
    <path
       transform="matrix(-1.4231,0.62382,-0.45596,-1.0402,379.04,26.727)"
       d="m 222.45,56.486 a 28.8845,28.8845 0 1 1 -57.769,0 28.8845,28.8845 0 1 1 57.769,0 z"
       style="fill:url(#radialGradient10503)"
       id="path3529" />
  </g>
  <metadata
     id="metadata24">
    <rdf:RDF>
      <cc:Work>
        <dc:format>image/svg+xml</dc:format>
        <dc:type
           rdf:resource="http://purl.org/dc/dcmitype/StillImage" />
        <cc:license
           rdf:resource="http://creativecommons.org/publicdomain/zero/1.0/" />
        <dc:publisher>
          <cc:Agent
             rdf:about="http://openclipart.org/">
            <dc:title>Openclipart</dc:title>
          </cc:Agent>
        </dc:publisher>
        <dc:title></dc:title>
        <dc:date>2012-04-23T00:00:00</dc:date>
        <dc:description />
        <dc:source>https://openclipart.org/detail/169660/earth-and-magnify-glass.-by-kuba</dc:source>
        <dc:creator>
          <cc:Agent>
            <dc:title>kuba</dc:title>
          </cc:Agent>
        </dc:creator>
        <dc:subject>
          <rdf:Bag>
            <rdf:li>blue</rdf:li>
            <rdf:li>earth</rdf:li>
            <rdf:li>glass</rdf:li>
            <rdf:li>green</rdf:li>
            <rdf:li>magnify</rdf:li>
            <rdf:li>openstreetmap</rdf:li>
            <rdf:li>zoom</rdf:li>
          </rdf:Bag>
        </dc:subject>
      </cc:Work>
      <cc:License
         rdf:about="http://creativecommons.org/publicdomain/zero/1.0/">
        <cc:permits
           rdf:resource="http://creativecommons.org/ns#Reproduction" />
        <cc:permits
           rdf:resource="http://creativecommons.org/ns#Distribution" />
        <cc:permits
           rdf:resource="http://creativecommons.org/ns#DerivativeWorks" />
      </cc:License>
    </rdf:RDF>
  </metadata>
  <path
     class="fil0 str0"
     d="M 43.758879,14.168708 60.870506,0.96093727 c 1.644269,-1.269165 3.527472,-0.541561 4.648938,1.20657103 L 76.605078,19.4466 c 1.121556,1.748134 0.539271,3.058204 -1.169693,4.238421 l -8.242755,5.692344 c -0.636916,0.439894 -0.513285,0.653388 -0.428729,1.41897 0.433213,3.918588 -0.202697,6.69265 -1.254066,9.324961 -0.624745,-3.488213 -2.111431,-5.252635 -4.226065,-5.761161 -0.793858,-0.190892 -1.025106,-0.193912 -1.667878,0.250008 l -2.169724,1.498491 C 55.73711,37.28885 54.074997,35.922592 52.92745,34.191389 L 42.401864,18.313329 c -1.147547,-1.731203 -0.28771,-2.875822 1.356558,-4.144895 z"
     id="_171992312"
     style="clip-rule:evenodd;fill:#fff212;fill-rule:evenodd;stroke:#373435;stroke-width:0.64570105;image-rendering:optimizeQuality;shape-rendering:geometricPrecision;text-rendering:geometricPrecision" />
  <path
     class="fil2 str0"
     d="m 44.037872,131.77475 -18.603255,2.00418 c -2.052041,0.22109 -3.328801,-1.68591 -3.465427,-3.77226 l -1.175275,-17.96085 c -0.136534,-2.08636 1.529148,-4.02731 3.581738,-4.13721 l 9.503409,-0.50862 c 0.795321,-0.0426 0.962969,0.13388 1.340269,-0.60955 1.843487,-3.63436 3.174971,-5.05333 5.575394,-6.795065 -1.53537,3.404675 -1.507368,5.009225 -0.07696,6.390675 0.509533,0.49196 0.66016,0.58466 1.360768,0.55263 l 2.88177,-0.13186 c 2.052224,-0.0939 2.084893,2.89833 2.136231,4.99494 l 0.419211,17.1162 c 0.05134,2.0967 -1.425831,2.63588 -3.477872,2.85697 z"
     id="_171992168"
     style="clip-rule:evenodd;fill:#373435;fill-rule:evenodd;stroke:#373435;stroke-width:0.64570105;image-rendering:optimizeQuality;shape-rendering:geometricPrecision;text-rendering:geometricPrecision" />
  <path
     class="fil3 str0"
     d="m 125.66565,111.5184 -7.87277,17.88765 c -0.8613,1.95687 -3.02874,2.73975 -4.94178,2.08663 l -18.566652,-6.33905 c -1.91303,-0.65311 -2.98746,-2.72995 -2.18894,-4.71098 l 3.88336,-9.63336 c 0.24305,-0.60325 0.23802,-0.54157 -0.1542,-1.0101 -2.50959,-2.99808 -3.3913,-5.72346 -3.92206,-8.55298 2.37754,2.02029 5.46704,5.9753 7.35446,1.38795 l 0.846932,-2.05854 c 0.81289,-1.975538 3.58055,-1.150658 5.47025,-0.43779 l 19.01963,7.1751 c 1.88979,0.71296 1.93316,2.24869 1.07196,4.20566 z"
     id="_171993416"
     style="clip-rule:evenodd;fill:#ed3237;fill-rule:evenodd;stroke:#373435;stroke-width:0.64570105;image-rendering:optimizeQuality;shape-rendering:geometricPrecision;text-rendering:geometricPrecision" />
  <g
     transform="translate(4.8457671,16.239229)"
     id="g5160">
    <path
       style="clip-rule:evenodd;fill:#00a859;fill-rule:evenodd;stroke:#373435;stroke-width:0.64570105;image-rendering:optimizeQuality;shape-rendering:geometricPrecision;text-rendering:geometricPrecision"
       id="_171992576"
       d="m 1.4132684,56.75236 -5.389992,-16.158997 c -0.734833,-2.202943 -1.200989,-6.09838 1.841749,-7.17711 L 17.402605,26.489425 c 1.996585,-0.707836 3.061864,0.309216 3.600405,2.278348 l 2.55041,9.324963 c 0.220449,0.805936 0.14111,0.796693 0.968277,0.91575 3.848583,0.55364 6.425439,1.220571 8.559016,2.954428 -3.723946,-0.365678 -6.125192,0.422965 -7.289943,2.525886 -0.406217,0.733826 -0.171125,1.0672 0.02883,1.821342 l 0.584023,2.203308 c 0.523351,1.974165 -1.226338,2.836747 -3.205811,3.600223 L 4.8626844,59.185269 c -1.979564,0.763476 -2.805633,-0.502577 -3.449687,-2.433365 z"
       class="fil1 str0" />
    <path
       style="clip-rule:evenodd;fill:#00afef;fill-rule:evenodd;stroke:#373435;stroke-width:0.64570105;image-rendering:optimizeQuality;shape-rendering:geometricPrecision;text-rendering:geometricPrecision"
       id="_171993440"
       d="m 123.883,27.415176 16.21299,11.69784 c 1.73102,1.248942 1.93271,3.734378 0.68532,5.320354 l -13.26817,16.870038 c -1.24738,1.585976 -3.37858,2.069703 -5.12534,0.845653 l -7.97106,-5.585735 c -0.78837,-0.552451 -0.733,-0.444743 -1.56255,-0.06946 -3.38343,1.530978 -6.04054,2.041792 -8.8147,1.802674 2.58372,-1.748865 7.2053,-4.261938 3.29211,-7.310167 -1.30065,-1.013117 -2.66407,-1.019706 -1.86975,-3.127294 0.34637,-0.919044 0.98035,-1.862889 1.52439,-2.638352 l 12.55804,-17.900448 c 1.16072,-1.654425 2.60815,-1.153952 4.33908,0.09499 z"
       class="fil4 str0" />
  </g>
</svg>
