<?xml version="1.0" encoding="UTF-8" standalone="no"?>
<!-- Generator: Gravit.io -->
<svg xmlns:dc="http://purl.org/dc/elements/1.1/" xmlns:cc="http://creativecommons.org/ns#" xmlns:rdf="http://www.w3.org/1999/02/22-rdf-syntax-ns#" xmlns:svg="http://www.w3.org/2000/svg" xmlns="http://www.w3.org/2000/svg" xmlns:sodipodi="http://sodipodi.sourceforge.net/DTD/sodipodi-0.dtd" xmlns:inkscape="http://www.inkscape.org/namespaces/inkscape" style="isolation:isolate" viewBox="0 0 655 925" width="655" height="925" id="svg7641" version="1.1" inkscape:version="0.91 r13725" sodipodi:docname="basic-zombie.svg">
  <metadata id="metadata7702">
    <rdf:RDF>
      <cc:Work rdf:about="">
        <dc:format>image/svg+xml</dc:format>
        <dc:type rdf:resource="http://purl.org/dc/dcmitype/StillImage"/>
        <dc:title/>
      </cc:Work>
    </rdf:RDF>
  </metadata>
  <sodipodi:namedview pagecolor="#ffffff" bordercolor="#666666" borderopacity="1" objecttolerance="10" gridtolerance="10" guidetolerance="10" inkscape:pageopacity="0" inkscape:pageshadow="2" inkscape:window-width="1384" inkscape:window-height="883" id="namedview7700" showgrid="false" showguides="true" inkscape:guide-bbox="true" fit-margin-top="0" fit-margin-left="0" fit-margin-right="0" fit-margin-bottom="0" inkscape:zoom="0.44936771" inkscape:cx="274.17763" inkscape:cy="245.32859" inkscape:window-x="0" inkscape:window-y="0" inkscape:window-maximized="0" inkscape:current-layer="g8303"/>
  <defs id="defs7643">
    <clipPath id="_clipPath_nPXqeiYkT6lffPB98IrQKNSB6xUZizSa">
      <rect width="1000" height="1000" id="rect7646" x="0" y="0"/>
    </clipPath>
  </defs>
  <g clip-path="url(#_clipPath_nPXqeiYkT6lffPB98IrQKNSB6xUZizSa)" id="g7648" transform="translate(-218.63059,-9.3668084)">
    <g id="g8280" transform="matrix(2.2693421,0,0,2.0638886,-607.93733,-467.19406)">
      <g id="g8303" transform="translate(1.7626254,-0.96904455)">
        <g id="g8330">
          <ellipse ry="60.060963" rx="85.179886" cy="310.22729" cx="478.69559" id="path8326" style="opacity:1;fill:#cca6ca;fill-opacity:1;stroke:#c48ec8;stroke-width:6.675632;stroke-linecap:round;stroke-linejoin:round;stroke-miterlimit:3;stroke-dasharray:none;stroke-opacity:1"/>
          <path id="path7650" d="m 577.677,643.221 19.576,-17.6 c 9.452,-8.497 22.877,-8.998 29.961,-1.118 l 0,0 c 9.652,10.736 7.033,28.851 -5.844,40.427 l -0.112,0.101 c -12.877,11.577 -32.73,10.521 -44.306,-2.356 l -0.292,-0.324 c -4.998,-5.56 -4.542,-14.132 1.017,-19.13 z" inkscape:connector-curvature="0" style="fill:#b1d250"/>
          <path id="path7652" d="m 425.889,649.24 -19.576,-17.599 c -9.452,-8.497 -22.877,-8.998 -29.961,-1.118 l 0,0 c -9.652,10.736 -7.033,28.851 5.844,40.427 l 0.112,0.101 c 12.877,11.576 32.73,10.521 44.306,-2.356 l 0.292,-0.325 c 4.998,-5.559 4.542,-14.131 -1.017,-19.13 z" inkscape:connector-curvature="0" style="fill:#b1d250"/>
          <path id="path7654" d="m 382.879,619.73 100.839,-78.469 c 13.718,-10.675 32.304,-9.771 41.478,2.019 9.173,11.789 5.484,30.027 -8.235,40.702 l -104.887,81.619 c -3.511,2.732 -7.34,4.705 -11.249,5.932 l 0.022,-1.547 0.215,-15.082 -13.169,7.354 -5.148,2.875 0.102,-7.147 0.215,-15.082 -10.16,5.674 3.167,-9.159 6.81,-19.689 z" inkscape:connector-curvature="0" style="fill:#1a4d80"/>
          <path id="path7656" d="M 606.11,613.536 505.272,535.068 c -13.719,-10.675 -32.305,-9.771 -41.478,2.018 -9.174,11.789 -5.485,30.028 8.234,40.703 l 104.888,81.619 c 3.51,2.732 7.34,4.705 11.248,5.932 l -0.022,-1.548 -0.215,-15.082 13.169,7.355 5.148,2.875 -0.102,-7.148 -0.215,-15.082 10.16,5.675 -3.167,-9.159 -6.81,-19.69 z" inkscape:connector-curvature="0" style="fill:#395f99"/>
          <path id="path7658" d="m 551.274,584.083 c 6.042,-11.336 9.506,-24.52 9.506,-38.583 l 0,-98.06 c 0,-42.312 -31.352,-76.664 -69.968,-76.664 -38.617,0 -69.968,34.352 -69.968,76.664 l 0,98.06 c 0,21.447 8.054,40.848 21.027,54.768 l 23.373,-40.484 24.63,42.661 2.797,4.843 7.363,12.753 8.574,-14.85 27.426,-47.504 15.24,26.396 z" inkscape:connector-curvature="0" style="fill:#959e92"/>
          <path sodipodi:nodetypes="ssssssssssssssssssssssss" id="path7660" d="m 477.333,233.727 23.73,0 c 56.613,0 102.575,45.962 102.575,102.575 l 0,18.225 c 0,56.612 -45.962,102.574 -102.575,102.574 l -23.73,0 c -56.613,0 -102.575,-45.962 -102.575,-102.574 l 0,-18.225 c 0,-3.53831 0.17954,-7.03502 0.53,-10.4815 0.35045,-3.44648 0.87183,-6.84274 1.5555,-10.18014 0.68367,-3.33741 1.52965,-6.61597 2.52929,-9.82706 0.99965,-3.21109 2.15297,-6.35472 3.45135,-9.42225 1.29838,-3.06754 10.50542,14.02678 12.08529,11.12005 1.57987,-2.90674 -4.46743,-25.81453 -2.62331,-28.54323 1.84411,-2.7287 15.23312,29.78603 17.32424,27.25262 2.09113,-2.53342 -7.11563,-40.11497 -4.79474,-42.43586 2.3209,-2.3209 23.47636,31.62317 26.00977,29.53204 2.53342,-2.09112 -13.55522,-40.21744 -10.82652,-42.06155 2.7287,-1.84412 26.10145,26.06608 29.00819,24.48621 2.90674,-1.57987 -14.65255,-32.64981 -11.58501,-33.94819 3.06753,-1.29838 17.17155,19.1405 20.38264,18.14085 3.21109,-0.99964 -4.47074,-23.43782 -1.13333,-24.12149 3.3374,-0.68367 6.73366,-1.20505 10.18014,-1.5555 3.44648,-0.35046 6.94319,-0.53 10.4815,-0.53 z" inkscape:connector-curvature="0" style="fill:#b1d250"/>
          <g id="g8274">
            <path d="m 531.649,294.315 0,0 c 14.647,0 26.539,11.891 26.539,26.538 l 0,0 c 0,14.647 -11.892,26.539 -26.539,26.539 l 0,0 c -14.647,0 -26.538,-11.892 -26.538,-26.539 l 0,0 c 0,-14.647 11.891,-26.538 26.538,-26.538 z" id="path7662" inkscape:connector-curvature="0" style="fill:#fdf38a"/>
            <path d="m 451.342,312.315 0,0 c 14.647,0 26.538,11.891 26.538,26.538 l 0,0 c 0,14.647 -11.891,26.539 -26.538,26.539 l 0,0 c -14.647,0 -26.539,-11.892 -26.539,-26.539 l 0,0 c 0,-14.647 11.892,-26.538 26.539,-26.538 z" id="path7664" inkscape:connector-curvature="0" style="fill:#fdf38a"/>
            <path d="m 529.342,314.623 0,0 c 3.693,0 6.692,2.998 6.692,6.692 l 0,0 c 0,3.693 -2.999,6.692 -6.692,6.692 l 0,0 c -3.694,0 -6.693,-2.999 -6.693,-6.692 l 0,0 c 0,-3.694 2.999,-6.692 6.693,-6.692 z" id="path7666" inkscape:connector-curvature="0" style="fill:#000000"/>
            <path d="m 449.69,334.007 0,0 c 3.693,0 6.692,2.999 6.692,6.692 l 0,0 c 0,3.694 -2.999,6.693 -6.692,6.693 l 0,0 c -3.694,0 -6.693,-2.999 -6.693,-6.693 l 0,0 c 0,-3.693 2.999,-6.692 6.693,-6.692 z" id="path7668" inkscape:connector-curvature="0" style="fill:#000000"/>
          </g>
          <path id="path7670" d="m 474.255,377.484 63.84,-15.379 c 12.52,-3.016 25.133,4.7 28.149,17.219 l 0,0 c 3.016,12.52 -4.7,25.133 -17.219,28.15 l -63.841,15.379 c -12.52,3.016 -25.133,-4.7 -28.149,-17.22 l 0,0 c -3.016,-12.52 4.7,-25.133 17.22,-28.149 z" inkscape:connector-curvature="0" style="fill:#a0130d"/>
          <g id="g8268">
            <path d="m 491.59404,254.30455 14.617,0 c 22.716,0 42.645,12.03 53.763,30.058" vector-effect="non-scaling-stroke" stroke-miterlimit="3" id="path7672" inkscape:connector-curvature="0" style="fill:none;stroke:#000000;stroke-width:7;stroke-linecap:round;stroke-linejoin:round;stroke-miterlimit:3"/>
            <path d="m 513.89104,242.00855 0.836,0.221 c 1.224,0.324 1.955,1.581 1.631,2.806 l -4.798,18.119 c -0.324,1.225 -1.581,1.955 -2.805,1.631 l -0.836,-0.221 c -1.225,-0.324 -1.955,-1.581 -1.631,-2.806 l 4.797,-18.119 c 0.324,-1.225 1.581,-1.956 2.806,-1.631 z" id="path7674" inkscape:connector-curvature="0" style="fill:#000000"/>
            <path d="m 536.59004,249.13555 0.835,0.221 c 1.225,0.324 1.956,1.581 1.632,2.806 l -4.798,18.119 c -0.324,1.225 -1.581,1.956 -2.805,1.631 l -0.836,-0.221 c -1.225,-0.324 -1.955,-1.581 -1.631,-2.806 l 4.797,-18.119 c 0.324,-1.225 1.581,-1.956 2.806,-1.631 z" id="path7676" inkscape:connector-curvature="0" style="fill:#000000"/>
            <path d="m 558.87004,261.71855 0.738,0.45 c 1.082,0.66 1.424,2.073 0.765,3.154 l -9.758,16.004 c -0.659,1.082 -2.072,1.424 -3.154,0.765 l -0.738,-0.45 c -1.081,-0.66 -1.424,-2.073 -0.765,-3.154 l 9.758,-16.004 c 0.659,-1.082 2.073,-1.424 3.154,-0.765 z" id="path7678" inkscape:connector-curvature="0" style="fill:#000000"/>
          </g>
          <path id="path7686" d="m 384.9844,340.15193 0,0 c 11.454,0 20.752,9.299 20.752,20.752 l 0,13.674 c 0,11.453 -9.298,20.752 -20.752,20.752 l 0,0 c -11.453,0 -20.752,-9.299 -20.752,-20.752 l 0,-13.674 c 0,-11.453 9.299,-20.752 20.752,-20.752 z" inkscape:connector-curvature="0" style="fill:#b1d250"/>
          <path id="path7688" d="m 560.78,508.254 53.795,0 c 19.319,0 35.004,-12.599 35.004,-28.118 0,-15.519 -15.685,-28.118 -35.004,-28.118 l -53.795,0 0,56.236 z" inkscape:connector-curvature="0" style="fill:#85a740"/>
          <path id="path7690" d="m 592.461,306.418 0,0 c 11.454,0 20.752,9.299 20.752,20.752 l 0,13.674 c 0,11.453 -9.298,20.752 -20.752,20.752 l 0,0 c -11.453,0 -20.752,-9.299 -20.752,-20.752 l 0,-13.674 c 0,-11.453 9.299,-20.752 20.752,-20.752 z" inkscape:connector-curvature="0" style="fill:#b1d250"/>
          <path id="path7698" d="m 551.097,516.519 60.433,0 c 19.319,0 35.004,-12.599 35.004,-28.117 0,-15.519 -15.685,-28.118 -35.004,-28.118 l -56.805,0 0.015,0.006 -17.321,7.135 -8.269,3.406 5.269,2.17 17.321,7.135 -17.321,7.135 -3.028,1.247 6.028,2.483 17.321,7.135 -17.321,7.135 -6.815,2.807 10.507,4.328 9.986,4.113 z" inkscape:connector-curvature="0" style="fill:#b1d250"/>
          <path sodipodi:nodetypes="cccccccccccccccccccc" inkscape:connector-curvature="0" id="path8328" d="m 532.81249,411.40935 21.4641,-5.52359 -4.11015,6.02574 2.28341,5.52358 -1.37005,5.02144 3.23024,11.84334 -5.51365,-0.79616 -0.91336,-5.52359 -2.7401,-2.00858 -0.45668,-5.52358 -0.91337,-1.50643 -5.1461,5.90328 0.91337,3.51501 -2.7401,1.50643 -0.45668,-7.03002 -3.98756,-5.90328 -3.02973,4.02948 -0.802,-5.37668 -0.51237,-2.89042 z" style="fill:#d8e5ac;fill-opacity:1;fill-rule:evenodd;stroke:none;stroke-width:0.46206906px;stroke-linecap:butt;stroke-linejoin:miter;stroke-opacity:1"/>
        </g>
      </g>
    </g>
  </g>
</svg>