<?xml version="1.0" encoding="UTF-8" standalone="no"?>
<!-- Created with Inkscape (http://www.inkscape.org/) -->
<svg xmlns:dc="http://purl.org/dc/elements/1.1/" xmlns:cc="http://creativecommons.org/ns#" xmlns:rdf="http://www.w3.org/1999/02/22-rdf-syntax-ns#" xmlns:svg="http://www.w3.org/2000/svg" xmlns="http://www.w3.org/2000/svg" xmlns:sodipodi="http://sodipodi.sourceforge.net/DTD/sodipodi-0.dtd" xmlns:inkscape="http://www.inkscape.org/namespaces/inkscape" width="247.74695mm" height="169.50259mm" viewBox="0 0 877.84352 600.59974" id="svg2" version="1.1" inkscape:version="0.91 r13725" sodipodi:docname="silhouette-runner-blocks.svg" inkscape:export-filename="/home/algot/Documents/runeman.org/clipart/silhouette-runner-blocks.png" inkscape:export-xdpi="61.519459" inkscape:export-ydpi="61.519459">
  <title id="title3397">Runner Leaving Blocks</title>
  <defs id="defs4"/>
  <sodipodi:namedview id="base" pagecolor="#ffffff" bordercolor="#666666" borderopacity="1.0" inkscape:pageopacity="0.0" inkscape:pageshadow="2" inkscape:zoom="0.38554688" inkscape:cx="1004.6706" inkscape:cy="481.99298" inkscape:document-units="px" inkscape:current-layer="layer1" showgrid="false" fit-margin-top="0" fit-margin-left="0" fit-margin-right="0" fit-margin-bottom="0" inkscape:window-width="1366" inkscape:window-height="712" inkscape:window-x="0" inkscape:window-y="0" inkscape:window-maximized="1">
    <inkscape:grid type="xygrid" id="grid3376"/>
  </sodipodi:namedview>
  <metadata id="metadata7">
    <rdf:RDF>
      <cc:Work rdf:about="">
        <dc:format>image/svg+xml</dc:format>
        <dc:type rdf:resource="http://purl.org/dc/dcmitype/StillImage"/>
        <dc:title>Runner Leaving Blocks</dc:title>
        <dc:date>2016-09-05</dc:date>
        <dc:creator>
          <cc:Agent>
            <dc:title>Algot Runeman</dc:title>
          </cc:Agent>
        </dc:creator>
        <dc:rights>
          <cc:Agent>
            <dc:title>Algot Runeman</dc:title>
          </cc:Agent>
        </dc:rights>
        <dc:publisher>
          <cc:Agent>
            <dc:title>runeman.org</dc:title>
          </cc:Agent>
        </dc:publisher>
        <dc:identifier>silhouette-runner-blocks.svg</dc:identifier>
        <cc:license rdf:resource="http://creativecommons.org/publicdomain/zero/1.0/"/>
      </cc:Work>
      <cc:License rdf:about="http://creativecommons.org/publicdomain/zero/1.0/">
        <cc:permits rdf:resource="http://creativecommons.org/ns#Reproduction"/>
        <cc:permits rdf:resource="http://creativecommons.org/ns#Distribution"/>
        <cc:permits rdf:resource="http://creativecommons.org/ns#DerivativeWorks"/>
      </cc:License>
    </rdf:RDF>
  </metadata>
  <g inkscape:label="Layer 1" inkscape:groupmode="layer" id="layer1" transform="translate(18.656029,-576.771)">
    <g id="g3365" transform="matrix(0.49018743,0,0,0.49018743,438.02458,600.2384)">
      <path sodipodi:nodetypes="ccccc" inkscape:connector-curvature="0" id="path3347" d="m -539.49341,1169.0795 -2.59372,-41.4995 -389.05775,12.9686 0,36.3121 z" style="fill:#000000;fill-rule:evenodd;stroke:#000000;stroke-width:1px;stroke-linecap:butt;stroke-linejoin:miter;stroke-opacity:1"/>
      <path sodipodi:nodetypes="ccccccc" inkscape:connector-curvature="0" id="path3349" d="m -671.77305,1135.3612 -51.87437,-75.2178 -18.15602,-12.9686 -31.12462,36.312 -15.56231,88.1864 140.06079,0 z" style="fill:#000000;fill-rule:evenodd;stroke:#000000;stroke-width:1px;stroke-linecap:butt;stroke-linejoin:miter;stroke-opacity:1"/>
      <path sodipodi:nodetypes="ccccccccccccccc" inkscape:connector-curvature="0" id="path3351" d="m -687.33536,1109.424 15.56231,-70.0304 0,-46.68692 -5.18744,-31.12462 7.78116,-25.93718 10.37487,-7.78116 31.12462,-10.37487 36.31206,-2.59372 41.49949,93.37387 -20.74974,15.5623 -10.37488,25.9372 -33.71834,70.0304 0,38.9058 c -10.47566,14.9933 -26.63186,4.4242 -41.76017,-1.5194 z" style="fill:#000000;fill-rule:evenodd;stroke:#000000;stroke-width:1px;stroke-linecap:butt;stroke-linejoin:miter;stroke-opacity:1"/>
      <path sodipodi:nodetypes="csccccccccccccccccccccccccscccscccccccccc" inkscape:connector-curvature="0" id="path3353" d="m -593.9615,917.48885 c 0,0 32.65991,-17.30242 54.46809,-41.22908 12.66782,-13.89838 36.31205,-39.17619 36.31205,-39.17619 l 20.74975,-23.34346 29.13325,-29.60526 17.55368,-27.45655 10.37487,-7.78115 36.31206,-18.15603 36.31206,-20.74975 54.46808,-23.34346 38.90578,-31.12462 46.68693,-59.65552 20.74974,-23.34347 38.90578,-31.12462 67.436675,-38.90577 15.56231,-57.06181 15.56231,-28.5309 23.343465,-28.5309 28.5309017,-20.74975 23.3434653,-7.78115 51.874366,-5.18744 7.781155,259.37184 -33.718338,0 -31.12462,18.15602 -49.280648,33.71834 -62.24924,41.4995 c 0,0 -30.884122,21.80129 -47.918622,29.76259 -9.54689,4.46186 -30.02327,9.90286 -30.02327,9.90286 l -20.46207,6.41913 -15.71965,16.16466 c 0,0 -22.83826,17.17158 -36.31205,20.74974 -5.01366,1.33145 -15.56231,0 -15.56231,0 l -33.71834,18.15603 -33.71834,28.5309 -38.90577,28.5309 -62.24924,31.12462 -44.09322,33.71835 -41.49949,25.93718 -18.15603,20.74974 -33.71834,28.53093 z" style="fill:#000000;fill-rule:evenodd;stroke:#000000;stroke-width:1px;stroke-linecap:butt;stroke-linejoin:miter;stroke-opacity:1"/>
      <path sodipodi:nodetypes="ccccscccccccccccccccccccscccccscccccccccsssccccc" inkscape:connector-curvature="0" id="path3355" d="m 54.468085,357.24569 67.436675,31.12462 88.18643,101.15502 57.0618,64.84295 c 0,0 31.96444,21.63474 44.09321,36.31206 13.80148,16.70151 31.12462,57.0618 31.12462,57.0618 l 10.37487,15.56231 20.90708,49.28065 17.9987,31.12462 2.59372,33.71834 -10.37488,31.12462 -28.5309,20.74975 -28.5309,5.18743 -25.93718,7.78116 -38.90578,10.37487 -42.25917,8.85551 -47.13194,6.86413 -49.43798,0.91702 -45.32491,1.51937 -57.061803,15.56231 -10.374874,7.78116 -5.1874363,20.74974 -7.781155,36.31206 0,38.90577 c 0,0 17.5761773,25.95654 17.5266863,40.73974 -0.01989,5.9401 -7.151813,16.3221 -7.151813,16.3221 L 0,1060.1434 l -12.968592,0 -41.499493,-38.9058 -21.064417,-57.06182 c 0,0 -8.604913,-30.68565 -17.239011,-43.77854 -6.850269,-10.38787 -26.539527,-26.25185 -26.539527,-26.25185 l -7.78116,-20.74975 -7.78115,-25.93718 15.56231,-10.37488 41.49949,-20.74974 18.156028,-10.37488 0,15.56231 41.499494,-7.78115 77.81155,-23.34347 c 0,0 35.534114,-11.815 51.874368,-20.74974 6.52553,-3.56812 11.73318,-9.2188 18.15603,-12.9686 12.35911,-7.21551 25.2375,-13.91463 38.90577,-18.15602 15.06817,-4.6758 46.68693,-7.78116 46.68693,-7.78116 L 150.43566,697.02279 88.186423,655.5233 25.937183,575.11803 Z" style="fill:#000000;fill-rule:evenodd;stroke:#000000;stroke-width:1px;stroke-linecap:butt;stroke-linejoin:miter;stroke-opacity:1"/>
      <path sodipodi:nodetypes="cccccccccccccccccccc" inkscape:connector-curvature="0" id="path3357" d="m 168.59169,492.11904 54.46809,-18.15602 41.49949,-20.74975 54.46809,-18.15603 23.34346,-5.18744 41.49949,-23.34346 38.1461,-6.7068 50.19766,-18.31336 36.15472,-24.86284 41.4995,-33.11599 -7.78116,-145.24822 -184.154,-38.90578 -23.34346,31.12462 -36.31206,15.56231 -28.5309,20.74975 -44.09321,33.71834 -46.68693,36.31205 -64.84296,46.68693 -62.249243,41.4995 z" style="fill:#000000;fill-rule:evenodd;stroke:#000000;stroke-width:1px;stroke-linecap:butt;stroke-linejoin:miter;stroke-opacity:1"/>
      <path sodipodi:nodetypes="ccccccsccccccsccccccccccccccccsscccccccscccc" inkscape:connector-curvature="0" id="path3359" d="m 510.96251,326.12107 3.01174,29.99628 33.30032,58.19014 23.34346,33.71834 23.34347,49.28065 38.90577,31.12462 c 0,0 19.36352,11.40499 28.53091,7.78116 12.27303,-4.85148 20.74974,-33.71834 20.74974,-33.71834 l 25.93719,-41.4995 25.93718,-49.28064 20.74975,-41.4995 7.78115,-31.12462 15.56231,-18.15603 c 0,0 25.45277,-10.14751 35.63197,-20.74974 5.49219,-5.72044 13.6058,-21.42984 13.6058,-21.42984 l 18.19891,-30.44453 c -0.91877,-6.75776 -5.64958,-6.84444 -11.52266,-4.93216 l 21.89753,-21.00502 2.59372,-12.96859 c -4.36595,-11.20742 -12.76945,5.84798 -19.34669,10.11959 l -18.32555,10.11959 16.92249,-22.8329 15.56231,-25.93719 c 0.69817,-7.32675 -3.34109,-6.36298 -7.52587,-5.14456 l -34.82325,39.20196 13.81822,-49.61971 c -0.75774,-8.50127 -4.82779,-8.39054 -11.82081,-0.68009 -4.69136,11.24079 -10.66996,31.49229 -14.0735,33.71834 l -5.698,4.88928 -15.3499,13.43627 c 0,0 -15.99308,6.95733 -20.70687,13.77732 -7.44984,10.77855 -5.60312,28.98538 -8.80229,38.30946 -4.20878,12.26664 -6.54762,31.42278 -6.54762,31.42278 l -10.37487,5.18743 -33.71834,54.46809 -20.74974,25.93718 -15.56231,15.56231 -5.18744,12.96859 -10.37487,-5.18743 c 0,0 -3.0735,-32.5153 -10.37488,-46.68693 -5.32727,-10.33998 -23.34346,-25.93719 -23.34346,-25.93719 l -2.59372,-31.12462 -7.78116,-31.12462 z" style="fill:#000000;fill-rule:evenodd;stroke:#000000;stroke-width:1px;stroke-linecap:butt;stroke-linejoin:miter;stroke-opacity:1"/>
      <path sodipodi:nodetypes="cscscscssccsccccssssssssccc" inkscape:connector-curvature="0" id="path3361" d="m 539.54278,306.78734 c 0,0 55.85157,-4.57998 75.16847,-22.16576 3.44285,-3.13431 5.18743,-12.96859 5.18743,-12.96859 0,0 11.5496,5.99299 15.56231,2.59371 1.97906,-1.67651 0,-7.78115 0,-7.78115 0,0 5.52411,1.27792 7.78116,0 4.38692,-2.48383 7.78115,-12.96859 7.78115,-12.96859 0,0 5.49642,10.02817 10.37488,10.37487 4.31199,0.30644 8.07004,-4.12398 10.37487,-7.78115 4.70095,-7.4592 5.18744,-25.93719 5.18744,-25.93719 l 7.78115,-15.56231 c 0,0 13.543,-5.14931 18.15603,-10.37487 7.43829,-8.42597 12.96859,-31.12462 12.96859,-31.12462 l 7.78116,-2.59372 12.96859,7.78116 5.18743,-23.34347 c 0,0 -1.61272,-22.92313 -5.18743,-33.71834 C 731.38821,105.42998 724.60296,89.297502 713.27254,77.12411 702.15855,65.183247 685.87844,59.381003 671.77305,51.186927 660.7351,44.774783 650.01821,37.483599 638.05471,33.030898 c -7.47033,-2.780383 -15.37425,-5.354549 -23.34346,-5.187436 -13.41883,0.28139 -27.44094,3.396225 -38.90578,10.374873 -10.97882,6.682806 -16.84888,19.442601 -25.93718,28.530902 -9.0883,9.088301 -21.0741,15.468631 -28.5309,25.937183 -7.64012,10.72592 -15.56231,36.31206 -15.56231,36.31206 l -5.18744,31.12462 z" style="fill:#000000;fill-rule:evenodd;stroke:#000000;stroke-width:1px;stroke-linecap:butt;stroke-linejoin:miter;stroke-opacity:1"/>
      <path sodipodi:nodetypes="cccccscccccccccccsccccccccsccccccccccscccccccsccccccccccccc" inkscape:connector-curvature="0" id="path3363" d="M 531.86802,200.11922 500.58764,123.81104 479.83789,103.06129 461.68186,92.68642 446.11955,66.749237 c 0,0 -7.75337,-14.478563 -12.96859,-20.749747 -8.99913,-10.821251 -31.12462,-28.530902 -31.12462,-28.530902 l -46.68693,-36.312056 -28.5309,-28.530902 -23.34346,0 -38.90578,5.187436 -44.09321,5.187437 -23.34347,5.187437 -36.31205,10.374873 L 111.52989,1.9062782 90.780142,12.281152 72.624113,14.87487 c 0,0 -3.543717,-9.2300166 -7.781155,-8.3748734 L 23.343465,14.87487 -2.5937183,7.0937149 -28.530902,-5.8748768 l -10.374873,0 L -41.499493,7.0937149 2.5937183,30.43718 5.1874367,35.624617 -51.874367,22.656025 c 0,0 -15.372729,1.902125 -16.951334,7.938491 -1.328711,5.080805 9.170179,12.811256 9.170179,12.811256 l 57.0618037,15.56231 0,2.593718 -62.2492397,31.12462 -2.593719,10.37487 10.374874,5.18744 54.4680847,-18.156028 -7.7811547,2.593718 -23.343465,20.74975 -17.553682,17.39635 c 0,0 1.11567,8.91224 4.58509,10.5322 4.900063,2.28796 15.56231,-4.58509 15.56231,-4.58509 l 23.343465,-12.96859 28.530902,-23.34346 23.343465,0 -10.374874,15.56231 -10.374873,15.56231 0,12.96859 c 0,0 3.984588,17.25451 10.97722,18.02568 5.905991,0.65133 12.366245,-12.83825 12.366245,-12.83825 L 49.280648,134.18591 77.81155,105.65501 88.186423,74.530392 139.45844,59.8851 184.154,52.575951 l 36.31206,-1.389024 51.87437,-3.196065 34.79269,-2.279048 9.30052,26.224859 44.09321,64.842957 57.0618,72.62412 z" style="fill:#000000;fill-rule:evenodd;stroke:#000000;stroke-width:1px;stroke-linecap:butt;stroke-linejoin:miter;stroke-opacity:1"/>
    </g>
  </g>
</svg>