<?xml version="1.0" encoding="UTF-8"?>
<!DOCTYPE svg PUBLIC "-//W3C//DTD SVG 1.1//EN" "http://www.w3.org/Graphics/SVG/1.1/DTD/svg11.dtd">
<svg version="1.1" xmlns="http://www.w3.org/2000/svg" xmlns:xlink="http://www.w3.org/1999/xlink" x="0" y="0" width="327" height="556" viewBox="0, 0, 327, 556">
  <g id="Layer_1">
    <path d="M32.31,167.322 C31.958,166.658 31.519,166.043 31.021,165.437 C24.575,157.928 14.8,157.811 7.544,164.519 C-6.812,177.82 6.265,204.783 25.688,196.561 C28.677,202.488 38.188,201.6 41.353,196.189 C45.825,188.562 37.192,182.361 35.181,175.721 C34.302,172.869 33.774,169.891 32.31,167.322" fill="#F5BF92"/>
    <path d="M113.638,189.803 L94.146,201.99 L37.407,170.672 L23.813,202.469 C33.228,208.504 94.927,246.941 104.761,240.75 L136.089,223.641 L113.638,189.803" fill="#9A886D"/>
    <path d="M168.081,18.123 C193.208,0.555 223.042,21.121 225.825,47.479 C227.485,63.28 219.849,75.105 219.624,89.695 C219.36,106.756 220.435,119.383 233.306,131.648 C212.036,133.348 192.935,106.375 189.78,88.797 C187.407,75.535 191.343,60.819 183.608,48.895 C175.845,36.903 168.364,35.555 168.11,20.194" fill="#3B291C"/>
    <path d="M178.657,23.133 C184.946,18.387 194.653,27.108 198.071,31.151 C203.403,37.469 205.845,44.803 206.177,52.801 C206.606,63.065 204.927,73.23 206.353,83.309 C207.681,92.566 210.239,104.637 217.319,111.717 C210.942,106.853 207.036,101.531 204.751,94.129 C202.319,86.258 202.915,76.551 202.554,67.937 C202.173,58.748 200.962,50.682 197.583,42.362 C195.942,38.309 193.892,34.539 190.562,31.59 C187.407,28.807 182.661,29.559 179.341,26.785 C179.048,26.834 178.774,26.776 178.501,26.639 C177.954,25.477 177.593,24.481 177.72,23.221 C178.892,22.576 180.005,22.332 181.47,22.362" fill="#281C11"/>
    <path d="M160.063,149.207 C154.81,147.068 148.599,136.697 155.093,131.277 C157.554,129.227 149.761,109.959 147.3,101.766 L137.192,106.394 L137.095,106.375 L136.265,106.258 L136.157,106.238 C136.157,106.238 113.569,115.252 112.495,115.691 C109.868,116.766 123.989,139.969 123.423,142.781 C121.899,150.467 108.501,154.715 111.021,163.836 C112.876,170.603 122.427,170.154 128.042,170.965 C138.804,172.566 149.517,174.383 160.259,176.072 L164.146,151.463 C162.974,150.613 161.626,149.852 160.063,149.207" fill="#F5BF92"/>
    <path d="M113.677,151.297 L159.585,148.348 L144.058,192.918 L98.257,192.889 L113.677,151.297" fill="#FFFFFE"/>
    <path d="M113.677,151.297 L159.585,148.348 L144.058,192.918 L98.257,192.889 L113.677,151.297 z" fill-opacity="0" stroke="#8A8B8A" stroke-width="2.885" stroke-linecap="round" stroke-linejoin="round"/>
    <path d="M168.657,90.301 C169.36,87.82 170.034,85.398 170.239,82.635 C170.815,74.676 170.591,66.629 169.165,58.768 C166.392,43.26 157.954,28.084 141.05,25.545 C133.892,24.461 126.47,23.006 119.409,23.875 C114.829,24.461 110.747,25.926 106.587,27.83 C103.335,29.325 99.897,29.569 96.753,30.975 C90.161,33.963 86.235,43.075 83.853,49.412 C82.622,52.674 82.114,53.866 81.304,57.147 C79.282,65.379 80.63,74.432 77.28,82.361 C75.942,85.564 72.446,90.887 71.646,94.061 C74.79,96.336 77.759,93.894 79.692,97.488 C83.169,103.855 85.767,115.193 91.333,120.271 C104.614,132.43 133.188,128.963 147.856,121.316 C158.403,115.818 164.849,105.154 167.583,94.178 C167.915,92.84 168.286,91.561 168.657,90.301" fill="#F5BF92"/>
    <path d="M89.478,63.114 C92.769,60.741 98.599,60.614 100.942,66.521" fill-opacity="0" stroke="#281C11" stroke-width="2.443" stroke-linecap="round" stroke-linejoin="round"/>
    <path d="M96.987,78.934 C96.577,81.248 94.419,82.791 92.212,82.4 C89.995,82 88.55,79.793 88.97,77.508 C89.38,75.193 91.499,73.631 93.726,74.041 C95.923,74.432 97.407,76.629 96.987,78.934" fill="#1A1919"/>
    <path d="M224.849,313.123 C227.446,311.844 195.435,293.787 187.876,255.144 C185.854,244.812 184.048,221.209 183.677,210.613 C182.896,187.508 188.296,167.937 176.978,147.176 C175.112,143.768 172.583,141.023 170.396,137.977 C167.622,134.168 164.819,130.223 161.489,126.873 C155.854,121.248 154.634,121.971 150.474,128.68 C142.251,141.951 133.13,154.754 122.935,166.59 C116.997,173.475 110.688,180.125 103.716,185.984 C102.817,186.727 96.88,190.193 96.685,191.316 C96.685,191.316 94.673,223.592 104.761,269.461 C109.126,289.266 97.427,311.658 95.591,334.598 C95.591,334.598 149.224,350.076 224.849,313.123" fill="#9A886D"/>
    <path d="M149.399,120.945 C148.169,117.078 148.101,112.889 146.196,109.207 C145.308,107.469 143.989,106.111 143.169,104.422 C142.212,102.4 142.427,100.359 140.747,98.572 C116.392,72.654 102.876,44.217 100.884,37.264 C99.829,33.534 80.923,57.489 81.011,53.485 C81.86,12.078 122.847,0.096 137.192,1.385 C148.208,2.381 165.317,5.877 173.423,12.889 C181.743,20.076 191.743,38.924 194.8,49.784 C199.966,68.084 187.427,88.68 175.337,103.504 C168.911,111.385 159.37,118.924 149.614,121.59 C149.546,121.375 149.478,121.16 149.399,120.945" fill="#3B291C"/>
    <path d="M133.188,89.441 C131.079,95.906 136.411,104.832 146.392,101.404 C157.935,97.43 158.081,80.906 146.577,80.682 C141.05,80.594 134.272,86.072 133.188,89.441" fill="#F5BF92"/>
    <path d="M157.075,83.758 C157.505,83.064 144.38,73.338 138.774,68.611 C132.554,63.407 127.583,57.469 121.714,50.233 C117.935,45.575 107.065,26.854 106.274,26.922 C105.454,27 110.034,40.819 119.438,52.088 C125.532,59.334 130.493,65.477 136.899,70.848 C142.612,75.643 156.685,84.353 157.075,83.758" fill="#281C11"/>
    <path d="M157.798,80.398 C158.013,80.477 158.257,80.525 158.481,80.486 C159.302,80.408 157.974,63.241 141.353,42.664 C129.526,28.045 114.751,23.338 114.419,24.09 C114.067,24.813 128.784,33.621 137.192,43.7 C145.913,54.149 157.319,80.193 157.798,80.398" fill="#281C11"/>
    <path d="M121.323,396.502 C116.724,395.457 110.063,394.314 106.157,399.207 C101.606,404.881 79.575,506.99 72.837,525.359 C66.372,527.381 52.212,533.719 45.591,535.223 C39.868,536.502 41.245,543.465 41.685,548.484 C42.153,553.68 48.423,553.768 53.188,553.045 C57.446,552.4 61.606,551.717 65.63,550.34 C71.372,548.387 77.212,545.603 82.505,542.752 C87.036,540.301 88.53,537.898 90.2,533.338 C95.562,518.719 136.294,423.728 138.188,411.941 C139.438,404.041 128.042,398.045 121.323,396.502" fill="#F3B890"/>
    <path d="M92.876,529.705 L53.657,541.873 C53.657,541.873 47.593,538.094 47.7,532.83 C47.7,532.83 25.396,537.713 34.966,550.574 C34.966,550.574 45.083,556.57 59.36,552.84 C59.36,552.84 75.513,546.58 80.542,544.871 L78.091,552.215 L84.966,553.963 C84.966,553.963 92.729,533.094 92.876,529.705" fill="#1A1919"/>
    <path d="M210.181,432.283 C211.362,436.326 215.259,441.16 217.876,442.537 C223.774,445.662 277.192,420.799 280.767,423.943 C285.845,428.416 301.782,434.91 306.528,439.764 C310.62,443.973 315.835,439.168 319.878,436.17 C324.067,433.055 320.864,427.674 317.759,423.973 C315.005,420.682 312.231,417.498 308.97,414.783 C304.302,410.896 298.882,407.371 293.696,404.344 C289.224,401.756 286.392,401.736 281.636,402.703 C266.372,405.75 249.946,409.744 234.692,412.791 C229.722,413.807 206.782,410.223 203.755,414.305 C201.782,417 208.823,427.654 210.181,432.283" fill="#F6C6A0"/>
    <path d="M277.144,402.322 L307.993,429.412 C307.993,429.412 307.954,436.551 303.374,439.217 C303.374,439.217 319.194,455.691 325.171,440.809 C325.171,440.809 325.005,429.051 314.38,418.826 C314.38,418.826 300.61,408.299 296.528,404.9 L304.048,403.182 L301.958,396.404 C301.958,396.404 280.112,400.682 277.144,402.322" fill="#1A1919"/>
    <path d="M94.263,423.084 C111.45,370.154 111.118,311.15 111.118,311.15 L154.653,311.15 L194.565,306.346 C194.565,306.346 209.536,337.908 217.017,368.533 C221.235,385.779 236.401,399.881 240.239,411.795 C188.54,422.713 144.126,433.201 94.263,423.084" fill="#9A886D"/>
    <path d="M83.706,101.385 C83.706,101.385 94.438,96.844 99.233,110.682 C99.233,110.682 92.017,113.689 88.511,114.344 L83.706,101.385" fill="#E57266"/>
    <path d="M289.204,281.541 C289.204,281.541 276.646,256.932 251.372,265.594 C225.835,273.416 230.122,300.711 230.122,300.711" fill-opacity="0" stroke="#A3A3A2" stroke-width="6.479" stroke-linecap="round" stroke-linejoin="round"/>
    <path d="M314.087,326.141 C314.595,327.312 313.872,328.65 312.485,329.109 L239.165,352.889 C237.759,353.348 236.401,352.693 236.128,351.443 L225.239,302.059 C224.985,300.809 225.903,299.422 227.29,298.973 L290.425,278.475 C291.821,278.025 293.394,278.621 293.901,279.764 L314.087,326.141" fill="#1A1919"/>
    <path d="M233.325,265.33 C235.386,277.82 256.333,281.141 262.622,270.603 C269.263,259.471 265.122,243.758 250.786,242.898 C250.747,236.453 242.095,233.152 236.997,236.482 C230.825,240.535 233.755,247.967 233.735,253.963 C233.735,258.338 232.778,261.922 233.325,265.33" fill="#F5BF92"/>
    <path d="M163.872,134.295 C176.606,137.693 235.962,174.451 239.712,180.769 C246.313,191.873 261.431,229.988 265.093,243.758 L231.147,257.518 L212.798,204.012 L147.583,183.836 L163.872,134.295" fill="#9A886D"/>
    <path d="M160.054,128.523 L162.407,153.035 L143.56,154.51 C143.149,154.539 142.798,154.773 142.593,155.125 C142.388,155.477 142.388,155.906 142.573,156.277 L148.364,167.674 C138.589,176.512 97.134,191.15 96.685,191.316 C96.685,191.316 96.548,193.777 96.782,193.689 C98.657,193.055 141.919,177.908 150.728,168.758 C151.079,168.377 151.177,167.83 150.942,167.371 L145.562,156.775 L163.823,155.34 C164.165,155.32 164.458,155.154 164.653,154.91 C164.868,154.666 164.966,154.344 164.946,154.012 L162.808,130.418" fill="#786A5A"/>
    <path d="M250.649,94.715 C247.271,91.297 243.228,89.148 238.618,86.287 C238.843,86.424 245.562,83.738 246.431,83.572 C249.644,83.006 253.032,82.811 256.255,83.396 C258.833,83.836 261.724,84.812 263.14,87.176 C265.005,90.281 263.677,94.314 261.138,96.531 C257.974,99.285 253.247,97.342 250.649,94.715" fill="#6BC5DA"/>
    <path d="M260.142,67.615 C253.091,67.107 246.558,68.631 238.696,69.92 C239.067,69.871 243.911,60.399 244.722,59.383 C247.72,55.643 251.294,52.157 255.415,49.657 C258.696,47.684 262.837,45.994 266.685,47.215 C271.743,48.866 274.185,54.598 273.501,59.5 C272.661,65.575 265.581,68.025 260.142,67.615" fill="#6BC5DA"/>
  </g>
</svg>